<svg width="1488" height="1006" viewBox="0 0 1488 1006" fill="none" xmlns="http://www.w3.org/2000/svg">
<path d="M214.667 804.758C340.616 804.758 364.732 804.758 480.182 804.758" stroke="#A2E3DC" stroke-width="8.63773" stroke-linecap="round"/>
<path d="M214.667 848.334C330.117 848.334 354.233 934.069 480.182 934.069" stroke="#A2E3DC" stroke-width="8.63773" stroke-linecap="round"/>
<path d="M480.182 976.748C364.732 976.748 340.616 976.748 214.667 976.748" stroke="#A2E3C4" stroke-width="8.63773" stroke-linecap="round"/>
<path d="M480.182 848.334C354.233 848.334 330.117 934.069 214.667 934.069" stroke="#A2E3C4" stroke-width="8.63773" stroke-linecap="round"/>
<path d="M214.667 546.047C340.616 546.047 364.732 546.047 480.182 546.047" stroke="#C1DAFF" stroke-width="8.63773" stroke-linecap="round"/>
<path d="M214.667 589.623C330.117 589.623 354.233 675.358 480.182 675.358" stroke="#C1DAFF" stroke-width="8.63773" stroke-linecap="round"/>
<path d="M480.182 718.037C364.732 718.037 340.616 718.036 214.667 718.036" stroke="#BEE6EF" stroke-width="8.63773" stroke-linecap="round"/>
<path d="M480.182 589.623C354.233 589.623 330.117 675.358 214.667 675.358" stroke="#BEE6EF" stroke-width="8.63773" stroke-linecap="round"/>
<path d="M214.667 287.602C340.616 287.602 364.732 287.602 480.182 287.602" stroke="#CAC1FF" stroke-width="8.63773" stroke-linecap="round"/>
<path d="M214.667 331.178C330.117 331.178 354.233 417.765 480.182 417.765" stroke="#CAC1FF" stroke-width="8.63773" stroke-linecap="round"/>
<path d="M480.182 459.592C364.732 459.592 340.616 459.592 214.667 459.592" stroke="#C1CBFF" stroke-width="8.63773" stroke-linecap="round"/>
<path d="M480.182 331.179C354.233 331.179 330.117 417.764 214.667 417.764" stroke="#C1CBFF" stroke-width="8.63773" stroke-linecap="round"/>
<path d="M214.667 28.8912C340.616 28.8912 364.732 28.8907 480.182 28.8912" stroke="#E4C1FF" stroke-width="8.63773" stroke-linecap="round"/>
<path d="M214.667 72.4669C330.117 72.4669 354.233 158.202 480.182 158.202" stroke="#E4C1FF" stroke-width="8.63773" stroke-linecap="round"/>
<path d="M480.182 200.881C364.732 200.881 340.616 200.881 214.667 200.881" stroke="#D8C1FF" stroke-width="8.63773" stroke-linecap="round"/>
<path d="M480.182 72.4673C354.233 72.4673 330.117 158.203 214.667 158.203" stroke="#D8C1FF" stroke-width="8.63773" stroke-linecap="round"/>
<path d="M11.3215 804.758C35.0935 804.758 39.6452 804.758 61.4357 804.758" stroke="#A2E3DC" stroke-width="8.63773" stroke-linecap="round"/>
<path d="M11.3215 848.334C35.0935 848.334 39.6452 848.333 61.4357 848.334" stroke="#A2E3DC" stroke-width="8.63773" stroke-linecap="round"/>
<path d="M61.4357 976.748C39.6453 976.748 35.0935 976.748 11.3215 976.748" stroke="#A2E3C4" stroke-width="8.63773" stroke-linecap="round"/>
<path d="M61.4357 934.069C39.6453 934.069 35.0935 934.069 11.3215 934.069" stroke="#A2E3C4" stroke-width="8.63773" stroke-linecap="round"/>
<path d="M11.3215 546.047C35.0935 546.047 39.6452 546.047 61.4357 546.047" stroke="#C1DAFF" stroke-width="8.63773" stroke-linecap="round"/>
<path d="M11.3215 589.623C35.0935 589.623 39.6452 589.623 61.4357 589.623" stroke="#C1DAFF" stroke-width="8.63773" stroke-linecap="round"/>
<path d="M61.4357 718.037C39.6453 718.037 35.0935 718.036 11.3215 718.036" stroke="#BEE6EF" stroke-width="8.63773" stroke-linecap="round"/>
<path d="M61.4357 675.358C39.6453 675.358 35.0935 675.358 11.3215 675.358" stroke="#BEE6EF" stroke-width="8.63773" stroke-linecap="round"/>
<path d="M11.3215 287.602C35.0935 287.602 39.6452 287.602 61.4357 287.602" stroke="#CAC1FF" stroke-width="8.63773" stroke-linecap="round"/>
<path d="M11.3215 331.179C35.0935 331.179 39.6452 331.179 61.4357 331.179" stroke="#CAC1FF" stroke-width="8.63773" stroke-linecap="round"/>
<path d="M61.4357 459.592C39.6453 459.592 35.0935 459.592 11.3215 459.592" stroke="#C1CBFF" stroke-width="8.63773" stroke-linecap="round"/>
<path d="M61.4357 417.764C39.6453 417.765 35.0935 417.764 11.3215 417.764" stroke="#C1CBFF" stroke-width="8.63773" stroke-linecap="round"/>
<path d="M11.3215 28.8912C35.0935 28.8912 39.6452 28.8907 61.4357 28.8912" stroke="#E4C1FF" stroke-width="8.63773" stroke-linecap="round"/>
<path d="M62.9941 28.8912C86.7661 28.8912 192.117 28.8907 213.907 28.8912" stroke="#E4C1FF" stroke-width="8.63773" stroke-linecap="round"/>
<path d="M62.9941 72.4674C86.7661 72.4674 192.117 72.4669 213.907 72.4674" stroke="#E4C1FF" stroke-width="8.63773" stroke-linecap="round"/>
<path d="M62.9941 158.202C86.7661 158.202 192.117 158.201 213.907 158.202" stroke="#D8C1FF" stroke-width="8.63773" stroke-linecap="round"/>
<path d="M62.5948 200.881C86.3668 200.881 191.717 200.881 213.508 200.881" stroke="#D8C1FF" stroke-width="8.63773" stroke-linecap="round"/>
<path d="M62.5948 287.603C86.3668 287.603 191.717 287.602 213.508 287.602" stroke="#CAC1FF" stroke-width="8.63773" stroke-linecap="round"/>
<path d="M62.5948 331.179C86.3668 331.179 191.717 331.178 213.508 331.179" stroke="#CAC1FF" stroke-width="8.63773" stroke-linecap="round"/>
<path d="M62.5948 417.765C86.3668 417.765 191.717 417.764 213.508 417.765" stroke="#C1CBFF" stroke-width="8.63773" stroke-linecap="round"/>
<path d="M62.5948 459.592C86.3668 459.592 191.717 459.591 213.508 459.592" stroke="#C1CBFF" stroke-width="8.63773" stroke-linecap="round"/>
<path d="M62.5948 546.047C86.3668 546.047 191.717 546.047 213.508 546.047" stroke="#C1DAFF" stroke-width="8.63773" stroke-linecap="round"/>
<path d="M62.5948 589.623C86.3668 589.623 191.717 589.623 213.508 589.623" stroke="#C1DAFF" stroke-width="8.63773" stroke-linecap="round"/>
<path d="M62.5948 675.358C86.3668 675.358 191.717 675.357 213.508 675.358" stroke="#BEE6EF" stroke-width="8.63773" stroke-linecap="round"/>
<path d="M62.5948 718.036C86.3668 718.036 191.717 718.036 213.508 718.036" stroke="#BEE6EF" stroke-width="8.63773" stroke-linecap="round"/>
<path d="M62.5948 804.758C86.3668 804.758 191.717 804.757 213.508 804.758" stroke="#A2E3DC" stroke-width="8.63773" stroke-linecap="round"/>
<path d="M62.5948 848.334C86.3668 848.334 191.717 848.334 213.508 848.334" stroke="#A2E3DC" stroke-width="8.63773" stroke-linecap="round"/>
<path d="M62.5948 934.069C86.3668 934.069 191.717 934.069 213.508 934.069" stroke="#A2E3C4" stroke-width="8.63773" stroke-linecap="round"/>
<path d="M62.5948 976.748C86.3668 976.748 191.717 976.747 213.508 976.748" stroke="#A2E3C4" stroke-width="8.63773" stroke-linecap="round"/>
<path d="M480.533 28.8912C501.433 28.8912 594.055 28.8907 613.213 28.8912" stroke="#E4C1FF" stroke-width="8.63773" stroke-linecap="round"/>
<path d="M480.533 72.4674C501.433 72.4674 594.055 72.4669 613.213 72.4674" stroke="url(#paint0_linear_10_597)" stroke-width="8.63773" stroke-linecap="round"/>
<path d="M480.533 158.202C501.433 158.202 594.055 158.201 613.213 158.202" stroke="url(#paint1_linear_10_597)" stroke-width="8.63773" stroke-linecap="round"/>
<path d="M480.182 200.881C501.082 200.881 593.704 200.881 612.862 200.881" stroke="#D8C1FF" stroke-width="8.63773" stroke-linecap="round"/>
<path d="M480.182 287.603C501.082 287.603 593.704 287.602 612.862 287.602" stroke="#CAC1FF" stroke-width="8.63773" stroke-linecap="round"/>
<path d="M480.182 331.179C501.082 331.179 593.704 331.178 612.862 331.179" stroke="url(#paint2_linear_10_597)" stroke-width="8.63773" stroke-linecap="round"/>
<path d="M480.182 417.765C501.082 417.765 593.704 417.764 612.862 417.765" stroke="url(#paint3_linear_10_597)" stroke-width="8.63773" stroke-linecap="round"/>
<path d="M480.182 459.592C501.082 459.592 593.704 459.591 612.862 459.592" stroke="#C1CBFF" stroke-width="8.63773" stroke-linecap="round"/>
<path d="M480.182 546.047C501.082 546.047 593.704 546.047 612.862 546.047" stroke="#C1DAFF" stroke-width="8.63773" stroke-linecap="round"/>
<path d="M480.182 589.623C501.082 589.623 593.704 589.623 612.862 589.623" stroke="url(#paint4_linear_10_597)" stroke-width="8.63773" stroke-linecap="round"/>
<path d="M480.182 675.358C501.082 675.358 593.704 675.357 612.862 675.358" stroke="url(#paint5_linear_10_597)" stroke-width="8.63773" stroke-linecap="round"/>
<path d="M480.182 718.036C501.082 718.036 593.704 718.036 612.862 718.036" stroke="#BEE6EF" stroke-width="8.63773" stroke-linecap="round"/>
<path d="M480.182 804.758C501.082 804.758 593.704 804.757 612.862 804.758" stroke="#A2E3DC" stroke-width="8.63773" stroke-linecap="round"/>
<path d="M480.182 848.334C501.082 848.334 593.704 848.334 612.862 848.334" stroke="url(#paint6_linear_10_597)" stroke-width="8.63773" stroke-linecap="round"/>
<path d="M480.182 934.069C501.082 934.069 593.704 934.069 612.862 934.069" stroke="url(#paint7_linear_10_597)" stroke-width="8.63773" stroke-linecap="round"/>
<path d="M480.182 976.748C501.082 976.748 593.704 976.747 612.862 976.748" stroke="#A2E3C4" stroke-width="8.63773" stroke-linecap="round"/>
<path d="M879.079 28.8915C899.979 28.8915 992.601 28.891 1011.76 28.8914" stroke="#E4C1FF" stroke-width="8.63773" stroke-linecap="round"/>
<path d="M879.079 72.4676C899.979 72.4676 992.601 72.4671 1011.76 72.4675" stroke="url(#paint8_linear_10_597)" stroke-width="8.63773" stroke-linecap="round"/>
<path d="M879.079 158.202C899.979 158.202 992.601 158.202 1011.76 158.202" stroke="url(#paint9_linear_10_597)" stroke-width="8.63773" stroke-linecap="round"/>
<path d="M878.728 200.881C899.628 200.881 992.25 200.881 1011.41 200.881" stroke="url(#paint10_linear_10_597)" stroke-width="8.63773" stroke-linecap="round"/>
<path d="M878.728 287.603C899.628 287.603 992.25 287.602 1011.41 287.603" stroke="url(#paint11_linear_10_597)" stroke-width="8.63773" stroke-linecap="round"/>
<path d="M878.728 331.179C899.628 331.179 992.25 331.179 1011.41 331.179" stroke="url(#paint12_linear_10_597)" stroke-width="8.63773" stroke-linecap="round"/>
<path d="M878.728 417.765C899.628 417.765 992.25 417.765 1011.41 417.765" stroke="url(#paint13_linear_10_597)" stroke-width="8.63773" stroke-linecap="round"/>
<path d="M878.728 459.592C899.628 459.592 992.25 459.591 1011.41 459.592" stroke="#C1CBFF" stroke-width="8.63773" stroke-linecap="round"/>
<path d="M878.728 546.048C899.628 546.048 992.25 546.047 1011.41 546.048" stroke="#C1DAFF" stroke-width="8.63773" stroke-linecap="round"/>
<path d="M878.728 589.624C899.628 589.624 992.25 589.623 1011.41 589.623" stroke="url(#paint14_linear_10_597)" stroke-width="8.63773" stroke-linecap="round"/>
<path d="M878.728 675.358C899.628 675.358 992.25 675.358 1011.41 675.358" stroke="url(#paint15_linear_10_597)" stroke-width="8.63773" stroke-linecap="round"/>
<path d="M878.728 718.037C899.628 718.037 992.25 718.036 1011.41 718.037" stroke="url(#paint16_linear_10_597)" stroke-width="8.63773" stroke-linecap="round"/>
<path d="M878.728 804.758C899.628 804.758 992.25 804.758 1011.41 804.758" stroke="url(#paint17_linear_10_597)" stroke-width="8.63773" stroke-linecap="round"/>
<path d="M878.728 848.334C899.628 848.334 992.25 848.334 1011.41 848.334" stroke="url(#paint18_linear_10_597)" stroke-width="8.63773" stroke-linecap="round"/>
<path d="M878.728 934.069C899.628 934.069 992.25 934.069 1011.41 934.069" stroke="url(#paint19_linear_10_597)" stroke-width="8.63773" stroke-linecap="round"/>
<path d="M878.728 976.748C899.628 976.748 992.25 976.747 1011.41 976.748" stroke="#A2E3C4" stroke-width="8.63773" stroke-linecap="round"/>
<path d="M1278.71 28.8915C1299.61 28.8915 1392.23 28.891 1411.39 28.8914" stroke="#E4C1FF" stroke-width="8.63773" stroke-linecap="round"/>
<path d="M1278.71 72.4676C1299.61 72.4676 1392.23 72.4671 1411.39 72.4675" stroke="url(#paint20_linear_10_597)" stroke-width="8.63773" stroke-linecap="round"/>
<path d="M1278.71 158.202C1299.61 158.202 1392.23 158.202 1411.39 158.202" stroke="url(#paint21_linear_10_597)" stroke-width="8.63773" stroke-linecap="round"/>
<path d="M1278.35 200.881C1299.25 200.881 1391.88 200.881 1411.03 200.881" stroke="url(#paint22_linear_10_597)" stroke-width="8.63773" stroke-linecap="round"/>
<path d="M1278.35 287.603C1299.25 287.603 1391.88 287.602 1411.03 287.603" stroke="url(#paint23_linear_10_597)" stroke-width="8.63773" stroke-linecap="round"/>
<path d="M1278.35 331.179C1299.25 331.179 1391.88 331.179 1411.03 331.179" stroke="url(#paint24_linear_10_597)" stroke-width="8.63773" stroke-linecap="round"/>
<path d="M1278.35 417.765C1299.25 417.765 1391.88 417.765 1411.03 417.765" stroke="url(#paint25_linear_10_597)" stroke-width="8.63773" stroke-linecap="round"/>
<path d="M1278.35 459.592C1299.25 459.592 1391.88 459.591 1411.03 459.592" stroke="url(#paint26_linear_10_597)" stroke-width="8.63773" stroke-linecap="round"/>
<path d="M1278.35 546.048C1299.25 546.048 1391.88 546.047 1411.03 546.048" stroke="url(#paint27_linear_10_597)" stroke-width="8.63773" stroke-linecap="round"/>
<path d="M1278.35 589.624C1299.25 589.624 1391.88 589.623 1411.03 589.623" stroke="url(#paint28_linear_10_597)" stroke-width="8.63773" stroke-linecap="round"/>
<path d="M1278.35 675.358C1299.25 675.358 1391.88 675.358 1411.03 675.358" stroke="url(#paint29_linear_10_597)" stroke-width="8.63773" stroke-linecap="round"/>
<path d="M1278.35 718.037C1299.25 718.037 1391.88 718.036 1411.03 718.037" stroke="url(#paint30_linear_10_597)" stroke-width="8.63773" stroke-linecap="round"/>
<path d="M1278.35 804.758C1299.25 804.758 1391.88 804.758 1411.03 804.758" stroke="url(#paint31_linear_10_597)" stroke-width="8.63773" stroke-linecap="round"/>
<path d="M1278.35 848.334C1299.25 848.334 1391.88 848.334 1411.03 848.334" stroke="url(#paint32_linear_10_597)" stroke-width="8.63773" stroke-linecap="round"/>
<path d="M1278.35 934.069C1299.25 934.069 1391.88 934.069 1411.03 934.069" stroke="url(#paint33_linear_10_597)" stroke-width="8.63773" stroke-linecap="round"/>
<path d="M1278.35 976.748C1299.25 976.748 1391.88 976.747 1411.03 976.748" stroke="#A2E3C4" stroke-width="8.63773" stroke-linecap="round"/>
<path d="M11.3215 72.4671C35.0935 72.4671 39.6452 72.4667 61.4357 72.4671" stroke="#E4C1FF" stroke-width="8.63773" stroke-linecap="round"/>
<path d="M61.4357 200.881C39.6453 200.881 35.0935 200.881 11.3215 200.881" stroke="#D8C1FF" stroke-width="8.63773" stroke-linecap="round"/>
<path d="M61.4357 158.202C39.6453 158.202 35.0935 158.202 11.3215 158.202" stroke="#D8C1FF" stroke-width="8.63773" stroke-linecap="round"/>
<path d="M1411.03 804.758C1440.9 804.758 1446.62 804.758 1473.99 804.758" stroke="#A2E3DC" stroke-width="8.63773" stroke-linecap="round"/>
<path d="M1411.03 848.334C1440.9 848.334 1446.62 848.333 1473.99 848.334" stroke="#A2E3DC" stroke-width="8.63773" stroke-linecap="round"/>
<path d="M1473.99 976.748C1446.62 976.748 1440.9 976.748 1411.03 976.748" stroke="#A2E3C4" stroke-width="8.63773" stroke-linecap="round"/>
<path d="M1473.99 934.069C1446.62 934.069 1440.9 934.069 1411.03 934.069" stroke="#A2E3C4" stroke-width="8.63773" stroke-linecap="round"/>
<path d="M1411.03 546.047C1440.9 546.047 1446.62 546.047 1473.99 546.047" stroke="#C1DAFF" stroke-width="8.63773" stroke-linecap="round"/>
<path d="M1411.03 589.623C1440.9 589.623 1446.62 589.623 1473.99 589.623" stroke="#C1DAFF" stroke-width="8.63773" stroke-linecap="round"/>
<path d="M1473.99 718.037C1446.62 718.037 1440.9 718.036 1411.03 718.036" stroke="#BEE6EF" stroke-width="8.63773" stroke-linecap="round"/>
<path d="M1473.99 675.358C1446.62 675.358 1440.9 675.358 1411.03 675.358" stroke="#BEE6EF" stroke-width="8.63773" stroke-linecap="round"/>
<path d="M1411.03 287.602C1440.9 287.602 1446.62 287.602 1473.99 287.602" stroke="#CAC1FF" stroke-width="8.63773" stroke-linecap="round"/>
<path d="M1411.03 331.179C1440.9 331.179 1446.62 331.179 1473.99 331.179" stroke="#CAC1FF" stroke-width="8.63773" stroke-linecap="round"/>
<path d="M1473.99 459.592C1446.62 459.592 1440.9 459.592 1411.03 459.592" stroke="#C1CBFF" stroke-width="8.63773" stroke-linecap="round"/>
<path d="M1473.99 417.764C1446.62 417.765 1440.9 417.764 1411.03 417.764" stroke="#C1CBFF" stroke-width="8.63773" stroke-linecap="round"/>
<path d="M1411.03 28.8912C1440.9 28.8912 1446.62 28.8907 1473.99 28.8912" stroke="#E4C1FF" stroke-width="8.63773" stroke-linecap="round"/>
<path d="M1411.03 72.4671C1440.9 72.4671 1446.62 72.4667 1473.99 72.4671" stroke="#E4C1FF" stroke-width="8.63773" stroke-linecap="round"/>
<path d="M1473.99 200.881C1446.62 200.881 1440.9 200.881 1411.03 200.881" stroke="#D8C1FF" stroke-width="8.63773" stroke-linecap="round"/>
<path d="M1473.99 158.202C1446.62 158.202 1440.9 158.202 1411.03 158.202" stroke="#D8C1FF" stroke-width="8.63773" stroke-linecap="round"/>
<path d="M613.213 287.602C739.162 287.602 763.278 72.4664 878.728 72.4669" stroke="#CAC1FF" stroke-width="8.63773" stroke-linecap="round"/>
<path d="M613.213 331.178C728.663 331.178 752.779 331.204 878.728 331.204" stroke="#CAC1FF" stroke-width="8.63773" stroke-linecap="round"/>
<path d="M878.728 459.592C763.278 459.592 739.162 459.592 613.213 459.592" stroke="#C1CBFF" stroke-width="8.63773" stroke-linecap="round"/>
<path d="M878.728 200.881C752.779 200.881 728.663 417.765 613.213 417.765" stroke="#C1CBFF" stroke-width="8.63773" stroke-linecap="round"/>
<path d="M613.213 28.8912C739.162 28.8912 763.278 28.8907 878.728 28.8912" stroke="#E4C1FF" stroke-width="8.63773" stroke-linecap="round"/>
<path d="M613.213 72.4669C728.663 72.4669 752.779 287.602 878.728 287.602" stroke="#E4C1FF" stroke-width="8.63773" stroke-linecap="round"/>
<path d="M878.728 417.765C763.278 417.765 739.162 200.881 613.213 200.881" stroke="#D8C1FF" stroke-width="8.63773" stroke-linecap="round"/>
<path d="M878.728 158.185C752.779 158.185 728.663 158.202 613.213 158.202" stroke="#D8C1FF" stroke-width="8.63773" stroke-linecap="round"/>
<path d="M613.213 804.758C739.162 804.758 763.278 589.623 878.728 589.624" stroke="#A2E3DC" stroke-width="8.63773" stroke-linecap="round"/>
<path d="M613.213 848.334C728.663 848.334 752.779 848.369 878.728 848.369" stroke="#A2E3DC" stroke-width="8.63773" stroke-linecap="round"/>
<path d="M878.728 976.747C763.278 976.748 739.162 976.747 613.213 976.747" stroke="#A2E3C4" stroke-width="8.63773" stroke-linecap="round"/>
<path d="M878.728 718.036C752.779 718.036 728.663 934.069 613.213 934.069" stroke="#A2E3C4" stroke-width="8.63773" stroke-linecap="round"/>
<path d="M613.213 546.047C739.162 546.047 763.278 546.046 878.728 546.047" stroke="#C1DAFF" stroke-width="8.63773" stroke-linecap="round"/>
<path d="M613.213 589.622C728.663 589.622 752.779 804.758 878.728 804.758" stroke="#C1DAFF" stroke-width="8.63773" stroke-linecap="round"/>
<path d="M878.728 934.069C763.278 934.07 739.162 718.036 613.213 718.036" stroke="#BEE6EF" stroke-width="8.63773" stroke-linecap="round"/>
<path d="M878.728 675.334C752.779 675.334 728.663 675.358 613.213 675.358" stroke="#BEE6EF" stroke-width="8.63773" stroke-linecap="round"/>
<path d="M1012.3 331.178C1119.65 331.178 1162.36 804.759 1277.81 804.758" stroke="#CAC1FF" stroke-width="8.63773" stroke-linecap="round"/>
<path d="M1012.3 287.603C1127.75 287.603 1151.86 287.555 1277.81 287.555" stroke="#CAC1FF" stroke-width="8.63773" stroke-linecap="round"/>
<path d="M1277.81 417.765C1162.36 417.765 1138.24 417.764 1012.3 417.764" stroke="#C1CBFF" stroke-width="8.63773" stroke-linecap="round"/>
<path d="M1277.81 934.069C1151.86 934.069 1127.75 459.592 1012.3 459.592" stroke="#C1CBFF" stroke-width="8.63773" stroke-linecap="round"/>
<path d="M1012.3 28.8912C1138.24 28.8912 1162.36 28.8907 1277.81 28.8912" stroke="#E4C1FF" stroke-width="8.63773" stroke-linecap="round"/>
<path d="M1012.3 72.4669C1127.75 72.4669 1151.86 546.047 1277.81 546.047" stroke="#E4C1FF" stroke-width="8.63773" stroke-linecap="round"/>
<path d="M1277.81 675.358C1162.36 675.359 1123.82 200.881 1012.3 200.881" stroke="#D8C1FF" stroke-width="8.63773" stroke-linecap="round"/>
<path d="M1279.11 158.186C1153.16 158.186 1127.75 158.202 1012.3 158.202" stroke="#D8C1FF" stroke-width="8.63773" stroke-linecap="round"/>
<path d="M1012.3 804.758C1126.99 804.758 1160.84 331.178 1277.81 331.179" stroke="#A2E3DC" stroke-width="8.63773" stroke-linecap="round"/>
<path d="M1012.3 848.334C1127.75 848.334 1152.51 848.359 1278.45 848.359" stroke="#A2E3DC" stroke-width="8.63773" stroke-linecap="round"/>
<path d="M1277.81 976.747C1162.36 976.748 1138.24 976.747 1012.3 976.747" stroke="#A2E3C4" stroke-width="8.63773" stroke-linecap="round"/>
<path d="M1277.81 459.592C1151.86 459.592 1127.75 934.069 1012.3 934.069" stroke="#A2E3C4" stroke-width="8.63773" stroke-linecap="round"/>
<path d="M1012.3 589.624C1138.24 589.624 1162.36 589.623 1277.81 589.624" stroke="#C1DAFF" stroke-width="8.63773" stroke-linecap="round"/>
<path d="M1012.3 546.047C1127.75 546.047 1151.86 72.4676 1277.81 72.4676" stroke="#C1DAFF" stroke-width="8.63773" stroke-linecap="round"/>
<path d="M1277.81 200.881C1162.36 200.88 1120.48 675.358 1012.3 675.358" stroke="#BEE6EF" stroke-width="8.63773" stroke-linecap="round"/>
<path d="M1278.29 718.043C1152.35 718.043 1126.73 718.037 1011.28 718.037" stroke="#BEE6EF" stroke-width="8.63773" stroke-linecap="round"/>
<defs>
<linearGradient id="paint0_linear_10_597" x1="613.213" y1="72.4669" x2="480.533" y2="72.4672" gradientUnits="userSpaceOnUse">
<stop stop-color="#E4C1FF"/>
<stop offset="1" stop-color="#D8C1FF"/>
</linearGradient>
<linearGradient id="paint1_linear_10_597" x1="613.213" y1="158.201" x2="480.533" y2="158.202" gradientUnits="userSpaceOnUse">
<stop stop-color="#D8C1FF"/>
<stop offset="1" stop-color="#E4C1FF"/>
</linearGradient>
<linearGradient id="paint2_linear_10_597" x1="612.862" y1="331.178" x2="480.182" y2="331.179" gradientUnits="userSpaceOnUse">
<stop stop-color="#CAC1FF"/>
<stop offset="1" stop-color="#C1CBFF"/>
</linearGradient>
<linearGradient id="paint3_linear_10_597" x1="612.862" y1="417.764" x2="480.182" y2="417.765" gradientUnits="userSpaceOnUse">
<stop stop-color="#C1CBFF"/>
<stop offset="1" stop-color="#CAC1FF"/>
</linearGradient>
<linearGradient id="paint4_linear_10_597" x1="612.862" y1="589.623" x2="480.182" y2="589.623" gradientUnits="userSpaceOnUse">
<stop stop-color="#C1DAFF"/>
<stop offset="1" stop-color="#BEE6EF"/>
</linearGradient>
<linearGradient id="paint5_linear_10_597" x1="612.862" y1="675.357" x2="480.182" y2="675.358" gradientUnits="userSpaceOnUse">
<stop stop-color="#BEE6EF"/>
<stop offset="1" stop-color="#C1DAFF"/>
</linearGradient>
<linearGradient id="paint6_linear_10_597" x1="612.862" y1="848.334" x2="480.182" y2="848.334" gradientUnits="userSpaceOnUse">
<stop stop-color="#A2E3DC"/>
<stop offset="1" stop-color="#A2E3C4"/>
</linearGradient>
<linearGradient id="paint7_linear_10_597" x1="612.862" y1="934.069" x2="480.182" y2="934.069" gradientUnits="userSpaceOnUse">
<stop stop-color="#A2E3C4"/>
<stop offset="1" stop-color="#A2E3DC"/>
</linearGradient>
<linearGradient id="paint8_linear_10_597" x1="1011.76" y1="72.4671" x2="879.079" y2="72.4673" gradientUnits="userSpaceOnUse">
<stop stop-color="#E4C1FF"/>
<stop offset="1" stop-color="#CAC1FF"/>
</linearGradient>
<linearGradient id="paint9_linear_10_597" x1="1011.76" y1="158.202" x2="879.079" y2="158.202" gradientUnits="userSpaceOnUse">
<stop stop-color="#D8C1FF"/>
<stop offset="1" stop-color="#D8C1FF"/>
</linearGradient>
<linearGradient id="paint10_linear_10_597" x1="1011.41" y1="200.881" x2="878.728" y2="200.881" gradientUnits="userSpaceOnUse">
<stop stop-color="#D8C1FF"/>
<stop offset="1" stop-color="#C1CBFF"/>
</linearGradient>
<linearGradient id="paint11_linear_10_597" x1="1011.41" y1="287.602" x2="878.728" y2="287.602" gradientUnits="userSpaceOnUse">
<stop stop-color="#CAC1FF"/>
<stop offset="1" stop-color="#E4C1FF"/>
</linearGradient>
<linearGradient id="paint12_linear_10_597" x1="1011.41" y1="331.179" x2="878.728" y2="331.179" gradientUnits="userSpaceOnUse">
<stop stop-color="#CAC1FF"/>
<stop offset="1" stop-color="#CAC1FF"/>
</linearGradient>
<linearGradient id="paint13_linear_10_597" x1="1011.41" y1="417.765" x2="878.728" y2="417.765" gradientUnits="userSpaceOnUse">
<stop stop-color="#C1CBFF"/>
<stop offset="1" stop-color="#D8C1FF"/>
</linearGradient>
<linearGradient id="paint14_linear_10_597" x1="1011.41" y1="589.623" x2="878.728" y2="589.623" gradientUnits="userSpaceOnUse">
<stop stop-color="#C1DAFF"/>
<stop offset="1" stop-color="#A2E3DC"/>
</linearGradient>
<linearGradient id="paint15_linear_10_597" x1="1011.41" y1="675.358" x2="878.728" y2="675.358" gradientUnits="userSpaceOnUse">
<stop stop-color="#BEE6EF"/>
<stop offset="1" stop-color="#BEE6EF"/>
</linearGradient>
<linearGradient id="paint16_linear_10_597" x1="1011.41" y1="718.036" x2="878.728" y2="718.036" gradientUnits="userSpaceOnUse">
<stop stop-color="#BEE6EF"/>
<stop offset="1" stop-color="#A2E3C4"/>
</linearGradient>
<linearGradient id="paint17_linear_10_597" x1="1011.41" y1="804.758" x2="878.728" y2="804.758" gradientUnits="userSpaceOnUse">
<stop stop-color="#A2E3DC"/>
<stop offset="1" stop-color="#C1DAFF"/>
</linearGradient>
<linearGradient id="paint18_linear_10_597" x1="1011.41" y1="848.334" x2="878.728" y2="848.334" gradientUnits="userSpaceOnUse">
<stop stop-color="#A2E3DC"/>
<stop offset="1" stop-color="#A2E3DC"/>
</linearGradient>
<linearGradient id="paint19_linear_10_597" x1="1011.41" y1="934.069" x2="878.728" y2="934.069" gradientUnits="userSpaceOnUse">
<stop stop-color="#A2E3C4"/>
<stop offset="1" stop-color="#BEE6EF"/>
</linearGradient>
<linearGradient id="paint20_linear_10_597" x1="1411.39" y1="72.4671" x2="1278.71" y2="72.4673" gradientUnits="userSpaceOnUse">
<stop stop-color="#E4C1FF"/>
<stop offset="1" stop-color="#C1DAFF"/>
</linearGradient>
<linearGradient id="paint21_linear_10_597" x1="1411.39" y1="158.202" x2="1278.71" y2="158.202" gradientUnits="userSpaceOnUse">
<stop stop-color="#D8C1FF"/>
<stop offset="1" stop-color="#D8C1FF"/>
</linearGradient>
<linearGradient id="paint22_linear_10_597" x1="1411.03" y1="200.881" x2="1278.35" y2="200.881" gradientUnits="userSpaceOnUse">
<stop stop-color="#D8C1FF"/>
<stop offset="1" stop-color="#BEE6EF"/>
</linearGradient>
<linearGradient id="paint23_linear_10_597" x1="1411.03" y1="287.602" x2="1278.35" y2="287.602" gradientUnits="userSpaceOnUse">
<stop stop-color="#CAC1FF"/>
<stop offset="1" stop-color="#CAC1FF"/>
</linearGradient>
<linearGradient id="paint24_linear_10_597" x1="1411.03" y1="331.179" x2="1278.35" y2="331.179" gradientUnits="userSpaceOnUse">
<stop stop-color="#CAC1FF"/>
<stop offset="1" stop-color="#A2E3DC"/>
</linearGradient>
<linearGradient id="paint25_linear_10_597" x1="1411.03" y1="417.765" x2="1278.35" y2="417.765" gradientUnits="userSpaceOnUse">
<stop stop-color="#C1CBFF"/>
<stop offset="1" stop-color="#C1CBFF"/>
</linearGradient>
<linearGradient id="paint26_linear_10_597" x1="1411.03" y1="459.591" x2="1278.35" y2="459.592" gradientUnits="userSpaceOnUse">
<stop stop-color="#C1CBFF"/>
<stop offset="1" stop-color="#A2E3C4"/>
</linearGradient>
<linearGradient id="paint27_linear_10_597" x1="1411.03" y1="546.047" x2="1278.35" y2="546.047" gradientUnits="userSpaceOnUse">
<stop stop-color="#C1DAFF"/>
<stop offset="1" stop-color="#E4C1FF"/>
</linearGradient>
<linearGradient id="paint28_linear_10_597" x1="1411.03" y1="589.623" x2="1278.35" y2="589.623" gradientUnits="userSpaceOnUse">
<stop stop-color="#C1DAFF"/>
<stop offset="1" stop-color="#C1DAFF"/>
</linearGradient>
<linearGradient id="paint29_linear_10_597" x1="1411.03" y1="675.358" x2="1278.35" y2="675.358" gradientUnits="userSpaceOnUse">
<stop stop-color="#BEE6EF"/>
<stop offset="1" stop-color="#D8C1FF"/>
</linearGradient>
<linearGradient id="paint30_linear_10_597" x1="1411.03" y1="718.036" x2="1278.35" y2="718.036" gradientUnits="userSpaceOnUse">
<stop stop-color="#BEE6EF"/>
<stop offset="1" stop-color="#BEE6EF"/>
</linearGradient>
<linearGradient id="paint31_linear_10_597" x1="1411.03" y1="804.758" x2="1278.35" y2="804.758" gradientUnits="userSpaceOnUse">
<stop stop-color="#A2E3DC"/>
<stop offset="1" stop-color="#CAC1FF"/>
</linearGradient>
<linearGradient id="paint32_linear_10_597" x1="1411.03" y1="848.334" x2="1278.35" y2="848.334" gradientUnits="userSpaceOnUse">
<stop stop-color="#A2E3DC"/>
<stop offset="1" stop-color="#A2E3DC"/>
</linearGradient>
<linearGradient id="paint33_linear_10_597" x1="1411.03" y1="934.069" x2="1278.35" y2="934.069" gradientUnits="userSpaceOnUse">
<stop stop-color="#A2E3C4"/>
<stop offset="1" stop-color="#C1CBFF"/>
</linearGradient>
</defs>
</svg>
