<svg width="4158" height="1006" viewBox="0 0 4158 1006" fill="none" xmlns="http://www.w3.org/2000/svg">
<path d="M1603.12 544.999C1565.47 544.999 1398.63 544.998 1364.12 544.999" stroke="white" stroke-width="9" stroke-linecap="round"/>
<path d="M2000.51 27.4972C1962.87 27.4972 1796.02 27.4964 1761.51 27.4972" stroke="#C26FC9" stroke-width="9" stroke-linecap="round"/>
<path d="M2158.42 27.4975C2133.55 27.4975 2023.31 27.4969 2000.51 27.4974" stroke="#C26FC9" stroke-width="9" stroke-linecap="round"/>
<path d="M1603.12 27.4968C1565.47 27.4968 1398.63 27.496 1364.12 27.4968" stroke="#C26FC9" stroke-width="9" stroke-linecap="round"/>
<path d="M1603.12 27.4972C1565.47 27.4972 1398.63 27.4964 1364.12 27.4972" stroke="#C26FC9" stroke-width="9" stroke-linecap="round"/>
<path d="M1761.02 27.4975C1736.15 27.4975 1625.92 27.4969 1603.12 27.4974" stroke="#C26FC9" stroke-width="9" stroke-linecap="round"/>
<path d="M1206.21 27.4968C1168.56 27.4968 1001.72 27.496 967.21 27.4968" stroke="#C26FC9" stroke-width="9" stroke-linecap="round"/>
<path d="M1206.21 27.4972C1168.56 27.4972 1001.72 27.4964 967.21 27.4972" stroke="#C26FC9" stroke-width="9" stroke-linecap="round"/>
<path d="M1364.12 27.4975C1339.24 27.4975 1229.01 27.4969 1206.21 27.4974" stroke="#C26FC9" stroke-width="9" stroke-linecap="round"/>
<path d="M2158.42 329.771C2133.55 329.771 2023.31 329.77 2000.51 329.771" stroke="#6E97F6" stroke-width="9" stroke-linecap="round"/>
<path d="M2000.51 329.771C1880.68 329.771 1880.68 415.012 1761.51 415.012" stroke="#6E97F6" stroke-width="9" stroke-linecap="round"/>
<path d="M1364.12 200.256C1483.95 200.256 1483.95 415.012 1603.12 415.012" stroke="#6E97F6" stroke-width="9" stroke-linecap="round"/>
<path d="M1206.21 200.256C1086.38 200.256 1086.38 673.801 967.21 673.801" stroke="#6E97F6" stroke-width="9" stroke-linecap="round"/>
<path d="M1603.12 415.012C1627.99 415.012 1738.22 415.012 1761.02 415.012" stroke="#6E97F6" stroke-width="9" stroke-linecap="round"/>
<path d="M1364.12 200.256C1339.24 200.256 1229.01 200.256 1206.21 200.256" stroke="#6E97F6" stroke-width="9" stroke-linecap="round"/>
<path d="M2000.51 286.208C1962.87 286.208 1796.02 286.207 1761.51 286.208" stroke="#6E97F6" stroke-width="9" stroke-linecap="round"/>
<path d="M2158.42 286.208C2133.55 286.208 2023.31 286.208 2000.51 286.208" stroke="#6E97F6" stroke-width="9" stroke-linecap="round"/>
<path d="M1364.12 71.0594C1483.95 71.0594 1483.95 286.208 1603.12 286.208" stroke="#6E97F6" stroke-width="9" stroke-linecap="round"/>
<path d="M1761.02 286.208C1736.15 286.208 1625.92 286.208 1603.12 286.208" stroke="#6E97F6" stroke-width="9" stroke-linecap="round"/>
<path d="M1206.21 71.0601C1086.38 71.06 1086.38 544.999 967.21 544.999" stroke="#6E97F6" stroke-width="9" stroke-linecap="round"/>
<path d="M1364.12 71.0601C1339.24 71.0601 1229.01 71.0595 1206.21 71.06" stroke="#6E97F6" stroke-width="9" stroke-linecap="round"/>
<path d="M2158.42 71.0601C2133.55 71.0601 2023.31 71.0595 2000.51 71.06" stroke="#C26FC9" stroke-width="9" stroke-linecap="round"/>
<path d="M2000.51 71.0601C1880.68 71.0601 1880.68 156.679 1761.51 156.679" stroke="#C26FC9" stroke-width="9" stroke-linecap="round"/>
<path d="M1603.12 156.679C1565.47 156.679 1398.63 156.678 1364.12 156.679" stroke="#C26FC9" stroke-width="9" stroke-linecap="round"/>
<path d="M1603.12 156.679C1627.99 156.679 1738.22 156.679 1761.02 156.679" stroke="#C26FC9" stroke-width="9" stroke-linecap="round"/>
<path d="M1206.21 156.679C1168.56 156.679 1001.72 156.678 967.21 156.679" stroke="#C26FC9" stroke-width="9" stroke-linecap="round"/>
<path d="M1206.21 156.679C1231.08 156.679 1341.32 156.679 1364.12 156.679" stroke="#C26FC9" stroke-width="9" stroke-linecap="round"/>
<path d="M1761.51 71.0598C1881.34 71.0598 1881.34 156.679 2000.51 156.679" stroke="#A97FE0" stroke-width="9" stroke-linecap="round"/>
<path d="M2000.51 156.679C2025.39 156.679 2135.62 156.679 2158.42 156.679" stroke="#A97FE0" stroke-width="9" stroke-linecap="round"/>
<path d="M1761.02 71.0601C1736.15 71.0601 1625.92 71.0595 1603.12 71.06" stroke="#A97FE0" stroke-width="9" stroke-linecap="round"/>
<path d="M1603.12 71.0601C1483.29 71.06 1483.29 286.208 1364.12 286.208" stroke="#A97FE0" stroke-width="9" stroke-linecap="round"/>
<path d="M1206.21 286.209C1168.56 286.209 1001.72 286.208 967.21 286.209" stroke="#A97FE0" stroke-width="9" stroke-linecap="round"/>
<path d="M1364.12 286.208C1339.24 286.208 1229.01 286.208 1206.21 286.208" stroke="#A97FE0" stroke-width="9" stroke-linecap="round"/>
<path d="M2000.51 458.197C1962.87 458.197 1796.02 458.196 1761.51 458.197" stroke="#2BA5F8" stroke-width="9" stroke-linecap="round"/>
<path d="M2158.42 458.197C2133.55 458.197 2023.31 458.196 2000.51 458.197" stroke="#2BA5F8" stroke-width="9" stroke-linecap="round"/>
<path d="M1603.12 458.197C1565.47 458.197 1398.63 458.196 1364.12 458.197" stroke="#2BA5F8" stroke-width="9" stroke-linecap="round"/>
<path d="M1206.21 458.622C1086.38 458.622 1086.38 931.397 967.21 931.397" stroke="#2BA5F8" stroke-width="9" stroke-linecap="round"/>
<path d="M1761.02 458.197C1736.15 458.197 1625.92 458.196 1603.12 458.197" stroke="#2BA5F8" stroke-width="9" stroke-linecap="round"/>
<path d="M1364.12 458.197C1339.24 458.197 1229.01 458.196 1206.21 458.197" stroke="#2BA5F8" stroke-width="9" stroke-linecap="round"/>
<path d="M1761.51 329.771C1881.34 329.771 1881.34 415.012 2000.51 415.012" stroke="#2BA5F8" stroke-width="9" stroke-linecap="round"/>
<path d="M2000.51 415.012C2025.39 415.012 2135.62 415.012 2158.42 415.012" stroke="#2BA5F8" stroke-width="9" stroke-linecap="round"/>
<path d="M1603.12 329.771C1565.47 329.771 1398.63 329.77 1364.12 329.771" stroke="#2BA5F8" stroke-width="9" stroke-linecap="round"/>
<path d="M1206.21 329.96C1086.38 329.959 1086.38 802.594 967.21 802.594" stroke="#2BA5F8" stroke-width="9" stroke-linecap="round"/>
<path d="M1761.02 329.771C1736.15 329.771 1625.92 329.77 1603.12 329.771" stroke="#2BA5F8" stroke-width="9" stroke-linecap="round"/>
<path d="M1364.12 329.771C1339.24 329.771 1229.01 329.77 1206.21 329.771" stroke="#2BA5F8" stroke-width="9" stroke-linecap="round"/>
<path d="M2000.51 200.256C1962.87 200.256 1796.02 200.255 1761.51 200.256" stroke="#A97FE0" stroke-width="9" stroke-linecap="round"/>
<path d="M2158.42 200.256C2133.55 200.256 2023.31 200.256 2000.51 200.256" stroke="#A97FE0" stroke-width="9" stroke-linecap="round"/>
<path d="M1761.51 200.256C1736.64 200.256 1626.41 200.256 1603.61 200.256" stroke="#A97FE0" stroke-width="9" stroke-linecap="round"/>
<path d="M1603.12 200.256C1483.29 200.256 1483.29 414.635 1364.12 414.635" stroke="#A97FE0" stroke-width="9" stroke-linecap="round"/>
<path d="M1206.21 415.012C1168.56 415.012 1001.72 415.011 967.21 415.012" stroke="#A97FE0" stroke-width="9" stroke-linecap="round"/>
<path d="M1206.21 415.012C1231.08 415.012 1341.32 415.012 1364.12 415.012" stroke="#A97FE0" stroke-width="9" stroke-linecap="round"/>
<path d="M2000.51 544.998C1962.87 544.998 1796.02 544.997 1761.51 544.998" stroke="#00B8E3" stroke-width="9" stroke-linecap="round"/>
<path d="M2158.42 544.998C2133.55 544.998 2023.31 544.998 2000.51 544.998" stroke="#00B8E3" stroke-width="9" stroke-linecap="round"/>
<path d="M1603.12 544.999C1565.47 544.999 1398.63 544.998 1364.12 544.999" stroke="#00B8E3" stroke-width="9" stroke-linecap="round"/>
<path d="M967.21 71.0601C1087.04 71.06 1087.04 544.998 1206.21 544.998" stroke="#00B8E3" stroke-width="9" stroke-linecap="round"/>
<path d="M1761.02 544.998C1736.15 544.998 1625.92 544.998 1603.12 544.998" stroke="#00B8E3" stroke-width="9" stroke-linecap="round"/>
<path d="M1364.12 544.998C1339.24 544.998 1229.01 544.998 1206.21 544.998" stroke="#00B8E3" stroke-width="9" stroke-linecap="round"/>
<path d="M2158.42 846.157C2133.55 846.157 2023.31 846.156 2000.51 846.157" stroke="#11C6A5" stroke-width="9" stroke-linecap="round"/>
<path d="M2000.51 846.157C1880.68 846.157 1880.68 931.776 1761.51 931.776" stroke="#11C6A5" stroke-width="9" stroke-linecap="round"/>
<path d="M1364.12 716.986C1483.95 716.986 1483.95 931.776 1603.12 931.776" stroke="#11C6A5" stroke-width="9" stroke-linecap="round"/>
<path d="M1206.21 716.986C1168.56 716.986 1001.72 716.985 967.21 716.986" stroke="#11C6A5" stroke-width="9" stroke-linecap="round"/>
<path d="M1602.22 931.777C1627.09 931.777 1737.32 931.776 1760.12 931.777" stroke="#11C6A5" stroke-width="9" stroke-linecap="round"/>
<path d="M1364.12 716.987C1339.24 716.987 1229.01 716.986 1206.21 716.987" stroke="#11C6A5" stroke-width="9" stroke-linecap="round"/>
<path d="M2000.51 802.594C1962.87 802.594 1796.02 802.593 1761.51 802.594" stroke="#11C6A5" stroke-width="9" stroke-linecap="round"/>
<path d="M2158.42 802.594C2133.55 802.594 2023.31 802.594 2000.51 802.594" stroke="#11C6A5" stroke-width="9" stroke-linecap="round"/>
<path d="M1364.12 588.561C1483.95 588.561 1483.95 802.594 1603.12 802.594" stroke="#11C6A5" stroke-width="9" stroke-linecap="round"/>
<path d="M1206.21 588.561C1168.56 588.561 1001.72 588.56 967.21 588.561" stroke="#11C6A5" stroke-width="9" stroke-linecap="round"/>
<path d="M1761.02 802.594C1736.15 802.594 1625.92 802.594 1603.12 802.594" stroke="#11C6A5" stroke-width="9" stroke-linecap="round"/>
<path d="M1364.12 588.562C1339.24 588.562 1229.01 588.561 1206.21 588.561" stroke="#11C6A5" stroke-width="9" stroke-linecap="round"/>
<path d="M2158.42 588.561C2133.55 588.561 2023.31 588.56 2000.51 588.561" stroke="#00B8E3" stroke-width="9" stroke-linecap="round"/>
<path d="M2000.51 588.561C1880.68 588.561 1880.68 673.802 1761.51 673.802" stroke="#00B8E3" stroke-width="9" stroke-linecap="round"/>
<path d="M1603.12 673.802C1565.47 673.802 1398.63 673.801 1364.12 673.802" stroke="#00B8E3" stroke-width="9" stroke-linecap="round"/>
<path d="M967.21 200.256C1087.04 200.256 1087.04 673.801 1206.21 673.801" stroke="#00B8E3" stroke-width="9" stroke-linecap="round"/>
<path d="M1603.12 673.802C1627.99 673.802 1738.22 673.802 1761.02 673.802" stroke="#00B8E3" stroke-width="9" stroke-linecap="round"/>
<path d="M1206.21 673.802C1231.08 673.802 1341.32 673.802 1364.12 673.802" stroke="#00B8E3" stroke-width="9" stroke-linecap="round"/>
<path d="M1761.51 588.183C1881.34 588.183 1881.34 673.802 2000.51 673.802" stroke="#00C1C6" stroke-width="9" stroke-linecap="round"/>
<path d="M2000.51 673.802C2025.39 673.802 2135.62 673.802 2158.42 673.802" stroke="#00C1C6" stroke-width="9" stroke-linecap="round"/>
<path d="M1603.12 588.182C1483.29 588.182 1483.29 802.594 1364.12 802.594" stroke="#00C1C6" stroke-width="9" stroke-linecap="round"/>
<path d="M967.21 329.96C1087.04 329.959 1086.96 802.594 1206.21 802.594" stroke="#00C1C6" stroke-width="9" stroke-linecap="round"/>
<path d="M1761.02 588.183C1736.15 588.183 1625.92 588.182 1603.12 588.183" stroke="#00C1C6" stroke-width="9" stroke-linecap="round"/>
<path d="M1364.12 802.594C1339.24 802.594 1229.01 802.594 1206.21 802.594" stroke="#00C1C6" stroke-width="9" stroke-linecap="round"/>
<path d="M2000.51 974.583C1962.87 974.583 1796.02 974.582 1761.51 974.583" stroke="#56C88A" stroke-width="9" stroke-linecap="round"/>
<path d="M2158.42 974.583C2133.55 974.583 2023.31 974.583 2000.51 974.583" stroke="#56C88A" stroke-width="9" stroke-linecap="round"/>
<path d="M1603.12 974.582C1565.47 974.582 1398.63 974.582 1364.12 974.582" stroke="#56C88A" stroke-width="9" stroke-linecap="round"/>
<path d="M1206.21 974.582C1168.56 974.582 1001.72 974.582 967.21 974.582" stroke="#56C88A" stroke-width="9" stroke-linecap="round"/>
<path d="M1761.02 974.583C1736.15 974.583 1625.92 974.583 1603.12 974.583" stroke="#56C88A" stroke-width="9" stroke-linecap="round"/>
<path d="M1364.12 974.583C1339.24 974.583 1229.01 974.583 1206.21 974.583" stroke="#56C88A" stroke-width="9" stroke-linecap="round"/>
<path d="M1761.51 846.157C1881.34 846.157 1881.34 931.398 2000.51 931.398" stroke="#56C88A" stroke-width="9" stroke-linecap="round"/>
<path d="M2000.51 931.398C2025.39 931.398 2135.62 931.398 2158.42 931.398" stroke="#56C88A" stroke-width="9" stroke-linecap="round"/>
<path d="M1603.12 846.157C1565.47 846.157 1398.63 846.156 1364.12 846.157" stroke="#56C88A" stroke-width="9" stroke-linecap="round"/>
<path d="M1206.21 846.157C1168.56 846.157 1001.72 846.156 967.21 846.157" stroke="#56C88A" stroke-width="9" stroke-linecap="round"/>
<path d="M1761.02 846.157C1736.15 846.157 1625.92 846.156 1603.12 846.157" stroke="#56C88A" stroke-width="9" stroke-linecap="round"/>
<path d="M1364.12 846.157C1339.24 846.157 1229.01 846.156 1206.21 846.157" stroke="#56C88A" stroke-width="9" stroke-linecap="round"/>
<path d="M2000.51 716.987C1962.87 716.987 1796.02 716.986 1761.51 716.987" stroke="#00C1C6" stroke-width="9" stroke-linecap="round"/>
<path d="M2158.42 716.987C2133.55 716.987 2023.31 716.986 2000.51 716.987" stroke="#00C1C6" stroke-width="9" stroke-linecap="round"/>
<path d="M1603.12 716.986C1483.29 716.986 1483.29 931.776 1364.12 931.776" stroke="#00C1C6" stroke-width="9" stroke-linecap="round"/>
<path d="M967.21 458.622C1087.04 458.622 1087.04 931.777 1206.21 931.777" stroke="#00C1C6" stroke-width="9" stroke-linecap="round"/>
<path d="M1761.02 716.987C1736.15 716.987 1625.92 716.986 1603.12 716.987" stroke="#00C1C6" stroke-width="9" stroke-linecap="round"/>
<path d="M1206.21 931.777C1231.08 931.777 1341.32 931.776 1364.12 931.777" stroke="#00C1C6" stroke-width="9" stroke-linecap="round"/>
<path d="M3985.54 544.999C3947.89 544.999 3781.05 544.998 3746.54 544.999" stroke="white" stroke-width="9" stroke-linecap="round"/>
<path d="M3985.54 27.4968C3947.89 27.4968 3781.05 27.496 3746.54 27.4968" stroke="#C26FC9" stroke-width="9" stroke-linecap="round"/>
<path d="M3985.54 27.4972C3947.89 27.4972 3781.05 27.4964 3746.54 27.4972" stroke="#C26FC9" stroke-width="9" stroke-linecap="round"/>
<path d="M4143.44 27.4975C4118.57 27.4975 4008.34 27.4969 3985.54 27.4974" stroke="#C26FC9" stroke-width="9" stroke-linecap="round"/>
<path d="M3588.63 27.4968C3550.98 27.4968 3384.14 27.496 3349.63 27.4968" stroke="#C26FC9" stroke-width="9" stroke-linecap="round"/>
<path d="M3588.63 27.4972C3550.98 27.4972 3384.14 27.4964 3349.63 27.4972" stroke="#C26FC9" stroke-width="9" stroke-linecap="round"/>
<path d="M3746.54 27.4975C3721.66 27.4975 3611.43 27.4969 3588.63 27.4974" stroke="#C26FC9" stroke-width="9" stroke-linecap="round"/>
<path d="M3746.54 200.256C3866.37 200.256 3866.37 415.012 3985.54 415.012" stroke="#6E97F6" stroke-width="9" stroke-linecap="round"/>
<path d="M3588.63 200.256C3468.8 200.256 3468.8 673.801 3349.63 673.801" stroke="#6E97F6" stroke-width="9" stroke-linecap="round"/>
<path d="M3985.54 415.012C4010.41 415.012 4120.64 415.012 4143.44 415.012" stroke="#6E97F6" stroke-width="9" stroke-linecap="round"/>
<path d="M3746.54 200.256C3721.66 200.256 3611.43 200.256 3588.63 200.256" stroke="#6E97F6" stroke-width="9" stroke-linecap="round"/>
<path d="M4143.44 71.0601C4118.57 71.0601 4008.34 71.0595 3985.54 71.06" stroke="#00B8E3" stroke-width="9" stroke-linecap="round"/>
<path d="M3985.54 71.0601C3865.71 71.06 3865.71 286.208 3746.54 286.208" stroke="#00B8E3" stroke-width="9" stroke-linecap="round"/>
<path d="M3588.63 286.209C3550.98 286.209 3384.14 286.208 3349.63 286.209" stroke="#00B8E3" stroke-width="9" stroke-linecap="round"/>
<path d="M3746.54 286.208C3721.66 286.208 3611.43 286.208 3588.63 286.208" stroke="#00B8E3" stroke-width="9" stroke-linecap="round"/>
<path d="M3985.54 974.582C3947.89 974.582 3781.05 974.582 3746.54 974.582" stroke="#56C88A" stroke-width="9" stroke-linecap="round"/>
<path d="M3588.63 974.582C3550.98 974.582 3384.14 974.582 3349.63 974.582" stroke="#56C88A" stroke-width="9" stroke-linecap="round"/>
<path d="M4143.44 974.583C4118.57 974.583 4008.34 974.583 3985.54 974.583" stroke="#56C88A" stroke-width="9" stroke-linecap="round"/>
<path d="M3746.54 974.583C3721.66 974.583 3611.43 974.583 3588.63 974.583" stroke="#56C88A" stroke-width="9" stroke-linecap="round"/>
<path d="M3985.54 716.986C3865.71 716.986 3865.71 931.776 3746.54 931.776" stroke="#56C88A" stroke-width="9" stroke-linecap="round"/>
<path d="M3349.63 458.196C3469.46 458.196 3469.46 931.777 3588.63 931.777" stroke="#56C88A" stroke-width="9" stroke-linecap="round"/>
<path d="M4143.44 716.987C4118.57 716.987 4008.34 716.986 3985.54 716.987" stroke="#56C88A" stroke-width="9" stroke-linecap="round"/>
<path d="M3588.63 931.777C3613.5 931.777 3723.74 931.776 3746.54 931.777" stroke="#56C88A" stroke-width="9" stroke-linecap="round"/>
<path d="M2794.33 544.999C2756.68 544.999 2589.84 544.998 2555.33 544.999" stroke="white" stroke-width="9" stroke-linecap="round"/>
<path d="M3191.72 27.4972C3154.08 27.4972 2987.23 27.4964 2952.72 27.4972" stroke="#C26FC9" stroke-width="9" stroke-linecap="round"/>
<path d="M3349.63 27.4975C3324.76 27.4975 3214.52 27.4969 3191.72 27.4974" stroke="#C26FC9" stroke-width="9" stroke-linecap="round"/>
<path d="M2794.33 27.4968C2756.68 27.4968 2589.84 27.496 2555.33 27.4968" stroke="#C26FC9" stroke-width="9" stroke-linecap="round"/>
<path d="M2794.33 27.4972C2756.68 27.4972 2589.84 27.4964 2555.33 27.4972" stroke="#C26FC9" stroke-width="9" stroke-linecap="round"/>
<path d="M2952.23 27.4975C2927.36 27.4975 2817.13 27.4969 2794.33 27.4974" stroke="#C26FC9" stroke-width="9" stroke-linecap="round"/>
<path d="M2397.42 27.4968C2359.77 27.4968 2192.93 27.496 2158.42 27.4968" stroke="#C26FC9" stroke-width="9" stroke-linecap="round"/>
<path d="M2397.42 27.4972C2359.77 27.4972 2192.93 27.4964 2158.42 27.4972" stroke="#C26FC9" stroke-width="9" stroke-linecap="round"/>
<path d="M2555.33 27.4975C2530.45 27.4975 2420.22 27.4969 2397.42 27.4974" stroke="#C26FC9" stroke-width="9" stroke-linecap="round"/>
<path d="M3985.54 588.182C3865.71 588.182 3865.71 802.594 3746.54 802.594" stroke="#00C1C6" stroke-width="9" stroke-linecap="round"/>
<path d="M3349.63 329.96C3469.46 329.959 3469.38 802.594 3588.63 802.594" stroke="#00C1C6" stroke-width="9" stroke-linecap="round"/>
<path d="M4143.44 588.183C4118.57 588.183 4008.34 588.182 3985.54 588.183" stroke="#00C1C6" stroke-width="9" stroke-linecap="round"/>
<path d="M3746.54 802.594C3721.66 802.594 3611.43 802.594 3588.63 802.594" stroke="#00C1C6" stroke-width="9" stroke-linecap="round"/>
<path d="M3349.63 329.771C3324.76 329.771 3214.52 329.77 3191.72 329.771" stroke="#00C1C6" stroke-width="9" stroke-linecap="round"/>
<path d="M3191.72 329.771C3071.89 329.771 3071.89 415.012 2952.72 415.012" stroke="#00C1C6" stroke-width="9" stroke-linecap="round"/>
<path d="M2555.33 200.256C2675.16 200.256 2675.16 415.012 2794.33 415.012" stroke="#00C1C6" stroke-width="9" stroke-linecap="round"/>
<path d="M2397.42 200.256C2277.59 200.256 2277.59 673.801 2158.42 673.801" stroke="#00C1C6" stroke-width="9" stroke-linecap="round"/>
<path d="M2794.33 415.012C2819.2 415.012 2929.43 415.012 2952.23 415.012" stroke="#00C1C6" stroke-width="9" stroke-linecap="round"/>
<path d="M2555.33 200.256C2530.45 200.256 2420.22 200.256 2397.42 200.256" stroke="#00C1C6" stroke-width="9" stroke-linecap="round"/>
<path d="M3191.72 286.208C3154.08 286.208 2987.23 286.207 2952.72 286.208" stroke="#00B8E3" stroke-width="9" stroke-linecap="round"/>
<path d="M3349.63 286.208C3324.76 286.208 3214.52 286.208 3191.72 286.208" stroke="#00B8E3" stroke-width="9" stroke-linecap="round"/>
<path d="M2555.33 71.0594C2675.16 71.0594 2675.16 286.208 2794.33 286.208" stroke="#00B8E3" stroke-width="9" stroke-linecap="round"/>
<path d="M2952.23 286.208C2927.36 286.208 2817.13 286.208 2794.33 286.208" stroke="#00B8E3" stroke-width="9" stroke-linecap="round"/>
<path d="M2397.42 71.0601C2277.59 71.06 2277.59 544.999 2158.42 544.999" stroke="#00B8E3" stroke-width="9" stroke-linecap="round"/>
<path d="M2555.33 71.0601C2530.45 71.0601 2420.22 71.0595 2397.42 71.06" stroke="#00B8E3" stroke-width="9" stroke-linecap="round"/>
<path d="M3985.54 544.999C3947.89 544.999 3781.05 544.998 3746.54 544.999" stroke="#A97FE0" stroke-width="9" stroke-linecap="round"/>
<path d="M3349.63 71.0601C3469.46 71.06 3469.46 544.998 3588.63 544.998" stroke="#A97FE0" stroke-width="9" stroke-linecap="round"/>
<path d="M4143.44 544.998C4118.57 544.998 4008.34 544.998 3985.54 544.998" stroke="#A97FE0" stroke-width="9" stroke-linecap="round"/>
<path d="M3746.54 544.998C3721.66 544.998 3611.43 544.998 3588.63 544.998" stroke="#A97FE0" stroke-width="9" stroke-linecap="round"/>
<path d="M3349.63 71.0601C3324.76 71.0601 3214.52 71.0595 3191.72 71.06" stroke="#A97FE0" stroke-width="9" stroke-linecap="round"/>
<path d="M3191.72 71.0601C3071.89 71.0601 3071.89 156.679 2952.72 156.679" stroke="#A97FE0" stroke-width="9" stroke-linecap="round"/>
<path d="M2794.33 156.679C2756.68 156.679 2589.84 156.678 2555.33 156.679" stroke="#A97FE0" stroke-width="9" stroke-linecap="round"/>
<path d="M2794.33 156.679C2819.2 156.679 2929.43 156.679 2952.23 156.679" stroke="#A97FE0" stroke-width="9" stroke-linecap="round"/>
<path d="M2397.42 156.679C2359.77 156.679 2192.93 156.678 2158.42 156.679" stroke="#A97FE0" stroke-width="9" stroke-linecap="round"/>
<path d="M2397.42 156.679C2422.29 156.679 2532.53 156.679 2555.33 156.679" stroke="#A97FE0" stroke-width="9" stroke-linecap="round"/>
<path d="M3985.54 156.679C3947.89 156.679 3781.05 156.678 3746.54 156.679" stroke="#6E97F6" stroke-width="9" stroke-linecap="round"/>
<path d="M3985.54 156.679C4010.41 156.679 4120.64 156.679 4143.44 156.679" stroke="#6E97F6" stroke-width="9" stroke-linecap="round"/>
<path d="M3588.63 156.679C3550.98 156.679 3384.14 156.678 3349.63 156.679" stroke="#6E97F6" stroke-width="9" stroke-linecap="round"/>
<path d="M3588.63 156.679C3613.5 156.679 3723.74 156.679 3746.54 156.679" stroke="#6E97F6" stroke-width="9" stroke-linecap="round"/>
<path d="M2952.72 71.0598C3072.55 71.0598 3072.55 156.679 3191.72 156.679" stroke="#6E97F6" stroke-width="9" stroke-linecap="round"/>
<path d="M3191.72 156.679C3216.6 156.679 3326.83 156.679 3349.63 156.679" stroke="#6E97F6" stroke-width="9" stroke-linecap="round"/>
<path d="M2952.23 71.0601C2927.36 71.0601 2817.13 71.0595 2794.33 71.06" stroke="#6E97F6" stroke-width="9" stroke-linecap="round"/>
<path d="M2794.33 71.0601C2674.5 71.06 2674.5 286.208 2555.33 286.208" stroke="#6E97F6" stroke-width="9" stroke-linecap="round"/>
<path d="M2397.42 286.209C2359.77 286.209 2192.93 286.208 2158.42 286.209" stroke="#6E97F6" stroke-width="9" stroke-linecap="round"/>
<path d="M2555.33 286.208C2530.45 286.208 2420.22 286.208 2397.42 286.208" stroke="#6E97F6" stroke-width="9" stroke-linecap="round"/>
<path d="M3191.72 458.197C3154.08 458.197 2987.23 458.196 2952.72 458.197" stroke="#56C88A" stroke-width="9" stroke-linecap="round"/>
<path d="M3349.63 458.197C3324.76 458.197 3214.52 458.196 3191.72 458.197" stroke="#56C88A" stroke-width="9" stroke-linecap="round"/>
<path d="M2794.33 458.197C2756.68 458.197 2589.84 458.196 2555.33 458.197" stroke="#56C88A" stroke-width="9" stroke-linecap="round"/>
<path d="M2397.42 458.196C2277.59 458.196 2277.59 931.398 2158.42 931.398" stroke="#56C88A" stroke-width="9" stroke-linecap="round"/>
<path d="M2952.23 458.197C2927.36 458.197 2817.13 458.196 2794.33 458.197" stroke="#56C88A" stroke-width="9" stroke-linecap="round"/>
<path d="M2555.33 458.197C2530.45 458.197 2420.22 458.196 2397.42 458.197" stroke="#56C88A" stroke-width="9" stroke-linecap="round"/>
<path d="M4143.93 200.256C4119.06 200.256 4008.83 200.256 3986.03 200.256" stroke="#11C6A5" stroke-width="9" stroke-linecap="round"/>
<path d="M3985.54 200.256C3865.71 200.256 3865.71 414.635 3746.54 414.635" stroke="#11C6A5" stroke-width="9" stroke-linecap="round"/>
<path d="M3588.63 415.012C3550.98 415.012 3384.14 415.011 3349.63 415.012" stroke="#11C6A5" stroke-width="9" stroke-linecap="round"/>
<path d="M3588.63 415.012C3613.5 415.012 3723.74 415.012 3746.54 415.012" stroke="#11C6A5" stroke-width="9" stroke-linecap="round"/>
<path d="M2952.72 329.771C3072.55 329.771 3072.55 415.012 3191.72 415.012" stroke="#11C6A5" stroke-width="9" stroke-linecap="round"/>
<path d="M3191.72 415.012C3216.6 415.012 3326.83 415.012 3349.63 415.012" stroke="#11C6A5" stroke-width="9" stroke-linecap="round"/>
<path d="M2794.33 329.771C2756.68 329.771 2589.84 329.77 2555.33 329.771" stroke="#11C6A5" stroke-width="9" stroke-linecap="round"/>
<path d="M2397.42 329.96C2277.59 329.959 2277.59 802.594 2158.42 802.594" stroke="#11C6A5" stroke-width="9" stroke-linecap="round"/>
<path d="M2952.23 329.771C2927.36 329.771 2817.13 329.77 2794.33 329.771" stroke="#11C6A5" stroke-width="9" stroke-linecap="round"/>
<path d="M2555.33 329.771C2530.45 329.771 2420.22 329.77 2397.42 329.771" stroke="#11C6A5" stroke-width="9" stroke-linecap="round"/>
<path d="M3985.54 673.802C3947.89 673.802 3781.05 673.801 3746.54 673.802" stroke="#2BA5F8" stroke-width="9" stroke-linecap="round"/>
<path d="M3349.63 200.256C3469.46 200.256 3469.46 673.801 3588.63 673.801" stroke="#2BA5F8" stroke-width="9" stroke-linecap="round"/>
<path d="M3985.54 673.802C4010.41 673.802 4120.64 673.802 4143.44 673.802" stroke="#2BA5F8" stroke-width="9" stroke-linecap="round"/>
<path d="M3588.63 673.802C3613.5 673.802 3723.74 673.802 3746.54 673.802" stroke="#2BA5F8" stroke-width="9" stroke-linecap="round"/>
<path d="M3191.72 200.256C3154.08 200.256 2987.23 200.255 2952.72 200.256" stroke="#2BA5F8" stroke-width="9" stroke-linecap="round"/>
<path d="M3349.63 200.256C3324.76 200.256 3214.52 200.256 3191.72 200.256" stroke="#2BA5F8" stroke-width="9" stroke-linecap="round"/>
<path d="M2952.72 200.256C2927.85 200.256 2817.62 200.256 2794.82 200.256" stroke="#2BA5F8" stroke-width="9" stroke-linecap="round"/>
<path d="M2794.33 200.256C2674.5 200.256 2674.5 414.635 2555.33 414.635" stroke="#2BA5F8" stroke-width="9" stroke-linecap="round"/>
<path d="M2397.42 415.012C2359.77 415.012 2192.93 415.011 2158.42 415.012" stroke="#2BA5F8" stroke-width="9" stroke-linecap="round"/>
<path d="M2397.42 415.012C2422.29 415.012 2532.53 415.012 2555.33 415.012" stroke="#2BA5F8" stroke-width="9" stroke-linecap="round"/>
<path d="M3746.54 71.0594C3866.37 71.0594 3866.37 286.208 3985.54 286.208" stroke="#C26FC9" stroke-width="9" stroke-linecap="round"/>
<path d="M4143.44 286.208C4118.57 286.208 4008.34 286.208 3985.54 286.208" stroke="#C26FC9" stroke-width="9" stroke-linecap="round"/>
<path d="M3588.63 71.0601C3468.8 71.06 3468.8 544.999 3349.63 544.999" stroke="#C26FC9" stroke-width="9" stroke-linecap="round"/>
<path d="M3746.54 71.0601C3721.66 71.0601 3611.43 71.0595 3588.63 71.06" stroke="#C26FC9" stroke-width="9" stroke-linecap="round"/>
<path d="M3191.72 544.998C3154.08 544.998 2987.23 544.997 2952.72 544.998" stroke="#C26FC9" stroke-width="9" stroke-linecap="round"/>
<path d="M3349.63 544.998C3324.76 544.998 3214.52 544.998 3191.72 544.998" stroke="#C26FC9" stroke-width="9" stroke-linecap="round"/>
<path d="M2794.33 544.999C2756.68 544.999 2589.84 544.998 2555.33 544.999" stroke="#C26FC9" stroke-width="9" stroke-linecap="round"/>
<path d="M2158.42 71.0601C2278.25 71.06 2278.25 544.998 2397.42 544.998" stroke="#C26FC9" stroke-width="9" stroke-linecap="round"/>
<path d="M2952.23 544.998C2927.36 544.998 2817.13 544.998 2794.33 544.998" stroke="#C26FC9" stroke-width="9" stroke-linecap="round"/>
<path d="M2555.33 544.998C2530.45 544.998 2420.22 544.998 2397.42 544.998" stroke="#C26FC9" stroke-width="9" stroke-linecap="round"/>
<path d="M3985.54 846.157C3947.89 846.157 3781.05 846.156 3746.54 846.157" stroke="#00C1C6" stroke-width="9" stroke-linecap="round"/>
<path d="M3588.63 846.157C3550.98 846.157 3384.14 846.156 3349.63 846.157" stroke="#00C1C6" stroke-width="9" stroke-linecap="round"/>
<path d="M4143.44 846.157C4118.57 846.157 4008.34 846.156 3985.54 846.157" stroke="#00C1C6" stroke-width="9" stroke-linecap="round"/>
<path d="M3746.54 846.157C3721.66 846.157 3611.43 846.156 3588.63 846.157" stroke="#00C1C6" stroke-width="9" stroke-linecap="round"/>
<path d="M3349.63 846.157C3324.76 846.157 3214.52 846.156 3191.72 846.157" stroke="#00C1C6" stroke-width="9" stroke-linecap="round"/>
<path d="M3191.72 846.157C3071.89 846.157 3071.89 931.776 2952.72 931.776" stroke="#00C1C6" stroke-width="9" stroke-linecap="round"/>
<path d="M2555.33 716.986C2675.16 716.986 2675.16 931.776 2794.33 931.776" stroke="#00C1C6" stroke-width="9" stroke-linecap="round"/>
<path d="M2397.42 716.986C2359.77 716.986 2192.93 716.985 2158.42 716.986" stroke="#00C1C6" stroke-width="9" stroke-linecap="round"/>
<path d="M2793.43 931.777C2818.3 931.777 2928.53 931.776 2951.33 931.777" stroke="#00C1C6" stroke-width="9" stroke-linecap="round"/>
<path d="M2555.33 716.987C2530.45 716.987 2420.22 716.986 2397.42 716.987" stroke="#00C1C6" stroke-width="9" stroke-linecap="round"/>
<path d="M3746.54 588.561C3866.37 588.561 3866.37 802.594 3985.54 802.594" stroke="#A97FE0" stroke-width="9" stroke-linecap="round"/>
<path d="M3588.63 588.561C3550.98 588.561 3384.14 588.56 3349.63 588.561" stroke="#A97FE0" stroke-width="9" stroke-linecap="round"/>
<path d="M4143.44 802.594C4118.57 802.594 4008.34 802.594 3985.54 802.594" stroke="#A97FE0" stroke-width="9" stroke-linecap="round"/>
<path d="M3746.54 588.562C3721.66 588.562 3611.43 588.561 3588.63 588.561" stroke="#A97FE0" stroke-width="9" stroke-linecap="round"/>
<path d="M3349.63 588.561C3324.76 588.561 3214.52 588.56 3191.72 588.561" stroke="#A97FE0" stroke-width="9" stroke-linecap="round"/>
<path d="M3191.72 588.561C3071.89 588.561 3071.89 673.802 2952.72 673.802" stroke="#A97FE0" stroke-width="9" stroke-linecap="round"/>
<path d="M2794.33 673.802C2756.68 673.802 2589.84 673.801 2555.33 673.802" stroke="#A97FE0" stroke-width="9" stroke-linecap="round"/>
<path d="M2158.42 200.256C2278.25 200.256 2278.25 673.801 2397.42 673.801" stroke="#A97FE0" stroke-width="9" stroke-linecap="round"/>
<path d="M2794.33 673.802C2819.2 673.802 2929.43 673.802 2952.23 673.802" stroke="#A97FE0" stroke-width="9" stroke-linecap="round"/>
<path d="M2397.42 673.802C2422.29 673.802 2532.53 673.802 2555.33 673.802" stroke="#A97FE0" stroke-width="9" stroke-linecap="round"/>
<path d="M3191.72 802.594C3154.08 802.594 2987.23 802.593 2952.72 802.594" stroke="#00B8E3" stroke-width="9" stroke-linecap="round"/>
<path d="M3349.63 802.594C3324.76 802.594 3214.52 802.594 3191.72 802.594" stroke="#00B8E3" stroke-width="9" stroke-linecap="round"/>
<path d="M2555.33 588.561C2675.16 588.561 2675.16 802.594 2794.33 802.594" stroke="#00B8E3" stroke-width="9" stroke-linecap="round"/>
<path d="M2397.42 588.561C2359.77 588.561 2192.93 588.56 2158.42 588.561" stroke="#00B8E3" stroke-width="9" stroke-linecap="round"/>
<path d="M2952.23 802.594C2927.36 802.594 2817.13 802.594 2794.33 802.594" stroke="#00B8E3" stroke-width="9" stroke-linecap="round"/>
<path d="M2555.33 588.562C2530.45 588.562 2420.22 588.561 2397.42 588.561" stroke="#00B8E3" stroke-width="9" stroke-linecap="round"/>
<path d="M3985.54 329.771C3947.89 329.771 3781.05 329.77 3746.54 329.771" stroke="#00B8E3" stroke-width="9" stroke-linecap="round"/>
<path d="M3588.63 329.96C3468.8 329.959 3468.8 802.594 3349.63 802.594" stroke="#00B8E3" stroke-width="9" stroke-linecap="round"/>
<path d="M4143.44 329.771C4118.57 329.771 4008.34 329.77 3985.54 329.771" stroke="#00B8E3" stroke-width="9" stroke-linecap="round"/>
<path d="M3746.54 329.771C3721.66 329.771 3611.43 329.77 3588.63 329.771" stroke="#00B8E3" stroke-width="9" stroke-linecap="round"/>
<path d="M3191.72 974.583C3154.08 974.583 2987.23 974.582 2952.72 974.583" stroke="#56C88A" stroke-width="9" stroke-linecap="round"/>
<path d="M3349.63 974.583C3324.76 974.583 3214.52 974.583 3191.72 974.583" stroke="#56C88A" stroke-width="9" stroke-linecap="round"/>
<path d="M2794.33 974.582C2756.68 974.582 2589.84 974.582 2555.33 974.582" stroke="#56C88A" stroke-width="9" stroke-linecap="round"/>
<path d="M2397.42 974.582C2359.77 974.582 2192.93 974.582 2158.42 974.582" stroke="#56C88A" stroke-width="9" stroke-linecap="round"/>
<path d="M2952.23 974.583C2927.36 974.583 2817.13 974.583 2794.33 974.583" stroke="#56C88A" stroke-width="9" stroke-linecap="round"/>
<path d="M2555.33 974.583C2530.45 974.583 2420.22 974.583 2397.42 974.583" stroke="#56C88A" stroke-width="9" stroke-linecap="round"/>
<path d="M2952.72 846.157C3072.55 846.157 3072.55 931.398 3191.72 931.398" stroke="#11C6A5" stroke-width="9" stroke-linecap="round"/>
<path d="M3191.72 931.398C3216.6 931.398 3326.83 931.398 3349.63 931.398" stroke="#11C6A5" stroke-width="9" stroke-linecap="round"/>
<path d="M2794.33 846.157C2756.68 846.157 2589.84 846.156 2555.33 846.157" stroke="#11C6A5" stroke-width="9" stroke-linecap="round"/>
<path d="M2397.42 846.157C2359.77 846.157 2192.93 846.156 2158.42 846.157" stroke="#11C6A5" stroke-width="9" stroke-linecap="round"/>
<path d="M2952.23 846.157C2927.36 846.157 2817.13 846.156 2794.33 846.157" stroke="#11C6A5" stroke-width="9" stroke-linecap="round"/>
<path d="M2555.33 846.157C2530.45 846.157 2420.22 846.156 2397.42 846.157" stroke="#11C6A5" stroke-width="9" stroke-linecap="round"/>
<path d="M3985.54 458.197C3947.89 458.197 3781.05 458.196 3746.54 458.197" stroke="#11C6A5" stroke-width="9" stroke-linecap="round"/>
<path d="M3588.63 458.622C3468.8 458.622 3468.8 931.397 3349.63 931.397" stroke="#11C6A5" stroke-width="9" stroke-linecap="round"/>
<path d="M4143.44 458.197C4118.57 458.197 4008.34 458.196 3985.54 458.197" stroke="#11C6A5" stroke-width="9" stroke-linecap="round"/>
<path d="M3746.54 458.197C3721.66 458.197 3611.43 458.196 3588.63 458.197" stroke="#11C6A5" stroke-width="9" stroke-linecap="round"/>
<path d="M3746.54 716.986C3866.37 716.986 3866.37 931.776 3985.54 931.776" stroke="#2BA5F8" stroke-width="9" stroke-linecap="round"/>
<path d="M3588.63 716.986C3550.98 716.986 3384.14 716.985 3349.63 716.986" stroke="#2BA5F8" stroke-width="9" stroke-linecap="round"/>
<path d="M3984.64 931.777C4009.51 931.777 4119.74 931.776 4142.54 931.777" stroke="#2BA5F8" stroke-width="9" stroke-linecap="round"/>
<path d="M3746.54 716.987C3721.66 716.987 3611.43 716.986 3588.63 716.987" stroke="#2BA5F8" stroke-width="9" stroke-linecap="round"/>
<path d="M3191.72 716.794C3154.08 716.794 2987.23 716.793 2952.72 716.794" stroke="#2BA5F8" stroke-width="9" stroke-linecap="round"/>
<path d="M3349.63 716.794C3324.76 716.794 3214.52 716.793 3191.72 716.794" stroke="#2BA5F8" stroke-width="9" stroke-linecap="round"/>
<path d="M2794.33 716.793C2674.5 716.793 2674.5 931.776 2555.33 931.776" stroke="#2BA5F8" stroke-width="9" stroke-linecap="round"/>
<path d="M2158.42 458.197C2278.25 458.197 2278.25 931.777 2397.42 931.777" stroke="#2BA5F8" stroke-width="9" stroke-linecap="round"/>
<path d="M2952.23 716.794C2927.36 716.794 2817.13 716.793 2794.33 716.794" stroke="#2BA5F8" stroke-width="9" stroke-linecap="round"/>
<path d="M2397.42 931.777C2422.29 931.777 2532.53 931.776 2555.33 931.777" stroke="#2BA5F8" stroke-width="9" stroke-linecap="round"/>
<path d="M411.907 544.999C374.26 544.999 207.417 544.998 172.907 544.999" stroke="white" stroke-width="9" stroke-linecap="round"/>
<path d="M809.303 27.4966C771.655 27.4966 604.812 27.4957 570.303 27.4965" stroke="#C26FC9" stroke-width="9" stroke-linecap="round"/>
<path d="M967.21 27.4968C942.336 27.4968 832.103 27.4962 809.303 27.4968" stroke="#C26FC9" stroke-width="9" stroke-linecap="round"/>
<path d="M411.907 27.4962C374.259 27.4962 207.416 27.4953 172.907 27.4961" stroke="#C26FC9" stroke-width="9" stroke-linecap="round"/>
<path d="M411.907 27.4966C374.259 27.4966 207.416 27.4957 172.907 27.4965" stroke="#C26FC9" stroke-width="9" stroke-linecap="round"/>
<path d="M569.814 27.4968C544.94 27.4968 434.707 27.4962 411.907 27.4968" stroke="#C26FC9" stroke-width="9" stroke-linecap="round"/>
<path d="M172.907 27.4968C148.033 27.4968 37.8002 27.4962 14.9999 27.4968" stroke="#C26FC9" stroke-width="9" stroke-linecap="round"/>
<path d="M967.21 329.77C942.336 329.77 832.103 329.77 809.303 329.77" stroke="#00C1C6" stroke-width="9" stroke-linecap="round"/>
<path d="M809.303 329.77C689.473 329.77 689.473 415.011 570.303 415.011" stroke="#00C1C6" stroke-width="9" stroke-linecap="round"/>
<path d="M172.907 200.255C292.737 200.255 292.737 415.011 411.907 415.011" stroke="#00C1C6" stroke-width="9" stroke-linecap="round"/>
<path d="M411.907 415.012C436.781 415.012 547.014 415.011 569.814 415.012" stroke="#00C1C6" stroke-width="9" stroke-linecap="round"/>
<path d="M172.907 200.256C148.033 200.256 37.8002 200.255 14.9999 200.256" stroke="#00C1C6" stroke-width="9" stroke-linecap="round"/>
<path d="M809.303 286.207C771.655 286.207 604.812 286.206 570.303 286.207" stroke="#A97FE0" stroke-width="9" stroke-linecap="round"/>
<path d="M967.21 286.208C942.336 286.208 832.103 286.207 809.303 286.208" stroke="#A97FE0" stroke-width="9" stroke-linecap="round"/>
<path d="M172.907 71.0587C292.737 71.0587 292.737 286.207 411.907 286.207" stroke="#A97FE0" stroke-width="9" stroke-linecap="round"/>
<path d="M569.814 286.208C544.94 286.208 434.707 286.207 411.907 286.208" stroke="#A97FE0" stroke-width="9" stroke-linecap="round"/>
<path d="M172.907 71.0594C148.033 71.0594 37.8002 71.0588 14.9999 71.0593" stroke="#A97FE0" stroke-width="9" stroke-linecap="round"/>
<path d="M967.21 71.0594C942.336 71.0594 832.103 71.0588 809.303 71.0593" stroke="#00B8E3" stroke-width="9" stroke-linecap="round"/>
<path d="M809.303 71.0594C689.473 71.0594 689.473 156.679 570.303 156.679" stroke="#00B8E3" stroke-width="9" stroke-linecap="round"/>
<path d="M411.907 156.679C374.259 156.679 207.416 156.678 172.907 156.678" stroke="#00B8E3" stroke-width="9" stroke-linecap="round"/>
<path d="M411.907 156.679C436.781 156.679 547.014 156.678 569.814 156.679" stroke="#00B8E3" stroke-width="9" stroke-linecap="round"/>
<path d="M14.9999 156.679C39.8736 156.679 150.107 156.678 172.907 156.679" stroke="#00B8E3" stroke-width="9" stroke-linecap="round"/>
<path d="M570.303 71.0591C690.133 71.0591 690.133 156.679 809.303 156.679" stroke="#C26FC9" stroke-width="9" stroke-linecap="round"/>
<path d="M809.303 156.679C834.176 156.679 944.409 156.678 967.21 156.679" stroke="#C26FC9" stroke-width="9" stroke-linecap="round"/>
<path d="M569.814 71.0594C544.94 71.0594 434.707 71.0588 411.907 71.0593" stroke="#C26FC9" stroke-width="9" stroke-linecap="round"/>
<path d="M411.907 71.0594C292.077 71.0594 292.077 286.208 172.907 286.208" stroke="#C26FC9" stroke-width="9" stroke-linecap="round"/>
<path d="M172.907 286.208C148.033 286.208 37.8002 286.207 14.9999 286.208" stroke="#C26FC9" stroke-width="9" stroke-linecap="round"/>
<path d="M809.303 458.621C771.655 458.621 604.812 458.621 570.303 458.621" stroke="#00C1C6" stroke-width="9" stroke-linecap="round"/>
<path d="M967.21 458.622C942.336 458.622 832.103 458.621 809.303 458.622" stroke="#00C1C6" stroke-width="9" stroke-linecap="round"/>
<path d="M411.907 458.621C374.259 458.621 207.416 458.621 172.907 458.621" stroke="#00C1C6" stroke-width="9" stroke-linecap="round"/>
<path d="M569.814 458.622C544.94 458.622 434.707 458.621 411.907 458.622" stroke="#00C1C6" stroke-width="9" stroke-linecap="round"/>
<path d="M172.907 458.622C148.033 458.622 37.8002 458.621 14.9999 458.622" stroke="#00C1C6" stroke-width="9" stroke-linecap="round"/>
<path d="M570.303 329.77C690.133 329.77 690.133 415.011 809.303 415.011" stroke="#A97FE0" stroke-width="9" stroke-linecap="round"/>
<path d="M809.303 415.012C834.176 415.012 944.409 415.011 967.21 415.012" stroke="#A97FE0" stroke-width="9" stroke-linecap="round"/>
<path d="M411.907 329.771C374.259 329.771 207.416 329.77 172.907 329.771" stroke="#A97FE0" stroke-width="9" stroke-linecap="round"/>
<path d="M569.814 329.77C544.94 329.77 434.707 329.77 411.907 329.77" stroke="#A97FE0" stroke-width="9" stroke-linecap="round"/>
<path d="M172.907 329.77C148.033 329.77 37.8002 329.77 14.9999 329.77" stroke="#A97FE0" stroke-width="9" stroke-linecap="round"/>
<path d="M809.303 200.255C771.655 200.255 604.812 200.255 570.303 200.255" stroke="#00B8E3" stroke-width="9" stroke-linecap="round"/>
<path d="M967.21 200.256C942.336 200.256 832.103 200.255 809.303 200.256" stroke="#00B8E3" stroke-width="9" stroke-linecap="round"/>
<path d="M570.303 200.256C545.429 200.256 435.196 200.255 412.396 200.256" stroke="#00B8E3" stroke-width="9" stroke-linecap="round"/>
<path d="M411.907 200.256C292.077 200.256 292.077 414.634 172.907 414.634" stroke="#00B8E3" stroke-width="9" stroke-linecap="round"/>
<path d="M14.9999 415.012C39.8736 415.012 150.107 415.011 172.907 415.012" stroke="#00B8E3" stroke-width="9" stroke-linecap="round"/>
<path d="M809.303 544.997C771.655 544.997 604.812 544.996 570.303 544.997" stroke="#6E97F6" stroke-width="9" stroke-linecap="round"/>
<path d="M967.21 544.998C942.336 544.998 832.103 544.997 809.303 544.998" stroke="#6E97F6" stroke-width="9" stroke-linecap="round"/>
<path d="M411.907 544.998C374.259 544.998 207.416 544.998 172.907 544.998" stroke="#6E97F6" stroke-width="9" stroke-linecap="round"/>
<path d="M569.814 544.998C544.94 544.998 434.707 544.997 411.907 544.998" stroke="#6E97F6" stroke-width="9" stroke-linecap="round"/>
<path d="M172.907 544.998C148.033 544.998 37.8002 544.997 14.9999 544.998" stroke="#6E97F6" stroke-width="9" stroke-linecap="round"/>
<path d="M967.21 846.156C942.336 846.156 832.103 846.156 809.303 846.156" stroke="#56C88A" stroke-width="9" stroke-linecap="round"/>
<path d="M809.303 846.156C689.473 846.156 689.473 931.776 570.303 931.776" stroke="#56C88A" stroke-width="9" stroke-linecap="round"/>
<path d="M172.907 716.986C292.737 716.986 292.737 931.775 411.907 931.775" stroke="#56C88A" stroke-width="9" stroke-linecap="round"/>
<path d="M411.007 931.776C435.881 931.776 546.114 931.775 568.914 931.776" stroke="#56C88A" stroke-width="9" stroke-linecap="round"/>
<path d="M172.907 716.986C148.033 716.986 37.8002 716.986 14.9999 716.986" stroke="#56C88A" stroke-width="9" stroke-linecap="round"/>
<path d="M809.303 802.594C771.655 802.594 604.812 802.593 570.303 802.593" stroke="#2BA5F8" stroke-width="9" stroke-linecap="round"/>
<path d="M967.21 802.594C942.336 802.594 832.103 802.593 809.303 802.594" stroke="#2BA5F8" stroke-width="9" stroke-linecap="round"/>
<path d="M172.907 588.56C292.737 588.56 292.737 802.593 411.907 802.593" stroke="#2BA5F8" stroke-width="9" stroke-linecap="round"/>
<path d="M569.814 802.594C544.94 802.594 434.707 802.593 411.907 802.594" stroke="#2BA5F8" stroke-width="9" stroke-linecap="round"/>
<path d="M172.907 588.561C148.033 588.561 37.8002 588.56 14.9999 588.561" stroke="#2BA5F8" stroke-width="9" stroke-linecap="round"/>
<path d="M967.21 588.56C942.336 588.56 832.103 588.56 809.303 588.56" stroke="#11C6A5" stroke-width="9" stroke-linecap="round"/>
<path d="M809.303 588.56C689.473 588.56 689.473 673.801 570.303 673.801" stroke="#11C6A5" stroke-width="9" stroke-linecap="round"/>
<path d="M411.907 673.801C374.259 673.801 207.416 673.8 172.907 673.801" stroke="#11C6A5" stroke-width="9" stroke-linecap="round"/>
<path d="M411.907 673.802C436.781 673.802 547.014 673.801 569.814 673.802" stroke="#11C6A5" stroke-width="9" stroke-linecap="round"/>
<path d="M14.9999 673.802C39.8736 673.802 150.107 673.801 172.907 673.802" stroke="#11C6A5" stroke-width="9" stroke-linecap="round"/>
<path d="M570.303 588.182C690.133 588.182 690.133 673.801 809.303 673.801" stroke="#6E97F6" stroke-width="9" stroke-linecap="round"/>
<path d="M809.303 673.802C834.176 673.802 944.409 673.801 967.21 673.802" stroke="#6E97F6" stroke-width="9" stroke-linecap="round"/>
<path d="M411.907 588.182C292.077 588.182 292.077 802.593 172.907 802.593" stroke="#6E97F6" stroke-width="9" stroke-linecap="round"/>
<path d="M569.814 588.182C544.94 588.182 434.707 588.181 411.907 588.182" stroke="#6E97F6" stroke-width="9" stroke-linecap="round"/>
<path d="M172.907 802.594C148.033 802.594 37.8002 802.593 14.9999 802.594" stroke="#6E97F6" stroke-width="9" stroke-linecap="round"/>
<path d="M809.303 974.582C771.655 974.582 604.812 974.581 570.303 974.582" stroke="#56C88A" stroke-width="9" stroke-linecap="round"/>
<path d="M967.21 974.583C942.336 974.583 832.103 974.582 809.303 974.582" stroke="#56C88A" stroke-width="9" stroke-linecap="round"/>
<path d="M411.907 974.582C374.259 974.582 207.416 974.581 172.907 974.582" stroke="#56C88A" stroke-width="9" stroke-linecap="round"/>
<path d="M569.814 974.583C544.94 974.583 434.707 974.582 411.907 974.582" stroke="#56C88A" stroke-width="9" stroke-linecap="round"/>
<path d="M172.907 974.583C148.033 974.583 37.8002 974.582 14.9999 974.582" stroke="#56C88A" stroke-width="9" stroke-linecap="round"/>
<path d="M570.303 846.158C690.133 846.158 690.133 931.398 809.303 931.398" stroke="#2BA5F8" stroke-width="9" stroke-linecap="round"/>
<path d="M809.303 931.398C834.176 931.398 944.409 931.397 967.21 931.398" stroke="#2BA5F8" stroke-width="9" stroke-linecap="round"/>
<path d="M411.907 846.157C374.259 846.157 207.416 846.156 172.907 846.157" stroke="#2BA5F8" stroke-width="9" stroke-linecap="round"/>
<path d="M569.814 846.158C544.94 846.158 434.707 846.157 411.907 846.158" stroke="#2BA5F8" stroke-width="9" stroke-linecap="round"/>
<path d="M172.907 846.158C148.033 846.158 37.8002 846.157 14.9999 846.158" stroke="#2BA5F8" stroke-width="9" stroke-linecap="round"/>
<path d="M809.303 716.986C771.655 716.986 604.812 716.985 570.303 716.986" stroke="#11C6A5" stroke-width="9" stroke-linecap="round"/>
<path d="M967.21 716.986C942.336 716.986 832.103 716.986 809.303 716.986" stroke="#11C6A5" stroke-width="9" stroke-linecap="round"/>
<path d="M411.907 716.986C292.077 716.986 292.077 931.775 172.907 931.775" stroke="#11C6A5" stroke-width="9" stroke-linecap="round"/>
<path d="M569.814 716.986C544.94 716.986 434.707 716.986 411.907 716.986" stroke="#11C6A5" stroke-width="9" stroke-linecap="round"/>
<path d="M14.9999 931.776C39.8736 931.776 150.107 931.775 172.907 931.776" stroke="#11C6A5" stroke-width="9" stroke-linecap="round"/>
<path d="M2952.72 588.183C3072.55 588.183 3072.55 673.802 3191.72 673.802" stroke="#6E97F6" stroke-width="9" stroke-linecap="round"/>
<path d="M3191.72 673.802C3216.6 673.802 3326.83 673.802 3349.63 673.802" stroke="#6E97F6" stroke-width="9" stroke-linecap="round"/>
<path d="M2794.33 588.182C2674.5 588.182 2674.5 802.594 2555.33 802.594" stroke="#6E97F6" stroke-width="9" stroke-linecap="round"/>
<path d="M2158.42 329.96C2278.25 329.959 2278.17 802.594 2397.42 802.594" stroke="#6E97F6" stroke-width="9" stroke-linecap="round"/>
<path d="M2952.23 588.183C2927.36 588.183 2817.13 588.182 2794.33 588.183" stroke="#6E97F6" stroke-width="9" stroke-linecap="round"/>
<path d="M2555.33 802.594C2530.45 802.594 2420.22 802.594 2397.42 802.594" stroke="#6E97F6" stroke-width="9" stroke-linecap="round"/>
</svg>
