<svg width="2377" height="470" viewBox="0 0 2377 470" fill="none" xmlns="http://www.w3.org/2000/svg">
<path fill-rule="evenodd" clip-rule="evenodd" d="M2000.28 453.34C2023.96 463.958 2052.75 469.268 2086.65 469.268C2118.91 469.268 2146.68 464.571 2169.96 455.178C2193.24 445.785 2211.21 432.308 2223.87 414.747C2236.94 397.186 2243.47 375.746 2243.47 350.426C2243.47 327.556 2238.57 308.974 2228.77 294.68C2218.97 280.386 2203.86 268.339 2183.44 258.537C2163.02 248.736 2137.29 239.139 2106.25 229.746C2077.67 220.761 2054.39 212.389 2036.42 204.63C2018.86 196.87 2005.99 188.09 1997.83 178.289C1989.66 168.487 1985.57 155.827 1985.57 140.308C1985.57 116.213 1994.56 98.6522 2012.53 87.6256C2030.9 76.1906 2054.59 70.4731 2083.59 70.4731C2112.17 70.4731 2135.45 76.8032 2153.42 89.4633C2171.8 101.715 2182.21 117.438 2184.66 136.633C2185.48 141.533 2187.32 144.8 2190.18 146.434C2193.44 148.068 2196.3 148.884 2198.75 148.884H2218.36C2222.85 148.884 2226.12 147.659 2228.16 145.209C2230.2 142.35 2231.22 139.491 2231.22 136.633C2230.81 124.789 2227.34 112.537 2220.81 99.8773C2214.68 87.2172 2205.49 75.3738 2193.24 64.3473C2181.4 53.3207 2166.29 44.5403 2147.91 38.006C2129.53 31.4717 2108.09 28.2046 2083.59 28.2046C2052.96 28.2046 2026.82 33.3095 2005.18 43.5193C1983.53 53.3207 1966.99 66.5934 1955.56 83.3375C1944.53 100.082 1939.02 119.072 1939.02 140.308C1939.02 163.178 1943.51 181.964 1952.49 196.666C1961.48 210.96 1975.57 223.212 1994.76 233.421C2013.96 243.631 2038.05 253.228 2067.05 262.213C2097.27 271.606 2121.77 280.182 2140.56 287.942C2159.75 295.293 2173.84 303.869 2182.83 313.67C2192.22 323.063 2196.92 335.519 2196.92 351.038C2196.92 374.316 2188.14 392.898 2170.57 406.784C2153.01 420.261 2125.04 426.999 2086.65 426.999C2061.33 426.999 2040.71 423.528 2024.78 416.585C2008.85 409.234 1996.6 400.249 1988.02 389.631C1979.86 379.013 1974.96 368.395 1973.32 357.777C1972.5 354.509 1970.87 351.651 1968.42 349.2C1966.38 346.75 1963.11 345.525 1958.62 345.525H1939.63C1935.95 345.525 1932.89 346.75 1930.44 349.2C1927.99 351.651 1926.76 354.509 1926.76 357.777C1927.58 376.563 1934.12 394.532 1946.37 411.684C1959.03 428.428 1977 442.314 2000.28 453.34ZM1781.76 36.6798C1783.37 34.8186 1785.41 33.5521 1787.61 32.9005C1788.49 32.6017 1789.44 32.4364 1790.47 32.4045C1790.89 32.3815 1791.31 32.3796 1791.73 32.3988H1815.5C1818.6 32.3988 1821.08 33.8241 1822.94 36.6747C1825.12 39.118 1826.2 42.3758 1826.2 46.4481V445.937C1826.2 450.009 1825.12 453.471 1822.94 456.321C1821.08 458.765 1818.6 459.986 1815.5 459.986H1790.84C1787.43 459.986 1784.79 458.765 1782.93 456.321C1781.07 453.471 1780.14 450.009 1780.14 445.937V108.997L1750.08 143.778C1745.6 148.962 1737.76 149.532 1732.58 145.052L1716.51 131.158C1711.32 126.678 1710.75 118.843 1715.23 113.659L1781.76 36.6798ZM840.803 456.321C842.664 458.764 845.3 459.986 848.712 459.986H873.371C876.472 459.986 878.954 458.764 880.815 456.321C882.986 453.47 884.072 450.009 884.072 445.937V444.223C889.536 448.266 895.527 451.814 902.046 454.865C916.934 461.378 935.079 464.635 956.481 464.635C978.193 464.635 996.338 461.378 1010.92 454.865C1025.8 448.041 1037.75 438.736 1046.74 426.949C1056.05 415.163 1062.87 401.671 1067.21 386.472C1071.86 371.274 1074.35 355.145 1074.66 338.086C1074.97 329.711 1075.12 320.871 1075.12 311.566C1075.43 302.261 1075.43 292.956 1075.12 283.651C1075.12 274.035 1074.97 264.885 1074.66 256.2C1074.35 239.141 1071.86 223.012 1067.21 207.814C1062.87 192.305 1056.05 178.813 1046.74 167.336C1037.44 155.55 1025.34 146.4 1010.45 139.886C995.873 133.063 977.883 129.651 956.481 129.651C935.389 129.651 917.399 133.063 902.511 139.886C895.797 142.824 889.65 146.298 884.072 150.308V46.4477C884.072 42.3755 882.986 39.1176 880.815 36.6743C878.954 33.8237 876.472 32.3984 873.371 32.3984H848.712C846.164 32.3984 844.048 33.1935 842.365 34.7837C841.075 35.4794 839.888 36.417 838.873 37.5913L772.341 114.57C767.86 119.754 768.431 127.589 773.615 132.07L789.69 145.963C794.874 150.444 802.709 149.874 807.19 144.689L838.011 109.028V278.413C837.954 280.143 837.897 281.889 837.841 283.651V311.566C837.897 313.271 837.954 314.96 838.011 316.633V445.937C838.011 450.009 838.942 453.47 840.803 456.321ZM2340.17 459.982C2337.07 459.982 2334.43 459.051 2332.26 457.19C2330.4 455.019 2329.47 452.383 2329.47 449.281V228.749C2329.47 225.648 2330.4 223.166 2332.26 221.305C2334.43 219.134 2337.07 218.048 2340.17 218.048H2362.5C2365.6 218.048 2368.09 219.134 2369.95 221.305C2371.81 223.166 2372.74 225.648 2372.74 228.749V449.281C2372.74 452.383 2371.81 455.019 2369.95 457.19C2368.09 459.051 2365.6 459.982 2362.5 459.982H2340.17ZM2336.45 172.919C2333.35 172.919 2330.71 171.988 2328.54 170.127C2326.68 167.956 2325.75 165.319 2325.75 162.218V137.094C2325.75 133.992 2326.68 131.511 2328.54 129.65C2330.71 127.479 2333.35 126.393 2336.45 126.393H2365.76C2368.86 126.393 2371.34 127.479 2373.2 129.65C2375.38 131.511 2376.46 133.992 2376.46 137.094V162.218C2376.46 165.319 2375.38 167.956 2373.2 170.127C2371.34 171.988 2368.86 172.919 2365.76 172.919H2336.45ZM1009.99 401.36C998.509 417.179 980.674 425.088 956.481 425.088C932.908 425.088 915.228 417.179 903.442 401.36C891.655 385.232 885.452 363.364 884.832 335.759C884.832 326.764 884.676 318.08 884.366 309.705V284.116C884.676 275.431 884.832 266.901 884.832 258.527C885.452 231.542 891.5 209.985 902.977 193.856C914.763 177.417 932.598 169.198 956.481 169.198C980.674 169.198 998.509 177.417 1009.99 193.856C1021.77 209.985 1027.82 231.542 1028.13 258.527C1028.75 266.901 1029.06 275.431 1029.06 284.116V309.705C1029.06 318.08 1028.75 326.764 1028.13 335.759C1027.82 363.364 1021.77 385.232 1009.99 401.36ZM1238.95 464.635C1217.55 464.635 1199.4 461.378 1184.52 454.865C1169.94 448.041 1158 438.736 1148.69 426.949C1139.39 415.163 1132.56 401.671 1128.22 386.472C1124.19 371.274 1121.86 355.145 1121.24 338.086C1120.93 329.711 1120.62 320.871 1120.31 311.566V283.651C1120.62 274.035 1120.93 264.885 1121.24 256.2C1121.55 239.141 1123.88 223.012 1128.22 207.814C1132.87 192.305 1139.7 178.813 1148.69 167.336C1158 155.55 1170.09 146.4 1184.98 139.886C1199.87 133.063 1217.86 129.651 1238.95 129.651C1260.35 129.651 1278.34 133.063 1292.92 139.886C1307.81 146.4 1319.91 155.55 1329.21 167.336C1338.52 178.813 1345.34 192.305 1349.68 207.814C1354.33 223.012 1356.82 239.141 1357.13 256.2C1357.44 264.885 1357.59 274.035 1357.59 283.651C1357.9 292.956 1357.9 302.261 1357.59 311.566C1357.59 320.871 1357.44 329.711 1357.13 338.086C1356.82 355.145 1354.33 371.274 1349.68 386.472C1345.34 401.671 1338.52 415.163 1329.21 426.949C1320.22 438.736 1308.27 448.041 1293.39 454.865C1278.81 461.378 1260.66 464.635 1238.95 464.635ZM1238.95 425.088C1263.14 425.088 1280.98 417.179 1292.46 401.36C1304.24 385.232 1310.29 363.364 1310.6 335.759C1311.22 326.764 1311.53 318.08 1311.53 309.705V284.116C1311.53 275.431 1311.22 266.901 1310.6 258.527C1310.29 231.542 1304.24 209.985 1292.46 193.856C1280.98 177.417 1263.14 169.198 1238.95 169.198C1215.07 169.198 1197.23 177.417 1185.45 193.856C1173.97 209.985 1167.92 231.542 1167.3 258.527C1167.3 266.901 1167.15 275.431 1166.84 284.116V309.705C1167.15 318.08 1167.3 326.764 1167.3 335.759C1167.92 363.364 1174.13 385.232 1185.91 401.36C1197.7 417.179 1215.38 425.088 1238.95 425.088ZM1477.67 454.865C1492.56 461.378 1510.7 464.635 1532.1 464.635C1553.82 464.635 1571.96 461.378 1586.54 454.865C1601.43 448.041 1613.37 438.736 1622.36 426.949C1631.67 415.163 1638.49 401.671 1642.83 386.472C1647.49 371.274 1649.97 355.145 1650.28 338.086C1650.59 329.711 1650.74 320.871 1650.74 311.566C1651.05 302.261 1651.05 292.956 1650.74 283.651C1650.74 274.035 1650.59 264.885 1650.28 256.2C1649.97 239.141 1647.49 223.012 1642.83 207.814C1638.49 192.305 1631.67 178.813 1622.36 167.336C1613.06 155.55 1600.96 146.4 1586.07 139.886C1571.5 133.063 1553.51 129.651 1532.1 129.651C1511.01 129.651 1493.02 133.063 1478.13 139.886C1463.25 146.4 1451.15 155.55 1441.84 167.336C1432.85 178.813 1426.03 192.305 1421.37 207.814C1417.03 223.012 1414.7 239.141 1414.39 256.2C1414.08 264.885 1413.77 274.035 1413.46 283.651V311.566C1413.77 320.871 1414.08 329.711 1414.39 338.086C1415.01 355.145 1417.34 371.274 1421.37 386.472C1425.71 401.671 1432.54 415.163 1441.84 426.949C1451.15 438.736 1463.09 448.041 1477.67 454.865ZM1585.61 401.36C1574.13 417.179 1556.3 425.088 1532.1 425.088C1508.53 425.088 1490.85 417.179 1479.06 401.36C1467.28 385.232 1461.07 363.364 1460.45 335.759C1460.45 326.764 1460.3 318.08 1459.99 309.705V284.116C1460.3 275.431 1460.45 266.901 1460.45 258.527C1461.07 231.542 1467.12 209.985 1478.6 193.856C1490.39 177.417 1508.22 169.198 1532.1 169.198C1556.3 169.198 1574.13 177.417 1585.61 193.856C1597.39 209.985 1603.44 231.542 1603.75 258.527C1604.37 266.901 1604.68 275.431 1604.68 284.116V309.705C1604.68 318.08 1604.37 326.764 1603.75 335.759C1603.44 363.364 1597.39 385.232 1585.61 401.36Z" fill="white" fill-opacity="0.95"/>
<path d="M0.766846 20.03C0.766846 9.39314 9.38971 0.770264 20.0265 0.770264H334.446C408.904 0.770264 469.264 61.1303 469.264 135.588V450.008C469.264 460.644 460.641 469.267 450.004 469.267H135.585C61.1269 469.267 0.766846 408.907 0.766846 334.449V20.03Z" fill="url(#paint0_linear_418_3)"/>
<path d="M0.766846 20.03C0.766846 9.39314 9.38971 0.770264 20.0265 0.770264H334.446C408.904 0.770264 469.264 61.1303 469.264 135.588V450.008C469.264 460.644 460.641 469.267 450.004 469.267H135.585C61.1269 469.267 0.766846 408.907 0.766846 334.449V20.03Z" fill="white" fill-opacity="0.1"/>
<path d="M0.766846 20.03C0.766846 9.39314 9.38971 0.770264 20.0265 0.770264H334.446C408.904 0.770264 469.264 61.1303 469.264 135.588V450.008C469.264 460.644 460.641 469.267 450.004 469.267H135.585C61.1269 469.267 0.766846 408.907 0.766846 334.449V20.03Z" fill="url(#paint1_radial_418_3)"/>
<path d="M0.766846 20.03C0.766846 9.39314 9.38971 0.770264 20.0265 0.770264H334.446C408.904 0.770264 469.264 61.1303 469.264 135.588V450.008C469.264 460.644 460.641 469.267 450.004 469.267H135.585C61.1269 469.267 0.766846 408.907 0.766846 334.449V20.03Z" fill="white" fill-opacity="0.95"/>
<rect x="312.468" y="203.314" width="32.3244" height="180.67" transform="rotate(52.0384 312.468 203.314)" fill="url(#paint2_linear_418_3)"/>
<path d="M248.495 408.708C230.961 408.708 216.096 406.039 203.898 400.703C191.955 395.112 182.171 387.489 174.548 377.833C166.924 368.176 161.334 357.122 157.776 344.671C154.473 332.219 152.567 319.005 152.059 305.029C151.805 298.168 151.551 290.925 151.296 283.302C151.296 275.678 151.296 268.055 151.296 260.432C151.551 252.554 151.805 245.058 152.059 237.942C152.313 223.966 154.219 210.752 157.776 198.301C161.588 185.595 167.179 174.541 174.548 165.139C182.171 155.482 192.082 147.986 204.279 142.649C216.477 137.059 231.215 134.264 248.495 134.264C266.029 134.264 280.768 137.059 292.711 142.649C304.909 147.986 314.819 155.482 322.443 165.139C330.066 174.541 335.657 185.595 339.214 198.301C343.026 210.752 345.059 223.966 345.313 237.942C345.567 245.058 345.694 252.554 345.694 260.432C345.948 268.055 345.948 275.678 345.694 283.302C345.694 290.925 345.567 298.168 345.313 305.029C345.059 319.005 343.026 332.219 339.214 344.671C335.657 357.122 330.066 368.176 322.443 377.833C315.073 387.489 305.29 395.112 293.092 400.703C281.149 406.039 266.283 408.708 248.495 408.708ZM248.495 376.308C268.316 376.308 282.928 369.828 292.33 356.868C301.986 343.654 306.942 325.739 307.196 303.123C307.704 295.754 307.958 288.638 307.958 281.777C307.958 274.662 307.958 267.674 307.958 260.813C307.958 253.698 307.704 246.709 307.196 239.848C306.942 217.74 301.986 200.079 292.33 186.865C282.928 173.397 268.316 166.663 248.495 166.663C228.928 166.663 214.317 173.397 204.66 186.865C195.258 200.079 190.303 217.74 189.795 239.848C189.795 246.709 189.668 253.698 189.414 260.813C189.414 267.674 189.414 274.662 189.414 281.777C189.668 288.638 189.795 295.754 189.795 303.123C190.303 325.739 195.385 343.654 205.042 356.868C214.698 369.828 229.183 376.308 248.495 376.308Z" fill="url(#paint3_linear_418_3)"/>
<path d="M160.098 276.412C157.303 276.412 155.143 275.774 153.618 274.499C152.093 273.011 151.331 271.204 151.331 269.079V60.5515C151.331 58.4259 152.093 56.7254 153.618 55.45C155.143 53.962 157.303 53.218 160.098 53.218H180.3C182.841 53.218 184.874 53.962 186.399 55.45C188.178 56.7254 189.067 58.4259 189.067 60.5515V269.079C189.067 271.204 188.178 273.011 186.399 274.499C184.874 275.774 182.841 276.412 180.3 276.412H160.098Z" fill="url(#paint4_linear_418_3)"/>
<rect x="158.713" y="49.05" width="37.7363" height="104.003" rx="10.2199" transform="rotate(40.8367 158.713 49.05)" fill="url(#paint5_linear_418_3)"/>
<defs>
<linearGradient id="paint0_linear_418_3" x1="387.165" y1="53.5017" x2="89.5379" y2="427.875" gradientUnits="userSpaceOnUse">
<stop stop-color="#7899EF"/>
<stop offset="1" stop-color="#AE70D5"/>
</linearGradient>
<radialGradient id="paint1_radial_418_3" cx="0" cy="0" r="1" gradientUnits="userSpaceOnUse" gradientTransform="translate(315.963 100.429) rotate(43.7951) scale(177.474 107.917)">
<stop stop-color="white" stop-opacity="0.34"/>
<stop offset="1" stop-color="white" stop-opacity="0"/>
<stop offset="1" stop-color="white" stop-opacity="0"/>
</radialGradient>
<linearGradient id="paint2_linear_418_3" x1="339.127" y1="223.65" x2="288.658" y2="235.008" gradientUnits="userSpaceOnUse">
<stop stop-color="#7899EF"/>
<stop offset="1" stop-color="#AE70D5"/>
</linearGradient>
<linearGradient id="paint3_linear_418_3" x1="311.785" y1="165.154" x2="133.994" y2="323.718" gradientUnits="userSpaceOnUse">
<stop stop-color="#7899EF"/>
<stop offset="1" stop-color="#AE70D5"/>
</linearGradient>
<linearGradient id="paint4_linear_418_3" x1="182.454" y1="78.3395" x2="123.23" y2="90.9348" gradientUnits="userSpaceOnUse">
<stop stop-color="#7899EF"/>
<stop offset="1" stop-color="#AE70D5"/>
</linearGradient>
<linearGradient id="paint5_linear_418_3" x1="189.836" y1="60.756" x2="138.604" y2="84.1384" gradientUnits="userSpaceOnUse">
<stop stop-color="#7899EF"/>
<stop offset="1" stop-color="#AE70D5"/>
</linearGradient>
</defs>
</svg>
