<svg id="nodes_svg" width="4158" height="1041" viewBox="0 0 4158 1041" fill="none" xmlns="http://www.w3.org/2000/svg">
<path class="neuron_fill" d="M4118.85 68C4118.85 100.585 4092.43 127 4059.85 127C4027.26 127 4000.85 100.585 4000.85 68C4000.85 35.4152 4027.26 9 4059.85 9C4092.43 9 4118.85 35.4152 4118.85 68Z" fill="#5606FF"/>
<path class="neuron_grad" d="M4118.85 68C4118.85 100.585 4092.43 127 4059.85 127C4027.26 127 4000.85 100.585 4000.85 68C4000.85 35.4152 4027.26 9 4059.85 9C4092.43 9 4118.85 35.4152 4118.85 68Z" fill="url(#paint0_radial_23_2438)"/>
<path class="neuron_edge" d="M4118.85 68C4118.85 100.585 4092.43 127 4059.85 127C4027.26 127 4000.85 100.585 4000.85 68C4000.85 35.4152 4027.26 9 4059.85 9C4092.43 9 4118.85 35.4152 4118.85 68Z" stroke="#1A1B27" stroke-width="18"/>
<path class="neuron_fill" d="M4118.85 197.255C4118.85 229.84 4092.43 256.255 4059.85 256.255C4027.26 256.255 4000.85 229.84 4000.85 197.255C4000.85 164.67 4027.26 138.255 4059.85 138.255C4092.43 138.255 4118.85 164.67 4118.85 197.255Z" fill="#5606FF"/>
<path class="neuron_grad" d="M4118.85 197.255C4118.85 229.84 4092.43 256.255 4059.85 256.255C4027.26 256.255 4000.85 229.84 4000.85 197.255C4000.85 164.67 4027.26 138.255 4059.85 138.255C4092.43 138.255 4118.85 164.67 4118.85 197.255Z" fill="url(#paint1_radial_23_2438)"/>
<path class="neuron_edge" d="M4118.85 197.255C4118.85 229.84 4092.43 256.255 4059.85 256.255C4027.26 256.255 4000.85 229.84 4000.85 197.255C4000.85 164.67 4027.26 138.255 4059.85 138.255C4092.43 138.255 4118.85 164.67 4118.85 197.255Z" stroke="#1A1B27" stroke-width="18"/>
<path class="neuron_fill" d="M4118.85 326.51C4118.85 359.095 4092.43 385.51 4059.85 385.51C4027.26 385.51 4000.85 359.095 4000.85 326.51C4000.85 293.925 4027.26 267.51 4059.85 267.51C4092.43 267.51 4118.85 293.925 4118.85 326.51Z" fill="#5606FF"/>
<path class="neuron_grad" d="M4118.85 326.51C4118.85 359.095 4092.43 385.51 4059.85 385.51C4027.26 385.51 4000.85 359.095 4000.85 326.51C4000.85 293.925 4027.26 267.51 4059.85 267.51C4092.43 267.51 4118.85 293.925 4118.85 326.51Z" fill="url(#paint2_radial_23_2438)"/>
<path class="neuron_edge" d="M4118.85 326.51C4118.85 359.095 4092.43 385.51 4059.85 385.51C4027.26 385.51 4000.85 359.095 4000.85 326.51C4000.85 293.925 4027.26 267.51 4059.85 267.51C4092.43 267.51 4118.85 293.925 4118.85 326.51Z" stroke="#1A1B27" stroke-width="18"/>
<path class="neuron_fill" d="M4118.85 455.765C4118.85 488.349 4092.43 514.765 4059.85 514.765C4027.26 514.765 4000.85 488.349 4000.85 455.765C4000.85 423.18 4027.26 396.765 4059.85 396.765C4092.43 396.765 4118.85 423.18 4118.85 455.765Z" fill="#5606FF"/>
<path class="neuron_grad" d="M4118.85 455.765C4118.85 488.349 4092.43 514.765 4059.85 514.765C4027.26 514.765 4000.85 488.349 4000.85 455.765C4000.85 423.18 4027.26 396.765 4059.85 396.765C4092.43 396.765 4118.85 423.18 4118.85 455.765Z" fill="url(#paint3_radial_23_2438)"/>
<path class="neuron_edge" d="M4118.85 455.765C4118.85 488.349 4092.43 514.765 4059.85 514.765C4027.26 514.765 4000.85 488.349 4000.85 455.765C4000.85 423.18 4027.26 396.765 4059.85 396.765C4092.43 396.765 4118.85 423.18 4118.85 455.765Z" stroke="#1A1B27" stroke-width="18"/>
<path class="neuron_fill" d="M4118.85 585.189C4118.85 617.774 4092.43 644.189 4059.85 644.189C4027.26 644.189 4000.85 617.774 4000.85 585.189C4000.85 552.604 4027.26 526.189 4059.85 526.189C4092.43 526.189 4118.85 552.604 4118.85 585.189Z" fill="#5606FF"/>
<path class="neuron_grad" d="M4118.85 585.189C4118.85 617.774 4092.43 644.189 4059.85 644.189C4027.26 644.189 4000.85 617.774 4000.85 585.189C4000.85 552.604 4027.26 526.189 4059.85 526.189C4092.43 526.189 4118.85 552.604 4118.85 585.189Z" fill="url(#paint4_radial_23_2438)"/>
<path class="neuron_edge" d="M4118.85 585.189C4118.85 617.774 4092.43 644.189 4059.85 644.189C4027.26 644.189 4000.85 617.774 4000.85 585.189C4000.85 552.604 4027.26 526.189 4059.85 526.189C4092.43 526.189 4118.85 552.604 4118.85 585.189Z" stroke="#1A1B27" stroke-width="18"/>
<path class="neuron_fill" d="M4118.85 714.444C4118.85 747.029 4092.43 773.444 4059.85 773.444C4027.26 773.444 4000.85 747.029 4000.85 714.444C4000.85 681.859 4027.26 655.444 4059.85 655.444C4092.43 655.444 4118.85 681.859 4118.85 714.444Z" fill="#5606FF"/>
<path class="neuron_grad" d="M4118.85 714.444C4118.85 747.029 4092.43 773.444 4059.85 773.444C4027.26 773.444 4000.85 747.029 4000.85 714.444C4000.85 681.859 4027.26 655.444 4059.85 655.444C4092.43 655.444 4118.85 681.859 4118.85 714.444Z" fill="url(#paint5_radial_23_2438)"/>
<path class="neuron_edge" d="M4118.85 714.444C4118.85 747.029 4092.43 773.444 4059.85 773.444C4027.26 773.444 4000.85 747.029 4000.85 714.444C4000.85 681.859 4027.26 655.444 4059.85 655.444C4092.43 655.444 4118.85 681.859 4118.85 714.444Z" stroke="#1A1B27" stroke-width="18"/>
<path class="neuron_fill" d="M4118.85 843.474C4118.85 876.058 4092.43 902.474 4059.85 902.474C4027.26 902.474 4000.85 876.058 4000.85 843.474C4000.85 810.889 4027.26 784.474 4059.85 784.474C4092.43 784.474 4118.85 810.889 4118.85 843.474Z" fill="#5606FF"/>
<path class="neuron_grad" d="M4118.85 843.474C4118.85 876.058 4092.43 902.474 4059.85 902.474C4027.26 902.474 4000.85 876.058 4000.85 843.474C4000.85 810.889 4027.26 784.474 4059.85 784.474C4092.43 784.474 4118.85 810.889 4118.85 843.474Z" fill="url(#paint6_radial_23_2438)"/>
<path class="neuron_edge" d="M4118.85 843.474C4118.85 876.058 4092.43 902.474 4059.85 902.474C4027.26 902.474 4000.85 876.058 4000.85 843.474C4000.85 810.889 4027.26 784.474 4059.85 784.474C4092.43 784.474 4118.85 810.889 4118.85 843.474Z" stroke="#1A1B27" stroke-width="18"/>
<path class="neuron_fill" d="M4118.85 972.504C4118.85 1005.09 4092.43 1031.5 4059.85 1031.5C4027.26 1031.5 4000.85 1005.09 4000.85 972.504C4000.85 939.919 4027.26 913.504 4059.85 913.504C4092.43 913.504 4118.85 939.919 4118.85 972.504Z" fill="#5606FF"/>
<path class="neuron_grad" d="M4118.85 972.504C4118.85 1005.09 4092.43 1031.5 4059.85 1031.5C4027.26 1031.5 4000.85 1005.09 4000.85 972.504C4000.85 939.919 4027.26 913.504 4059.85 913.504C4092.43 913.504 4118.85 939.919 4118.85 972.504Z" fill="url(#paint7_radial_23_2438)"/>
<path class="neuron_edge" d="M4118.85 972.504C4118.85 1005.09 4092.43 1031.5 4059.85 1031.5C4027.26 1031.5 4000.85 1005.09 4000.85 972.504C4000.85 939.919 4027.26 913.504 4059.85 913.504C4092.43 913.504 4118.85 939.919 4118.85 972.504Z" stroke="#1A1B27" stroke-width="18"/>
<path class="neuron_fill" d="M3722.48 68.0001C3722.48 100.585 3696.06 127 3663.48 127C3630.9 127 3604.48 100.585 3604.48 68.0001C3604.48 35.4153 3630.9 9.00006 3663.48 9.00006C3696.06 9.00006 3722.48 35.4153 3722.48 68.0001Z" fill="#5606FF"/>
<path class="neuron_grad" d="M3722.48 68.0001C3722.48 100.585 3696.06 127 3663.48 127C3630.9 127 3604.48 100.585 3604.48 68.0001C3604.48 35.4153 3630.9 9.00006 3663.48 9.00006C3696.06 9.00006 3722.48 35.4153 3722.48 68.0001Z" fill="url(#paint8_radial_23_2438)"/>
<path class="neuron_edge" d="M3722.48 68.0001C3722.48 100.585 3696.06 127 3663.48 127C3630.9 127 3604.48 100.585 3604.48 68.0001C3604.48 35.4153 3630.9 9.00006 3663.48 9.00006C3696.06 9.00006 3722.48 35.4153 3722.48 68.0001Z" stroke="#1A1B27" stroke-width="18"/>
<path class="neuron_fill" d="M3722.48 197.255C3722.48 229.84 3696.06 256.255 3663.48 256.255C3630.9 256.255 3604.48 229.84 3604.48 197.255C3604.48 164.67 3630.9 138.255 3663.48 138.255C3696.06 138.255 3722.48 164.67 3722.48 197.255Z" fill="#5606FF"/>
<path class="neuron_grad" d="M3722.48 197.255C3722.48 229.84 3696.06 256.255 3663.48 256.255C3630.9 256.255 3604.48 229.84 3604.48 197.255C3604.48 164.67 3630.9 138.255 3663.48 138.255C3696.06 138.255 3722.48 164.67 3722.48 197.255Z" fill="url(#paint9_radial_23_2438)"/>
<path class="neuron_edge" d="M3722.48 197.255C3722.48 229.84 3696.06 256.255 3663.48 256.255C3630.9 256.255 3604.48 229.84 3604.48 197.255C3604.48 164.67 3630.9 138.255 3663.48 138.255C3696.06 138.255 3722.48 164.67 3722.48 197.255Z" stroke="#1A1B27" stroke-width="18"/>
<path class="neuron_fill" d="M3722.48 326.51C3722.48 359.095 3696.06 385.51 3663.48 385.51C3630.9 385.51 3604.48 359.095 3604.48 326.51C3604.48 293.925 3630.9 267.51 3663.48 267.51C3696.06 267.51 3722.48 293.925 3722.48 326.51Z" fill="#5606FF"/>
<path class="neuron_grad" d="M3722.48 326.51C3722.48 359.095 3696.06 385.51 3663.48 385.51C3630.9 385.51 3604.48 359.095 3604.48 326.51C3604.48 293.925 3630.9 267.51 3663.48 267.51C3696.06 267.51 3722.48 293.925 3722.48 326.51Z" fill="url(#paint10_radial_23_2438)"/>
<path class="neuron_edge" d="M3722.48 326.51C3722.48 359.095 3696.06 385.51 3663.48 385.51C3630.9 385.51 3604.48 359.095 3604.48 326.51C3604.48 293.925 3630.9 267.51 3663.48 267.51C3696.06 267.51 3722.48 293.925 3722.48 326.51Z" stroke="#1A1B27" stroke-width="18"/>
<path class="neuron_fill" d="M3722.48 455.765C3722.48 488.35 3696.06 514.765 3663.48 514.765C3630.9 514.765 3604.48 488.35 3604.48 455.765C3604.48 423.18 3630.9 396.765 3663.48 396.765C3696.06 396.765 3722.48 423.18 3722.48 455.765Z" fill="#5606FF"/>
<path class="neuron_grad" d="M3722.48 455.765C3722.48 488.35 3696.06 514.765 3663.48 514.765C3630.9 514.765 3604.48 488.35 3604.48 455.765C3604.48 423.18 3630.9 396.765 3663.48 396.765C3696.06 396.765 3722.48 423.18 3722.48 455.765Z" fill="url(#paint11_radial_23_2438)"/>
<path class="neuron_edge" d="M3722.48 455.765C3722.48 488.35 3696.06 514.765 3663.48 514.765C3630.9 514.765 3604.48 488.35 3604.48 455.765C3604.48 423.18 3630.9 396.765 3663.48 396.765C3696.06 396.765 3722.48 423.18 3722.48 455.765Z" stroke="#1A1B27" stroke-width="18"/>
<path class="neuron_fill" d="M3722.48 585.189C3722.48 617.774 3696.06 644.189 3663.48 644.189C3630.9 644.189 3604.48 617.774 3604.48 585.189C3604.48 552.604 3630.9 526.189 3663.48 526.189C3696.06 526.189 3722.48 552.604 3722.48 585.189Z" fill="#5606FF"/>
<path class="neuron_grad" d="M3722.48 585.189C3722.48 617.774 3696.06 644.189 3663.48 644.189C3630.9 644.189 3604.48 617.774 3604.48 585.189C3604.48 552.604 3630.9 526.189 3663.48 526.189C3696.06 526.189 3722.48 552.604 3722.48 585.189Z" fill="url(#paint12_radial_23_2438)"/>
<path class="neuron_edge" d="M3722.48 585.189C3722.48 617.774 3696.06 644.189 3663.48 644.189C3630.9 644.189 3604.48 617.774 3604.48 585.189C3604.48 552.604 3630.9 526.189 3663.48 526.189C3696.06 526.189 3722.48 552.604 3722.48 585.189Z" stroke="#1A1B27" stroke-width="18"/>
<path class="neuron_fill" d="M3722.48 714.444C3722.48 747.029 3696.06 773.444 3663.48 773.444C3630.9 773.444 3604.48 747.029 3604.48 714.444C3604.48 681.859 3630.9 655.444 3663.48 655.444C3696.06 655.444 3722.48 681.859 3722.48 714.444Z" fill="#5606FF"/>
<path class="neuron_grad" d="M3722.48 714.444C3722.48 747.029 3696.06 773.444 3663.48 773.444C3630.9 773.444 3604.48 747.029 3604.48 714.444C3604.48 681.859 3630.9 655.444 3663.48 655.444C3696.06 655.444 3722.48 681.859 3722.48 714.444Z" fill="url(#paint13_radial_23_2438)"/>
<path class="neuron_edge" d="M3722.48 714.444C3722.48 747.029 3696.06 773.444 3663.48 773.444C3630.9 773.444 3604.48 747.029 3604.48 714.444C3604.48 681.859 3630.9 655.444 3663.48 655.444C3696.06 655.444 3722.48 681.859 3722.48 714.444Z" stroke="#1A1B27" stroke-width="18"/>
<path class="neuron_fill" d="M3722.48 843.474C3722.48 876.058 3696.06 902.474 3663.48 902.474C3630.9 902.474 3604.48 876.058 3604.48 843.474C3604.48 810.889 3630.9 784.474 3663.48 784.474C3696.06 784.474 3722.48 810.889 3722.48 843.474Z" fill="#5606FF"/>
<path class="neuron_grad" d="M3722.48 843.474C3722.48 876.058 3696.06 902.474 3663.48 902.474C3630.9 902.474 3604.48 876.058 3604.48 843.474C3604.48 810.889 3630.9 784.474 3663.48 784.474C3696.06 784.474 3722.48 810.889 3722.48 843.474Z" fill="url(#paint14_radial_23_2438)"/>
<path class="neuron_edge" d="M3722.48 843.474C3722.48 876.058 3696.06 902.474 3663.48 902.474C3630.9 902.474 3604.48 876.058 3604.48 843.474C3604.48 810.889 3630.9 784.474 3663.48 784.474C3696.06 784.474 3722.48 810.889 3722.48 843.474Z" stroke="#1A1B27" stroke-width="18"/>
<path class="neuron_fill" d="M3722.48 972.504C3722.48 1005.09 3696.06 1031.5 3663.48 1031.5C3630.9 1031.5 3604.48 1005.09 3604.48 972.504C3604.48 939.919 3630.9 913.504 3663.48 913.504C3696.06 913.504 3722.48 939.919 3722.48 972.504Z" fill="#5606FF"/>
<path class="neuron_grad" d="M3722.48 972.504C3722.48 1005.09 3696.06 1031.5 3663.48 1031.5C3630.9 1031.5 3604.48 1005.09 3604.48 972.504C3604.48 939.919 3630.9 913.504 3663.48 913.504C3696.06 913.504 3722.48 939.919 3722.48 972.504Z" fill="url(#paint15_radial_23_2438)"/>
<path class="neuron_edge" d="M3722.48 972.504C3722.48 1005.09 3696.06 1031.5 3663.48 1031.5C3630.9 1031.5 3604.48 1005.09 3604.48 972.504C3604.48 939.919 3630.9 913.504 3663.48 913.504C3696.06 913.504 3722.48 939.919 3722.48 972.504Z" stroke="#1A1B27" stroke-width="18"/>
<path class="neuron_fill" d="M3326.11 68.0001C3326.11 100.585 3299.7 127 3267.11 127C3234.53 127 3208.11 100.585 3208.11 68.0001C3208.11 35.4153 3234.53 9.00006 3267.11 9.00006C3299.7 9.00006 3326.11 35.4153 3326.11 68.0001Z" fill="#5606FF"/>
<path class="neuron_grad" d="M3326.11 68.0001C3326.11 100.585 3299.7 127 3267.11 127C3234.53 127 3208.11 100.585 3208.11 68.0001C3208.11 35.4153 3234.53 9.00006 3267.11 9.00006C3299.7 9.00006 3326.11 35.4153 3326.11 68.0001Z" fill="url(#paint16_radial_23_2438)"/>
<path class="neuron_edge" d="M3326.11 68.0001C3326.11 100.585 3299.7 127 3267.11 127C3234.53 127 3208.11 100.585 3208.11 68.0001C3208.11 35.4153 3234.53 9.00006 3267.11 9.00006C3299.7 9.00006 3326.11 35.4153 3326.11 68.0001Z" stroke="#1A1B27" stroke-width="18"/>
<path class="neuron_fill" d="M3326.11 197.255C3326.11 229.84 3299.7 256.255 3267.11 256.255C3234.53 256.255 3208.11 229.84 3208.11 197.255C3208.11 164.67 3234.53 138.255 3267.11 138.255C3299.7 138.255 3326.11 164.67 3326.11 197.255Z" fill="#5606FF"/>
<path class="neuron_grad" d="M3326.11 197.255C3326.11 229.84 3299.7 256.255 3267.11 256.255C3234.53 256.255 3208.11 229.84 3208.11 197.255C3208.11 164.67 3234.53 138.255 3267.11 138.255C3299.7 138.255 3326.11 164.67 3326.11 197.255Z" fill="url(#paint17_radial_23_2438)"/>
<path class="neuron_edge" d="M3326.11 197.255C3326.11 229.84 3299.7 256.255 3267.11 256.255C3234.53 256.255 3208.11 229.84 3208.11 197.255C3208.11 164.67 3234.53 138.255 3267.11 138.255C3299.7 138.255 3326.11 164.67 3326.11 197.255Z" stroke="#1A1B27" stroke-width="18"/>
<path class="neuron_fill" d="M3326.11 326.51C3326.11 359.095 3299.7 385.51 3267.11 385.51C3234.53 385.51 3208.11 359.095 3208.11 326.51C3208.11 293.925 3234.53 267.51 3267.11 267.51C3299.7 267.51 3326.11 293.925 3326.11 326.51Z" fill="#5606FF"/>
<path class="neuron_grad" d="M3326.11 326.51C3326.11 359.095 3299.7 385.51 3267.11 385.51C3234.53 385.51 3208.11 359.095 3208.11 326.51C3208.11 293.925 3234.53 267.51 3267.11 267.51C3299.7 267.51 3326.11 293.925 3326.11 326.51Z" fill="url(#paint18_radial_23_2438)"/>
<path class="neuron_edge" d="M3326.11 326.51C3326.11 359.095 3299.7 385.51 3267.11 385.51C3234.53 385.51 3208.11 359.095 3208.11 326.51C3208.11 293.925 3234.53 267.51 3267.11 267.51C3299.7 267.51 3326.11 293.925 3326.11 326.51Z" stroke="#1A1B27" stroke-width="18"/>
<path class="neuron_fill" d="M3326.11 455.765C3326.11 488.349 3299.7 514.765 3267.11 514.765C3234.53 514.765 3208.11 488.349 3208.11 455.765C3208.11 423.18 3234.53 396.765 3267.11 396.765C3299.7 396.765 3326.11 423.18 3326.11 455.765Z" fill="#5606FF"/>
<path class="neuron_grad" d="M3326.11 455.765C3326.11 488.349 3299.7 514.765 3267.11 514.765C3234.53 514.765 3208.11 488.349 3208.11 455.765C3208.11 423.18 3234.53 396.765 3267.11 396.765C3299.7 396.765 3326.11 423.18 3326.11 455.765Z" fill="url(#paint19_radial_23_2438)"/>
<path class="neuron_edge" d="M3326.11 455.765C3326.11 488.349 3299.7 514.765 3267.11 514.765C3234.53 514.765 3208.11 488.349 3208.11 455.765C3208.11 423.18 3234.53 396.765 3267.11 396.765C3299.7 396.765 3326.11 423.18 3326.11 455.765Z" stroke="#1A1B27" stroke-width="18"/>
<path class="neuron_fill" d="M3326.11 585.189C3326.11 617.774 3299.7 644.189 3267.11 644.189C3234.53 644.189 3208.11 617.774 3208.11 585.189C3208.11 552.604 3234.53 526.189 3267.11 526.189C3299.7 526.189 3326.11 552.604 3326.11 585.189Z" fill="#5606FF"/>
<path class="neuron_grad" d="M3326.11 585.189C3326.11 617.774 3299.7 644.189 3267.11 644.189C3234.53 644.189 3208.11 617.774 3208.11 585.189C3208.11 552.604 3234.53 526.189 3267.11 526.189C3299.7 526.189 3326.11 552.604 3326.11 585.189Z" fill="url(#paint20_radial_23_2438)"/>
<path class="neuron_edge" d="M3326.11 585.189C3326.11 617.774 3299.7 644.189 3267.11 644.189C3234.53 644.189 3208.11 617.774 3208.11 585.189C3208.11 552.604 3234.53 526.189 3267.11 526.189C3299.7 526.189 3326.11 552.604 3326.11 585.189Z" stroke="#1A1B27" stroke-width="18"/>
<path class="neuron_fill" d="M3326.11 714.444C3326.11 747.029 3299.7 773.444 3267.11 773.444C3234.53 773.444 3208.11 747.029 3208.11 714.444C3208.11 681.859 3234.53 655.444 3267.11 655.444C3299.7 655.444 3326.11 681.859 3326.11 714.444Z" fill="#5606FF"/>
<path class="neuron_grad" d="M3326.11 714.444C3326.11 747.029 3299.7 773.444 3267.11 773.444C3234.53 773.444 3208.11 747.029 3208.11 714.444C3208.11 681.859 3234.53 655.444 3267.11 655.444C3299.7 655.444 3326.11 681.859 3326.11 714.444Z" fill="url(#paint21_radial_23_2438)"/>
<path class="neuron_edge" d="M3326.11 714.444C3326.11 747.029 3299.7 773.444 3267.11 773.444C3234.53 773.444 3208.11 747.029 3208.11 714.444C3208.11 681.859 3234.53 655.444 3267.11 655.444C3299.7 655.444 3326.11 681.859 3326.11 714.444Z" stroke="#1A1B27" stroke-width="18"/>
<path class="neuron_fill" d="M3326.11 843.474C3326.11 876.058 3299.7 902.474 3267.11 902.474C3234.53 902.474 3208.11 876.058 3208.11 843.474C3208.11 810.889 3234.53 784.474 3267.11 784.474C3299.7 784.474 3326.11 810.889 3326.11 843.474Z" fill="#5606FF"/>
<path class="neuron_grad" d="M3326.11 843.474C3326.11 876.058 3299.7 902.474 3267.11 902.474C3234.53 902.474 3208.11 876.058 3208.11 843.474C3208.11 810.889 3234.53 784.474 3267.11 784.474C3299.7 784.474 3326.11 810.889 3326.11 843.474Z" fill="url(#paint22_radial_23_2438)"/>
<path class="neuron_edge" d="M3326.11 843.474C3326.11 876.058 3299.7 902.474 3267.11 902.474C3234.53 902.474 3208.11 876.058 3208.11 843.474C3208.11 810.889 3234.53 784.474 3267.11 784.474C3299.7 784.474 3326.11 810.889 3326.11 843.474Z" stroke="#1A1B27" stroke-width="18"/>
<path class="neuron_fill" d="M3326.11 972.504C3326.11 1005.09 3299.7 1031.5 3267.11 1031.5C3234.53 1031.5 3208.11 1005.09 3208.11 972.504C3208.11 939.919 3234.53 913.504 3267.11 913.504C3299.7 913.504 3326.11 939.919 3326.11 972.504Z" fill="#5606FF"/>
<path class="neuron_grad" d="M3326.11 972.504C3326.11 1005.09 3299.7 1031.5 3267.11 1031.5C3234.53 1031.5 3208.11 1005.09 3208.11 972.504C3208.11 939.919 3234.53 913.504 3267.11 913.504C3299.7 913.504 3326.11 939.919 3326.11 972.504Z" fill="url(#paint23_radial_23_2438)"/>
<path class="neuron_edge" d="M3326.11 972.504C3326.11 1005.09 3299.7 1031.5 3267.11 1031.5C3234.53 1031.5 3208.11 1005.09 3208.11 972.504C3208.11 939.919 3234.53 913.504 3267.11 913.504C3299.7 913.504 3326.11 939.919 3326.11 972.504Z" stroke="#1A1B27" stroke-width="18"/>
<path class="neuron_fill" d="M2929.74 68.0001C2929.74 100.585 2903.33 127 2870.74 127C2838.16 127 2811.74 100.585 2811.74 68.0001C2811.74 35.4153 2838.16 9.00006 2870.74 9.00006C2903.33 9.00006 2929.74 35.4153 2929.74 68.0001Z" fill="#5606FF"/>
<path class="neuron_grad" d="M2929.74 68.0001C2929.74 100.585 2903.33 127 2870.74 127C2838.16 127 2811.74 100.585 2811.74 68.0001C2811.74 35.4153 2838.16 9.00006 2870.74 9.00006C2903.33 9.00006 2929.74 35.4153 2929.74 68.0001Z" fill="url(#paint24_radial_23_2438)"/>
<path class="neuron_edge" d="M2929.74 68.0001C2929.74 100.585 2903.33 127 2870.74 127C2838.16 127 2811.74 100.585 2811.74 68.0001C2811.74 35.4153 2838.16 9.00006 2870.74 9.00006C2903.33 9.00006 2929.74 35.4153 2929.74 68.0001Z" stroke="#1A1B27" stroke-width="18"/>
<path class="neuron_fill" d="M2929.74 197.255C2929.74 229.84 2903.33 256.255 2870.74 256.255C2838.16 256.255 2811.74 229.84 2811.74 197.255C2811.74 164.67 2838.16 138.255 2870.74 138.255C2903.33 138.255 2929.74 164.67 2929.74 197.255Z" fill="#5606FF"/>
<path class="neuron_grad" d="M2929.74 197.255C2929.74 229.84 2903.33 256.255 2870.74 256.255C2838.16 256.255 2811.74 229.84 2811.74 197.255C2811.74 164.67 2838.16 138.255 2870.74 138.255C2903.33 138.255 2929.74 164.67 2929.74 197.255Z" fill="url(#paint25_radial_23_2438)"/>
<path class="neuron_edge" d="M2929.74 197.255C2929.74 229.84 2903.33 256.255 2870.74 256.255C2838.16 256.255 2811.74 229.84 2811.74 197.255C2811.74 164.67 2838.16 138.255 2870.74 138.255C2903.33 138.255 2929.74 164.67 2929.74 197.255Z" stroke="#1A1B27" stroke-width="18"/>
<path class="neuron_fill" d="M2929.74 326.51C2929.74 359.095 2903.33 385.51 2870.74 385.51C2838.16 385.51 2811.74 359.095 2811.74 326.51C2811.74 293.925 2838.16 267.51 2870.74 267.51C2903.33 267.51 2929.74 293.925 2929.74 326.51Z" fill="#5606FF"/>
<path class="neuron_grad" d="M2929.74 326.51C2929.74 359.095 2903.33 385.51 2870.74 385.51C2838.16 385.51 2811.74 359.095 2811.74 326.51C2811.74 293.925 2838.16 267.51 2870.74 267.51C2903.33 267.51 2929.74 293.925 2929.74 326.51Z" fill="url(#paint26_radial_23_2438)"/>
<path class="neuron_edge" d="M2929.74 326.51C2929.74 359.095 2903.33 385.51 2870.74 385.51C2838.16 385.51 2811.74 359.095 2811.74 326.51C2811.74 293.925 2838.16 267.51 2870.74 267.51C2903.33 267.51 2929.74 293.925 2929.74 326.51Z" stroke="#1A1B27" stroke-width="18"/>
<path class="neuron_fill" d="M2929.74 455.765C2929.74 488.349 2903.33 514.765 2870.74 514.765C2838.16 514.765 2811.74 488.349 2811.74 455.765C2811.74 423.18 2838.16 396.765 2870.74 396.765C2903.33 396.765 2929.74 423.18 2929.74 455.765Z" fill="#5606FF"/>
<path class="neuron_grad" d="M2929.74 455.765C2929.74 488.349 2903.33 514.765 2870.74 514.765C2838.16 514.765 2811.74 488.349 2811.74 455.765C2811.74 423.18 2838.16 396.765 2870.74 396.765C2903.33 396.765 2929.74 423.18 2929.74 455.765Z" fill="url(#paint27_radial_23_2438)"/>
<path class="neuron_edge" d="M2929.74 455.765C2929.74 488.349 2903.33 514.765 2870.74 514.765C2838.16 514.765 2811.74 488.349 2811.74 455.765C2811.74 423.18 2838.16 396.765 2870.74 396.765C2903.33 396.765 2929.74 423.18 2929.74 455.765Z" stroke="#1A1B27" stroke-width="18"/>
<path class="neuron_fill" d="M2929.74 585.189C2929.74 617.774 2903.33 644.189 2870.74 644.189C2838.16 644.189 2811.74 617.774 2811.74 585.189C2811.74 552.604 2838.16 526.189 2870.74 526.189C2903.33 526.189 2929.74 552.604 2929.74 585.189Z" fill="#5606FF"/>
<path class="neuron_grad" d="M2929.74 585.189C2929.74 617.774 2903.33 644.189 2870.74 644.189C2838.16 644.189 2811.74 617.774 2811.74 585.189C2811.74 552.604 2838.16 526.189 2870.74 526.189C2903.33 526.189 2929.74 552.604 2929.74 585.189Z" fill="url(#paint28_radial_23_2438)"/>
<path class="neuron_edge" d="M2929.74 585.189C2929.74 617.774 2903.33 644.189 2870.74 644.189C2838.16 644.189 2811.74 617.774 2811.74 585.189C2811.74 552.604 2838.16 526.189 2870.74 526.189C2903.33 526.189 2929.74 552.604 2929.74 585.189Z" stroke="#1A1B27" stroke-width="18"/>
<path class="neuron_fill" d="M2929.74 714.444C2929.74 747.029 2903.33 773.444 2870.74 773.444C2838.16 773.444 2811.74 747.029 2811.74 714.444C2811.74 681.859 2838.16 655.444 2870.74 655.444C2903.33 655.444 2929.74 681.859 2929.74 714.444Z" fill="#5606FF"/>
<path class="neuron_grad" d="M2929.74 714.444C2929.74 747.029 2903.33 773.444 2870.74 773.444C2838.16 773.444 2811.74 747.029 2811.74 714.444C2811.74 681.859 2838.16 655.444 2870.74 655.444C2903.33 655.444 2929.74 681.859 2929.74 714.444Z" fill="url(#paint29_radial_23_2438)"/>
<path class="neuron_edge" d="M2929.74 714.444C2929.74 747.029 2903.33 773.444 2870.74 773.444C2838.16 773.444 2811.74 747.029 2811.74 714.444C2811.74 681.859 2838.16 655.444 2870.74 655.444C2903.33 655.444 2929.74 681.859 2929.74 714.444Z" stroke="#1A1B27" stroke-width="18"/>
<path class="neuron_fill" d="M2929.74 843.474C2929.74 876.058 2903.33 902.474 2870.74 902.474C2838.16 902.474 2811.74 876.058 2811.74 843.474C2811.74 810.889 2838.16 784.474 2870.74 784.474C2903.33 784.474 2929.74 810.889 2929.74 843.474Z" fill="#5606FF"/>
<path class="neuron_grad" d="M2929.74 843.474C2929.74 876.058 2903.33 902.474 2870.74 902.474C2838.16 902.474 2811.74 876.058 2811.74 843.474C2811.74 810.889 2838.16 784.474 2870.74 784.474C2903.33 784.474 2929.74 810.889 2929.74 843.474Z" fill="url(#paint30_radial_23_2438)"/>
<path class="neuron_edge" d="M2929.74 843.474C2929.74 876.058 2903.33 902.474 2870.74 902.474C2838.16 902.474 2811.74 876.058 2811.74 843.474C2811.74 810.889 2838.16 784.474 2870.74 784.474C2903.33 784.474 2929.74 810.889 2929.74 843.474Z" stroke="#1A1B27" stroke-width="18"/>
<path class="neuron_fill" d="M2929.74 972.504C2929.74 1005.09 2903.33 1031.5 2870.74 1031.5C2838.16 1031.5 2811.74 1005.09 2811.74 972.504C2811.74 939.919 2838.16 913.504 2870.74 913.504C2903.33 913.504 2929.74 939.919 2929.74 972.504Z" fill="#5606FF"/>
<path class="neuron_grad" d="M2929.74 972.504C2929.74 1005.09 2903.33 1031.5 2870.74 1031.5C2838.16 1031.5 2811.74 1005.09 2811.74 972.504C2811.74 939.919 2838.16 913.504 2870.74 913.504C2903.33 913.504 2929.74 939.919 2929.74 972.504Z" fill="url(#paint31_radial_23_2438)"/>
<path class="neuron_edge" d="M2929.74 972.504C2929.74 1005.09 2903.33 1031.5 2870.74 1031.5C2838.16 1031.5 2811.74 1005.09 2811.74 972.504C2811.74 939.919 2838.16 913.504 2870.74 913.504C2903.33 913.504 2929.74 939.919 2929.74 972.504Z" stroke="#1A1B27" stroke-width="18"/>
<path class="neuron_fill" d="M2533.37 68.0001C2533.37 100.585 2506.96 127 2474.37 127C2441.79 127 2415.37 100.585 2415.37 68.0001C2415.37 35.4153 2441.79 9.00006 2474.37 9.00006C2506.96 9.00006 2533.37 35.4153 2533.37 68.0001Z" fill="#5606FF"/>
<path class="neuron_grad" d="M2533.37 68.0001C2533.37 100.585 2506.96 127 2474.37 127C2441.79 127 2415.37 100.585 2415.37 68.0001C2415.37 35.4153 2441.79 9.00006 2474.37 9.00006C2506.96 9.00006 2533.37 35.4153 2533.37 68.0001Z" fill="url(#paint32_radial_23_2438)"/>
<path class="neuron_edge" d="M2533.37 68.0001C2533.37 100.585 2506.96 127 2474.37 127C2441.79 127 2415.37 100.585 2415.37 68.0001C2415.37 35.4153 2441.79 9.00006 2474.37 9.00006C2506.96 9.00006 2533.37 35.4153 2533.37 68.0001Z" stroke="#1A1B27" stroke-width="18"/>
<path class="neuron_fill" d="M2533.37 197.255C2533.37 229.84 2506.96 256.255 2474.37 256.255C2441.79 256.255 2415.37 229.84 2415.37 197.255C2415.37 164.67 2441.79 138.255 2474.37 138.255C2506.96 138.255 2533.37 164.67 2533.37 197.255Z" fill="#5606FF"/>
<path class="neuron_grad" d="M2533.37 197.255C2533.37 229.84 2506.96 256.255 2474.37 256.255C2441.79 256.255 2415.37 229.84 2415.37 197.255C2415.37 164.67 2441.79 138.255 2474.37 138.255C2506.96 138.255 2533.37 164.67 2533.37 197.255Z" fill="url(#paint33_radial_23_2438)"/>
<path class="neuron_edge" d="M2533.37 197.255C2533.37 229.84 2506.96 256.255 2474.37 256.255C2441.79 256.255 2415.37 229.84 2415.37 197.255C2415.37 164.67 2441.79 138.255 2474.37 138.255C2506.96 138.255 2533.37 164.67 2533.37 197.255Z" stroke="#1A1B27" stroke-width="18"/>
<path class="neuron_fill" d="M2533.37 326.51C2533.37 359.095 2506.96 385.51 2474.37 385.51C2441.79 385.51 2415.37 359.095 2415.37 326.51C2415.37 293.925 2441.79 267.51 2474.37 267.51C2506.96 267.51 2533.37 293.925 2533.37 326.51Z" fill="#5606FF"/>
<path class="neuron_grad" d="M2533.37 326.51C2533.37 359.095 2506.96 385.51 2474.37 385.51C2441.79 385.51 2415.37 359.095 2415.37 326.51C2415.37 293.925 2441.79 267.51 2474.37 267.51C2506.96 267.51 2533.37 293.925 2533.37 326.51Z" fill="url(#paint34_radial_23_2438)"/>
<path class="neuron_edge" d="M2533.37 326.51C2533.37 359.095 2506.96 385.51 2474.37 385.51C2441.79 385.51 2415.37 359.095 2415.37 326.51C2415.37 293.925 2441.79 267.51 2474.37 267.51C2506.96 267.51 2533.37 293.925 2533.37 326.51Z" stroke="#1A1B27" stroke-width="18"/>
<path class="neuron_fill" d="M2533.37 455.765C2533.37 488.349 2506.96 514.765 2474.37 514.765C2441.79 514.765 2415.37 488.349 2415.37 455.765C2415.37 423.18 2441.79 396.765 2474.37 396.765C2506.96 396.765 2533.37 423.18 2533.37 455.765Z" fill="#5606FF"/>
<path class="neuron_grad" d="M2533.37 455.765C2533.37 488.349 2506.96 514.765 2474.37 514.765C2441.79 514.765 2415.37 488.349 2415.37 455.765C2415.37 423.18 2441.79 396.765 2474.37 396.765C2506.96 396.765 2533.37 423.18 2533.37 455.765Z" fill="url(#paint35_radial_23_2438)"/>
<path class="neuron_edge" d="M2533.37 455.765C2533.37 488.349 2506.96 514.765 2474.37 514.765C2441.79 514.765 2415.37 488.349 2415.37 455.765C2415.37 423.18 2441.79 396.765 2474.37 396.765C2506.96 396.765 2533.37 423.18 2533.37 455.765Z" stroke="#1A1B27" stroke-width="18"/>
<path class="neuron_fill" d="M2533.37 585.189C2533.37 617.774 2506.96 644.189 2474.37 644.189C2441.79 644.189 2415.37 617.774 2415.37 585.189C2415.37 552.604 2441.79 526.189 2474.37 526.189C2506.96 526.189 2533.37 552.604 2533.37 585.189Z" fill="#5606FF"/>
<path class="neuron_grad" d="M2533.37 585.189C2533.37 617.774 2506.96 644.189 2474.37 644.189C2441.79 644.189 2415.37 617.774 2415.37 585.189C2415.37 552.604 2441.79 526.189 2474.37 526.189C2506.96 526.189 2533.37 552.604 2533.37 585.189Z" fill="url(#paint36_radial_23_2438)"/>
<path class="neuron_edge" d="M2533.37 585.189C2533.37 617.774 2506.96 644.189 2474.37 644.189C2441.79 644.189 2415.37 617.774 2415.37 585.189C2415.37 552.604 2441.79 526.189 2474.37 526.189C2506.96 526.189 2533.37 552.604 2533.37 585.189Z" stroke="#1A1B27" stroke-width="18"/>
<path class="neuron_fill" d="M2533.37 714.444C2533.37 747.029 2506.96 773.444 2474.37 773.444C2441.79 773.444 2415.37 747.029 2415.37 714.444C2415.37 681.859 2441.79 655.444 2474.37 655.444C2506.96 655.444 2533.37 681.859 2533.37 714.444Z" fill="#5606FF"/>
<path class="neuron_grad" d="M2533.37 714.444C2533.37 747.029 2506.96 773.444 2474.37 773.444C2441.79 773.444 2415.37 747.029 2415.37 714.444C2415.37 681.859 2441.79 655.444 2474.37 655.444C2506.96 655.444 2533.37 681.859 2533.37 714.444Z" fill="url(#paint37_radial_23_2438)"/>
<path class="neuron_edge" d="M2533.37 714.444C2533.37 747.029 2506.96 773.444 2474.37 773.444C2441.79 773.444 2415.37 747.029 2415.37 714.444C2415.37 681.859 2441.79 655.444 2474.37 655.444C2506.96 655.444 2533.37 681.859 2533.37 714.444Z" stroke="#1A1B27" stroke-width="18"/>
<path class="neuron_fill" d="M2533.37 843.474C2533.37 876.058 2506.96 902.474 2474.37 902.474C2441.79 902.474 2415.37 876.058 2415.37 843.474C2415.37 810.889 2441.79 784.474 2474.37 784.474C2506.96 784.474 2533.37 810.889 2533.37 843.474Z" fill="#5606FF"/>
<path class="neuron_grad" d="M2533.37 843.474C2533.37 876.058 2506.96 902.474 2474.37 902.474C2441.79 902.474 2415.37 876.058 2415.37 843.474C2415.37 810.889 2441.79 784.474 2474.37 784.474C2506.96 784.474 2533.37 810.889 2533.37 843.474Z" fill="url(#paint38_radial_23_2438)"/>
<path class="neuron_edge" d="M2533.37 843.474C2533.37 876.058 2506.96 902.474 2474.37 902.474C2441.79 902.474 2415.37 876.058 2415.37 843.474C2415.37 810.889 2441.79 784.474 2474.37 784.474C2506.96 784.474 2533.37 810.889 2533.37 843.474Z" stroke="#1A1B27" stroke-width="18"/>
<path class="neuron_fill" d="M2533.37 972.504C2533.37 1005.09 2506.96 1031.5 2474.37 1031.5C2441.79 1031.5 2415.37 1005.09 2415.37 972.504C2415.37 939.919 2441.79 913.504 2474.37 913.504C2506.96 913.504 2533.37 939.919 2533.37 972.504Z" fill="#5606FF"/>
<path class="neuron_grad" d="M2533.37 972.504C2533.37 1005.09 2506.96 1031.5 2474.37 1031.5C2441.79 1031.5 2415.37 1005.09 2415.37 972.504C2415.37 939.919 2441.79 913.504 2474.37 913.504C2506.96 913.504 2533.37 939.919 2533.37 972.504Z" fill="url(#paint39_radial_23_2438)"/>
<path class="neuron_edge" d="M2533.37 972.504C2533.37 1005.09 2506.96 1031.5 2474.37 1031.5C2441.79 1031.5 2415.37 1005.09 2415.37 972.504C2415.37 939.919 2441.79 913.504 2474.37 913.504C2506.96 913.504 2533.37 939.919 2533.37 972.504Z" stroke="#1A1B27" stroke-width="18"/>
<path class="neuron_fill" d="M2137 68.0001C2137 100.585 2110.58 127 2078 127C2045.41 127 2019 100.585 2019 68.0001C2019 35.4153 2045.41 9.00006 2078 9.00006C2110.58 9.00006 2137 35.4153 2137 68.0001Z" fill="#5606FF"/>
<path class="neuron_grad" d="M2137 68.0001C2137 100.585 2110.58 127 2078 127C2045.41 127 2019 100.585 2019 68.0001C2019 35.4153 2045.41 9.00006 2078 9.00006C2110.58 9.00006 2137 35.4153 2137 68.0001Z" fill="url(#paint40_radial_23_2438)"/>
<path class="neuron_edge" d="M2137 68.0001C2137 100.585 2110.58 127 2078 127C2045.41 127 2019 100.585 2019 68.0001C2019 35.4153 2045.41 9.00006 2078 9.00006C2110.58 9.00006 2137 35.4153 2137 68.0001Z" stroke="#1A1B27" stroke-width="18"/>
<path class="neuron_fill" d="M2137 197.255C2137 229.84 2110.58 256.255 2078 256.255C2045.41 256.255 2019 229.84 2019 197.255C2019 164.67 2045.41 138.255 2078 138.255C2110.58 138.255 2137 164.67 2137 197.255Z" fill="#5606FF"/>
<path class="neuron_grad" d="M2137 197.255C2137 229.84 2110.58 256.255 2078 256.255C2045.41 256.255 2019 229.84 2019 197.255C2019 164.67 2045.41 138.255 2078 138.255C2110.58 138.255 2137 164.67 2137 197.255Z" fill="url(#paint41_radial_23_2438)"/>
<path class="neuron_edge" d="M2137 197.255C2137 229.84 2110.58 256.255 2078 256.255C2045.41 256.255 2019 229.84 2019 197.255C2019 164.67 2045.41 138.255 2078 138.255C2110.58 138.255 2137 164.67 2137 197.255Z" stroke="#1A1B27" stroke-width="18"/>
<path class="neuron_fill" d="M2137 326.51C2137 359.095 2110.58 385.51 2078 385.51C2045.41 385.51 2019 359.095 2019 326.51C2019 293.925 2045.41 267.51 2078 267.51C2110.58 267.51 2137 293.925 2137 326.51Z" fill="#5606FF"/>
<path class="neuron_grad" d="M2137 326.51C2137 359.095 2110.58 385.51 2078 385.51C2045.41 385.51 2019 359.095 2019 326.51C2019 293.925 2045.41 267.51 2078 267.51C2110.58 267.51 2137 293.925 2137 326.51Z" fill="url(#paint42_radial_23_2438)"/>
<path class="neuron_edge" d="M2137 326.51C2137 359.095 2110.58 385.51 2078 385.51C2045.41 385.51 2019 359.095 2019 326.51C2019 293.925 2045.41 267.51 2078 267.51C2110.58 267.51 2137 293.925 2137 326.51Z" stroke="#1A1B27" stroke-width="18"/>
<path class="neuron_fill" d="M2137 455.765C2137 488.349 2110.58 514.765 2078 514.765C2045.41 514.765 2019 488.349 2019 455.765C2019 423.18 2045.41 396.765 2078 396.765C2110.58 396.765 2137 423.18 2137 455.765Z" fill="#5606FF"/>
<path class="neuron_grad" d="M2137 455.765C2137 488.349 2110.58 514.765 2078 514.765C2045.41 514.765 2019 488.349 2019 455.765C2019 423.18 2045.41 396.765 2078 396.765C2110.58 396.765 2137 423.18 2137 455.765Z" fill="url(#paint43_radial_23_2438)"/>
<path class="neuron_edge" d="M2137 455.765C2137 488.349 2110.58 514.765 2078 514.765C2045.41 514.765 2019 488.349 2019 455.765C2019 423.18 2045.41 396.765 2078 396.765C2110.58 396.765 2137 423.18 2137 455.765Z" stroke="#1A1B27" stroke-width="18"/>
<path class="neuron_fill" d="M2137 585.189C2137 617.774 2110.58 644.189 2078 644.189C2045.41 644.189 2019 617.774 2019 585.189C2019 552.604 2045.41 526.189 2078 526.189C2110.58 526.189 2137 552.604 2137 585.189Z" fill="#5606FF"/>
<path class="neuron_grad" d="M2137 585.189C2137 617.774 2110.58 644.189 2078 644.189C2045.41 644.189 2019 617.774 2019 585.189C2019 552.604 2045.41 526.189 2078 526.189C2110.58 526.189 2137 552.604 2137 585.189Z" fill="url(#paint44_radial_23_2438)"/>
<path class="neuron_edge" d="M2137 585.189C2137 617.774 2110.58 644.189 2078 644.189C2045.41 644.189 2019 617.774 2019 585.189C2019 552.604 2045.41 526.189 2078 526.189C2110.58 526.189 2137 552.604 2137 585.189Z" stroke="#1A1B27" stroke-width="18"/>
<path class="neuron_fill" d="M2137 714.444C2137 747.029 2110.58 773.444 2078 773.444C2045.41 773.444 2019 747.029 2019 714.444C2019 681.859 2045.41 655.444 2078 655.444C2110.58 655.444 2137 681.859 2137 714.444Z" fill="#5606FF"/>
<path class="neuron_grad" d="M2137 714.444C2137 747.029 2110.58 773.444 2078 773.444C2045.41 773.444 2019 747.029 2019 714.444C2019 681.859 2045.41 655.444 2078 655.444C2110.58 655.444 2137 681.859 2137 714.444Z" fill="url(#paint45_radial_23_2438)"/>
<path class="neuron_edge" d="M2137 714.444C2137 747.029 2110.58 773.444 2078 773.444C2045.41 773.444 2019 747.029 2019 714.444C2019 681.859 2045.41 655.444 2078 655.444C2110.58 655.444 2137 681.859 2137 714.444Z" stroke="#1A1B27" stroke-width="18"/>
<path class="neuron_fill" d="M2137 843.474C2137 876.058 2110.58 902.474 2078 902.474C2045.41 902.474 2019 876.058 2019 843.474C2019 810.889 2045.41 784.474 2078 784.474C2110.58 784.474 2137 810.889 2137 843.474Z" fill="#5606FF"/>
<path class="neuron_grad" d="M2137 843.474C2137 876.058 2110.58 902.474 2078 902.474C2045.41 902.474 2019 876.058 2019 843.474C2019 810.889 2045.41 784.474 2078 784.474C2110.58 784.474 2137 810.889 2137 843.474Z" fill="url(#paint46_radial_23_2438)"/>
<path class="neuron_edge" d="M2137 843.474C2137 876.058 2110.58 902.474 2078 902.474C2045.41 902.474 2019 876.058 2019 843.474C2019 810.889 2045.41 784.474 2078 784.474C2110.58 784.474 2137 810.889 2137 843.474Z" stroke="#1A1B27" stroke-width="18"/>
<path class="neuron_fill" d="M2137 972.504C2137 1005.09 2110.58 1031.5 2078 1031.5C2045.41 1031.5 2019 1005.09 2019 972.504C2019 939.919 2045.41 913.504 2078 913.504C2110.58 913.504 2137 939.919 2137 972.504Z" fill="#5606FF"/>
<path class="neuron_grad" d="M2137 972.504C2137 1005.09 2110.58 1031.5 2078 1031.5C2045.41 1031.5 2019 1005.09 2019 972.504C2019 939.919 2045.41 913.504 2078 913.504C2110.58 913.504 2137 939.919 2137 972.504Z" fill="url(#paint47_radial_23_2438)"/>
<path class="neuron_edge" d="M2137 972.504C2137 1005.09 2110.58 1031.5 2078 1031.5C2045.41 1031.5 2019 1005.09 2019 972.504C2019 939.919 2045.41 913.504 2078 913.504C2110.58 913.504 2137 939.919 2137 972.504Z" stroke="#1A1B27" stroke-width="18"/>
<path class="neuron_fill" d="M1740.63 68.0001C1740.63 100.585 1714.21 127 1681.63 127C1649.04 127 1622.63 100.585 1622.63 68.0001C1622.63 35.4153 1649.04 9.00006 1681.63 9.00006C1714.21 9.00006 1740.63 35.4153 1740.63 68.0001Z" fill="#5606FF"/>
<path class="neuron_grad" d="M1740.63 68.0001C1740.63 100.585 1714.21 127 1681.63 127C1649.04 127 1622.63 100.585 1622.63 68.0001C1622.63 35.4153 1649.04 9.00006 1681.63 9.00006C1714.21 9.00006 1740.63 35.4153 1740.63 68.0001Z" fill="url(#paint48_radial_23_2438)"/>
<path class="neuron_edge" d="M1740.63 68.0001C1740.63 100.585 1714.21 127 1681.63 127C1649.04 127 1622.63 100.585 1622.63 68.0001C1622.63 35.4153 1649.04 9.00006 1681.63 9.00006C1714.21 9.00006 1740.63 35.4153 1740.63 68.0001Z" stroke="#1A1B27" stroke-width="18"/>
<path class="neuron_fill" d="M1740.63 197.255C1740.63 229.84 1714.21 256.255 1681.63 256.255C1649.04 256.255 1622.63 229.84 1622.63 197.255C1622.63 164.67 1649.04 138.255 1681.63 138.255C1714.21 138.255 1740.63 164.67 1740.63 197.255Z" fill="#5606FF"/>
<path class="neuron_grad" d="M1740.63 197.255C1740.63 229.84 1714.21 256.255 1681.63 256.255C1649.04 256.255 1622.63 229.84 1622.63 197.255C1622.63 164.67 1649.04 138.255 1681.63 138.255C1714.21 138.255 1740.63 164.67 1740.63 197.255Z" fill="url(#paint49_radial_23_2438)"/>
<path class="neuron_edge" d="M1740.63 197.255C1740.63 229.84 1714.21 256.255 1681.63 256.255C1649.04 256.255 1622.63 229.84 1622.63 197.255C1622.63 164.67 1649.04 138.255 1681.63 138.255C1714.21 138.255 1740.63 164.67 1740.63 197.255Z" stroke="#1A1B27" stroke-width="18"/>
<path class="neuron_fill" d="M1740.63 326.51C1740.63 359.095 1714.21 385.51 1681.63 385.51C1649.04 385.51 1622.63 359.095 1622.63 326.51C1622.63 293.925 1649.04 267.51 1681.63 267.51C1714.21 267.51 1740.63 293.925 1740.63 326.51Z" fill="#5606FF"/>
<path class="neuron_grad" d="M1740.63 326.51C1740.63 359.095 1714.21 385.51 1681.63 385.51C1649.04 385.51 1622.63 359.095 1622.63 326.51C1622.63 293.925 1649.04 267.51 1681.63 267.51C1714.21 267.51 1740.63 293.925 1740.63 326.51Z" fill="url(#paint50_radial_23_2438)"/>
<path class="neuron_edge" d="M1740.63 326.51C1740.63 359.095 1714.21 385.51 1681.63 385.51C1649.04 385.51 1622.63 359.095 1622.63 326.51C1622.63 293.925 1649.04 267.51 1681.63 267.51C1714.21 267.51 1740.63 293.925 1740.63 326.51Z" stroke="#1A1B27" stroke-width="18"/>
<path class="neuron_fill" d="M1740.63 455.765C1740.63 488.349 1714.21 514.765 1681.63 514.765C1649.04 514.765 1622.63 488.349 1622.63 455.765C1622.63 423.18 1649.04 396.765 1681.63 396.765C1714.21 396.765 1740.63 423.18 1740.63 455.765Z" fill="#5606FF"/>
<path class="neuron_grad" d="M1740.63 455.765C1740.63 488.349 1714.21 514.765 1681.63 514.765C1649.04 514.765 1622.63 488.349 1622.63 455.765C1622.63 423.18 1649.04 396.765 1681.63 396.765C1714.21 396.765 1740.63 423.18 1740.63 455.765Z" fill="url(#paint51_radial_23_2438)"/>
<path class="neuron_edge" d="M1740.63 455.765C1740.63 488.349 1714.21 514.765 1681.63 514.765C1649.04 514.765 1622.63 488.349 1622.63 455.765C1622.63 423.18 1649.04 396.765 1681.63 396.765C1714.21 396.765 1740.63 423.18 1740.63 455.765Z" stroke="#1A1B27" stroke-width="18"/>
<path class="neuron_fill" d="M1740.63 585.189C1740.63 617.774 1714.21 644.189 1681.63 644.189C1649.04 644.189 1622.63 617.774 1622.63 585.189C1622.63 552.604 1649.04 526.189 1681.63 526.189C1714.21 526.189 1740.63 552.604 1740.63 585.189Z" fill="#5606FF"/>
<path class="neuron_grad" d="M1740.63 585.189C1740.63 617.774 1714.21 644.189 1681.63 644.189C1649.04 644.189 1622.63 617.774 1622.63 585.189C1622.63 552.604 1649.04 526.189 1681.63 526.189C1714.21 526.189 1740.63 552.604 1740.63 585.189Z" fill="url(#paint52_radial_23_2438)"/>
<path class="neuron_edge" d="M1740.63 585.189C1740.63 617.774 1714.21 644.189 1681.63 644.189C1649.04 644.189 1622.63 617.774 1622.63 585.189C1622.63 552.604 1649.04 526.189 1681.63 526.189C1714.21 526.189 1740.63 552.604 1740.63 585.189Z" stroke="#1A1B27" stroke-width="18"/>
<path class="neuron_fill" d="M1740.63 714.444C1740.63 747.029 1714.21 773.444 1681.63 773.444C1649.04 773.444 1622.63 747.029 1622.63 714.444C1622.63 681.859 1649.04 655.444 1681.63 655.444C1714.21 655.444 1740.63 681.859 1740.63 714.444Z" fill="#5606FF"/>
<path class="neuron_grad" d="M1740.63 714.444C1740.63 747.029 1714.21 773.444 1681.63 773.444C1649.04 773.444 1622.63 747.029 1622.63 714.444C1622.63 681.859 1649.04 655.444 1681.63 655.444C1714.21 655.444 1740.63 681.859 1740.63 714.444Z" fill="url(#paint53_radial_23_2438)"/>
<path class="neuron_edge" d="M1740.63 714.444C1740.63 747.029 1714.21 773.444 1681.63 773.444C1649.04 773.444 1622.63 747.029 1622.63 714.444C1622.63 681.859 1649.04 655.444 1681.63 655.444C1714.21 655.444 1740.63 681.859 1740.63 714.444Z" stroke="#1A1B27" stroke-width="18"/>
<path class="neuron_fill" d="M1740.63 843.474C1740.63 876.058 1714.21 902.474 1681.63 902.474C1649.04 902.474 1622.63 876.058 1622.63 843.474C1622.63 810.889 1649.04 784.474 1681.63 784.474C1714.21 784.474 1740.63 810.889 1740.63 843.474Z" fill="#5606FF"/>
<path class="neuron_grad" d="M1740.63 843.474C1740.63 876.058 1714.21 902.474 1681.63 902.474C1649.04 902.474 1622.63 876.058 1622.63 843.474C1622.63 810.889 1649.04 784.474 1681.63 784.474C1714.21 784.474 1740.63 810.889 1740.63 843.474Z" fill="url(#paint54_radial_23_2438)"/>
<path class="neuron_edge" d="M1740.63 843.474C1740.63 876.058 1714.21 902.474 1681.63 902.474C1649.04 902.474 1622.63 876.058 1622.63 843.474C1622.63 810.889 1649.04 784.474 1681.63 784.474C1714.21 784.474 1740.63 810.889 1740.63 843.474Z" stroke="#1A1B27" stroke-width="18"/>
<path class="neuron_fill" d="M1740.63 972.504C1740.63 1005.09 1714.21 1031.5 1681.63 1031.5C1649.04 1031.5 1622.63 1005.09 1622.63 972.504C1622.63 939.919 1649.04 913.504 1681.63 913.504C1714.21 913.504 1740.63 939.919 1740.63 972.504Z" fill="#5606FF"/>
<path class="neuron_grad" d="M1740.63 972.504C1740.63 1005.09 1714.21 1031.5 1681.63 1031.5C1649.04 1031.5 1622.63 1005.09 1622.63 972.504C1622.63 939.919 1649.04 913.504 1681.63 913.504C1714.21 913.504 1740.63 939.919 1740.63 972.504Z" fill="url(#paint55_radial_23_2438)"/>
<path class="neuron_edge" d="M1740.63 972.504C1740.63 1005.09 1714.21 1031.5 1681.63 1031.5C1649.04 1031.5 1622.63 1005.09 1622.63 972.504C1622.63 939.919 1649.04 913.504 1681.63 913.504C1714.21 913.504 1740.63 939.919 1740.63 972.504Z" stroke="#1A1B27" stroke-width="18"/>
<path class="neuron_fill" d="M1344.26 68.0001C1344.26 100.585 1317.84 127 1285.26 127C1252.67 127 1226.26 100.585 1226.26 68.0001C1226.26 35.4153 1252.67 9.00006 1285.26 9.00006C1317.84 9.00006 1344.26 35.4153 1344.26 68.0001Z" fill="#5606FF"/>
<path class="neuron_grad" d="M1344.26 68.0001C1344.26 100.585 1317.84 127 1285.26 127C1252.67 127 1226.26 100.585 1226.26 68.0001C1226.26 35.4153 1252.67 9.00006 1285.26 9.00006C1317.84 9.00006 1344.26 35.4153 1344.26 68.0001Z" fill="url(#paint56_radial_23_2438)"/>
<path class="neuron_edge" d="M1344.26 68.0001C1344.26 100.585 1317.84 127 1285.26 127C1252.67 127 1226.26 100.585 1226.26 68.0001C1226.26 35.4153 1252.67 9.00006 1285.26 9.00006C1317.84 9.00006 1344.26 35.4153 1344.26 68.0001Z" stroke="#1A1B27" stroke-width="18"/>
<path class="neuron_fill" d="M1344.26 197.255C1344.26 229.84 1317.84 256.255 1285.26 256.255C1252.67 256.255 1226.26 229.84 1226.26 197.255C1226.26 164.67 1252.67 138.255 1285.26 138.255C1317.84 138.255 1344.26 164.67 1344.26 197.255Z" fill="#5606FF"/>
<path class="neuron_grad" d="M1344.26 197.255C1344.26 229.84 1317.84 256.255 1285.26 256.255C1252.67 256.255 1226.26 229.84 1226.26 197.255C1226.26 164.67 1252.67 138.255 1285.26 138.255C1317.84 138.255 1344.26 164.67 1344.26 197.255Z" fill="url(#paint57_radial_23_2438)"/>
<path class="neuron_edge" d="M1344.26 197.255C1344.26 229.84 1317.84 256.255 1285.26 256.255C1252.67 256.255 1226.26 229.84 1226.26 197.255C1226.26 164.67 1252.67 138.255 1285.26 138.255C1317.84 138.255 1344.26 164.67 1344.26 197.255Z" stroke="#1A1B27" stroke-width="18"/>
<path class="neuron_fill" d="M1344.26 326.51C1344.26 359.095 1317.84 385.51 1285.26 385.51C1252.67 385.51 1226.26 359.095 1226.26 326.51C1226.26 293.925 1252.67 267.51 1285.26 267.51C1317.84 267.51 1344.26 293.925 1344.26 326.51Z" fill="#5606FF"/>
<path class="neuron_grad" d="M1344.26 326.51C1344.26 359.095 1317.84 385.51 1285.26 385.51C1252.67 385.51 1226.26 359.095 1226.26 326.51C1226.26 293.925 1252.67 267.51 1285.26 267.51C1317.84 267.51 1344.26 293.925 1344.26 326.51Z" fill="url(#paint58_radial_23_2438)"/>
<path class="neuron_edge" d="M1344.26 326.51C1344.26 359.095 1317.84 385.51 1285.26 385.51C1252.67 385.51 1226.26 359.095 1226.26 326.51C1226.26 293.925 1252.67 267.51 1285.26 267.51C1317.84 267.51 1344.26 293.925 1344.26 326.51Z" stroke="#1A1B27" stroke-width="18"/>
<path class="neuron_fill" d="M1344.26 455.765C1344.26 488.349 1317.84 514.765 1285.26 514.765C1252.67 514.765 1226.26 488.349 1226.26 455.765C1226.26 423.18 1252.67 396.765 1285.26 396.765C1317.84 396.765 1344.26 423.18 1344.26 455.765Z" fill="#5606FF"/>
<path class="neuron_grad" d="M1344.26 455.765C1344.26 488.349 1317.84 514.765 1285.26 514.765C1252.67 514.765 1226.26 488.349 1226.26 455.765C1226.26 423.18 1252.67 396.765 1285.26 396.765C1317.84 396.765 1344.26 423.18 1344.26 455.765Z" fill="url(#paint59_radial_23_2438)"/>
<path class="neuron_edge" d="M1344.26 455.765C1344.26 488.349 1317.84 514.765 1285.26 514.765C1252.67 514.765 1226.26 488.349 1226.26 455.765C1226.26 423.18 1252.67 396.765 1285.26 396.765C1317.84 396.765 1344.26 423.18 1344.26 455.765Z" stroke="#1A1B27" stroke-width="18"/>
<path class="neuron_fill" d="M1344.26 585.189C1344.26 617.774 1317.84 644.189 1285.26 644.189C1252.67 644.189 1226.26 617.774 1226.26 585.189C1226.26 552.604 1252.67 526.189 1285.26 526.189C1317.84 526.189 1344.26 552.604 1344.26 585.189Z" fill="#5606FF"/>
<path class="neuron_grad" d="M1344.26 585.189C1344.26 617.774 1317.84 644.189 1285.26 644.189C1252.67 644.189 1226.26 617.774 1226.26 585.189C1226.26 552.604 1252.67 526.189 1285.26 526.189C1317.84 526.189 1344.26 552.604 1344.26 585.189Z" fill="url(#paint60_radial_23_2438)"/>
<path class="neuron_edge" d="M1344.26 585.189C1344.26 617.774 1317.84 644.189 1285.26 644.189C1252.67 644.189 1226.26 617.774 1226.26 585.189C1226.26 552.604 1252.67 526.189 1285.26 526.189C1317.84 526.189 1344.26 552.604 1344.26 585.189Z" stroke="#1A1B27" stroke-width="18"/>
<path class="neuron_fill" d="M1344.26 714.444C1344.26 747.029 1317.84 773.444 1285.26 773.444C1252.67 773.444 1226.26 747.029 1226.26 714.444C1226.26 681.859 1252.67 655.444 1285.26 655.444C1317.84 655.444 1344.26 681.859 1344.26 714.444Z" fill="#5606FF"/>
<path class="neuron_grad" d="M1344.26 714.444C1344.26 747.029 1317.84 773.444 1285.26 773.444C1252.67 773.444 1226.26 747.029 1226.26 714.444C1226.26 681.859 1252.67 655.444 1285.26 655.444C1317.84 655.444 1344.26 681.859 1344.26 714.444Z" fill="url(#paint61_radial_23_2438)"/>
<path class="neuron_edge" d="M1344.26 714.444C1344.26 747.029 1317.84 773.444 1285.26 773.444C1252.67 773.444 1226.26 747.029 1226.26 714.444C1226.26 681.859 1252.67 655.444 1285.26 655.444C1317.84 655.444 1344.26 681.859 1344.26 714.444Z" stroke="#1A1B27" stroke-width="18"/>
<path class="neuron_fill" d="M1344.26 843.474C1344.26 876.058 1317.84 902.474 1285.26 902.474C1252.67 902.474 1226.26 876.058 1226.26 843.474C1226.26 810.889 1252.67 784.474 1285.26 784.474C1317.84 784.474 1344.26 810.889 1344.26 843.474Z" fill="#5606FF"/>
<path class="neuron_grad" d="M1344.26 843.474C1344.26 876.058 1317.84 902.474 1285.26 902.474C1252.67 902.474 1226.26 876.058 1226.26 843.474C1226.26 810.889 1252.67 784.474 1285.26 784.474C1317.84 784.474 1344.26 810.889 1344.26 843.474Z" fill="url(#paint62_radial_23_2438)"/>
<path class="neuron_edge" d="M1344.26 843.474C1344.26 876.058 1317.84 902.474 1285.26 902.474C1252.67 902.474 1226.26 876.058 1226.26 843.474C1226.26 810.889 1252.67 784.474 1285.26 784.474C1317.84 784.474 1344.26 810.889 1344.26 843.474Z" stroke="#1A1B27" stroke-width="18"/>
<path class="neuron_fill" d="M1344.26 972.504C1344.26 1005.09 1317.84 1031.5 1285.26 1031.5C1252.67 1031.5 1226.26 1005.09 1226.26 972.504C1226.26 939.919 1252.67 913.504 1285.26 913.504C1317.84 913.504 1344.26 939.919 1344.26 972.504Z" fill="#5606FF"/>
<path class="neuron_grad" d="M1344.26 972.504C1344.26 1005.09 1317.84 1031.5 1285.26 1031.5C1252.67 1031.5 1226.26 1005.09 1226.26 972.504C1226.26 939.919 1252.67 913.504 1285.26 913.504C1317.84 913.504 1344.26 939.919 1344.26 972.504Z" fill="url(#paint63_radial_23_2438)"/>
<path class="neuron_edge" d="M1344.26 972.504C1344.26 1005.09 1317.84 1031.5 1285.26 1031.5C1252.67 1031.5 1226.26 1005.09 1226.26 972.504C1226.26 939.919 1252.67 913.504 1285.26 913.504C1317.84 913.504 1344.26 939.919 1344.26 972.504Z" stroke="#1A1B27" stroke-width="18"/>
<path class="neuron_fill" d="M947.889 68.0001C947.889 100.585 921.474 127 888.889 127C856.304 127 829.889 100.585 829.889 68.0001C829.889 35.4153 856.304 9.00006 888.889 9.00006C921.474 9.00006 947.889 35.4153 947.889 68.0001Z" fill="#5606FF"/>
<path class="neuron_grad" d="M947.889 68.0001C947.889 100.585 921.474 127 888.889 127C856.304 127 829.889 100.585 829.889 68.0001C829.889 35.4153 856.304 9.00006 888.889 9.00006C921.474 9.00006 947.889 35.4153 947.889 68.0001Z" fill="url(#paint64_radial_23_2438)"/>
<path class="neuron_edge" d="M947.889 68.0001C947.889 100.585 921.474 127 888.889 127C856.304 127 829.889 100.585 829.889 68.0001C829.889 35.4153 856.304 9.00006 888.889 9.00006C921.474 9.00006 947.889 35.4153 947.889 68.0001Z" stroke="#1A1B27" stroke-width="18"/>
<path class="neuron_fill" d="M947.889 197.255C947.889 229.84 921.474 256.255 888.889 256.255C856.304 256.255 829.889 229.84 829.889 197.255C829.889 164.67 856.304 138.255 888.889 138.255C921.474 138.255 947.889 164.67 947.889 197.255Z" fill="#5606FF"/>
<path class="neuron_grad" d="M947.889 197.255C947.889 229.84 921.474 256.255 888.889 256.255C856.304 256.255 829.889 229.84 829.889 197.255C829.889 164.67 856.304 138.255 888.889 138.255C921.474 138.255 947.889 164.67 947.889 197.255Z" fill="url(#paint65_radial_23_2438)"/>
<path class="neuron_edge" d="M947.889 197.255C947.889 229.84 921.474 256.255 888.889 256.255C856.304 256.255 829.889 229.84 829.889 197.255C829.889 164.67 856.304 138.255 888.889 138.255C921.474 138.255 947.889 164.67 947.889 197.255Z" stroke="#1A1B27" stroke-width="18"/>
<path class="neuron_fill" d="M947.889 326.51C947.889 359.095 921.474 385.51 888.889 385.51C856.304 385.51 829.889 359.095 829.889 326.51C829.889 293.925 856.304 267.51 888.889 267.51C921.474 267.51 947.889 293.925 947.889 326.51Z" fill="#5606FF"/>
<path class="neuron_grad" d="M947.889 326.51C947.889 359.095 921.474 385.51 888.889 385.51C856.304 385.51 829.889 359.095 829.889 326.51C829.889 293.925 856.304 267.51 888.889 267.51C921.474 267.51 947.889 293.925 947.889 326.51Z" fill="url(#paint66_radial_23_2438)"/>
<path class="neuron_edge" d="M947.889 326.51C947.889 359.095 921.474 385.51 888.889 385.51C856.304 385.51 829.889 359.095 829.889 326.51C829.889 293.925 856.304 267.51 888.889 267.51C921.474 267.51 947.889 293.925 947.889 326.51Z" stroke="#1A1B27" stroke-width="18"/>
<path class="neuron_fill" d="M947.889 455.765C947.889 488.35 921.474 514.765 888.889 514.765C856.304 514.765 829.889 488.35 829.889 455.765C829.889 423.18 856.304 396.765 888.889 396.765C921.474 396.765 947.889 423.18 947.889 455.765Z" fill="#5606FF"/>
<path class="neuron_grad" d="M947.889 455.765C947.889 488.35 921.474 514.765 888.889 514.765C856.304 514.765 829.889 488.35 829.889 455.765C829.889 423.18 856.304 396.765 888.889 396.765C921.474 396.765 947.889 423.18 947.889 455.765Z" fill="url(#paint67_radial_23_2438)"/>
<path class="neuron_edge" d="M947.889 455.765C947.889 488.35 921.474 514.765 888.889 514.765C856.304 514.765 829.889 488.35 829.889 455.765C829.889 423.18 856.304 396.765 888.889 396.765C921.474 396.765 947.889 423.18 947.889 455.765Z" stroke="#1A1B27" stroke-width="18"/>
<path class="neuron_fill" d="M947.889 585.189C947.889 617.774 921.474 644.189 888.889 644.189C856.304 644.189 829.889 617.774 829.889 585.189C829.889 552.604 856.304 526.189 888.889 526.189C921.474 526.189 947.889 552.604 947.889 585.189Z" fill="#5606FF"/>
<path class="neuron_grad" d="M947.889 585.189C947.889 617.774 921.474 644.189 888.889 644.189C856.304 644.189 829.889 617.774 829.889 585.189C829.889 552.604 856.304 526.189 888.889 526.189C921.474 526.189 947.889 552.604 947.889 585.189Z" fill="url(#paint68_radial_23_2438)"/>
<path class="neuron_edge" d="M947.889 585.189C947.889 617.774 921.474 644.189 888.889 644.189C856.304 644.189 829.889 617.774 829.889 585.189C829.889 552.604 856.304 526.189 888.889 526.189C921.474 526.189 947.889 552.604 947.889 585.189Z" stroke="#1A1B27" stroke-width="18"/>
<path class="neuron_fill" d="M947.889 714.444C947.889 747.029 921.474 773.444 888.889 773.444C856.304 773.444 829.889 747.029 829.889 714.444C829.889 681.859 856.304 655.444 888.889 655.444C921.474 655.444 947.889 681.859 947.889 714.444Z" fill="#5606FF"/>
<path class="neuron_grad" d="M947.889 714.444C947.889 747.029 921.474 773.444 888.889 773.444C856.304 773.444 829.889 747.029 829.889 714.444C829.889 681.859 856.304 655.444 888.889 655.444C921.474 655.444 947.889 681.859 947.889 714.444Z" fill="url(#paint69_radial_23_2438)"/>
<path class="neuron_edge" d="M947.889 714.444C947.889 747.029 921.474 773.444 888.889 773.444C856.304 773.444 829.889 747.029 829.889 714.444C829.889 681.859 856.304 655.444 888.889 655.444C921.474 655.444 947.889 681.859 947.889 714.444Z" stroke="#1A1B27" stroke-width="18"/>
<path class="neuron_fill" d="M947.889 843.474C947.889 876.058 921.474 902.474 888.889 902.474C856.304 902.474 829.889 876.058 829.889 843.474C829.889 810.889 856.304 784.474 888.889 784.474C921.474 784.474 947.889 810.889 947.889 843.474Z" fill="#5606FF"/>
<path class="neuron_grad" d="M947.889 843.474C947.889 876.058 921.474 902.474 888.889 902.474C856.304 902.474 829.889 876.058 829.889 843.474C829.889 810.889 856.304 784.474 888.889 784.474C921.474 784.474 947.889 810.889 947.889 843.474Z" fill="url(#paint70_radial_23_2438)"/>
<path class="neuron_edge" d="M947.889 843.474C947.889 876.058 921.474 902.474 888.889 902.474C856.304 902.474 829.889 876.058 829.889 843.474C829.889 810.889 856.304 784.474 888.889 784.474C921.474 784.474 947.889 810.889 947.889 843.474Z" stroke="#1A1B27" stroke-width="18"/>
<path class="neuron_fill" d="M947.889 972.504C947.889 1005.09 921.474 1031.5 888.889 1031.5C856.304 1031.5 829.889 1005.09 829.889 972.504C829.889 939.919 856.304 913.504 888.889 913.504C921.474 913.504 947.889 939.919 947.889 972.504Z" fill="#5606FF"/>
<path class="neuron_grad" d="M947.889 972.504C947.889 1005.09 921.474 1031.5 888.889 1031.5C856.304 1031.5 829.889 1005.09 829.889 972.504C829.889 939.919 856.304 913.504 888.889 913.504C921.474 913.504 947.889 939.919 947.889 972.504Z" fill="url(#paint71_radial_23_2438)"/>
<path class="neuron_edge" d="M947.889 972.504C947.889 1005.09 921.474 1031.5 888.889 1031.5C856.304 1031.5 829.889 1005.09 829.889 972.504C829.889 939.919 856.304 913.504 888.889 913.504C921.474 913.504 947.889 939.919 947.889 972.504Z" stroke="#1A1B27" stroke-width="18"/>
<path class="neuron_fill" d="M551.519 68.0001C551.519 100.585 525.104 127 492.519 127C459.934 127 433.519 100.585 433.519 68.0001C433.519 35.4153 459.934 9.00006 492.519 9.00006C525.104 9.00006 551.519 35.4153 551.519 68.0001Z" fill="#5606FF"/>
<path class="neuron_grad" d="M551.519 68.0001C551.519 100.585 525.104 127 492.519 127C459.934 127 433.519 100.585 433.519 68.0001C433.519 35.4153 459.934 9.00006 492.519 9.00006C525.104 9.00006 551.519 35.4153 551.519 68.0001Z" fill="url(#paint72_radial_23_2438)"/>
<path class="neuron_edge" d="M551.519 68.0001C551.519 100.585 525.104 127 492.519 127C459.934 127 433.519 100.585 433.519 68.0001C433.519 35.4153 459.934 9.00006 492.519 9.00006C525.104 9.00006 551.519 35.4153 551.519 68.0001Z" stroke="#1A1B27" stroke-width="18"/>
<path class="neuron_fill" d="M551.519 197.255C551.519 229.84 525.104 256.255 492.519 256.255C459.934 256.255 433.519 229.84 433.519 197.255C433.519 164.67 459.934 138.255 492.519 138.255C525.104 138.255 551.519 164.67 551.519 197.255Z" fill="#5606FF"/>
<path class="neuron_grad" d="M551.519 197.255C551.519 229.84 525.104 256.255 492.519 256.255C459.934 256.255 433.519 229.84 433.519 197.255C433.519 164.67 459.934 138.255 492.519 138.255C525.104 138.255 551.519 164.67 551.519 197.255Z" fill="url(#paint73_radial_23_2438)"/>
<path class="neuron_edge" d="M551.519 197.255C551.519 229.84 525.104 256.255 492.519 256.255C459.934 256.255 433.519 229.84 433.519 197.255C433.519 164.67 459.934 138.255 492.519 138.255C525.104 138.255 551.519 164.67 551.519 197.255Z" stroke="#1A1B27" stroke-width="18"/>
<path class="neuron_fill" d="M551.519 326.51C551.519 359.095 525.104 385.51 492.519 385.51C459.934 385.51 433.519 359.095 433.519 326.51C433.519 293.925 459.934 267.51 492.519 267.51C525.104 267.51 551.519 293.925 551.519 326.51Z" fill="#5606FF"/>
<path class="neuron_grad" d="M551.519 326.51C551.519 359.095 525.104 385.51 492.519 385.51C459.934 385.51 433.519 359.095 433.519 326.51C433.519 293.925 459.934 267.51 492.519 267.51C525.104 267.51 551.519 293.925 551.519 326.51Z" fill="url(#paint74_radial_23_2438)"/>
<path class="neuron_edge" d="M551.519 326.51C551.519 359.095 525.104 385.51 492.519 385.51C459.934 385.51 433.519 359.095 433.519 326.51C433.519 293.925 459.934 267.51 492.519 267.51C525.104 267.51 551.519 293.925 551.519 326.51Z" stroke="#1A1B27" stroke-width="18"/>
<path class="neuron_fill" d="M551.519 455.765C551.519 488.349 525.104 514.765 492.519 514.765C459.934 514.765 433.519 488.349 433.519 455.765C433.519 423.18 459.934 396.765 492.519 396.765C525.104 396.765 551.519 423.18 551.519 455.765Z" fill="#5606FF"/>
<path class="neuron_grad" d="M551.519 455.765C551.519 488.349 525.104 514.765 492.519 514.765C459.934 514.765 433.519 488.349 433.519 455.765C433.519 423.18 459.934 396.765 492.519 396.765C525.104 396.765 551.519 423.18 551.519 455.765Z" fill="url(#paint75_radial_23_2438)"/>
<path class="neuron_edge" d="M551.519 455.765C551.519 488.349 525.104 514.765 492.519 514.765C459.934 514.765 433.519 488.349 433.519 455.765C433.519 423.18 459.934 396.765 492.519 396.765C525.104 396.765 551.519 423.18 551.519 455.765Z" stroke="#1A1B27" stroke-width="18"/>
<path class="neuron_fill" d="M551.519 585.189C551.519 617.774 525.104 644.189 492.519 644.189C459.934 644.189 433.519 617.774 433.519 585.189C433.519 552.604 459.934 526.189 492.519 526.189C525.104 526.189 551.519 552.604 551.519 585.189Z" fill="#5606FF"/>
<path class="neuron_grad" d="M551.519 585.189C551.519 617.774 525.104 644.189 492.519 644.189C459.934 644.189 433.519 617.774 433.519 585.189C433.519 552.604 459.934 526.189 492.519 526.189C525.104 526.189 551.519 552.604 551.519 585.189Z" fill="url(#paint76_radial_23_2438)"/>
<path class="neuron_edge" d="M551.519 585.189C551.519 617.774 525.104 644.189 492.519 644.189C459.934 644.189 433.519 617.774 433.519 585.189C433.519 552.604 459.934 526.189 492.519 526.189C525.104 526.189 551.519 552.604 551.519 585.189Z" stroke="#1A1B27" stroke-width="18"/>
<path class="neuron_fill" d="M551.519 714.444C551.519 747.029 525.104 773.444 492.519 773.444C459.934 773.444 433.519 747.029 433.519 714.444C433.519 681.859 459.934 655.444 492.519 655.444C525.104 655.444 551.519 681.859 551.519 714.444Z" fill="#5606FF"/>
<path class="neuron_grad" d="M551.519 714.444C551.519 747.029 525.104 773.444 492.519 773.444C459.934 773.444 433.519 747.029 433.519 714.444C433.519 681.859 459.934 655.444 492.519 655.444C525.104 655.444 551.519 681.859 551.519 714.444Z" fill="url(#paint77_radial_23_2438)"/>
<path class="neuron_edge" d="M551.519 714.444C551.519 747.029 525.104 773.444 492.519 773.444C459.934 773.444 433.519 747.029 433.519 714.444C433.519 681.859 459.934 655.444 492.519 655.444C525.104 655.444 551.519 681.859 551.519 714.444Z" stroke="#1A1B27" stroke-width="18"/>
<path class="neuron_fill" d="M551.519 843.474C551.519 876.058 525.104 902.474 492.519 902.474C459.934 902.474 433.519 876.058 433.519 843.474C433.519 810.889 459.934 784.474 492.519 784.474C525.104 784.474 551.519 810.889 551.519 843.474Z" fill="#5606FF"/>
<path class="neuron_grad" d="M551.519 843.474C551.519 876.058 525.104 902.474 492.519 902.474C459.934 902.474 433.519 876.058 433.519 843.474C433.519 810.889 459.934 784.474 492.519 784.474C525.104 784.474 551.519 810.889 551.519 843.474Z" fill="url(#paint78_radial_23_2438)"/>
<path class="neuron_edge" d="M551.519 843.474C551.519 876.058 525.104 902.474 492.519 902.474C459.934 902.474 433.519 876.058 433.519 843.474C433.519 810.889 459.934 784.474 492.519 784.474C525.104 784.474 551.519 810.889 551.519 843.474Z" stroke="#1A1B27" stroke-width="18"/>
<path class="neuron_fill" d="M551.519 972.504C551.519 1005.09 525.104 1031.5 492.519 1031.5C459.934 1031.5 433.519 1005.09 433.519 972.504C433.519 939.919 459.934 913.504 492.519 913.504C525.104 913.504 551.519 939.919 551.519 972.504Z" fill="#5606FF"/>
<path class="neuron_grad" d="M551.519 972.504C551.519 1005.09 525.104 1031.5 492.519 1031.5C459.934 1031.5 433.519 1005.09 433.519 972.504C433.519 939.919 459.934 913.504 492.519 913.504C525.104 913.504 551.519 939.919 551.519 972.504Z" fill="url(#paint79_radial_23_2438)"/>
<path class="neuron_edge" d="M551.519 972.504C551.519 1005.09 525.104 1031.5 492.519 1031.5C459.934 1031.5 433.519 1005.09 433.519 972.504C433.519 939.919 459.934 913.504 492.519 913.504C525.104 913.504 551.519 939.919 551.519 972.504Z" stroke="#1A1B27" stroke-width="18"/>
<path class="neuron_fill" d="M155.148 68.0001C155.148 100.585 128.733 127 96.1484 127C63.5636 127 37.1484 100.585 37.1484 68.0001C37.1484 35.4153 63.5636 9.00006 96.1484 9.00006C128.733 9.00006 155.148 35.4153 155.148 68.0001Z" fill="#5606FF"/>
<path class="neuron_grad" d="M155.148 68.0001C155.148 100.585 128.733 127 96.1484 127C63.5636 127 37.1484 100.585 37.1484 68.0001C37.1484 35.4153 63.5636 9.00006 96.1484 9.00006C128.733 9.00006 155.148 35.4153 155.148 68.0001Z" fill="url(#paint80_radial_23_2438)"/>
<path class="neuron_edge" d="M155.148 68.0001C155.148 100.585 128.733 127 96.1484 127C63.5636 127 37.1484 100.585 37.1484 68.0001C37.1484 35.4153 63.5636 9.00006 96.1484 9.00006C128.733 9.00006 155.148 35.4153 155.148 68.0001Z" stroke="#1A1B27" stroke-width="18"/>
<path class="neuron_fill" d="M155.148 197.255C155.148 229.84 128.733 256.255 96.1484 256.255C63.5636 256.255 37.1484 229.84 37.1484 197.255C37.1484 164.67 63.5636 138.255 96.1484 138.255C128.733 138.255 155.148 164.67 155.148 197.255Z" fill="#5606FF"/>
<path class="neuron_grad" d="M155.148 197.255C155.148 229.84 128.733 256.255 96.1484 256.255C63.5636 256.255 37.1484 229.84 37.1484 197.255C37.1484 164.67 63.5636 138.255 96.1484 138.255C128.733 138.255 155.148 164.67 155.148 197.255Z" fill="url(#paint81_radial_23_2438)"/>
<path class="neuron_edge" d="M155.148 197.255C155.148 229.84 128.733 256.255 96.1484 256.255C63.5636 256.255 37.1484 229.84 37.1484 197.255C37.1484 164.67 63.5636 138.255 96.1484 138.255C128.733 138.255 155.148 164.67 155.148 197.255Z" stroke="#1A1B27" stroke-width="18"/>
<path class="neuron_fill" d="M155.148 326.51C155.148 359.095 128.733 385.51 96.1484 385.51C63.5636 385.51 37.1484 359.095 37.1484 326.51C37.1484 293.925 63.5636 267.51 96.1484 267.51C128.733 267.51 155.148 293.925 155.148 326.51Z" fill="#5606FF"/>
<path class="neuron_grad" d="M155.148 326.51C155.148 359.095 128.733 385.51 96.1484 385.51C63.5636 385.51 37.1484 359.095 37.1484 326.51C37.1484 293.925 63.5636 267.51 96.1484 267.51C128.733 267.51 155.148 293.925 155.148 326.51Z" fill="url(#paint82_radial_23_2438)"/>
<path class="neuron_edge" d="M155.148 326.51C155.148 359.095 128.733 385.51 96.1484 385.51C63.5636 385.51 37.1484 359.095 37.1484 326.51C37.1484 293.925 63.5636 267.51 96.1484 267.51C128.733 267.51 155.148 293.925 155.148 326.51Z" stroke="#1A1B27" stroke-width="18"/>
<path class="neuron_fill" d="M155.148 455.765C155.148 488.349 128.733 514.765 96.1484 514.765C63.5636 514.765 37.1484 488.349 37.1484 455.765C37.1484 423.18 63.5636 396.765 96.1484 396.765C128.733 396.765 155.148 423.18 155.148 455.765Z" fill="#5606FF"/>
<path class="neuron_grad" d="M155.148 455.765C155.148 488.349 128.733 514.765 96.1484 514.765C63.5636 514.765 37.1484 488.349 37.1484 455.765C37.1484 423.18 63.5636 396.765 96.1484 396.765C128.733 396.765 155.148 423.18 155.148 455.765Z" fill="url(#paint83_radial_23_2438)"/>
<path class="neuron_edge" d="M155.148 455.765C155.148 488.349 128.733 514.765 96.1484 514.765C63.5636 514.765 37.1484 488.349 37.1484 455.765C37.1484 423.18 63.5636 396.765 96.1484 396.765C128.733 396.765 155.148 423.18 155.148 455.765Z" stroke="#1A1B27" stroke-width="18"/>
<path class="neuron_fill" d="M155.148 585.189C155.148 617.774 128.733 644.189 96.1484 644.189C63.5636 644.189 37.1484 617.774 37.1484 585.189C37.1484 552.604 63.5636 526.189 96.1484 526.189C128.733 526.189 155.148 552.604 155.148 585.189Z" fill="#5606FF"/>
<path class="neuron_grad" d="M155.148 585.189C155.148 617.774 128.733 644.189 96.1484 644.189C63.5636 644.189 37.1484 617.774 37.1484 585.189C37.1484 552.604 63.5636 526.189 96.1484 526.189C128.733 526.189 155.148 552.604 155.148 585.189Z" fill="url(#paint84_radial_23_2438)"/>
<path class="neuron_edge" d="M155.148 585.189C155.148 617.774 128.733 644.189 96.1484 644.189C63.5636 644.189 37.1484 617.774 37.1484 585.189C37.1484 552.604 63.5636 526.189 96.1484 526.189C128.733 526.189 155.148 552.604 155.148 585.189Z" stroke="#1A1B27" stroke-width="18"/>
<path class="neuron_fill" d="M155.148 714.444C155.148 747.029 128.733 773.444 96.1484 773.444C63.5636 773.444 37.1484 747.029 37.1484 714.444C37.1484 681.859 63.5636 655.444 96.1484 655.444C128.733 655.444 155.148 681.859 155.148 714.444Z" fill="#5606FF"/>
<path class="neuron_grad" d="M155.148 714.444C155.148 747.029 128.733 773.444 96.1484 773.444C63.5636 773.444 37.1484 747.029 37.1484 714.444C37.1484 681.859 63.5636 655.444 96.1484 655.444C128.733 655.444 155.148 681.859 155.148 714.444Z" fill="url(#paint85_radial_23_2438)"/>
<path class="neuron_edge" d="M155.148 714.444C155.148 747.029 128.733 773.444 96.1484 773.444C63.5636 773.444 37.1484 747.029 37.1484 714.444C37.1484 681.859 63.5636 655.444 96.1484 655.444C128.733 655.444 155.148 681.859 155.148 714.444Z" stroke="#1A1B27" stroke-width="18"/>
<path class="neuron_fill" d="M155.148 843.474C155.148 876.058 128.733 902.474 96.1484 902.474C63.5636 902.474 37.1484 876.058 37.1484 843.474C37.1484 810.889 63.5636 784.474 96.1484 784.474C128.733 784.474 155.148 810.889 155.148 843.474Z" fill="#5606FF"/>
<path class="neuron_grad" d="M155.148 843.474C155.148 876.058 128.733 902.474 96.1484 902.474C63.5636 902.474 37.1484 876.058 37.1484 843.474C37.1484 810.889 63.5636 784.474 96.1484 784.474C128.733 784.474 155.148 810.889 155.148 843.474Z" fill="url(#paint86_radial_23_2438)"/>
<path class="neuron_edge" d="M155.148 843.474C155.148 876.058 128.733 902.474 96.1484 902.474C63.5636 902.474 37.1484 876.058 37.1484 843.474C37.1484 810.889 63.5636 784.474 96.1484 784.474C128.733 784.474 155.148 810.889 155.148 843.474Z" stroke="#1A1B27" stroke-width="18"/>
<path class="neuron_fill" d="M155.148 972.504C155.148 1005.09 128.733 1031.5 96.1484 1031.5C63.5636 1031.5 37.1484 1005.09 37.1484 972.504C37.1484 939.919 63.5636 913.504 96.1484 913.504C128.733 913.504 155.148 939.919 155.148 972.504Z" fill="#5606FF"/>
<path class="neuron_grad" d="M155.148 972.504C155.148 1005.09 128.733 1031.5 96.1484 1031.5C63.5636 1031.5 37.1484 1005.09 37.1484 972.504C37.1484 939.919 63.5636 913.504 96.1484 913.504C128.733 913.504 155.148 939.919 155.148 972.504Z" fill="url(#paint87_radial_23_2438)"/>
<path class="neuron_edge" d="M155.148 972.504C155.148 1005.09 128.733 1031.5 96.1484 1031.5C63.5636 1031.5 37.1484 1005.09 37.1484 972.504C37.1484 939.919 63.5636 913.504 96.1484 913.504C128.733 913.504 155.148 939.919 155.148 972.504Z" stroke="#1A1B27" stroke-width="18"/>
<defs>
<radialGradient id="paint0_radial_23_2438" cx="0" cy="0" r="1" gradientUnits="userSpaceOnUse" gradientTransform="translate(4037.34 49.7031) rotate(50.9743) scale(58.1679 59.9766)">
<stop stop-color="white" stop-opacity="0.61"/>
<stop offset="1" stop-color="#DCDCDC" stop-opacity="0.13"/>
</radialGradient>
<radialGradient id="paint1_radial_23_2438" cx="0" cy="0" r="1" gradientUnits="userSpaceOnUse" gradientTransform="translate(4037.34 178.958) rotate(50.9743) scale(58.1679 59.9766)">
<stop stop-color="white" stop-opacity="0.61"/>
<stop offset="1" stop-color="#DCDCDC" stop-opacity="0.13"/>
</radialGradient>
<radialGradient id="paint2_radial_23_2438" cx="0" cy="0" r="1" gradientUnits="userSpaceOnUse" gradientTransform="translate(4037.34 308.213) rotate(50.9743) scale(58.1679 59.9766)">
<stop stop-color="white" stop-opacity="0.61"/>
<stop offset="1" stop-color="#DCDCDC" stop-opacity="0.13"/>
</radialGradient>
<radialGradient id="paint3_radial_23_2438" cx="0" cy="0" r="1" gradientUnits="userSpaceOnUse" gradientTransform="translate(4037.34 437.468) rotate(50.9743) scale(58.1679 59.9766)">
<stop stop-color="white" stop-opacity="0.61"/>
<stop offset="1" stop-color="#DCDCDC" stop-opacity="0.13"/>
</radialGradient>
<radialGradient id="paint4_radial_23_2438" cx="0" cy="0" r="1" gradientUnits="userSpaceOnUse" gradientTransform="translate(4037.34 566.892) rotate(50.9743) scale(58.1679 59.9766)">
<stop stop-color="white" stop-opacity="0.61"/>
<stop offset="1" stop-color="#DCDCDC" stop-opacity="0.13"/>
</radialGradient>
<radialGradient id="paint5_radial_23_2438" cx="0" cy="0" r="1" gradientUnits="userSpaceOnUse" gradientTransform="translate(4037.34 696.147) rotate(50.9743) scale(58.1679 59.9766)">
<stop stop-color="white" stop-opacity="0.61"/>
<stop offset="1" stop-color="#DCDCDC" stop-opacity="0.13"/>
</radialGradient>
<radialGradient id="paint6_radial_23_2438" cx="0" cy="0" r="1" gradientUnits="userSpaceOnUse" gradientTransform="translate(4037.34 825.177) rotate(50.9743) scale(58.1679 59.9766)">
<stop stop-color="white" stop-opacity="0.61"/>
<stop offset="1" stop-color="#DCDCDC" stop-opacity="0.13"/>
</radialGradient>
<radialGradient id="paint7_radial_23_2438" cx="0" cy="0" r="1" gradientUnits="userSpaceOnUse" gradientTransform="translate(4037.34 954.207) rotate(50.9743) scale(58.1679 59.9766)">
<stop stop-color="white" stop-opacity="0.61"/>
<stop offset="1" stop-color="#DCDCDC" stop-opacity="0.13"/>
</radialGradient>
<radialGradient id="paint8_radial_23_2438" cx="0" cy="0" r="1" gradientUnits="userSpaceOnUse" gradientTransform="translate(3640.97 49.7031) rotate(50.9743) scale(58.1679 59.9766)">
<stop stop-color="white" stop-opacity="0.61"/>
<stop offset="1" stop-color="#DCDCDC" stop-opacity="0.13"/>
</radialGradient>
<radialGradient id="paint9_radial_23_2438" cx="0" cy="0" r="1" gradientUnits="userSpaceOnUse" gradientTransform="translate(3640.97 178.958) rotate(50.9743) scale(58.1679 59.9766)">
<stop stop-color="white" stop-opacity="0.61"/>
<stop offset="1" stop-color="#DCDCDC" stop-opacity="0.13"/>
</radialGradient>
<radialGradient id="paint10_radial_23_2438" cx="0" cy="0" r="1" gradientUnits="userSpaceOnUse" gradientTransform="translate(3640.97 308.213) rotate(50.9743) scale(58.1679 59.9766)">
<stop stop-color="white" stop-opacity="0.61"/>
<stop offset="1" stop-color="#DCDCDC" stop-opacity="0.13"/>
</radialGradient>
<radialGradient id="paint11_radial_23_2438" cx="0" cy="0" r="1" gradientUnits="userSpaceOnUse" gradientTransform="translate(3640.97 437.468) rotate(50.9743) scale(58.1679 59.9766)">
<stop stop-color="white" stop-opacity="0.61"/>
<stop offset="1" stop-color="#DCDCDC" stop-opacity="0.13"/>
</radialGradient>
<radialGradient id="paint12_radial_23_2438" cx="0" cy="0" r="1" gradientUnits="userSpaceOnUse" gradientTransform="translate(3640.97 566.892) rotate(50.9743) scale(58.1679 59.9766)">
<stop stop-color="white" stop-opacity="0.61"/>
<stop offset="1" stop-color="#DCDCDC" stop-opacity="0.13"/>
</radialGradient>
<radialGradient id="paint13_radial_23_2438" cx="0" cy="0" r="1" gradientUnits="userSpaceOnUse" gradientTransform="translate(3640.97 696.147) rotate(50.9743) scale(58.1679 59.9766)">
<stop stop-color="white" stop-opacity="0.61"/>
<stop offset="1" stop-color="#DCDCDC" stop-opacity="0.13"/>
</radialGradient>
<radialGradient id="paint14_radial_23_2438" cx="0" cy="0" r="1" gradientUnits="userSpaceOnUse" gradientTransform="translate(3640.97 825.177) rotate(50.9743) scale(58.1679 59.9766)">
<stop stop-color="white" stop-opacity="0.61"/>
<stop offset="1" stop-color="#DCDCDC" stop-opacity="0.13"/>
</radialGradient>
<radialGradient id="paint15_radial_23_2438" cx="0" cy="0" r="1" gradientUnits="userSpaceOnUse" gradientTransform="translate(3640.97 954.207) rotate(50.9743) scale(58.1679 59.9766)">
<stop stop-color="white" stop-opacity="0.61"/>
<stop offset="1" stop-color="#DCDCDC" stop-opacity="0.13"/>
</radialGradient>
<radialGradient id="paint16_radial_23_2438" cx="0" cy="0" r="1" gradientUnits="userSpaceOnUse" gradientTransform="translate(3244.6 49.7031) rotate(50.9743) scale(58.1679 59.9766)">
<stop stop-color="white" stop-opacity="0.61"/>
<stop offset="1" stop-color="#DCDCDC" stop-opacity="0.13"/>
</radialGradient>
<radialGradient id="paint17_radial_23_2438" cx="0" cy="0" r="1" gradientUnits="userSpaceOnUse" gradientTransform="translate(3244.6 178.958) rotate(50.9743) scale(58.1679 59.9766)">
<stop stop-color="white" stop-opacity="0.61"/>
<stop offset="1" stop-color="#DCDCDC" stop-opacity="0.13"/>
</radialGradient>
<radialGradient id="paint18_radial_23_2438" cx="0" cy="0" r="1" gradientUnits="userSpaceOnUse" gradientTransform="translate(3244.6 308.213) rotate(50.9743) scale(58.1679 59.9766)">
<stop stop-color="white" stop-opacity="0.61"/>
<stop offset="1" stop-color="#DCDCDC" stop-opacity="0.13"/>
</radialGradient>
<radialGradient id="paint19_radial_23_2438" cx="0" cy="0" r="1" gradientUnits="userSpaceOnUse" gradientTransform="translate(3244.6 437.468) rotate(50.9743) scale(58.1679 59.9766)">
<stop stop-color="white" stop-opacity="0.61"/>
<stop offset="1" stop-color="#DCDCDC" stop-opacity="0.13"/>
</radialGradient>
<radialGradient id="paint20_radial_23_2438" cx="0" cy="0" r="1" gradientUnits="userSpaceOnUse" gradientTransform="translate(3244.6 566.892) rotate(50.9743) scale(58.1679 59.9766)">
<stop stop-color="white" stop-opacity="0.61"/>
<stop offset="1" stop-color="#DCDCDC" stop-opacity="0.13"/>
</radialGradient>
<radialGradient id="paint21_radial_23_2438" cx="0" cy="0" r="1" gradientUnits="userSpaceOnUse" gradientTransform="translate(3244.6 696.147) rotate(50.9743) scale(58.1679 59.9766)">
<stop stop-color="white" stop-opacity="0.61"/>
<stop offset="1" stop-color="#DCDCDC" stop-opacity="0.13"/>
</radialGradient>
<radialGradient id="paint22_radial_23_2438" cx="0" cy="0" r="1" gradientUnits="userSpaceOnUse" gradientTransform="translate(3244.6 825.177) rotate(50.9743) scale(58.1679 59.9766)">
<stop stop-color="white" stop-opacity="0.61"/>
<stop offset="1" stop-color="#DCDCDC" stop-opacity="0.13"/>
</radialGradient>
<radialGradient id="paint23_radial_23_2438" cx="0" cy="0" r="1" gradientUnits="userSpaceOnUse" gradientTransform="translate(3244.6 954.207) rotate(50.9743) scale(58.1679 59.9766)">
<stop stop-color="white" stop-opacity="0.61"/>
<stop offset="1" stop-color="#DCDCDC" stop-opacity="0.13"/>
</radialGradient>
<radialGradient id="paint24_radial_23_2438" cx="0" cy="0" r="1" gradientUnits="userSpaceOnUse" gradientTransform="translate(2848.23 49.7031) rotate(50.9743) scale(58.1679 59.9766)">
<stop stop-color="white" stop-opacity="0.61"/>
<stop offset="1" stop-color="#DCDCDC" stop-opacity="0.13"/>
</radialGradient>
<radialGradient id="paint25_radial_23_2438" cx="0" cy="0" r="1" gradientUnits="userSpaceOnUse" gradientTransform="translate(2848.23 178.958) rotate(50.9743) scale(58.1679 59.9766)">
<stop stop-color="white" stop-opacity="0.61"/>
<stop offset="1" stop-color="#DCDCDC" stop-opacity="0.13"/>
</radialGradient>
<radialGradient id="paint26_radial_23_2438" cx="0" cy="0" r="1" gradientUnits="userSpaceOnUse" gradientTransform="translate(2848.23 308.213) rotate(50.9743) scale(58.1679 59.9766)">
<stop stop-color="white" stop-opacity="0.61"/>
<stop offset="1" stop-color="#DCDCDC" stop-opacity="0.13"/>
</radialGradient>
<radialGradient id="paint27_radial_23_2438" cx="0" cy="0" r="1" gradientUnits="userSpaceOnUse" gradientTransform="translate(2848.23 437.468) rotate(50.9743) scale(58.1679 59.9766)">
<stop stop-color="white" stop-opacity="0.61"/>
<stop offset="1" stop-color="#DCDCDC" stop-opacity="0.13"/>
</radialGradient>
<radialGradient id="paint28_radial_23_2438" cx="0" cy="0" r="1" gradientUnits="userSpaceOnUse" gradientTransform="translate(2848.23 566.892) rotate(50.9743) scale(58.1679 59.9766)">
<stop stop-color="white" stop-opacity="0.61"/>
<stop offset="1" stop-color="#DCDCDC" stop-opacity="0.13"/>
</radialGradient>
<radialGradient id="paint29_radial_23_2438" cx="0" cy="0" r="1" gradientUnits="userSpaceOnUse" gradientTransform="translate(2848.23 696.147) rotate(50.9743) scale(58.1679 59.9766)">
<stop stop-color="white" stop-opacity="0.61"/>
<stop offset="1" stop-color="#DCDCDC" stop-opacity="0.13"/>
</radialGradient>
<radialGradient id="paint30_radial_23_2438" cx="0" cy="0" r="1" gradientUnits="userSpaceOnUse" gradientTransform="translate(2848.23 825.177) rotate(50.9743) scale(58.1679 59.9766)">
<stop stop-color="white" stop-opacity="0.61"/>
<stop offset="1" stop-color="#DCDCDC" stop-opacity="0.13"/>
</radialGradient>
<radialGradient id="paint31_radial_23_2438" cx="0" cy="0" r="1" gradientUnits="userSpaceOnUse" gradientTransform="translate(2848.23 954.207) rotate(50.9743) scale(58.1679 59.9766)">
<stop stop-color="white" stop-opacity="0.61"/>
<stop offset="1" stop-color="#DCDCDC" stop-opacity="0.13"/>
</radialGradient>
<radialGradient id="paint32_radial_23_2438" cx="0" cy="0" r="1" gradientUnits="userSpaceOnUse" gradientTransform="translate(2451.86 49.7031) rotate(50.9743) scale(58.1679 59.9766)">
<stop stop-color="white" stop-opacity="0.61"/>
<stop offset="1" stop-color="#DCDCDC" stop-opacity="0.13"/>
</radialGradient>
<radialGradient id="paint33_radial_23_2438" cx="0" cy="0" r="1" gradientUnits="userSpaceOnUse" gradientTransform="translate(2451.86 178.958) rotate(50.9743) scale(58.1679 59.9766)">
<stop stop-color="white" stop-opacity="0.61"/>
<stop offset="1" stop-color="#DCDCDC" stop-opacity="0.13"/>
</radialGradient>
<radialGradient id="paint34_radial_23_2438" cx="0" cy="0" r="1" gradientUnits="userSpaceOnUse" gradientTransform="translate(2451.86 308.213) rotate(50.9743) scale(58.1679 59.9766)">
<stop stop-color="white" stop-opacity="0.61"/>
<stop offset="1" stop-color="#DCDCDC" stop-opacity="0.13"/>
</radialGradient>
<radialGradient id="paint35_radial_23_2438" cx="0" cy="0" r="1" gradientUnits="userSpaceOnUse" gradientTransform="translate(2451.86 437.468) rotate(50.9743) scale(58.1679 59.9766)">
<stop stop-color="white" stop-opacity="0.61"/>
<stop offset="1" stop-color="#DCDCDC" stop-opacity="0.13"/>
</radialGradient>
<radialGradient id="paint36_radial_23_2438" cx="0" cy="0" r="1" gradientUnits="userSpaceOnUse" gradientTransform="translate(2451.86 566.892) rotate(50.9743) scale(58.1679 59.9766)">
<stop stop-color="white" stop-opacity="0.61"/>
<stop offset="1" stop-color="#DCDCDC" stop-opacity="0.13"/>
</radialGradient>
<radialGradient id="paint37_radial_23_2438" cx="0" cy="0" r="1" gradientUnits="userSpaceOnUse" gradientTransform="translate(2451.86 696.147) rotate(50.9743) scale(58.1679 59.9766)">
<stop stop-color="white" stop-opacity="0.61"/>
<stop offset="1" stop-color="#DCDCDC" stop-opacity="0.13"/>
</radialGradient>
<radialGradient id="paint38_radial_23_2438" cx="0" cy="0" r="1" gradientUnits="userSpaceOnUse" gradientTransform="translate(2451.86 825.177) rotate(50.9743) scale(58.1679 59.9766)">
<stop stop-color="white" stop-opacity="0.61"/>
<stop offset="1" stop-color="#DCDCDC" stop-opacity="0.13"/>
</radialGradient>
<radialGradient id="paint39_radial_23_2438" cx="0" cy="0" r="1" gradientUnits="userSpaceOnUse" gradientTransform="translate(2451.86 954.207) rotate(50.9743) scale(58.1679 59.9766)">
<stop stop-color="white" stop-opacity="0.61"/>
<stop offset="1" stop-color="#DCDCDC" stop-opacity="0.13"/>
</radialGradient>
<radialGradient id="paint40_radial_23_2438" cx="0" cy="0" r="1" gradientUnits="userSpaceOnUse" gradientTransform="translate(2055.49 49.7031) rotate(50.9743) scale(58.1679 59.9766)">
<stop stop-color="white" stop-opacity="0.61"/>
<stop offset="1" stop-color="#DCDCDC" stop-opacity="0.13"/>
</radialGradient>
<radialGradient id="paint41_radial_23_2438" cx="0" cy="0" r="1" gradientUnits="userSpaceOnUse" gradientTransform="translate(2055.49 178.958) rotate(50.9743) scale(58.1679 59.9766)">
<stop stop-color="white" stop-opacity="0.61"/>
<stop offset="1" stop-color="#DCDCDC" stop-opacity="0.13"/>
</radialGradient>
<radialGradient id="paint42_radial_23_2438" cx="0" cy="0" r="1" gradientUnits="userSpaceOnUse" gradientTransform="translate(2055.49 308.213) rotate(50.9743) scale(58.1679 59.9766)">
<stop stop-color="white" stop-opacity="0.61"/>
<stop offset="1" stop-color="#DCDCDC" stop-opacity="0.13"/>
</radialGradient>
<radialGradient id="paint43_radial_23_2438" cx="0" cy="0" r="1" gradientUnits="userSpaceOnUse" gradientTransform="translate(2055.49 437.468) rotate(50.9743) scale(58.1679 59.9766)">
<stop stop-color="white" stop-opacity="0.61"/>
<stop offset="1" stop-color="#DCDCDC" stop-opacity="0.13"/>
</radialGradient>
<radialGradient id="paint44_radial_23_2438" cx="0" cy="0" r="1" gradientUnits="userSpaceOnUse" gradientTransform="translate(2055.49 566.892) rotate(50.9743) scale(58.1679 59.9766)">
<stop stop-color="white" stop-opacity="0.61"/>
<stop offset="1" stop-color="#DCDCDC" stop-opacity="0.13"/>
</radialGradient>
<radialGradient id="paint45_radial_23_2438" cx="0" cy="0" r="1" gradientUnits="userSpaceOnUse" gradientTransform="translate(2055.49 696.147) rotate(50.9743) scale(58.1679 59.9766)">
<stop stop-color="white" stop-opacity="0.61"/>
<stop offset="1" stop-color="#DCDCDC" stop-opacity="0.13"/>
</radialGradient>
<radialGradient id="paint46_radial_23_2438" cx="0" cy="0" r="1" gradientUnits="userSpaceOnUse" gradientTransform="translate(2055.49 825.177) rotate(50.9743) scale(58.1679 59.9766)">
<stop stop-color="white" stop-opacity="0.61"/>
<stop offset="1" stop-color="#DCDCDC" stop-opacity="0.13"/>
</radialGradient>
<radialGradient id="paint47_radial_23_2438" cx="0" cy="0" r="1" gradientUnits="userSpaceOnUse" gradientTransform="translate(2055.49 954.207) rotate(50.9743) scale(58.1679 59.9766)">
<stop stop-color="white" stop-opacity="0.61"/>
<stop offset="1" stop-color="#DCDCDC" stop-opacity="0.13"/>
</radialGradient>
<radialGradient id="paint48_radial_23_2438" cx="0" cy="0" r="1" gradientUnits="userSpaceOnUse" gradientTransform="translate(1659.12 49.7031) rotate(50.9743) scale(58.1679 59.9766)">
<stop stop-color="white" stop-opacity="0.61"/>
<stop offset="1" stop-color="#DCDCDC" stop-opacity="0.13"/>
</radialGradient>
<radialGradient id="paint49_radial_23_2438" cx="0" cy="0" r="1" gradientUnits="userSpaceOnUse" gradientTransform="translate(1659.12 178.958) rotate(50.9743) scale(58.1679 59.9766)">
<stop stop-color="white" stop-opacity="0.61"/>
<stop offset="1" stop-color="#DCDCDC" stop-opacity="0.13"/>
</radialGradient>
<radialGradient id="paint50_radial_23_2438" cx="0" cy="0" r="1" gradientUnits="userSpaceOnUse" gradientTransform="translate(1659.12 308.213) rotate(50.9743) scale(58.1679 59.9766)">
<stop stop-color="white" stop-opacity="0.61"/>
<stop offset="1" stop-color="#DCDCDC" stop-opacity="0.13"/>
</radialGradient>
<radialGradient id="paint51_radial_23_2438" cx="0" cy="0" r="1" gradientUnits="userSpaceOnUse" gradientTransform="translate(1659.12 437.468) rotate(50.9743) scale(58.1679 59.9766)">
<stop stop-color="white" stop-opacity="0.61"/>
<stop offset="1" stop-color="#DCDCDC" stop-opacity="0.13"/>
</radialGradient>
<radialGradient id="paint52_radial_23_2438" cx="0" cy="0" r="1" gradientUnits="userSpaceOnUse" gradientTransform="translate(1659.12 566.892) rotate(50.9743) scale(58.1679 59.9766)">
<stop stop-color="white" stop-opacity="0.61"/>
<stop offset="1" stop-color="#DCDCDC" stop-opacity="0.13"/>
</radialGradient>
<radialGradient id="paint53_radial_23_2438" cx="0" cy="0" r="1" gradientUnits="userSpaceOnUse" gradientTransform="translate(1659.12 696.147) rotate(50.9743) scale(58.1679 59.9766)">
<stop stop-color="white" stop-opacity="0.61"/>
<stop offset="1" stop-color="#DCDCDC" stop-opacity="0.13"/>
</radialGradient>
<radialGradient id="paint54_radial_23_2438" cx="0" cy="0" r="1" gradientUnits="userSpaceOnUse" gradientTransform="translate(1659.12 825.177) rotate(50.9743) scale(58.1679 59.9766)">
<stop stop-color="white" stop-opacity="0.61"/>
<stop offset="1" stop-color="#DCDCDC" stop-opacity="0.13"/>
</radialGradient>
<radialGradient id="paint55_radial_23_2438" cx="0" cy="0" r="1" gradientUnits="userSpaceOnUse" gradientTransform="translate(1659.12 954.207) rotate(50.9743) scale(58.1679 59.9766)">
<stop stop-color="white" stop-opacity="0.61"/>
<stop offset="1" stop-color="#DCDCDC" stop-opacity="0.13"/>
</radialGradient>
<radialGradient id="paint56_radial_23_2438" cx="0" cy="0" r="1" gradientUnits="userSpaceOnUse" gradientTransform="translate(1262.75 49.7031) rotate(50.9743) scale(58.1679 59.9766)">
<stop stop-color="white" stop-opacity="0.61"/>
<stop offset="1" stop-color="#DCDCDC" stop-opacity="0.13"/>
</radialGradient>
<radialGradient id="paint57_radial_23_2438" cx="0" cy="0" r="1" gradientUnits="userSpaceOnUse" gradientTransform="translate(1262.75 178.958) rotate(50.9743) scale(58.1679 59.9766)">
<stop stop-color="white" stop-opacity="0.61"/>
<stop offset="1" stop-color="#DCDCDC" stop-opacity="0.13"/>
</radialGradient>
<radialGradient id="paint58_radial_23_2438" cx="0" cy="0" r="1" gradientUnits="userSpaceOnUse" gradientTransform="translate(1262.75 308.213) rotate(50.9743) scale(58.1679 59.9766)">
<stop stop-color="white" stop-opacity="0.61"/>
<stop offset="1" stop-color="#DCDCDC" stop-opacity="0.13"/>
</radialGradient>
<radialGradient id="paint59_radial_23_2438" cx="0" cy="0" r="1" gradientUnits="userSpaceOnUse" gradientTransform="translate(1262.75 437.468) rotate(50.9743) scale(58.1679 59.9766)">
<stop stop-color="white" stop-opacity="0.61"/>
<stop offset="1" stop-color="#DCDCDC" stop-opacity="0.13"/>
</radialGradient>
<radialGradient id="paint60_radial_23_2438" cx="0" cy="0" r="1" gradientUnits="userSpaceOnUse" gradientTransform="translate(1262.75 566.892) rotate(50.9743) scale(58.1679 59.9766)">
<stop stop-color="white" stop-opacity="0.61"/>
<stop offset="1" stop-color="#DCDCDC" stop-opacity="0.13"/>
</radialGradient>
<radialGradient id="paint61_radial_23_2438" cx="0" cy="0" r="1" gradientUnits="userSpaceOnUse" gradientTransform="translate(1262.75 696.147) rotate(50.9743) scale(58.1679 59.9766)">
<stop stop-color="white" stop-opacity="0.61"/>
<stop offset="1" stop-color="#DCDCDC" stop-opacity="0.13"/>
</radialGradient>
<radialGradient id="paint62_radial_23_2438" cx="0" cy="0" r="1" gradientUnits="userSpaceOnUse" gradientTransform="translate(1262.75 825.177) rotate(50.9743) scale(58.1679 59.9766)">
<stop stop-color="white" stop-opacity="0.61"/>
<stop offset="1" stop-color="#DCDCDC" stop-opacity="0.13"/>
</radialGradient>
<radialGradient id="paint63_radial_23_2438" cx="0" cy="0" r="1" gradientUnits="userSpaceOnUse" gradientTransform="translate(1262.75 954.207) rotate(50.9743) scale(58.1679 59.9766)">
<stop stop-color="white" stop-opacity="0.61"/>
<stop offset="1" stop-color="#DCDCDC" stop-opacity="0.13"/>
</radialGradient>
<radialGradient id="paint64_radial_23_2438" cx="0" cy="0" r="1" gradientUnits="userSpaceOnUse" gradientTransform="translate(866.38 49.7031) rotate(50.9743) scale(58.1679 59.9766)">
<stop stop-color="white" stop-opacity="0.61"/>
<stop offset="1" stop-color="#DCDCDC" stop-opacity="0.13"/>
</radialGradient>
<radialGradient id="paint65_radial_23_2438" cx="0" cy="0" r="1" gradientUnits="userSpaceOnUse" gradientTransform="translate(866.38 178.958) rotate(50.9743) scale(58.1679 59.9766)">
<stop stop-color="white" stop-opacity="0.61"/>
<stop offset="1" stop-color="#DCDCDC" stop-opacity="0.13"/>
</radialGradient>
<radialGradient id="paint66_radial_23_2438" cx="0" cy="0" r="1" gradientUnits="userSpaceOnUse" gradientTransform="translate(866.38 308.213) rotate(50.9743) scale(58.1679 59.9766)">
<stop stop-color="white" stop-opacity="0.61"/>
<stop offset="1" stop-color="#DCDCDC" stop-opacity="0.13"/>
</radialGradient>
<radialGradient id="paint67_radial_23_2438" cx="0" cy="0" r="1" gradientUnits="userSpaceOnUse" gradientTransform="translate(866.38 437.468) rotate(50.9743) scale(58.1679 59.9766)">
<stop stop-color="white" stop-opacity="0.61"/>
<stop offset="1" stop-color="#DCDCDC" stop-opacity="0.13"/>
</radialGradient>
<radialGradient id="paint68_radial_23_2438" cx="0" cy="0" r="1" gradientUnits="userSpaceOnUse" gradientTransform="translate(866.38 566.892) rotate(50.9743) scale(58.1679 59.9766)">
<stop stop-color="white" stop-opacity="0.61"/>
<stop offset="1" stop-color="#DCDCDC" stop-opacity="0.13"/>
</radialGradient>
<radialGradient id="paint69_radial_23_2438" cx="0" cy="0" r="1" gradientUnits="userSpaceOnUse" gradientTransform="translate(866.38 696.147) rotate(50.9743) scale(58.1679 59.9766)">
<stop stop-color="white" stop-opacity="0.61"/>
<stop offset="1" stop-color="#DCDCDC" stop-opacity="0.13"/>
</radialGradient>
<radialGradient id="paint70_radial_23_2438" cx="0" cy="0" r="1" gradientUnits="userSpaceOnUse" gradientTransform="translate(866.38 825.177) rotate(50.9743) scale(58.1679 59.9766)">
<stop stop-color="white" stop-opacity="0.61"/>
<stop offset="1" stop-color="#DCDCDC" stop-opacity="0.13"/>
</radialGradient>
<radialGradient id="paint71_radial_23_2438" cx="0" cy="0" r="1" gradientUnits="userSpaceOnUse" gradientTransform="translate(866.38 954.207) rotate(50.9743) scale(58.1679 59.9766)">
<stop stop-color="white" stop-opacity="0.61"/>
<stop offset="1" stop-color="#DCDCDC" stop-opacity="0.13"/>
</radialGradient>
<radialGradient id="paint72_radial_23_2438" cx="0" cy="0" r="1" gradientUnits="userSpaceOnUse" gradientTransform="translate(470.009 49.7031) rotate(50.9743) scale(58.1679 59.9766)">
<stop stop-color="white" stop-opacity="0.61"/>
<stop offset="1" stop-color="#DCDCDC" stop-opacity="0.13"/>
</radialGradient>
<radialGradient id="paint73_radial_23_2438" cx="0" cy="0" r="1" gradientUnits="userSpaceOnUse" gradientTransform="translate(470.009 178.958) rotate(50.9743) scale(58.1679 59.9766)">
<stop stop-color="white" stop-opacity="0.61"/>
<stop offset="1" stop-color="#DCDCDC" stop-opacity="0.13"/>
</radialGradient>
<radialGradient id="paint74_radial_23_2438" cx="0" cy="0" r="1" gradientUnits="userSpaceOnUse" gradientTransform="translate(470.009 308.213) rotate(50.9743) scale(58.1679 59.9766)">
<stop stop-color="white" stop-opacity="0.61"/>
<stop offset="1" stop-color="#DCDCDC" stop-opacity="0.13"/>
</radialGradient>
<radialGradient id="paint75_radial_23_2438" cx="0" cy="0" r="1" gradientUnits="userSpaceOnUse" gradientTransform="translate(470.009 437.468) rotate(50.9743) scale(58.1679 59.9766)">
<stop stop-color="white" stop-opacity="0.61"/>
<stop offset="1" stop-color="#DCDCDC" stop-opacity="0.13"/>
</radialGradient>
<radialGradient id="paint76_radial_23_2438" cx="0" cy="0" r="1" gradientUnits="userSpaceOnUse" gradientTransform="translate(470.009 566.892) rotate(50.9743) scale(58.1679 59.9766)">
<stop stop-color="white" stop-opacity="0.61"/>
<stop offset="1" stop-color="#DCDCDC" stop-opacity="0.13"/>
</radialGradient>
<radialGradient id="paint77_radial_23_2438" cx="0" cy="0" r="1" gradientUnits="userSpaceOnUse" gradientTransform="translate(470.009 696.147) rotate(50.9743) scale(58.1679 59.9766)">
<stop stop-color="white" stop-opacity="0.61"/>
<stop offset="1" stop-color="#DCDCDC" stop-opacity="0.13"/>
</radialGradient>
<radialGradient id="paint78_radial_23_2438" cx="0" cy="0" r="1" gradientUnits="userSpaceOnUse" gradientTransform="translate(470.009 825.177) rotate(50.9743) scale(58.1679 59.9766)">
<stop stop-color="white" stop-opacity="0.61"/>
<stop offset="1" stop-color="#DCDCDC" stop-opacity="0.13"/>
</radialGradient>
<radialGradient id="paint79_radial_23_2438" cx="0" cy="0" r="1" gradientUnits="userSpaceOnUse" gradientTransform="translate(470.009 954.207) rotate(50.9743) scale(58.1679 59.9766)">
<stop stop-color="white" stop-opacity="0.61"/>
<stop offset="1" stop-color="#DCDCDC" stop-opacity="0.13"/>
</radialGradient>
<radialGradient id="paint80_radial_23_2438" cx="0" cy="0" r="1" gradientUnits="userSpaceOnUse" gradientTransform="translate(73.6388 49.7031) rotate(50.9743) scale(58.1679 59.9766)">
<stop stop-color="white" stop-opacity="0.61"/>
<stop offset="1" stop-color="#DCDCDC" stop-opacity="0.13"/>
</radialGradient>
<radialGradient id="paint81_radial_23_2438" cx="0" cy="0" r="1" gradientUnits="userSpaceOnUse" gradientTransform="translate(73.6388 178.958) rotate(50.9743) scale(58.1679 59.9766)">
<stop stop-color="white" stop-opacity="0.61"/>
<stop offset="1" stop-color="#DCDCDC" stop-opacity="0.13"/>
</radialGradient>
<radialGradient id="paint82_radial_23_2438" cx="0" cy="0" r="1" gradientUnits="userSpaceOnUse" gradientTransform="translate(73.6388 308.213) rotate(50.9743) scale(58.1679 59.9766)">
<stop stop-color="white" stop-opacity="0.61"/>
<stop offset="1" stop-color="#DCDCDC" stop-opacity="0.13"/>
</radialGradient>
<radialGradient id="paint83_radial_23_2438" cx="0" cy="0" r="1" gradientUnits="userSpaceOnUse" gradientTransform="translate(73.6388 437.468) rotate(50.9743) scale(58.1679 59.9766)">
<stop stop-color="white" stop-opacity="0.61"/>
<stop offset="1" stop-color="#DCDCDC" stop-opacity="0.13"/>
</radialGradient>
<radialGradient id="paint84_radial_23_2438" cx="0" cy="0" r="1" gradientUnits="userSpaceOnUse" gradientTransform="translate(73.6388 566.892) rotate(50.9743) scale(58.1679 59.9766)">
<stop stop-color="white" stop-opacity="0.61"/>
<stop offset="1" stop-color="#DCDCDC" stop-opacity="0.13"/>
</radialGradient>
<radialGradient id="paint85_radial_23_2438" cx="0" cy="0" r="1" gradientUnits="userSpaceOnUse" gradientTransform="translate(73.6388 696.147) rotate(50.9743) scale(58.1679 59.9766)">
<stop stop-color="white" stop-opacity="0.61"/>
<stop offset="1" stop-color="#DCDCDC" stop-opacity="0.13"/>
</radialGradient>
<radialGradient id="paint86_radial_23_2438" cx="0" cy="0" r="1" gradientUnits="userSpaceOnUse" gradientTransform="translate(73.6388 825.177) rotate(50.9743) scale(58.1679 59.9766)">
<stop stop-color="white" stop-opacity="0.61"/>
<stop offset="1" stop-color="#DCDCDC" stop-opacity="0.13"/>
</radialGradient>
<radialGradient id="paint87_radial_23_2438" cx="0" cy="0" r="1" gradientUnits="userSpaceOnUse" gradientTransform="translate(73.6388 954.207) rotate(50.9743) scale(58.1679 59.9766)">
<stop stop-color="white" stop-opacity="0.61"/>
<stop offset="1" stop-color="#DCDCDC" stop-opacity="0.13"/>
</radialGradient>
</defs>
</svg>
