<svg id="nodes_svg" width="1487" height="1006" viewBox="0 0 1487 1006" fill="none" xmlns="http://www.w3.org/2000/svg">
<path class="neuron neuron_solid"    d="M187.812   50.7797C187.812   78.3939   165.426   100.78    137.812   100.78C110.198    100.78    87.8118   78.3939   87.8118   50.7797C87.8118   23.1654   110.198   0.779663   137.812   0.779663C165.426   0.779663   187.812   23.1654   187.812   50.7797Z"   fill="#5606FF"/>
<path class="neuron neuron_solid"    d="M187.812   180.034C187.812   207.649   165.426   230.034   137.812   230.034C110.198   230.034   87.8118   207.649   87.8118   180.034C87.8118   152.42    110.198   130.034    137.812   130.034C165.426    130.034    187.812   152.42    187.812   180.034Z"   fill="#5606FF"/>
<path class="neuron neuron_solid"    d="M187.812   309.29C187.812    336.904   165.426   359.29    137.812   359.29C110.198    359.29    87.8118   336.904   87.8118   309.29C87.8118    281.675   110.198   259.29     137.812   259.29C165.426     259.29     187.812   281.675   187.812   309.29Z"    fill="#5606FF"/>
<path class="neuron neuron_solid"    d="M187.812   438.544C187.812   466.159   165.426   488.544   137.812   488.544C110.198   488.544   87.8118   466.159   87.8118   438.544C87.8118   410.93    110.198   388.544    137.812   388.544C165.426    388.544    187.812   410.93    187.812   438.544Z"   fill="#5606FF"/>
<path class="neuron neuron_solid"    d="M187.812   567.969C187.812   595.583   165.426   617.969   137.812   617.969C110.198   617.969   87.8118   595.583   87.8118   567.969C87.8118   540.354   110.198   517.969    137.812   517.969C165.426    517.969    187.812   540.354   187.812   567.969Z"   fill="#5606FF"/>
<path class="neuron neuron_solid"    d="M187.812   697.224C187.812   724.838   165.426   747.224   137.812   747.224C110.198   747.224   87.8118   724.838   87.8118   697.224C87.8118   669.609   110.198   647.224    137.812   647.224C165.426    647.224    187.812   669.609   187.812   697.224Z"   fill="#5606FF"/>
<path class="neuron neuron_solid"    d="M187.812   826.253C187.812   853.868   165.426   876.253   137.812   876.253C110.198   876.253   87.8118   853.868   87.8118   826.253C87.8118   798.639   110.198   776.253    137.812   776.253C165.426    776.253    187.812   798.639   187.812   826.253Z"   fill="#5606FF"/>
<path class="neuron neuron_solid"    d="M187.812   955.283C187.812   982.898   165.426   1005.28   137.812   1005.28C110.198   1005.28   87.8118   982.898   87.8118   955.283C87.8118   927.669   110.198   905.283    137.812   905.283C165.426    905.283    187.812   927.669   187.812   955.283Z"   fill="#5606FF"/>
<path class="neuron neuron_solid"    d="M596.458   50.7797C596.458   78.3939   574.072   100.78    546.458   100.78C518.844    100.78    496.458   78.3939   496.458   50.7797C496.458   23.1654   518.844   0.779663   546.458   0.779663C574.072   0.779663   596.458   23.1654   596.458   50.7797Z"   fill="#5606FF"/>
<path class="neuron neuron_solid"    d="M596.458   180.034C596.458   207.649   574.072   230.034   546.458   230.034C518.844   230.034   496.458   207.649   496.458   180.034C496.458   152.42    518.844   130.034    546.458   130.034C574.072    130.034    596.458   152.42    596.458   180.034Z"   fill="#5606FF"/>
<path class="neuron neuron_solid"    d="M596.458   309.29C596.458    336.904   574.072   359.29    546.458   359.29C518.844    359.29    496.458   336.904   496.458   309.29C496.458    281.675   518.844   259.29     546.458   259.29C574.072     259.29     596.458   281.675   596.458   309.29Z"    fill="#5606FF"/>
<path class="neuron neuron_solid"    d="M596.458   438.544C596.458   466.159   574.072   488.544   546.458   488.544C518.844   488.544   496.458   466.159   496.458   438.544C496.458   410.93    518.844   388.544    546.458   388.544C574.072    388.544    596.458   410.93    596.458   438.544Z"   fill="#5606FF"/>
<path class="neuron neuron_solid"    d="M596.458   567.969C596.458   595.583   574.072   617.969   546.458   617.969C518.844   617.969   496.458   595.583   496.458   567.969C496.458   540.354   518.844   517.969    546.458   517.969C574.072    517.969    596.458   540.354   596.458   567.969Z"   fill="#5606FF"/>
<path class="neuron neuron_solid"    d="M596.458   697.224C596.458   724.838   574.072   747.224   546.458   747.224C518.844   747.224   496.458   724.838   496.458   697.224C496.458   669.609   518.844   647.224    546.458   647.224C574.072    647.224    596.458   669.609   596.458   697.224Z"   fill="#5606FF"/>
<path class="neuron neuron_solid"    d="M596.458   826.253C596.458   853.868   574.072   876.253   546.458   876.253C518.844   876.253   496.458   853.868   496.458   826.253C496.458   798.639   518.844   776.253    546.458   776.253C574.072    776.253    596.458   798.639   596.458   826.253Z"   fill="#5606FF"/>
<path class="neuron neuron_solid"    d="M596.458   955.283C596.458   982.898   574.072   1005.28   546.458   1005.28C518.844   1005.28   496.458   982.898   496.458   955.283C496.458   927.669   518.844   905.283    546.458   905.283C574.072    905.283    596.458   927.669   596.458   955.283Z"   fill="#5606FF"/>
<path class="neuron neuron_solid"    d="M995.272   50.7797C995.272   78.3939   972.886   100.78    945.272   100.78C917.658    100.78    895.272   78.3939   895.272   50.7797C895.272   23.1654   917.658   0.779663   945.272   0.779663C972.886   0.779663   995.272   23.1654   995.272   50.7797Z"   fill="#5606FF"/>
<path class="neuron neuron_solid"    d="M995.272   180.034C995.272   207.649   972.886   230.034   945.272   230.034C917.658   230.034   895.272   207.649   895.272   180.034C895.272   152.42    917.658   130.034    945.272   130.034C972.886    130.034    995.272   152.42    995.272   180.034Z"   fill="#5606FF"/>
<path class="neuron neuron_solid"    d="M995.272   309.29C995.272    336.904   972.886   359.29    945.272   359.29C917.658    359.29    895.272   336.904   895.272   309.29C895.272    281.675   917.658   259.29     945.272   259.29C972.886     259.29     995.272   281.675   995.272   309.29Z"    fill="#5606FF"/>
<path class="neuron neuron_solid"    d="M995.272   438.544C995.272   466.159   972.886   488.544   945.272   488.544C917.658   488.544   895.272   466.159   895.272   438.544C895.272   410.93    917.658   388.544    945.272   388.544C972.886    388.544    995.272   410.93    995.272   438.544Z"   fill="#5606FF"/>
<path class="neuron neuron_solid"    d="M995.272   567.969C995.272   595.583   972.886   617.969   945.272   617.969C917.658   617.969   895.272   595.583   895.272   567.969C895.272   540.354   917.658   517.969    945.272   517.969C972.886    517.969    995.272   540.354   995.272   567.969Z"   fill="#5606FF"/>
<path class="neuron neuron_solid"    d="M995.272   697.224C995.272   724.838   972.886   747.224   945.272   747.224C917.658   747.224   895.272   724.838   895.272   697.224C895.272   669.609   917.658   647.224    945.272   647.224C972.886    647.224    995.272   669.609   995.272   697.224Z"   fill="#5606FF"/>
<path class="neuron neuron_solid"    d="M995.272   826.253C995.272   853.868   972.886   876.253   945.272   876.253C917.658   876.253   895.272   853.868   895.272   826.253C895.272   798.639   917.658   776.253    945.272   776.253C972.886    776.253    995.272   798.639   995.272   826.253Z"   fill="#5606FF"/>
<path class="neuron neuron_solid"    d="M995.272   955.283C995.272   982.898   972.886   1005.28   945.272   1005.28C917.658   1005.28   895.272   982.898   895.272   955.283C895.272   927.669   917.658   905.283    945.272   905.283C972.886    905.283    995.272   927.669   995.272   955.283Z"   fill="#5606FF"/>
<path class="neuron neuron_solid"    d="M1394.63   50.7797C1394.63   78.3939   1372.24   100.78    1344.63   100.78C1317.02    100.78    1294.63   78.3939   1294.63   50.7797C1294.63   23.1654   1317.02   0.779663   1344.63   0.779663C1372.24   0.779663   1394.63   23.1654   1394.63   50.7797Z"   fill="#5606FF"/>
<path class="neuron neuron_solid"    d="M1394.63   180.034C1394.63   207.649   1372.24   230.034   1344.63   230.034C1317.02   230.034   1294.63   207.649   1294.63   180.034C1294.63   152.42    1317.02   130.034    1344.63   130.034C1372.24    130.034    1394.63   152.42    1394.63   180.034Z"   fill="#5606FF"/>
<path class="neuron neuron_solid"    d="M1394.63   309.29C1394.63    336.904   1372.24   359.29    1344.63   359.29C1317.02    359.29    1294.63   336.904   1294.63   309.29C1294.63    281.675   1317.02   259.29     1344.63   259.29C1372.24     259.29     1394.63   281.675   1394.63   309.29Z"    fill="#5606FF"/>
<path class="neuron neuron_solid"    d="M1394.63   438.544C1394.63   466.159   1372.24   488.544   1344.63   488.544C1317.02   488.544   1294.63   466.159   1294.63   438.544C1294.63   410.93    1317.02   388.544    1344.63   388.544C1372.24    388.544    1394.63   410.93    1394.63   438.544Z"   fill="#5606FF"/>
<path class="neuron neuron_solid"    d="M1394.63   567.969C1394.63   595.583   1372.24   617.969   1344.63   617.969C1317.02   617.969   1294.63   595.583   1294.63   567.969C1294.63   540.354   1317.02   517.969    1344.63   517.969C1372.24    517.969    1394.63   540.354   1394.63   567.969Z"   fill="#5606FF"/>
<path class="neuron neuron_solid"    d="M1394.63   697.224C1394.63   724.838   1372.24   747.224   1344.63   747.224C1317.02   747.224   1294.63   724.838   1294.63   697.224C1294.63   669.609   1317.02   647.224    1344.63   647.224C1372.24    647.224    1394.63   669.609   1394.63   697.224Z"   fill="#5606FF"/>
<path class="neuron neuron_solid"    d="M1394.63   826.253C1394.63   853.868   1372.24   876.253   1344.63   876.253C1317.02   876.253   1294.63   853.868   1294.63   826.253C1294.63   798.639   1317.02   776.253    1344.63   776.253C1372.24    776.253    1394.63   798.639   1394.63   826.253Z"   fill="#5606FF"/>
<path class="neuron neuron_solid"    d="M1394.63   955.283C1394.63   982.898   1372.24   1005.28   1344.63   1005.28C1317.02   1005.28   1294.63   982.898   1294.63   955.283C1294.63   927.669   1317.02   905.283    1344.63   905.283C1372.24    905.283    1394.63   927.669   1394.63   955.283Z"   fill="#5606FF"/>

<path class="neuron neuron_gradient" d="M187.812   50.7797C187.812   78.3939   165.426   100.78    137.812   100.78C110.198    100.78    87.8118   78.3939   87.8118   50.7797C87.8118   23.1654   110.198   0.779663   137.812   0.779663C165.426   0.779663   187.812   23.1654   187.812   50.7797Z"   fill="url(#paint0_radial_19_1166)"/>
<path class="neuron neuron_gradient" d="M187.812   180.034C187.812   207.649   165.426   230.034   137.812   230.034C110.198   230.034   87.8118   207.649   87.8118   180.034C87.8118   152.42    110.198   130.034    137.812   130.034C165.426    130.034    187.812   152.42    187.812   180.034Z"   fill="url(#paint1_radial_19_1166)"/>
<path class="neuron neuron_gradient" d="M187.812   309.29C187.812    336.904   165.426   359.29    137.812   359.29C110.198    359.29    87.8118   336.904   87.8118   309.29C87.8118    281.675   110.198   259.29     137.812   259.29C165.426     259.29     187.812   281.675   187.812   309.29Z"    fill="url(#paint2_radial_19_1166)"/>
<path class="neuron neuron_gradient" d="M187.812   438.544C187.812   466.159   165.426   488.544   137.812   488.544C110.198   488.544   87.8118   466.159   87.8118   438.544C87.8118   410.93    110.198   388.544    137.812   388.544C165.426    388.544    187.812   410.93    187.812   438.544Z"   fill="url(#paint3_radial_19_1166)"/>
<path class="neuron neuron_gradient" d="M187.812   567.969C187.812   595.583   165.426   617.969   137.812   617.969C110.198   617.969   87.8118   595.583   87.8118   567.969C87.8118   540.354   110.198   517.969    137.812   517.969C165.426    517.969    187.812   540.354   187.812   567.969Z"   fill="url(#paint4_radial_19_1166)"/>
<path class="neuron neuron_gradient" d="M187.812   697.224C187.812   724.838   165.426   747.224   137.812   747.224C110.198   747.224   87.8118   724.838   87.8118   697.224C87.8118   669.609   110.198   647.224    137.812   647.224C165.426    647.224    187.812   669.609   187.812   697.224Z"   fill="url(#paint5_radial_19_1166)"/>
<path class="neuron neuron_gradient" d="M187.812   826.253C187.812   853.868   165.426   876.253   137.812   876.253C110.198   876.253   87.8118   853.868   87.8118   826.253C87.8118   798.639   110.198   776.253    137.812   776.253C165.426    776.253    187.812   798.639   187.812   826.253Z"   fill="url(#paint6_radial_19_1166)"/>
<path class="neuron neuron_gradient" d="M187.812   955.283C187.812   982.898   165.426   1005.28   137.812   1005.28C110.198   1005.28   87.8118   982.898   87.8118   955.283C87.8118   927.669   110.198   905.283    137.812   905.283C165.426    905.283    187.812   927.669   187.812   955.283Z"   fill="url(#paint7_radial_19_1166)"/>
<path class="neuron neuron_gradient" d="M596.458   50.7797C596.458   78.3939   574.072   100.78    546.458   100.78C518.844    100.78    496.458   78.3939   496.458   50.7797C496.458   23.1654   518.844   0.779663   546.458   0.779663C574.072   0.779663   596.458   23.1654   596.458   50.7797Z"   fill="url(#paint8_radial_19_1166)"/>
<path class="neuron neuron_gradient" d="M596.458   180.034C596.458   207.649   574.072   230.034   546.458   230.034C518.844   230.034   496.458   207.649   496.458   180.034C496.458   152.42    518.844   130.034    546.458   130.034C574.072    130.034    596.458   152.42    596.458   180.034Z"   fill="url(#paint9_radial_19_1166)"/>
<path class="neuron neuron_gradient" d="M596.458   309.29C596.458    336.904   574.072   359.29    546.458   359.29C518.844    359.29    496.458   336.904   496.458   309.29C496.458    281.675   518.844   259.29     546.458   259.29C574.072     259.29     596.458   281.675   596.458   309.29Z"    fill="url(#paint10_radial_19_1166)"/>
<path class="neuron neuron_gradient" d="M596.458   438.544C596.458   466.159   574.072   488.544   546.458   488.544C518.844   488.544   496.458   466.159   496.458   438.544C496.458   410.93    518.844   388.544    546.458   388.544C574.072    388.544    596.458   410.93    596.458   438.544Z"   fill="url(#paint11_radial_19_1166)"/>
<path class="neuron neuron_gradient" d="M596.458   567.969C596.458   595.583   574.072   617.969   546.458   617.969C518.844   617.969   496.458   595.583   496.458   567.969C496.458   540.354   518.844   517.969    546.458   517.969C574.072    517.969    596.458   540.354   596.458   567.969Z"   fill="url(#paint12_radial_19_1166)"/>
<path class="neuron neuron_gradient" d="M596.458   697.224C596.458   724.838   574.072   747.224   546.458   747.224C518.844   747.224   496.458   724.838   496.458   697.224C496.458   669.609   518.844   647.224    546.458   647.224C574.072    647.224    596.458   669.609   596.458   697.224Z"   fill="url(#paint13_radial_19_1166)"/>
<path class="neuron neuron_gradient" d="M596.458   826.253C596.458   853.868   574.072   876.253   546.458   876.253C518.844   876.253   496.458   853.868   496.458   826.253C496.458   798.639   518.844   776.253    546.458   776.253C574.072    776.253    596.458   798.639   596.458   826.253Z"   fill="url(#paint14_radial_19_1166)"/>
<path class="neuron neuron_gradient" d="M596.458   955.283C596.458   982.898   574.072   1005.28   546.458   1005.28C518.844   1005.28   496.458   982.898   496.458   955.283C496.458   927.669   518.844   905.283    546.458   905.283C574.072    905.283    596.458   927.669   596.458   955.283Z"   fill="url(#paint15_radial_19_1166)"/>
<path class="neuron neuron_gradient" d="M995.272   50.7797C995.272   78.3939   972.886   100.78    945.272   100.78C917.658    100.78    895.272   78.3939   895.272   50.7797C895.272   23.1654   917.658   0.779663   945.272   0.779663C972.886   0.779663   995.272   23.1654   995.272   50.7797Z"   fill="url(#paint16_radial_19_1166)"/>
<path class="neuron neuron_gradient" d="M995.272   180.034C995.272   207.649   972.886   230.034   945.272   230.034C917.658   230.034   895.272   207.649   895.272   180.034C895.272   152.42    917.658   130.034    945.272   130.034C972.886    130.034    995.272   152.42    995.272   180.034Z"   fill="url(#paint17_radial_19_1166)"/>
<path class="neuron neuron_gradient" d="M995.272   309.29C995.272    336.904   972.886   359.29    945.272   359.29C917.658    359.29    895.272   336.904   895.272   309.29C895.272    281.675   917.658   259.29     945.272   259.29C972.886     259.29     995.272   281.675   995.272   309.29Z"    fill="url(#paint18_radial_19_1166)"/>
<path class="neuron neuron_gradient" d="M995.272   438.544C995.272   466.159   972.886   488.544   945.272   488.544C917.658   488.544   895.272   466.159   895.272   438.544C895.272   410.93    917.658   388.544    945.272   388.544C972.886    388.544    995.272   410.93    995.272   438.544Z"   fill="url(#paint19_radial_19_1166)"/>
<path class="neuron neuron_gradient" d="M995.272   567.969C995.272   595.583   972.886   617.969   945.272   617.969C917.658   617.969   895.272   595.583   895.272   567.969C895.272   540.354   917.658   517.969    945.272   517.969C972.886    517.969    995.272   540.354   995.272   567.969Z"   fill="url(#paint20_radial_19_1166)"/>
<path class="neuron neuron_gradient" d="M995.272   697.224C995.272   724.838   972.886   747.224   945.272   747.224C917.658   747.224   895.272   724.838   895.272   697.224C895.272   669.609   917.658   647.224    945.272   647.224C972.886    647.224    995.272   669.609   995.272   697.224Z"   fill="url(#paint21_radial_19_1166)"/>
<path class="neuron neuron_gradient" d="M995.272   826.253C995.272   853.868   972.886   876.253   945.272   876.253C917.658   876.253   895.272   853.868   895.272   826.253C895.272   798.639   917.658   776.253    945.272   776.253C972.886    776.253    995.272   798.639   995.272   826.253Z"   fill="url(#paint22_radial_19_1166)"/>
<path class="neuron neuron_gradient" d="M995.272   955.283C995.272   982.898   972.886   1005.28   945.272   1005.28C917.658   1005.28   895.272   982.898   895.272   955.283C895.272   927.669   917.658   905.283    945.272   905.283C972.886    905.283    995.272   927.669   995.272   955.283Z"   fill="url(#paint23_radial_19_1166)"/>
<path class="neuron neuron_gradient" d="M1394.63   50.7797C1394.63   78.3939   1372.24   100.78    1344.63   100.78C1317.02    100.78    1294.63   78.3939   1294.63   50.7797C1294.63   23.1654   1317.02   0.779663   1344.63   0.779663C1372.24   0.779663   1394.63   23.1654   1394.63   50.7797Z"   fill="url(#paint24_radial_19_1166)"/>
<path class="neuron neuron_gradient" d="M1394.63   180.034C1394.63   207.649   1372.24   230.034   1344.63   230.034C1317.02   230.034   1294.63   207.649   1294.63   180.034C1294.63   152.42    1317.02   130.034    1344.63   130.034C1372.24    130.034    1394.63   152.42    1394.63   180.034Z"   fill="url(#paint25_radial_19_1166)"/>
<path class="neuron neuron_gradient" d="M1394.63   309.29C1394.63    336.904   1372.24   359.29    1344.63   359.29C1317.02    359.29    1294.63   336.904   1294.63   309.29C1294.63    281.675   1317.02   259.29     1344.63   259.29C1372.24     259.29     1394.63   281.675   1394.63   309.29Z"    fill="url(#paint26_radial_19_1166)"/>
<path class="neuron neuron_gradient" d="M1394.63   438.544C1394.63   466.159   1372.24   488.544   1344.63   488.544C1317.02   488.544   1294.63   466.159   1294.63   438.544C1294.63   410.93    1317.02   388.544    1344.63   388.544C1372.24    388.544    1394.63   410.93    1394.63   438.544Z"   fill="url(#paint27_radial_19_1166)"/>
<path class="neuron neuron_gradient" d="M1394.63   567.969C1394.63   595.583   1372.24   617.969   1344.63   617.969C1317.02   617.969   1294.63   595.583   1294.63   567.969C1294.63   540.354   1317.02   517.969    1344.63   517.969C1372.24    517.969    1394.63   540.354   1394.63   567.969Z"   fill="url(#paint28_radial_19_1166)"/>
<path class="neuron neuron_gradient" d="M1394.63   697.224C1394.63   724.838   1372.24   747.224   1344.63   747.224C1317.02   747.224   1294.63   724.838   1294.63   697.224C1294.63   669.609   1317.02   647.224    1344.63   647.224C1372.24    647.224    1394.63   669.609   1394.63   697.224Z"   fill="url(#paint29_radial_19_1166)"/>
<path class="neuron neuron_gradient" d="M1394.63   826.253C1394.63   853.868   1372.24   876.253   1344.63   876.253C1317.02   876.253   1294.63   853.868   1294.63   826.253C1294.63   798.639   1317.02   776.253    1344.63   776.253C1372.24    776.253    1394.63   798.639   1394.63   826.253Z"   fill="url(#paint30_radial_19_1166)"/>
<path class="neuron neuron_gradient" d="M1394.63   955.283C1394.63   982.898   1372.24   1005.28   1344.63   1005.28C1317.02   1005.28   1294.63   982.898   1294.63   955.283C1294.63   927.669   1317.02   905.283    1344.63   905.283C1372.24    905.283    1394.63   927.669   1394.63   955.283Z"   fill="url(#paint31_radial_19_1166)"/>

<defs>
<radialGradient id="paint0_radial_19_1166" cx="0" cy="0" r="1" gradientUnits="userSpaceOnUse" gradientTransform="translate(187.812 -11.5725) rotate(120.673) scale(160.573)">
<stop stop-color="white" stop-opacity="0.85"/>
<stop offset="1" stop-color="white" stop-opacity="0"/>
</radialGradient>
<radialGradient id="paint1_radial_19_1166" cx="0" cy="0" r="1" gradientUnits="userSpaceOnUse" gradientTransform="translate(187.812 117.682) rotate(120.673) scale(160.573)">
<stop stop-color="white" stop-opacity="0.85"/>
<stop offset="1" stop-color="white" stop-opacity="0"/>
</radialGradient>
<radialGradient id="paint2_radial_19_1166" cx="0" cy="0" r="1" gradientUnits="userSpaceOnUse" gradientTransform="translate(187.812 246.937) rotate(120.673) scale(160.573)">
<stop stop-color="white" stop-opacity="0.85"/>
<stop offset="1" stop-color="white" stop-opacity="0"/>
</radialGradient>
<radialGradient id="paint3_radial_19_1166" cx="0" cy="0" r="1" gradientUnits="userSpaceOnUse" gradientTransform="translate(187.812 376.192) rotate(120.673) scale(160.573)">
<stop stop-color="white" stop-opacity="0.85"/>
<stop offset="1" stop-color="white" stop-opacity="0"/>
</radialGradient>
<radialGradient id="paint4_radial_19_1166" cx="0" cy="0" r="1" gradientUnits="userSpaceOnUse" gradientTransform="translate(187.812 505.616) rotate(120.673) scale(160.573)">
<stop stop-color="white" stop-opacity="0.85"/>
<stop offset="1" stop-color="white" stop-opacity="0"/>
</radialGradient>
<radialGradient id="paint5_radial_19_1166" cx="0" cy="0" r="1" gradientUnits="userSpaceOnUse" gradientTransform="translate(187.812 634.871) rotate(120.673) scale(160.573)">
<stop stop-color="white" stop-opacity="0.85"/>
<stop offset="1" stop-color="white" stop-opacity="0"/>
</radialGradient>
<radialGradient id="paint6_radial_19_1166" cx="0" cy="0" r="1" gradientUnits="userSpaceOnUse" gradientTransform="translate(187.812 763.901) rotate(120.673) scale(160.573)">
<stop stop-color="white" stop-opacity="0.85"/>
<stop offset="1" stop-color="white" stop-opacity="0"/>
</radialGradient>
<radialGradient id="paint7_radial_19_1166" cx="0" cy="0" r="1" gradientUnits="userSpaceOnUse" gradientTransform="translate(187.812 892.931) rotate(120.673) scale(160.573)">
<stop stop-color="white" stop-opacity="0.85"/>
<stop offset="1" stop-color="white" stop-opacity="0"/>
</radialGradient>
<radialGradient id="paint8_radial_19_1166" cx="0" cy="0" r="1" gradientUnits="userSpaceOnUse" gradientTransform="translate(596.458 -11.5725) rotate(120.673) scale(160.573)">
<stop stop-color="white" stop-opacity="0.85"/>
<stop offset="1" stop-color="white" stop-opacity="0"/>
</radialGradient>
<radialGradient id="paint9_radial_19_1166" cx="0" cy="0" r="1" gradientUnits="userSpaceOnUse" gradientTransform="translate(596.458 117.682) rotate(120.673) scale(160.573)">
<stop stop-color="white" stop-opacity="0.85"/>
<stop offset="1" stop-color="white" stop-opacity="0"/>
</radialGradient>
<radialGradient id="paint10_radial_19_1166" cx="0" cy="0" r="1" gradientUnits="userSpaceOnUse" gradientTransform="translate(596.458 246.937) rotate(120.673) scale(160.573)">
<stop stop-color="white" stop-opacity="0.85"/>
<stop offset="1" stop-color="white" stop-opacity="0"/>
</radialGradient>
<radialGradient id="paint11_radial_19_1166" cx="0" cy="0" r="1" gradientUnits="userSpaceOnUse" gradientTransform="translate(596.458 376.192) rotate(120.673) scale(160.573)">
<stop stop-color="white" stop-opacity="0.85"/>
<stop offset="1" stop-color="white" stop-opacity="0"/>
</radialGradient>
<radialGradient id="paint12_radial_19_1166" cx="0" cy="0" r="1" gradientUnits="userSpaceOnUse" gradientTransform="translate(596.458 505.616) rotate(120.673) scale(160.573)">
<stop stop-color="white" stop-opacity="0.85"/>
<stop offset="1" stop-color="white" stop-opacity="0"/>
</radialGradient>
<radialGradient id="paint13_radial_19_1166" cx="0" cy="0" r="1" gradientUnits="userSpaceOnUse" gradientTransform="translate(596.458 634.871) rotate(120.673) scale(160.573)">
<stop stop-color="white" stop-opacity="0.85"/>
<stop offset="1" stop-color="white" stop-opacity="0"/>
</radialGradient>
<radialGradient id="paint14_radial_19_1166" cx="0" cy="0" r="1" gradientUnits="userSpaceOnUse" gradientTransform="translate(596.458 763.901) rotate(120.673) scale(160.573)">
<stop stop-color="white" stop-opacity="0.85"/>
<stop offset="1" stop-color="white" stop-opacity="0"/>
</radialGradient>
<radialGradient id="paint15_radial_19_1166" cx="0" cy="0" r="1" gradientUnits="userSpaceOnUse" gradientTransform="translate(596.458 892.931) rotate(120.673) scale(160.573)">
<stop stop-color="white" stop-opacity="0.85"/>
<stop offset="1" stop-color="white" stop-opacity="0"/>
</radialGradient>
<radialGradient id="paint16_radial_19_1166" cx="0" cy="0" r="1" gradientUnits="userSpaceOnUse" gradientTransform="translate(995.272 -11.5725) rotate(120.673) scale(160.573)">
<stop stop-color="white" stop-opacity="0.85"/>
<stop offset="1" stop-color="white" stop-opacity="0"/>
</radialGradient>
<radialGradient id="paint17_radial_19_1166" cx="0" cy="0" r="1" gradientUnits="userSpaceOnUse" gradientTransform="translate(995.272 117.682) rotate(120.673) scale(160.573)">
<stop stop-color="white" stop-opacity="0.85"/>
<stop offset="1" stop-color="white" stop-opacity="0"/>
</radialGradient>
<radialGradient id="paint18_radial_19_1166" cx="0" cy="0" r="1" gradientUnits="userSpaceOnUse" gradientTransform="translate(995.272 246.937) rotate(120.673) scale(160.573)">
<stop stop-color="white" stop-opacity="0.85"/>
<stop offset="1" stop-color="white" stop-opacity="0"/>
</radialGradient>
<radialGradient id="paint19_radial_19_1166" cx="0" cy="0" r="1" gradientUnits="userSpaceOnUse" gradientTransform="translate(995.272 376.192) rotate(120.673) scale(160.573)">
<stop stop-color="white" stop-opacity="0.85"/>
<stop offset="1" stop-color="white" stop-opacity="0"/>
</radialGradient>
<radialGradient id="paint20_radial_19_1166" cx="0" cy="0" r="1" gradientUnits="userSpaceOnUse" gradientTransform="translate(995.272 505.616) rotate(120.673) scale(160.573)">
<stop stop-color="white" stop-opacity="0.85"/>
<stop offset="1" stop-color="white" stop-opacity="0"/>
</radialGradient>
<radialGradient id="paint21_radial_19_1166" cx="0" cy="0" r="1" gradientUnits="userSpaceOnUse" gradientTransform="translate(995.272 634.871) rotate(120.673) scale(160.573)">
<stop stop-color="white" stop-opacity="0.85"/>
<stop offset="1" stop-color="white" stop-opacity="0"/>
</radialGradient>
<radialGradient id="paint22_radial_19_1166" cx="0" cy="0" r="1" gradientUnits="userSpaceOnUse" gradientTransform="translate(995.272 763.901) rotate(120.673) scale(160.573)">
<stop stop-color="white" stop-opacity="0.85"/>
<stop offset="1" stop-color="white" stop-opacity="0"/>
</radialGradient>
<radialGradient id="paint23_radial_19_1166" cx="0" cy="0" r="1" gradientUnits="userSpaceOnUse" gradientTransform="translate(995.272 892.931) rotate(120.673) scale(160.573)">
<stop stop-color="white" stop-opacity="0.85"/>
<stop offset="1" stop-color="white" stop-opacity="0"/>
</radialGradient>
<radialGradient id="paint24_radial_19_1166" cx="0" cy="0" r="1" gradientUnits="userSpaceOnUse" gradientTransform="translate(1394.63 -11.5725) rotate(120.673) scale(160.573)">
<stop stop-color="white" stop-opacity="0.85"/>
<stop offset="1" stop-color="white" stop-opacity="0"/>
</radialGradient>
<radialGradient id="paint25_radial_19_1166" cx="0" cy="0" r="1" gradientUnits="userSpaceOnUse" gradientTransform="translate(1394.63 117.682) rotate(120.673) scale(160.573)">
<stop stop-color="white" stop-opacity="0.85"/>
<stop offset="1" stop-color="white" stop-opacity="0"/>
</radialGradient>
<radialGradient id="paint26_radial_19_1166" cx="0" cy="0" r="1" gradientUnits="userSpaceOnUse" gradientTransform="translate(1394.63 246.937) rotate(120.673) scale(160.573)">
<stop stop-color="white" stop-opacity="0.85"/>
<stop offset="1" stop-color="white" stop-opacity="0"/>
</radialGradient>
<radialGradient id="paint27_radial_19_1166" cx="0" cy="0" r="1" gradientUnits="userSpaceOnUse" gradientTransform="translate(1394.63 376.192) rotate(120.673) scale(160.573)">
<stop stop-color="white" stop-opacity="0.85"/>
<stop offset="1" stop-color="white" stop-opacity="0"/>
</radialGradient>
<radialGradient id="paint28_radial_19_1166" cx="0" cy="0" r="1" gradientUnits="userSpaceOnUse" gradientTransform="translate(1394.63 505.616) rotate(120.673) scale(160.573)">
<stop stop-color="white" stop-opacity="0.85"/>
<stop offset="1" stop-color="white" stop-opacity="0"/>
</radialGradient>
<radialGradient id="paint29_radial_19_1166" cx="0" cy="0" r="1" gradientUnits="userSpaceOnUse" gradientTransform="translate(1394.63 634.871) rotate(120.673) scale(160.573)">
<stop stop-color="white" stop-opacity="0.85"/>
<stop offset="1" stop-color="white" stop-opacity="0"/>
</radialGradient>
<radialGradient id="paint30_radial_19_1166" cx="0" cy="0" r="1" gradientUnits="userSpaceOnUse" gradientTransform="translate(1394.63 763.901) rotate(120.673) scale(160.573)">
<stop stop-color="white" stop-opacity="0.85"/>
<stop offset="1" stop-color="white" stop-opacity="0"/>
</radialGradient>
<radialGradient id="paint31_radial_19_1166" cx="0" cy="0" r="1" gradientUnits="userSpaceOnUse" gradientTransform="translate(1394.63 892.931) rotate(120.673) scale(160.573)">
<stop stop-color="white" stop-opacity="0.85"/>
<stop offset="1" stop-color="white" stop-opacity="0"/>
</radialGradient>
</defs>
</svg>
