<svg id="nodes_svg" width="4158" height="1042" viewBox="0 0 4158 1042" fill="none" xmlns="http://www.w3.org/2000/svg">
<path class="neuron_fill" d="M4119.09 68.7257C4119.09 101.311 4092.67 127.726 4060.09 127.726C4027.5 127.726 4001.09 101.311 4001.09 68.7257C4001.09 36.1409 4027.5 9.72571 4060.09 9.72571C4092.67 9.72571 4119.09 36.1409 4119.09 68.7257Z" fill="#5606FF"/>
<path class="neuron_grad" d="M4119.09 68.7257C4119.09 101.311 4092.67 127.726 4060.09 127.726C4027.5 127.726 4001.09 101.311 4001.09 68.7257C4001.09 36.1409 4027.5 9.72571 4060.09 9.72571C4092.67 9.72571 4119.09 36.1409 4119.09 68.7257Z" fill="url(#paint0_radial_23_2438)"/>
<path class="neuron_edge" d="M4119.09 68.7257C4119.09 101.311 4092.67 127.726 4060.09 127.726C4027.5 127.726 4001.09 101.311 4001.09 68.7257C4001.09 36.1409 4027.5 9.72571 4060.09 9.72571C4092.67 9.72571 4119.09 36.1409 4119.09 68.7257Z" stroke="#1A1B27" stroke-width="18"/>
<path class="neuron_fill" d="M4119.09 197.981C4119.09 230.565 4092.67 256.981 4060.09 256.981C4027.5 256.981 4001.09 230.565 4001.09 197.981C4001.09 165.396 4027.5 138.981 4060.09 138.981C4092.67 138.981 4119.09 165.396 4119.09 197.981Z" fill="#5606FF"/>
<path class="neuron_grad" d="M4119.09 197.981C4119.09 230.565 4092.67 256.981 4060.09 256.981C4027.5 256.981 4001.09 230.565 4001.09 197.981C4001.09 165.396 4027.5 138.981 4060.09 138.981C4092.67 138.981 4119.09 165.396 4119.09 197.981Z" fill="url(#paint1_radial_23_2438)"/>
<path class="neuron_edge" d="M4119.09 197.981C4119.09 230.565 4092.67 256.981 4060.09 256.981C4027.5 256.981 4001.09 230.565 4001.09 197.981C4001.09 165.396 4027.5 138.981 4060.09 138.981C4092.67 138.981 4119.09 165.396 4119.09 197.981Z" stroke="#1A1B27" stroke-width="18"/>
<path class="neuron_fill" d="M4119.09 327.236C4119.09 359.82 4092.67 386.236 4060.09 386.236C4027.5 386.236 4001.09 359.82 4001.09 327.236C4001.09 294.651 4027.5 268.236 4060.09 268.236C4092.67 268.236 4119.09 294.651 4119.09 327.236Z" fill="#5606FF"/>
<path class="neuron_grad" d="M4119.09 327.236C4119.09 359.82 4092.67 386.236 4060.09 386.236C4027.5 386.236 4001.09 359.82 4001.09 327.236C4001.09 294.651 4027.5 268.236 4060.09 268.236C4092.67 268.236 4119.09 294.651 4119.09 327.236Z" fill="url(#paint2_radial_23_2438)"/>
<path class="neuron_edge" d="M4119.09 327.236C4119.09 359.82 4092.67 386.236 4060.09 386.236C4027.5 386.236 4001.09 359.82 4001.09 327.236C4001.09 294.651 4027.5 268.236 4060.09 268.236C4092.67 268.236 4119.09 294.651 4119.09 327.236Z" stroke="#1A1B27" stroke-width="18"/>
<path class="neuron_fill" d="M4119.09 456.49C4119.09 489.075 4092.67 515.49 4060.09 515.49C4027.5 515.49 4001.09 489.075 4001.09 456.49C4001.09 423.906 4027.5 397.49 4060.09 397.49C4092.67 397.49 4119.09 423.906 4119.09 456.49Z" fill="#5606FF"/>
<path class="neuron_grad" d="M4119.09 456.49C4119.09 489.075 4092.67 515.49 4060.09 515.49C4027.5 515.49 4001.09 489.075 4001.09 456.49C4001.09 423.906 4027.5 397.49 4060.09 397.49C4092.67 397.49 4119.09 423.906 4119.09 456.49Z" fill="url(#paint3_radial_23_2438)"/>
<path class="neuron_edge" d="M4119.09 456.49C4119.09 489.075 4092.67 515.49 4060.09 515.49C4027.5 515.49 4001.09 489.075 4001.09 456.49C4001.09 423.906 4027.5 397.49 4060.09 397.49C4092.67 397.49 4119.09 423.906 4119.09 456.49Z" stroke="#1A1B27" stroke-width="18"/>
<path class="neuron_fill" d="M4119.09 585.915C4119.09 618.499 4092.67 644.915 4060.09 644.915C4027.5 644.915 4001.09 618.499 4001.09 585.915C4001.09 553.33 4027.5 526.915 4060.09 526.915C4092.67 526.915 4119.09 553.33 4119.09 585.915Z" fill="#5606FF"/>
<path class="neuron_grad" d="M4119.09 585.915C4119.09 618.499 4092.67 644.915 4060.09 644.915C4027.5 644.915 4001.09 618.499 4001.09 585.915C4001.09 553.33 4027.5 526.915 4060.09 526.915C4092.67 526.915 4119.09 553.33 4119.09 585.915Z" fill="url(#paint4_radial_23_2438)"/>
<path class="neuron_edge" d="M4119.09 585.915C4119.09 618.499 4092.67 644.915 4060.09 644.915C4027.5 644.915 4001.09 618.499 4001.09 585.915C4001.09 553.33 4027.5 526.915 4060.09 526.915C4092.67 526.915 4119.09 553.33 4119.09 585.915Z" stroke="#1A1B27" stroke-width="18"/>
<path class="neuron_fill" d="M4119.09 715.17C4119.09 747.754 4092.67 774.17 4060.09 774.17C4027.5 774.17 4001.09 747.754 4001.09 715.17C4001.09 682.585 4027.5 656.17 4060.09 656.17C4092.67 656.17 4119.09 682.585 4119.09 715.17Z" fill="#5606FF"/>
<path class="neuron_grad" d="M4119.09 715.17C4119.09 747.754 4092.67 774.17 4060.09 774.17C4027.5 774.17 4001.09 747.754 4001.09 715.17C4001.09 682.585 4027.5 656.17 4060.09 656.17C4092.67 656.17 4119.09 682.585 4119.09 715.17Z" fill="url(#paint5_radial_23_2438)"/>
<path class="neuron_edge" d="M4119.09 715.17C4119.09 747.754 4092.67 774.17 4060.09 774.17C4027.5 774.17 4001.09 747.754 4001.09 715.17C4001.09 682.585 4027.5 656.17 4060.09 656.17C4092.67 656.17 4119.09 682.585 4119.09 715.17Z" stroke="#1A1B27" stroke-width="18"/>
<path class="neuron_fill" d="M4119.09 844.199C4119.09 876.784 4092.67 903.199 4060.09 903.199C4027.5 903.199 4001.09 876.784 4001.09 844.199C4001.09 811.614 4027.5 785.199 4060.09 785.199C4092.67 785.199 4119.09 811.614 4119.09 844.199Z" fill="#5606FF"/>
<path class="neuron_grad" d="M4119.09 844.199C4119.09 876.784 4092.67 903.199 4060.09 903.199C4027.5 903.199 4001.09 876.784 4001.09 844.199C4001.09 811.614 4027.5 785.199 4060.09 785.199C4092.67 785.199 4119.09 811.614 4119.09 844.199Z" fill="url(#paint6_radial_23_2438)"/>
<path class="neuron_edge" d="M4119.09 844.199C4119.09 876.784 4092.67 903.199 4060.09 903.199C4027.5 903.199 4001.09 876.784 4001.09 844.199C4001.09 811.614 4027.5 785.199 4060.09 785.199C4092.67 785.199 4119.09 811.614 4119.09 844.199Z" stroke="#1A1B27" stroke-width="18"/>
<path class="neuron_fill" d="M4119.09 973.229C4119.09 1005.81 4092.67 1032.23 4060.09 1032.23C4027.5 1032.23 4001.09 1005.81 4001.09 973.229C4001.09 940.644 4027.5 914.229 4060.09 914.229C4092.67 914.229 4119.09 940.644 4119.09 973.229Z" fill="#5606FF"/>
<path class="neuron_grad" d="M4119.09 973.229C4119.09 1005.81 4092.67 1032.23 4060.09 1032.23C4027.5 1032.23 4001.09 1005.81 4001.09 973.229C4001.09 940.644 4027.5 914.229 4060.09 914.229C4092.67 914.229 4119.09 940.644 4119.09 973.229Z" fill="url(#paint7_radial_23_2438)"/>
<path class="neuron_edge" d="M4119.09 973.229C4119.09 1005.81 4092.67 1032.23 4060.09 1032.23C4027.5 1032.23 4001.09 1005.81 4001.09 973.229C4001.09 940.644 4027.5 914.229 4060.09 914.229C4092.67 914.229 4119.09 940.644 4119.09 973.229Z" stroke="#1A1B27" stroke-width="18"/>
<path class="neuron_fill" d="M3722.72 68.7258C3722.72 101.311 3696.3 127.726 3663.72 127.726C3631.13 127.726 3604.72 101.311 3604.72 68.7258C3604.72 36.141 3631.13 9.72577 3663.72 9.72577C3696.3 9.72577 3722.72 36.141 3722.72 68.7258Z" fill="#5606FF"/>
<path class="neuron_grad" d="M3722.72 68.7258C3722.72 101.311 3696.3 127.726 3663.72 127.726C3631.13 127.726 3604.72 101.311 3604.72 68.7258C3604.72 36.141 3631.13 9.72577 3663.72 9.72577C3696.3 9.72577 3722.72 36.141 3722.72 68.7258Z" fill="url(#paint8_radial_23_2438)"/>
<path class="neuron_edge" d="M3722.72 68.7258C3722.72 101.311 3696.3 127.726 3663.72 127.726C3631.13 127.726 3604.72 101.311 3604.72 68.7258C3604.72 36.141 3631.13 9.72577 3663.72 9.72577C3696.3 9.72577 3722.72 36.141 3722.72 68.7258Z" stroke="#1A1B27" stroke-width="18"/>
<path class="neuron_fill" d="M3722.72 197.981C3722.72 230.566 3696.3 256.981 3663.72 256.981C3631.13 256.981 3604.72 230.566 3604.72 197.981C3604.72 165.396 3631.13 138.981 3663.72 138.981C3696.3 138.981 3722.72 165.396 3722.72 197.981Z" fill="#5606FF"/>
<path class="neuron_grad" d="M3722.72 197.981C3722.72 230.566 3696.3 256.981 3663.72 256.981C3631.13 256.981 3604.72 230.566 3604.72 197.981C3604.72 165.396 3631.13 138.981 3663.72 138.981C3696.3 138.981 3722.72 165.396 3722.72 197.981Z" fill="url(#paint9_radial_23_2438)"/>
<path class="neuron_edge" d="M3722.72 197.981C3722.72 230.566 3696.3 256.981 3663.72 256.981C3631.13 256.981 3604.72 230.566 3604.72 197.981C3604.72 165.396 3631.13 138.981 3663.72 138.981C3696.3 138.981 3722.72 165.396 3722.72 197.981Z" stroke="#1A1B27" stroke-width="18"/>
<path class="neuron_fill" d="M3722.72 327.236C3722.72 359.82 3696.3 386.236 3663.72 386.236C3631.13 386.236 3604.72 359.82 3604.72 327.236C3604.72 294.651 3631.13 268.236 3663.72 268.236C3696.3 268.236 3722.72 294.651 3722.72 327.236Z" fill="#5606FF"/>
<path class="neuron_grad" d="M3722.72 327.236C3722.72 359.82 3696.3 386.236 3663.72 386.236C3631.13 386.236 3604.72 359.82 3604.72 327.236C3604.72 294.651 3631.13 268.236 3663.72 268.236C3696.3 268.236 3722.72 294.651 3722.72 327.236Z" fill="url(#paint10_radial_23_2438)"/>
<path class="neuron_edge" d="M3722.72 327.236C3722.72 359.82 3696.3 386.236 3663.72 386.236C3631.13 386.236 3604.72 359.82 3604.72 327.236C3604.72 294.651 3631.13 268.236 3663.72 268.236C3696.3 268.236 3722.72 294.651 3722.72 327.236Z" stroke="#1A1B27" stroke-width="18"/>
<path class="neuron_fill" d="M3722.72 456.49C3722.72 489.075 3696.3 515.49 3663.72 515.49C3631.13 515.49 3604.72 489.075 3604.72 456.49C3604.72 423.906 3631.13 397.49 3663.72 397.49C3696.3 397.49 3722.72 423.906 3722.72 456.49Z" fill="#5606FF"/>
<path class="neuron_grad" d="M3722.72 456.49C3722.72 489.075 3696.3 515.49 3663.72 515.49C3631.13 515.49 3604.72 489.075 3604.72 456.49C3604.72 423.906 3631.13 397.49 3663.72 397.49C3696.3 397.49 3722.72 423.906 3722.72 456.49Z" fill="url(#paint11_radial_23_2438)"/>
<path class="neuron_edge" d="M3722.72 456.49C3722.72 489.075 3696.3 515.49 3663.72 515.49C3631.13 515.49 3604.72 489.075 3604.72 456.49C3604.72 423.906 3631.13 397.49 3663.72 397.49C3696.3 397.49 3722.72 423.906 3722.72 456.49Z" stroke="#1A1B27" stroke-width="18"/>
<path class="neuron_fill" d="M3722.72 585.915C3722.72 618.499 3696.3 644.915 3663.72 644.915C3631.13 644.915 3604.72 618.499 3604.72 585.915C3604.72 553.33 3631.13 526.915 3663.72 526.915C3696.3 526.915 3722.72 553.33 3722.72 585.915Z" fill="#5606FF"/>
<path class="neuron_grad" d="M3722.72 585.915C3722.72 618.499 3696.3 644.915 3663.72 644.915C3631.13 644.915 3604.72 618.499 3604.72 585.915C3604.72 553.33 3631.13 526.915 3663.72 526.915C3696.3 526.915 3722.72 553.33 3722.72 585.915Z" fill="url(#paint12_radial_23_2438)"/>
<path class="neuron_edge" d="M3722.72 585.915C3722.72 618.499 3696.3 644.915 3663.72 644.915C3631.13 644.915 3604.72 618.499 3604.72 585.915C3604.72 553.33 3631.13 526.915 3663.72 526.915C3696.3 526.915 3722.72 553.33 3722.72 585.915Z" stroke="#1A1B27" stroke-width="18"/>
<path class="neuron_fill" d="M3722.72 715.17C3722.72 747.754 3696.3 774.17 3663.72 774.17C3631.13 774.17 3604.72 747.754 3604.72 715.17C3604.72 682.585 3631.13 656.17 3663.72 656.17C3696.3 656.17 3722.72 682.585 3722.72 715.17Z" fill="#5606FF"/>
<path class="neuron_grad" d="M3722.72 715.17C3722.72 747.754 3696.3 774.17 3663.72 774.17C3631.13 774.17 3604.72 747.754 3604.72 715.17C3604.72 682.585 3631.13 656.17 3663.72 656.17C3696.3 656.17 3722.72 682.585 3722.72 715.17Z" fill="url(#paint13_radial_23_2438)"/>
<path class="neuron_edge" d="M3722.72 715.17C3722.72 747.754 3696.3 774.17 3663.72 774.17C3631.13 774.17 3604.72 747.754 3604.72 715.17C3604.72 682.585 3631.13 656.17 3663.72 656.17C3696.3 656.17 3722.72 682.585 3722.72 715.17Z" stroke="#1A1B27" stroke-width="18"/>
<path class="neuron_fill" d="M3722.72 844.199C3722.72 876.784 3696.3 903.199 3663.72 903.199C3631.13 903.199 3604.72 876.784 3604.72 844.199C3604.72 811.614 3631.13 785.199 3663.72 785.199C3696.3 785.199 3722.72 811.614 3722.72 844.199Z" fill="#5606FF"/>
<path class="neuron_grad" d="M3722.72 844.199C3722.72 876.784 3696.3 903.199 3663.72 903.199C3631.13 903.199 3604.72 876.784 3604.72 844.199C3604.72 811.614 3631.13 785.199 3663.72 785.199C3696.3 785.199 3722.72 811.614 3722.72 844.199Z" fill="url(#paint14_radial_23_2438)"/>
<path class="neuron_edge" d="M3722.72 844.199C3722.72 876.784 3696.3 903.199 3663.72 903.199C3631.13 903.199 3604.72 876.784 3604.72 844.199C3604.72 811.614 3631.13 785.199 3663.72 785.199C3696.3 785.199 3722.72 811.614 3722.72 844.199Z" stroke="#1A1B27" stroke-width="18"/>
<path class="neuron_fill" d="M3722.72 973.229C3722.72 1005.81 3696.3 1032.23 3663.72 1032.23C3631.13 1032.23 3604.72 1005.81 3604.72 973.229C3604.72 940.645 3631.13 914.229 3663.72 914.229C3696.3 914.229 3722.72 940.645 3722.72 973.229Z" fill="#5606FF"/>
<path class="neuron_grad" d="M3722.72 973.229C3722.72 1005.81 3696.3 1032.23 3663.72 1032.23C3631.13 1032.23 3604.72 1005.81 3604.72 973.229C3604.72 940.645 3631.13 914.229 3663.72 914.229C3696.3 914.229 3722.72 940.645 3722.72 973.229Z" fill="url(#paint15_radial_23_2438)"/>
<path class="neuron_edge" d="M3722.72 973.229C3722.72 1005.81 3696.3 1032.23 3663.72 1032.23C3631.13 1032.23 3604.72 1005.81 3604.72 973.229C3604.72 940.645 3631.13 914.229 3663.72 914.229C3696.3 914.229 3722.72 940.645 3722.72 973.229Z" stroke="#1A1B27" stroke-width="18"/>
<path class="neuron_fill" d="M3326.35 68.7258C3326.35 101.311 3299.93 127.726 3267.35 127.726C3234.76 127.726 3208.35 101.311 3208.35 68.7258C3208.35 36.141 3234.76 9.72577 3267.35 9.72577C3299.93 9.72577 3326.35 36.141 3326.35 68.7258Z" fill="#5606FF"/>
<path class="neuron_grad" d="M3326.35 68.7258C3326.35 101.311 3299.93 127.726 3267.35 127.726C3234.76 127.726 3208.35 101.311 3208.35 68.7258C3208.35 36.141 3234.76 9.72577 3267.35 9.72577C3299.93 9.72577 3326.35 36.141 3326.35 68.7258Z" fill="url(#paint16_radial_23_2438)"/>
<path class="neuron_edge" d="M3326.35 68.7258C3326.35 101.311 3299.93 127.726 3267.35 127.726C3234.76 127.726 3208.35 101.311 3208.35 68.7258C3208.35 36.141 3234.76 9.72577 3267.35 9.72577C3299.93 9.72577 3326.35 36.141 3326.35 68.7258Z" stroke="#1A1B27" stroke-width="18"/>
<path class="neuron_fill" d="M3326.35 197.981C3326.35 230.566 3299.93 256.981 3267.35 256.981C3234.76 256.981 3208.35 230.566 3208.35 197.981C3208.35 165.396 3234.76 138.981 3267.35 138.981C3299.93 138.981 3326.35 165.396 3326.35 197.981Z" fill="#5606FF"/>
<path class="neuron_grad" d="M3326.35 197.981C3326.35 230.566 3299.93 256.981 3267.35 256.981C3234.76 256.981 3208.35 230.566 3208.35 197.981C3208.35 165.396 3234.76 138.981 3267.35 138.981C3299.93 138.981 3326.35 165.396 3326.35 197.981Z" fill="url(#paint17_radial_23_2438)"/>
<path class="neuron_edge" d="M3326.35 197.981C3326.35 230.566 3299.93 256.981 3267.35 256.981C3234.76 256.981 3208.35 230.566 3208.35 197.981C3208.35 165.396 3234.76 138.981 3267.35 138.981C3299.93 138.981 3326.35 165.396 3326.35 197.981Z" stroke="#1A1B27" stroke-width="18"/>
<path class="neuron_fill" d="M3326.35 327.236C3326.35 359.82 3299.93 386.236 3267.35 386.236C3234.76 386.236 3208.35 359.82 3208.35 327.236C3208.35 294.651 3234.76 268.236 3267.35 268.236C3299.93 268.236 3326.35 294.651 3326.35 327.236Z" fill="#5606FF"/>
<path class="neuron_grad" d="M3326.35 327.236C3326.35 359.82 3299.93 386.236 3267.35 386.236C3234.76 386.236 3208.35 359.82 3208.35 327.236C3208.35 294.651 3234.76 268.236 3267.35 268.236C3299.93 268.236 3326.35 294.651 3326.35 327.236Z" fill="url(#paint18_radial_23_2438)"/>
<path class="neuron_edge" d="M3326.35 327.236C3326.35 359.82 3299.93 386.236 3267.35 386.236C3234.76 386.236 3208.35 359.82 3208.35 327.236C3208.35 294.651 3234.76 268.236 3267.35 268.236C3299.93 268.236 3326.35 294.651 3326.35 327.236Z" stroke="#1A1B27" stroke-width="18"/>
<path class="neuron_fill" d="M3326.35 456.49C3326.35 489.075 3299.93 515.49 3267.35 515.49C3234.76 515.49 3208.35 489.075 3208.35 456.49C3208.35 423.906 3234.76 397.49 3267.35 397.49C3299.93 397.49 3326.35 423.906 3326.35 456.49Z" fill="#5606FF"/>
<path class="neuron_grad" d="M3326.35 456.49C3326.35 489.075 3299.93 515.49 3267.35 515.49C3234.76 515.49 3208.35 489.075 3208.35 456.49C3208.35 423.906 3234.76 397.49 3267.35 397.49C3299.93 397.49 3326.35 423.906 3326.35 456.49Z" fill="url(#paint19_radial_23_2438)"/>
<path class="neuron_edge" d="M3326.35 456.49C3326.35 489.075 3299.93 515.49 3267.35 515.49C3234.76 515.49 3208.35 489.075 3208.35 456.49C3208.35 423.906 3234.76 397.49 3267.35 397.49C3299.93 397.49 3326.35 423.906 3326.35 456.49Z" stroke="#1A1B27" stroke-width="18"/>
<path class="neuron_fill" d="M3326.35 585.915C3326.35 618.499 3299.93 644.915 3267.35 644.915C3234.76 644.915 3208.35 618.499 3208.35 585.915C3208.35 553.33 3234.76 526.915 3267.35 526.915C3299.93 526.915 3326.35 553.33 3326.35 585.915Z" fill="#5606FF"/>
<path class="neuron_grad" d="M3326.35 585.915C3326.35 618.499 3299.93 644.915 3267.35 644.915C3234.76 644.915 3208.35 618.499 3208.35 585.915C3208.35 553.33 3234.76 526.915 3267.35 526.915C3299.93 526.915 3326.35 553.33 3326.35 585.915Z" fill="url(#paint20_radial_23_2438)"/>
<path class="neuron_edge" d="M3326.35 585.915C3326.35 618.499 3299.93 644.915 3267.35 644.915C3234.76 644.915 3208.35 618.499 3208.35 585.915C3208.35 553.33 3234.76 526.915 3267.35 526.915C3299.93 526.915 3326.35 553.33 3326.35 585.915Z" stroke="#1A1B27" stroke-width="18"/>
<path class="neuron_fill" d="M3326.35 715.17C3326.35 747.754 3299.93 774.17 3267.35 774.17C3234.76 774.17 3208.35 747.754 3208.35 715.17C3208.35 682.585 3234.76 656.17 3267.35 656.17C3299.93 656.17 3326.35 682.585 3326.35 715.17Z" fill="#5606FF"/>
<path class="neuron_grad" d="M3326.35 715.17C3326.35 747.754 3299.93 774.17 3267.35 774.17C3234.76 774.17 3208.35 747.754 3208.35 715.17C3208.35 682.585 3234.76 656.17 3267.35 656.17C3299.93 656.17 3326.35 682.585 3326.35 715.17Z" fill="url(#paint21_radial_23_2438)"/>
<path class="neuron_edge" d="M3326.35 715.17C3326.35 747.754 3299.93 774.17 3267.35 774.17C3234.76 774.17 3208.35 747.754 3208.35 715.17C3208.35 682.585 3234.76 656.17 3267.35 656.17C3299.93 656.17 3326.35 682.585 3326.35 715.17Z" stroke="#1A1B27" stroke-width="18"/>
<path class="neuron_fill" d="M3326.35 844.199C3326.35 876.784 3299.93 903.199 3267.35 903.199C3234.76 903.199 3208.35 876.784 3208.35 844.199C3208.35 811.614 3234.76 785.199 3267.35 785.199C3299.93 785.199 3326.35 811.614 3326.35 844.199Z" fill="#5606FF"/>
<path class="neuron_grad" d="M3326.35 844.199C3326.35 876.784 3299.93 903.199 3267.35 903.199C3234.76 903.199 3208.35 876.784 3208.35 844.199C3208.35 811.614 3234.76 785.199 3267.35 785.199C3299.93 785.199 3326.35 811.614 3326.35 844.199Z" fill="url(#paint22_radial_23_2438)"/>
<path class="neuron_edge" d="M3326.35 844.199C3326.35 876.784 3299.93 903.199 3267.35 903.199C3234.76 903.199 3208.35 876.784 3208.35 844.199C3208.35 811.614 3234.76 785.199 3267.35 785.199C3299.93 785.199 3326.35 811.614 3326.35 844.199Z" stroke="#1A1B27" stroke-width="18"/>
<path class="neuron_fill" d="M3326.35 973.23C3326.35 1005.81 3299.93 1032.23 3267.35 1032.23C3234.76 1032.23 3208.35 1005.81 3208.35 973.23C3208.35 940.645 3234.76 914.23 3267.35 914.23C3299.93 914.23 3326.35 940.645 3326.35 973.23Z" fill="#5606FF"/>
<path class="neuron_grad" d="M3326.35 973.23C3326.35 1005.81 3299.93 1032.23 3267.35 1032.23C3234.76 1032.23 3208.35 1005.81 3208.35 973.23C3208.35 940.645 3234.76 914.23 3267.35 914.23C3299.93 914.23 3326.35 940.645 3326.35 973.23Z" fill="url(#paint23_radial_23_2438)"/>
<path class="neuron_edge" d="M3326.35 973.23C3326.35 1005.81 3299.93 1032.23 3267.35 1032.23C3234.76 1032.23 3208.35 1005.81 3208.35 973.23C3208.35 940.645 3234.76 914.23 3267.35 914.23C3299.93 914.23 3326.35 940.645 3326.35 973.23Z" stroke="#1A1B27" stroke-width="18"/>
<path class="neuron_fill" d="M2929.98 68.7258C2929.98 101.311 2903.56 127.726 2870.98 127.726C2838.39 127.726 2811.98 101.311 2811.98 68.7258C2811.98 36.141 2838.39 9.72577 2870.98 9.72577C2903.56 9.72577 2929.98 36.141 2929.98 68.7258Z" fill="#5606FF"/>
<path class="neuron_grad" d="M2929.98 68.7258C2929.98 101.311 2903.56 127.726 2870.98 127.726C2838.39 127.726 2811.98 101.311 2811.98 68.7258C2811.98 36.141 2838.39 9.72577 2870.98 9.72577C2903.56 9.72577 2929.98 36.141 2929.98 68.7258Z" fill="url(#paint24_radial_23_2438)"/>
<path class="neuron_edge" d="M2929.98 68.7258C2929.98 101.311 2903.56 127.726 2870.98 127.726C2838.39 127.726 2811.98 101.311 2811.98 68.7258C2811.98 36.141 2838.39 9.72577 2870.98 9.72577C2903.56 9.72577 2929.98 36.141 2929.98 68.7258Z" stroke="#1A1B27" stroke-width="18"/>
<path class="neuron_fill" d="M2929.98 197.981C2929.98 230.566 2903.56 256.981 2870.98 256.981C2838.39 256.981 2811.98 230.566 2811.98 197.981C2811.98 165.396 2838.39 138.981 2870.98 138.981C2903.56 138.981 2929.98 165.396 2929.98 197.981Z" fill="#5606FF"/>
<path class="neuron_grad" d="M2929.98 197.981C2929.98 230.566 2903.56 256.981 2870.98 256.981C2838.39 256.981 2811.98 230.566 2811.98 197.981C2811.98 165.396 2838.39 138.981 2870.98 138.981C2903.56 138.981 2929.98 165.396 2929.98 197.981Z" fill="url(#paint25_radial_23_2438)"/>
<path class="neuron_edge" d="M2929.98 197.981C2929.98 230.566 2903.56 256.981 2870.98 256.981C2838.39 256.981 2811.98 230.566 2811.98 197.981C2811.98 165.396 2838.39 138.981 2870.98 138.981C2903.56 138.981 2929.98 165.396 2929.98 197.981Z" stroke="#1A1B27" stroke-width="18"/>
<path class="neuron_fill" d="M2929.98 327.236C2929.98 359.82 2903.56 386.236 2870.98 386.236C2838.39 386.236 2811.98 359.82 2811.98 327.236C2811.98 294.651 2838.39 268.236 2870.98 268.236C2903.56 268.236 2929.98 294.651 2929.98 327.236Z" fill="#5606FF"/>
<path class="neuron_grad" d="M2929.98 327.236C2929.98 359.82 2903.56 386.236 2870.98 386.236C2838.39 386.236 2811.98 359.82 2811.98 327.236C2811.98 294.651 2838.39 268.236 2870.98 268.236C2903.56 268.236 2929.98 294.651 2929.98 327.236Z" fill="url(#paint26_radial_23_2438)"/>
<path class="neuron_edge" d="M2929.98 327.236C2929.98 359.82 2903.56 386.236 2870.98 386.236C2838.39 386.236 2811.98 359.82 2811.98 327.236C2811.98 294.651 2838.39 268.236 2870.98 268.236C2903.56 268.236 2929.98 294.651 2929.98 327.236Z" stroke="#1A1B27" stroke-width="18"/>
<path class="neuron_fill" d="M2929.98 456.49C2929.98 489.075 2903.56 515.49 2870.98 515.49C2838.39 515.49 2811.98 489.075 2811.98 456.49C2811.98 423.906 2838.39 397.49 2870.98 397.49C2903.56 397.49 2929.98 423.906 2929.98 456.49Z" fill="#5606FF"/>
<path class="neuron_grad" d="M2929.98 456.49C2929.98 489.075 2903.56 515.49 2870.98 515.49C2838.39 515.49 2811.98 489.075 2811.98 456.49C2811.98 423.906 2838.39 397.49 2870.98 397.49C2903.56 397.49 2929.98 423.906 2929.98 456.49Z" fill="url(#paint27_radial_23_2438)"/>
<path class="neuron_edge" d="M2929.98 456.49C2929.98 489.075 2903.56 515.49 2870.98 515.49C2838.39 515.49 2811.98 489.075 2811.98 456.49C2811.98 423.906 2838.39 397.49 2870.98 397.49C2903.56 397.49 2929.98 423.906 2929.98 456.49Z" stroke="#1A1B27" stroke-width="18"/>
<path class="neuron_fill" d="M2929.98 585.915C2929.98 618.499 2903.56 644.915 2870.98 644.915C2838.39 644.915 2811.98 618.499 2811.98 585.915C2811.98 553.33 2838.39 526.915 2870.98 526.915C2903.56 526.915 2929.98 553.33 2929.98 585.915Z" fill="#5606FF"/>
<path class="neuron_grad" d="M2929.98 585.915C2929.98 618.499 2903.56 644.915 2870.98 644.915C2838.39 644.915 2811.98 618.499 2811.98 585.915C2811.98 553.33 2838.39 526.915 2870.98 526.915C2903.56 526.915 2929.98 553.33 2929.98 585.915Z" fill="url(#paint28_radial_23_2438)"/>
<path class="neuron_edge" d="M2929.98 585.915C2929.98 618.499 2903.56 644.915 2870.98 644.915C2838.39 644.915 2811.98 618.499 2811.98 585.915C2811.98 553.33 2838.39 526.915 2870.98 526.915C2903.56 526.915 2929.98 553.33 2929.98 585.915Z" stroke="#1A1B27" stroke-width="18"/>
<path class="neuron_fill" d="M2929.98 715.17C2929.98 747.754 2903.56 774.17 2870.98 774.17C2838.39 774.17 2811.98 747.754 2811.98 715.17C2811.98 682.585 2838.39 656.17 2870.98 656.17C2903.56 656.17 2929.98 682.585 2929.98 715.17Z" fill="#5606FF"/>
<path class="neuron_grad" d="M2929.98 715.17C2929.98 747.754 2903.56 774.17 2870.98 774.17C2838.39 774.17 2811.98 747.754 2811.98 715.17C2811.98 682.585 2838.39 656.17 2870.98 656.17C2903.56 656.17 2929.98 682.585 2929.98 715.17Z" fill="url(#paint29_radial_23_2438)"/>
<path class="neuron_edge" d="M2929.98 715.17C2929.98 747.754 2903.56 774.17 2870.98 774.17C2838.39 774.17 2811.98 747.754 2811.98 715.17C2811.98 682.585 2838.39 656.17 2870.98 656.17C2903.56 656.17 2929.98 682.585 2929.98 715.17Z" stroke="#1A1B27" stroke-width="18"/>
<path class="neuron_fill" d="M2929.98 844.199C2929.98 876.784 2903.56 903.199 2870.98 903.199C2838.39 903.199 2811.98 876.784 2811.98 844.199C2811.98 811.614 2838.39 785.199 2870.98 785.199C2903.56 785.199 2929.98 811.614 2929.98 844.199Z" fill="#5606FF"/>
<path class="neuron_grad" d="M2929.98 844.199C2929.98 876.784 2903.56 903.199 2870.98 903.199C2838.39 903.199 2811.98 876.784 2811.98 844.199C2811.98 811.614 2838.39 785.199 2870.98 785.199C2903.56 785.199 2929.98 811.614 2929.98 844.199Z" fill="url(#paint30_radial_23_2438)"/>
<path class="neuron_edge" d="M2929.98 844.199C2929.98 876.784 2903.56 903.199 2870.98 903.199C2838.39 903.199 2811.98 876.784 2811.98 844.199C2811.98 811.614 2838.39 785.199 2870.98 785.199C2903.56 785.199 2929.98 811.614 2929.98 844.199Z" stroke="#1A1B27" stroke-width="18"/>
<path class="neuron_fill" d="M2929.98 973.23C2929.98 1005.81 2903.56 1032.23 2870.98 1032.23C2838.39 1032.23 2811.98 1005.81 2811.98 973.23C2811.98 940.645 2838.39 914.23 2870.98 914.23C2903.56 914.23 2929.98 940.645 2929.98 973.23Z" fill="#5606FF"/>
<path class="neuron_grad" d="M2929.98 973.23C2929.98 1005.81 2903.56 1032.23 2870.98 1032.23C2838.39 1032.23 2811.98 1005.81 2811.98 973.23C2811.98 940.645 2838.39 914.23 2870.98 914.23C2903.56 914.23 2929.98 940.645 2929.98 973.23Z" fill="url(#paint31_radial_23_2438)"/>
<path class="neuron_edge" d="M2929.98 973.23C2929.98 1005.81 2903.56 1032.23 2870.98 1032.23C2838.39 1032.23 2811.98 1005.81 2811.98 973.23C2811.98 940.645 2838.39 914.23 2870.98 914.23C2903.56 914.23 2929.98 940.645 2929.98 973.23Z" stroke="#1A1B27" stroke-width="18"/>
<path class="neuron_fill" d="M2533.61 68.7258C2533.61 101.311 2507.19 127.726 2474.61 127.726C2442.02 127.726 2415.61 101.311 2415.61 68.7258C2415.61 36.141 2442.02 9.72577 2474.61 9.72577C2507.19 9.72577 2533.61 36.141 2533.61 68.7258Z" fill="#5606FF"/>
<path class="neuron_grad" d="M2533.61 68.7258C2533.61 101.311 2507.19 127.726 2474.61 127.726C2442.02 127.726 2415.61 101.311 2415.61 68.7258C2415.61 36.141 2442.02 9.72577 2474.61 9.72577C2507.19 9.72577 2533.61 36.141 2533.61 68.7258Z" fill="url(#paint32_radial_23_2438)"/>
<path class="neuron_edge" d="M2533.61 68.7258C2533.61 101.311 2507.19 127.726 2474.61 127.726C2442.02 127.726 2415.61 101.311 2415.61 68.7258C2415.61 36.141 2442.02 9.72577 2474.61 9.72577C2507.19 9.72577 2533.61 36.141 2533.61 68.7258Z" stroke="#1A1B27" stroke-width="18"/>
<path class="neuron_fill" d="M2533.61 197.981C2533.61 230.566 2507.19 256.981 2474.61 256.981C2442.02 256.981 2415.61 230.566 2415.61 197.981C2415.61 165.396 2442.02 138.981 2474.61 138.981C2507.19 138.981 2533.61 165.396 2533.61 197.981Z" fill="#5606FF"/>
<path class="neuron_grad" d="M2533.61 197.981C2533.61 230.566 2507.19 256.981 2474.61 256.981C2442.02 256.981 2415.61 230.566 2415.61 197.981C2415.61 165.396 2442.02 138.981 2474.61 138.981C2507.19 138.981 2533.61 165.396 2533.61 197.981Z" fill="url(#paint33_radial_23_2438)"/>
<path class="neuron_edge" d="M2533.61 197.981C2533.61 230.566 2507.19 256.981 2474.61 256.981C2442.02 256.981 2415.61 230.566 2415.61 197.981C2415.61 165.396 2442.02 138.981 2474.61 138.981C2507.19 138.981 2533.61 165.396 2533.61 197.981Z" stroke="#1A1B27" stroke-width="18"/>
<path class="neuron_fill" d="M2533.61 327.236C2533.61 359.82 2507.19 386.236 2474.61 386.236C2442.02 386.236 2415.61 359.82 2415.61 327.236C2415.61 294.651 2442.02 268.236 2474.61 268.236C2507.19 268.236 2533.61 294.651 2533.61 327.236Z" fill="#5606FF"/>
<path class="neuron_grad" d="M2533.61 327.236C2533.61 359.82 2507.19 386.236 2474.61 386.236C2442.02 386.236 2415.61 359.82 2415.61 327.236C2415.61 294.651 2442.02 268.236 2474.61 268.236C2507.19 268.236 2533.61 294.651 2533.61 327.236Z" fill="url(#paint34_radial_23_2438)"/>
<path class="neuron_edge" d="M2533.61 327.236C2533.61 359.82 2507.19 386.236 2474.61 386.236C2442.02 386.236 2415.61 359.82 2415.61 327.236C2415.61 294.651 2442.02 268.236 2474.61 268.236C2507.19 268.236 2533.61 294.651 2533.61 327.236Z" stroke="#1A1B27" stroke-width="18"/>
<path class="neuron_fill" d="M2533.61 456.49C2533.61 489.075 2507.19 515.49 2474.61 515.49C2442.02 515.49 2415.61 489.075 2415.61 456.49C2415.61 423.906 2442.02 397.49 2474.61 397.49C2507.19 397.49 2533.61 423.906 2533.61 456.49Z" fill="#5606FF"/>
<path class="neuron_grad" d="M2533.61 456.49C2533.61 489.075 2507.19 515.49 2474.61 515.49C2442.02 515.49 2415.61 489.075 2415.61 456.49C2415.61 423.906 2442.02 397.49 2474.61 397.49C2507.19 397.49 2533.61 423.906 2533.61 456.49Z" fill="url(#paint35_radial_23_2438)"/>
<path class="neuron_edge" d="M2533.61 456.49C2533.61 489.075 2507.19 515.49 2474.61 515.49C2442.02 515.49 2415.61 489.075 2415.61 456.49C2415.61 423.906 2442.02 397.49 2474.61 397.49C2507.19 397.49 2533.61 423.906 2533.61 456.49Z" stroke="#1A1B27" stroke-width="18"/>
<path class="neuron_fill" d="M2533.61 585.915C2533.61 618.499 2507.19 644.915 2474.61 644.915C2442.02 644.915 2415.61 618.499 2415.61 585.915C2415.61 553.33 2442.02 526.915 2474.61 526.915C2507.19 526.915 2533.61 553.33 2533.61 585.915Z" fill="#5606FF"/>
<path class="neuron_grad" d="M2533.61 585.915C2533.61 618.499 2507.19 644.915 2474.61 644.915C2442.02 644.915 2415.61 618.499 2415.61 585.915C2415.61 553.33 2442.02 526.915 2474.61 526.915C2507.19 526.915 2533.61 553.33 2533.61 585.915Z" fill="url(#paint36_radial_23_2438)"/>
<path class="neuron_edge" d="M2533.61 585.915C2533.61 618.499 2507.19 644.915 2474.61 644.915C2442.02 644.915 2415.61 618.499 2415.61 585.915C2415.61 553.33 2442.02 526.915 2474.61 526.915C2507.19 526.915 2533.61 553.33 2533.61 585.915Z" stroke="#1A1B27" stroke-width="18"/>
<path class="neuron_fill" d="M2533.61 715.17C2533.61 747.754 2507.19 774.17 2474.61 774.17C2442.02 774.17 2415.61 747.754 2415.61 715.17C2415.61 682.585 2442.02 656.17 2474.61 656.17C2507.19 656.17 2533.61 682.585 2533.61 715.17Z" fill="#5606FF"/>
<path class="neuron_grad" d="M2533.61 715.17C2533.61 747.754 2507.19 774.17 2474.61 774.17C2442.02 774.17 2415.61 747.754 2415.61 715.17C2415.61 682.585 2442.02 656.17 2474.61 656.17C2507.19 656.17 2533.61 682.585 2533.61 715.17Z" fill="url(#paint37_radial_23_2438)"/>
<path class="neuron_edge" d="M2533.61 715.17C2533.61 747.754 2507.19 774.17 2474.61 774.17C2442.02 774.17 2415.61 747.754 2415.61 715.17C2415.61 682.585 2442.02 656.17 2474.61 656.17C2507.19 656.17 2533.61 682.585 2533.61 715.17Z" stroke="#1A1B27" stroke-width="18"/>
<path class="neuron_fill" d="M2533.61 844.199C2533.61 876.784 2507.19 903.199 2474.61 903.199C2442.02 903.199 2415.61 876.784 2415.61 844.199C2415.61 811.614 2442.02 785.199 2474.61 785.199C2507.19 785.199 2533.61 811.614 2533.61 844.199Z" fill="#5606FF"/>
<path class="neuron_grad" d="M2533.61 844.199C2533.61 876.784 2507.19 903.199 2474.61 903.199C2442.02 903.199 2415.61 876.784 2415.61 844.199C2415.61 811.614 2442.02 785.199 2474.61 785.199C2507.19 785.199 2533.61 811.614 2533.61 844.199Z" fill="url(#paint38_radial_23_2438)"/>
<path class="neuron_edge" d="M2533.61 844.199C2533.61 876.784 2507.19 903.199 2474.61 903.199C2442.02 903.199 2415.61 876.784 2415.61 844.199C2415.61 811.614 2442.02 785.199 2474.61 785.199C2507.19 785.199 2533.61 811.614 2533.61 844.199Z" stroke="#1A1B27" stroke-width="18"/>
<path class="neuron_fill" d="M2533.61 973.23C2533.61 1005.81 2507.19 1032.23 2474.61 1032.23C2442.02 1032.23 2415.61 1005.81 2415.61 973.23C2415.61 940.645 2442.02 914.23 2474.61 914.23C2507.19 914.23 2533.61 940.645 2533.61 973.23Z" fill="#5606FF"/>
<path class="neuron_grad" d="M2533.61 973.23C2533.61 1005.81 2507.19 1032.23 2474.61 1032.23C2442.02 1032.23 2415.61 1005.81 2415.61 973.23C2415.61 940.645 2442.02 914.23 2474.61 914.23C2507.19 914.23 2533.61 940.645 2533.61 973.23Z" fill="url(#paint39_radial_23_2438)"/>
<path class="neuron_edge" d="M2533.61 973.23C2533.61 1005.81 2507.19 1032.23 2474.61 1032.23C2442.02 1032.23 2415.61 1005.81 2415.61 973.23C2415.61 940.645 2442.02 914.23 2474.61 914.23C2507.19 914.23 2533.61 940.645 2533.61 973.23Z" stroke="#1A1B27" stroke-width="18"/>
<path class="neuron_fill" d="M2137.24 68.7258C2137.24 101.311 2110.82 127.726 2078.24 127.726C2045.65 127.726 2019.24 101.311 2019.24 68.7258C2019.24 36.141 2045.65 9.72577 2078.24 9.72577C2110.82 9.72577 2137.24 36.141 2137.24 68.7258Z" fill="#5606FF"/>
<path class="neuron_grad" d="M2137.24 68.7258C2137.24 101.311 2110.82 127.726 2078.24 127.726C2045.65 127.726 2019.24 101.311 2019.24 68.7258C2019.24 36.141 2045.65 9.72577 2078.24 9.72577C2110.82 9.72577 2137.24 36.141 2137.24 68.7258Z" fill="url(#paint40_radial_23_2438)"/>
<path class="neuron_edge" d="M2137.24 68.7258C2137.24 101.311 2110.82 127.726 2078.24 127.726C2045.65 127.726 2019.24 101.311 2019.24 68.7258C2019.24 36.141 2045.65 9.72577 2078.24 9.72577C2110.82 9.72577 2137.24 36.141 2137.24 68.7258Z" stroke="#1A1B27" stroke-width="18"/>
<path class="neuron_fill" d="M2137.24 197.981C2137.24 230.566 2110.82 256.981 2078.24 256.981C2045.65 256.981 2019.24 230.566 2019.24 197.981C2019.24 165.396 2045.65 138.981 2078.24 138.981C2110.82 138.981 2137.24 165.396 2137.24 197.981Z" fill="#5606FF"/>
<path class="neuron_grad" d="M2137.24 197.981C2137.24 230.566 2110.82 256.981 2078.24 256.981C2045.65 256.981 2019.24 230.566 2019.24 197.981C2019.24 165.396 2045.65 138.981 2078.24 138.981C2110.82 138.981 2137.24 165.396 2137.24 197.981Z" fill="url(#paint41_radial_23_2438)"/>
<path class="neuron_edge" d="M2137.24 197.981C2137.24 230.566 2110.82 256.981 2078.24 256.981C2045.65 256.981 2019.24 230.566 2019.24 197.981C2019.24 165.396 2045.65 138.981 2078.24 138.981C2110.82 138.981 2137.24 165.396 2137.24 197.981Z" stroke="#1A1B27" stroke-width="18"/>
<path class="neuron_fill" d="M2137.24 327.236C2137.24 359.82 2110.82 386.236 2078.24 386.236C2045.65 386.236 2019.24 359.82 2019.24 327.236C2019.24 294.651 2045.65 268.236 2078.24 268.236C2110.82 268.236 2137.24 294.651 2137.24 327.236Z" fill="#5606FF"/>
<path class="neuron_grad" d="M2137.24 327.236C2137.24 359.82 2110.82 386.236 2078.24 386.236C2045.65 386.236 2019.24 359.82 2019.24 327.236C2019.24 294.651 2045.65 268.236 2078.24 268.236C2110.82 268.236 2137.24 294.651 2137.24 327.236Z" fill="url(#paint42_radial_23_2438)"/>
<path class="neuron_edge" d="M2137.24 327.236C2137.24 359.82 2110.82 386.236 2078.24 386.236C2045.65 386.236 2019.24 359.82 2019.24 327.236C2019.24 294.651 2045.65 268.236 2078.24 268.236C2110.82 268.236 2137.24 294.651 2137.24 327.236Z" stroke="#1A1B27" stroke-width="18"/>
<path class="neuron_fill" d="M2137.24 456.49C2137.24 489.075 2110.82 515.49 2078.24 515.49C2045.65 515.49 2019.24 489.075 2019.24 456.49C2019.24 423.906 2045.65 397.49 2078.24 397.49C2110.82 397.49 2137.24 423.906 2137.24 456.49Z" fill="#5606FF"/>
<path class="neuron_grad" d="M2137.24 456.49C2137.24 489.075 2110.82 515.49 2078.24 515.49C2045.65 515.49 2019.24 489.075 2019.24 456.49C2019.24 423.906 2045.65 397.49 2078.24 397.49C2110.82 397.49 2137.24 423.906 2137.24 456.49Z" fill="url(#paint43_radial_23_2438)"/>
<path class="neuron_edge" d="M2137.24 456.49C2137.24 489.075 2110.82 515.49 2078.24 515.49C2045.65 515.49 2019.24 489.075 2019.24 456.49C2019.24 423.906 2045.65 397.49 2078.24 397.49C2110.82 397.49 2137.24 423.906 2137.24 456.49Z" stroke="#1A1B27" stroke-width="18"/>
<path class="neuron_fill" d="M2137.24 585.915C2137.24 618.499 2110.82 644.915 2078.24 644.915C2045.65 644.915 2019.24 618.499 2019.24 585.915C2019.24 553.33 2045.65 526.915 2078.24 526.915C2110.82 526.915 2137.24 553.33 2137.24 585.915Z" fill="#5606FF"/>
<path class="neuron_grad" d="M2137.24 585.915C2137.24 618.499 2110.82 644.915 2078.24 644.915C2045.65 644.915 2019.24 618.499 2019.24 585.915C2019.24 553.33 2045.65 526.915 2078.24 526.915C2110.82 526.915 2137.24 553.33 2137.24 585.915Z" fill="url(#paint44_radial_23_2438)"/>
<path class="neuron_edge" d="M2137.24 585.915C2137.24 618.499 2110.82 644.915 2078.24 644.915C2045.65 644.915 2019.24 618.499 2019.24 585.915C2019.24 553.33 2045.65 526.915 2078.24 526.915C2110.82 526.915 2137.24 553.33 2137.24 585.915Z" stroke="#1A1B27" stroke-width="18"/>
<path class="neuron_fill" d="M2137.24 715.17C2137.24 747.754 2110.82 774.17 2078.24 774.17C2045.65 774.17 2019.24 747.754 2019.24 715.17C2019.24 682.585 2045.65 656.17 2078.24 656.17C2110.82 656.17 2137.24 682.585 2137.24 715.17Z" fill="#5606FF"/>
<path class="neuron_grad" d="M2137.24 715.17C2137.24 747.754 2110.82 774.17 2078.24 774.17C2045.65 774.17 2019.24 747.754 2019.24 715.17C2019.24 682.585 2045.65 656.17 2078.24 656.17C2110.82 656.17 2137.24 682.585 2137.24 715.17Z" fill="url(#paint45_radial_23_2438)"/>
<path class="neuron_edge" d="M2137.24 715.17C2137.24 747.754 2110.82 774.17 2078.24 774.17C2045.65 774.17 2019.24 747.754 2019.24 715.17C2019.24 682.585 2045.65 656.17 2078.24 656.17C2110.82 656.17 2137.24 682.585 2137.24 715.17Z" stroke="#1A1B27" stroke-width="18"/>
<path class="neuron_fill" d="M2137.24 844.199C2137.24 876.784 2110.82 903.199 2078.24 903.199C2045.65 903.199 2019.24 876.784 2019.24 844.199C2019.24 811.614 2045.65 785.199 2078.24 785.199C2110.82 785.199 2137.24 811.614 2137.24 844.199Z" fill="#5606FF"/>
<path class="neuron_grad" d="M2137.24 844.199C2137.24 876.784 2110.82 903.199 2078.24 903.199C2045.65 903.199 2019.24 876.784 2019.24 844.199C2019.24 811.614 2045.65 785.199 2078.24 785.199C2110.82 785.199 2137.24 811.614 2137.24 844.199Z" fill="url(#paint46_radial_23_2438)"/>
<path class="neuron_edge" d="M2137.24 844.199C2137.24 876.784 2110.82 903.199 2078.24 903.199C2045.65 903.199 2019.24 876.784 2019.24 844.199C2019.24 811.614 2045.65 785.199 2078.24 785.199C2110.82 785.199 2137.24 811.614 2137.24 844.199Z" stroke="#1A1B27" stroke-width="18"/>
<path class="neuron_fill" d="M2137.24 973.23C2137.24 1005.81 2110.82 1032.23 2078.24 1032.23C2045.65 1032.23 2019.24 1005.81 2019.24 973.23C2019.24 940.645 2045.65 914.23 2078.24 914.23C2110.82 914.23 2137.24 940.645 2137.24 973.23Z" fill="#5606FF"/>
<path class="neuron_grad" d="M2137.24 973.23C2137.24 1005.81 2110.82 1032.23 2078.24 1032.23C2045.65 1032.23 2019.24 1005.81 2019.24 973.23C2019.24 940.645 2045.65 914.23 2078.24 914.23C2110.82 914.23 2137.24 940.645 2137.24 973.23Z" fill="url(#paint47_radial_23_2438)"/>
<path class="neuron_edge" d="M2137.24 973.23C2137.24 1005.81 2110.82 1032.23 2078.24 1032.23C2045.65 1032.23 2019.24 1005.81 2019.24 973.23C2019.24 940.645 2045.65 914.23 2078.24 914.23C2110.82 914.23 2137.24 940.645 2137.24 973.23Z" stroke="#1A1B27" stroke-width="18"/>
<path class="neuron_fill" d="M1740.87 68.7258C1740.87 101.311 1714.45 127.726 1681.87 127.726C1649.28 127.726 1622.87 101.311 1622.87 68.7258C1622.87 36.141 1649.28 9.72577 1681.87 9.72577C1714.45 9.72577 1740.87 36.141 1740.87 68.7258Z" fill="#5606FF"/>
<path class="neuron_grad" d="M1740.87 68.7258C1740.87 101.311 1714.45 127.726 1681.87 127.726C1649.28 127.726 1622.87 101.311 1622.87 68.7258C1622.87 36.141 1649.28 9.72577 1681.87 9.72577C1714.45 9.72577 1740.87 36.141 1740.87 68.7258Z" fill="url(#paint48_radial_23_2438)"/>
<path class="neuron_edge" d="M1740.87 68.7258C1740.87 101.311 1714.45 127.726 1681.87 127.726C1649.28 127.726 1622.87 101.311 1622.87 68.7258C1622.87 36.141 1649.28 9.72577 1681.87 9.72577C1714.45 9.72577 1740.87 36.141 1740.87 68.7258Z" stroke="#1A1B27" stroke-width="18"/>
<path class="neuron_fill" d="M1740.87 197.981C1740.87 230.566 1714.45 256.981 1681.87 256.981C1649.28 256.981 1622.87 230.566 1622.87 197.981C1622.87 165.396 1649.28 138.981 1681.87 138.981C1714.45 138.981 1740.87 165.396 1740.87 197.981Z" fill="#5606FF"/>
<path class="neuron_grad" d="M1740.87 197.981C1740.87 230.566 1714.45 256.981 1681.87 256.981C1649.28 256.981 1622.87 230.566 1622.87 197.981C1622.87 165.396 1649.28 138.981 1681.87 138.981C1714.45 138.981 1740.87 165.396 1740.87 197.981Z" fill="url(#paint49_radial_23_2438)"/>
<path class="neuron_edge" d="M1740.87 197.981C1740.87 230.566 1714.45 256.981 1681.87 256.981C1649.28 256.981 1622.87 230.566 1622.87 197.981C1622.87 165.396 1649.28 138.981 1681.87 138.981C1714.45 138.981 1740.87 165.396 1740.87 197.981Z" stroke="#1A1B27" stroke-width="18"/>
<path class="neuron_fill" d="M1740.87 327.236C1740.87 359.82 1714.45 386.236 1681.87 386.236C1649.28 386.236 1622.87 359.82 1622.87 327.236C1622.87 294.651 1649.28 268.236 1681.87 268.236C1714.45 268.236 1740.87 294.651 1740.87 327.236Z" fill="#5606FF"/>
<path class="neuron_grad" d="M1740.87 327.236C1740.87 359.82 1714.45 386.236 1681.87 386.236C1649.28 386.236 1622.87 359.82 1622.87 327.236C1622.87 294.651 1649.28 268.236 1681.87 268.236C1714.45 268.236 1740.87 294.651 1740.87 327.236Z" fill="url(#paint50_radial_23_2438)"/>
<path class="neuron_edge" d="M1740.87 327.236C1740.87 359.82 1714.45 386.236 1681.87 386.236C1649.28 386.236 1622.87 359.82 1622.87 327.236C1622.87 294.651 1649.28 268.236 1681.87 268.236C1714.45 268.236 1740.87 294.651 1740.87 327.236Z" stroke="#1A1B27" stroke-width="18"/>
<path class="neuron_fill" d="M1740.87 456.49C1740.87 489.075 1714.45 515.49 1681.87 515.49C1649.28 515.49 1622.87 489.075 1622.87 456.49C1622.87 423.906 1649.28 397.49 1681.87 397.49C1714.45 397.49 1740.87 423.906 1740.87 456.49Z" fill="#5606FF"/>
<path class="neuron_grad" d="M1740.87 456.49C1740.87 489.075 1714.45 515.49 1681.87 515.49C1649.28 515.49 1622.87 489.075 1622.87 456.49C1622.87 423.906 1649.28 397.49 1681.87 397.49C1714.45 397.49 1740.87 423.906 1740.87 456.49Z" fill="url(#paint51_radial_23_2438)"/>
<path class="neuron_edge" d="M1740.87 456.49C1740.87 489.075 1714.45 515.49 1681.87 515.49C1649.28 515.49 1622.87 489.075 1622.87 456.49C1622.87 423.906 1649.28 397.49 1681.87 397.49C1714.45 397.49 1740.87 423.906 1740.87 456.49Z" stroke="#1A1B27" stroke-width="18"/>
<path class="neuron_fill" d="M1740.87 585.915C1740.87 618.499 1714.45 644.915 1681.87 644.915C1649.28 644.915 1622.87 618.499 1622.87 585.915C1622.87 553.33 1649.28 526.915 1681.87 526.915C1714.45 526.915 1740.87 553.33 1740.87 585.915Z" fill="#5606FF"/>
<path class="neuron_grad" d="M1740.87 585.915C1740.87 618.499 1714.45 644.915 1681.87 644.915C1649.28 644.915 1622.87 618.499 1622.87 585.915C1622.87 553.33 1649.28 526.915 1681.87 526.915C1714.45 526.915 1740.87 553.33 1740.87 585.915Z" fill="url(#paint52_radial_23_2438)"/>
<path class="neuron_edge" d="M1740.87 585.915C1740.87 618.499 1714.45 644.915 1681.87 644.915C1649.28 644.915 1622.87 618.499 1622.87 585.915C1622.87 553.33 1649.28 526.915 1681.87 526.915C1714.45 526.915 1740.87 553.33 1740.87 585.915Z" stroke="#1A1B27" stroke-width="18"/>
<path class="neuron_fill" d="M1740.87 715.17C1740.87 747.754 1714.45 774.17 1681.87 774.17C1649.28 774.17 1622.87 747.754 1622.87 715.17C1622.87 682.585 1649.28 656.17 1681.87 656.17C1714.45 656.17 1740.87 682.585 1740.87 715.17Z" fill="#5606FF"/>
<path class="neuron_grad" d="M1740.87 715.17C1740.87 747.754 1714.45 774.17 1681.87 774.17C1649.28 774.17 1622.87 747.754 1622.87 715.17C1622.87 682.585 1649.28 656.17 1681.87 656.17C1714.45 656.17 1740.87 682.585 1740.87 715.17Z" fill="url(#paint53_radial_23_2438)"/>
<path class="neuron_edge" d="M1740.87 715.17C1740.87 747.754 1714.45 774.17 1681.87 774.17C1649.28 774.17 1622.87 747.754 1622.87 715.17C1622.87 682.585 1649.28 656.17 1681.87 656.17C1714.45 656.17 1740.87 682.585 1740.87 715.17Z" stroke="#1A1B27" stroke-width="18"/>
<path class="neuron_fill" d="M1740.87 844.199C1740.87 876.784 1714.45 903.199 1681.87 903.199C1649.28 903.199 1622.87 876.784 1622.87 844.199C1622.87 811.614 1649.28 785.199 1681.87 785.199C1714.45 785.199 1740.87 811.614 1740.87 844.199Z" fill="#5606FF"/>
<path class="neuron_grad" d="M1740.87 844.199C1740.87 876.784 1714.45 903.199 1681.87 903.199C1649.28 903.199 1622.87 876.784 1622.87 844.199C1622.87 811.614 1649.28 785.199 1681.87 785.199C1714.45 785.199 1740.87 811.614 1740.87 844.199Z" fill="url(#paint54_radial_23_2438)"/>
<path class="neuron_edge" d="M1740.87 844.199C1740.87 876.784 1714.45 903.199 1681.87 903.199C1649.28 903.199 1622.87 876.784 1622.87 844.199C1622.87 811.614 1649.28 785.199 1681.87 785.199C1714.45 785.199 1740.87 811.614 1740.87 844.199Z" stroke="#1A1B27" stroke-width="18"/>
<path class="neuron_fill" d="M1740.87 973.23C1740.87 1005.81 1714.45 1032.23 1681.87 1032.23C1649.28 1032.23 1622.87 1005.81 1622.87 973.23C1622.87 940.645 1649.28 914.23 1681.87 914.23C1714.45 914.23 1740.87 940.645 1740.87 973.23Z" fill="#5606FF"/>
<path class="neuron_grad" d="M1740.87 973.23C1740.87 1005.81 1714.45 1032.23 1681.87 1032.23C1649.28 1032.23 1622.87 1005.81 1622.87 973.23C1622.87 940.645 1649.28 914.23 1681.87 914.23C1714.45 914.23 1740.87 940.645 1740.87 973.23Z" fill="url(#paint55_radial_23_2438)"/>
<path class="neuron_edge" d="M1740.87 973.23C1740.87 1005.81 1714.45 1032.23 1681.87 1032.23C1649.28 1032.23 1622.87 1005.81 1622.87 973.23C1622.87 940.645 1649.28 914.23 1681.87 914.23C1714.45 914.23 1740.87 940.645 1740.87 973.23Z" stroke="#1A1B27" stroke-width="18"/>
<path class="neuron_fill" d="M1344.5 68.7258C1344.5 101.311 1318.08 127.726 1285.5 127.726C1252.91 127.726 1226.5 101.311 1226.5 68.7258C1226.5 36.141 1252.91 9.72577 1285.5 9.72577C1318.08 9.72577 1344.5 36.141 1344.5 68.7258Z" fill="#5606FF"/>
<path class="neuron_grad" d="M1344.5 68.7258C1344.5 101.311 1318.08 127.726 1285.5 127.726C1252.91 127.726 1226.5 101.311 1226.5 68.7258C1226.5 36.141 1252.91 9.72577 1285.5 9.72577C1318.08 9.72577 1344.5 36.141 1344.5 68.7258Z" fill="url(#paint56_radial_23_2438)"/>
<path class="neuron_edge" d="M1344.5 68.7258C1344.5 101.311 1318.08 127.726 1285.5 127.726C1252.91 127.726 1226.5 101.311 1226.5 68.7258C1226.5 36.141 1252.91 9.72577 1285.5 9.72577C1318.08 9.72577 1344.5 36.141 1344.5 68.7258Z" stroke="#1A1B27" stroke-width="18"/>
<path class="neuron_fill" d="M1344.5 197.981C1344.5 230.566 1318.08 256.981 1285.5 256.981C1252.91 256.981 1226.5 230.566 1226.5 197.981C1226.5 165.396 1252.91 138.981 1285.5 138.981C1318.08 138.981 1344.5 165.396 1344.5 197.981Z" fill="#5606FF"/>
<path class="neuron_grad" d="M1344.5 197.981C1344.5 230.566 1318.08 256.981 1285.5 256.981C1252.91 256.981 1226.5 230.566 1226.5 197.981C1226.5 165.396 1252.91 138.981 1285.5 138.981C1318.08 138.981 1344.5 165.396 1344.5 197.981Z" fill="url(#paint57_radial_23_2438)"/>
<path class="neuron_edge" d="M1344.5 197.981C1344.5 230.566 1318.08 256.981 1285.5 256.981C1252.91 256.981 1226.5 230.566 1226.5 197.981C1226.5 165.396 1252.91 138.981 1285.5 138.981C1318.08 138.981 1344.5 165.396 1344.5 197.981Z" stroke="#1A1B27" stroke-width="18"/>
<path class="neuron_fill" d="M1344.5 327.236C1344.5 359.82 1318.08 386.236 1285.5 386.236C1252.91 386.236 1226.5 359.82 1226.5 327.236C1226.5 294.651 1252.91 268.236 1285.5 268.236C1318.08 268.236 1344.5 294.651 1344.5 327.236Z" fill="#5606FF"/>
<path class="neuron_grad" d="M1344.5 327.236C1344.5 359.82 1318.08 386.236 1285.5 386.236C1252.91 386.236 1226.5 359.82 1226.5 327.236C1226.5 294.651 1252.91 268.236 1285.5 268.236C1318.08 268.236 1344.5 294.651 1344.5 327.236Z" fill="url(#paint58_radial_23_2438)"/>
<path class="neuron_edge" d="M1344.5 327.236C1344.5 359.82 1318.08 386.236 1285.5 386.236C1252.91 386.236 1226.5 359.82 1226.5 327.236C1226.5 294.651 1252.91 268.236 1285.5 268.236C1318.08 268.236 1344.5 294.651 1344.5 327.236Z" stroke="#1A1B27" stroke-width="18"/>
<path class="neuron_fill" d="M1344.5 456.49C1344.5 489.075 1318.08 515.49 1285.5 515.49C1252.91 515.49 1226.5 489.075 1226.5 456.49C1226.5 423.906 1252.91 397.49 1285.5 397.49C1318.08 397.49 1344.5 423.906 1344.5 456.49Z" fill="#5606FF"/>
<path class="neuron_grad" d="M1344.5 456.49C1344.5 489.075 1318.08 515.49 1285.5 515.49C1252.91 515.49 1226.5 489.075 1226.5 456.49C1226.5 423.906 1252.91 397.49 1285.5 397.49C1318.08 397.49 1344.5 423.906 1344.5 456.49Z" fill="url(#paint59_radial_23_2438)"/>
<path class="neuron_edge" d="M1344.5 456.49C1344.5 489.075 1318.08 515.49 1285.5 515.49C1252.91 515.49 1226.5 489.075 1226.5 456.49C1226.5 423.906 1252.91 397.49 1285.5 397.49C1318.08 397.49 1344.5 423.906 1344.5 456.49Z" stroke="#1A1B27" stroke-width="18"/>
<path class="neuron_fill" d="M1344.5 585.915C1344.5 618.499 1318.08 644.915 1285.5 644.915C1252.91 644.915 1226.5 618.499 1226.5 585.915C1226.5 553.33 1252.91 526.915 1285.5 526.915C1318.08 526.915 1344.5 553.33 1344.5 585.915Z" fill="#5606FF"/>
<path class="neuron_grad" d="M1344.5 585.915C1344.5 618.499 1318.08 644.915 1285.5 644.915C1252.91 644.915 1226.5 618.499 1226.5 585.915C1226.5 553.33 1252.91 526.915 1285.5 526.915C1318.08 526.915 1344.5 553.33 1344.5 585.915Z" fill="url(#paint60_radial_23_2438)"/>
<path class="neuron_edge" d="M1344.5 585.915C1344.5 618.499 1318.08 644.915 1285.5 644.915C1252.91 644.915 1226.5 618.499 1226.5 585.915C1226.5 553.33 1252.91 526.915 1285.5 526.915C1318.08 526.915 1344.5 553.33 1344.5 585.915Z" stroke="#1A1B27" stroke-width="18"/>
<path class="neuron_fill" d="M1344.5 715.17C1344.5 747.754 1318.08 774.17 1285.5 774.17C1252.91 774.17 1226.5 747.754 1226.5 715.17C1226.5 682.585 1252.91 656.17 1285.5 656.17C1318.08 656.17 1344.5 682.585 1344.5 715.17Z" fill="#5606FF"/>
<path class="neuron_grad" d="M1344.5 715.17C1344.5 747.754 1318.08 774.17 1285.5 774.17C1252.91 774.17 1226.5 747.754 1226.5 715.17C1226.5 682.585 1252.91 656.17 1285.5 656.17C1318.08 656.17 1344.5 682.585 1344.5 715.17Z" fill="url(#paint61_radial_23_2438)"/>
<path class="neuron_edge" d="M1344.5 715.17C1344.5 747.754 1318.08 774.17 1285.5 774.17C1252.91 774.17 1226.5 747.754 1226.5 715.17C1226.5 682.585 1252.91 656.17 1285.5 656.17C1318.08 656.17 1344.5 682.585 1344.5 715.17Z" stroke="#1A1B27" stroke-width="18"/>
<path class="neuron_fill" d="M1344.5 844.199C1344.5 876.784 1318.08 903.199 1285.5 903.199C1252.91 903.199 1226.5 876.784 1226.5 844.199C1226.5 811.614 1252.91 785.199 1285.5 785.199C1318.08 785.199 1344.5 811.614 1344.5 844.199Z" fill="#5606FF"/>
<path class="neuron_grad" d="M1344.5 844.199C1344.5 876.784 1318.08 903.199 1285.5 903.199C1252.91 903.199 1226.5 876.784 1226.5 844.199C1226.5 811.614 1252.91 785.199 1285.5 785.199C1318.08 785.199 1344.5 811.614 1344.5 844.199Z" fill="url(#paint62_radial_23_2438)"/>
<path class="neuron_edge" d="M1344.5 844.199C1344.5 876.784 1318.08 903.199 1285.5 903.199C1252.91 903.199 1226.5 876.784 1226.5 844.199C1226.5 811.614 1252.91 785.199 1285.5 785.199C1318.08 785.199 1344.5 811.614 1344.5 844.199Z" stroke="#1A1B27" stroke-width="18"/>
<path class="neuron_fill" d="M1344.5 973.23C1344.5 1005.81 1318.08 1032.23 1285.5 1032.23C1252.91 1032.23 1226.5 1005.81 1226.5 973.23C1226.5 940.645 1252.91 914.23 1285.5 914.23C1318.08 914.23 1344.5 940.645 1344.5 973.23Z" fill="#5606FF"/>
<path class="neuron_grad" d="M1344.5 973.23C1344.5 1005.81 1318.08 1032.23 1285.5 1032.23C1252.91 1032.23 1226.5 1005.81 1226.5 973.23C1226.5 940.645 1252.91 914.23 1285.5 914.23C1318.08 914.23 1344.5 940.645 1344.5 973.23Z" fill="url(#paint63_radial_23_2438)"/>
<path class="neuron_edge" d="M1344.5 973.23C1344.5 1005.81 1318.08 1032.23 1285.5 1032.23C1252.91 1032.23 1226.5 1005.81 1226.5 973.23C1226.5 940.645 1252.91 914.23 1285.5 914.23C1318.08 914.23 1344.5 940.645 1344.5 973.23Z" stroke="#1A1B27" stroke-width="18"/>
<path class="neuron_fill" d="M948.125 68.7258C948.125 101.311 921.71 127.726 889.125 127.726C856.541 127.726 830.125 101.311 830.125 68.7258C830.125 36.141 856.541 9.72577 889.125 9.72577C921.71 9.72577 948.125 36.141 948.125 68.7258Z" fill="#5606FF"/>
<path class="neuron_grad" d="M948.125 68.7258C948.125 101.311 921.71 127.726 889.125 127.726C856.541 127.726 830.125 101.311 830.125 68.7258C830.125 36.141 856.541 9.72577 889.125 9.72577C921.71 9.72577 948.125 36.141 948.125 68.7258Z" fill="url(#paint64_radial_23_2438)"/>
<path class="neuron_edge" d="M948.125 68.7258C948.125 101.311 921.71 127.726 889.125 127.726C856.541 127.726 830.125 101.311 830.125 68.7258C830.125 36.141 856.541 9.72577 889.125 9.72577C921.71 9.72577 948.125 36.141 948.125 68.7258Z" stroke="#1A1B27" stroke-width="18"/>
<path class="neuron_fill" d="M948.125 197.981C948.125 230.565 921.71 256.981 889.125 256.981C856.541 256.981 830.125 230.565 830.125 197.981C830.125 165.396 856.541 138.981 889.125 138.981C921.71 138.981 948.125 165.396 948.125 197.981Z" fill="#5606FF"/>
<path class="neuron_grad" d="M948.125 197.981C948.125 230.565 921.71 256.981 889.125 256.981C856.541 256.981 830.125 230.565 830.125 197.981C830.125 165.396 856.541 138.981 889.125 138.981C921.71 138.981 948.125 165.396 948.125 197.981Z" fill="url(#paint65_radial_23_2438)"/>
<path class="neuron_edge" d="M948.125 197.981C948.125 230.565 921.71 256.981 889.125 256.981C856.541 256.981 830.125 230.565 830.125 197.981C830.125 165.396 856.541 138.981 889.125 138.981C921.71 138.981 948.125 165.396 948.125 197.981Z" stroke="#1A1B27" stroke-width="18"/>
<path class="neuron_fill" d="M948.125 327.236C948.125 359.82 921.71 386.236 889.125 386.236C856.541 386.236 830.125 359.82 830.125 327.236C830.125 294.651 856.541 268.236 889.125 268.236C921.71 268.236 948.125 294.651 948.125 327.236Z" fill="#5606FF"/>
<path class="neuron_grad" d="M948.125 327.236C948.125 359.82 921.71 386.236 889.125 386.236C856.541 386.236 830.125 359.82 830.125 327.236C830.125 294.651 856.541 268.236 889.125 268.236C921.71 268.236 948.125 294.651 948.125 327.236Z" fill="url(#paint66_radial_23_2438)"/>
<path class="neuron_edge" d="M948.125 327.236C948.125 359.82 921.71 386.236 889.125 386.236C856.541 386.236 830.125 359.82 830.125 327.236C830.125 294.651 856.541 268.236 889.125 268.236C921.71 268.236 948.125 294.651 948.125 327.236Z" stroke="#1A1B27" stroke-width="18"/>
<path class="neuron_fill" d="M948.125 456.49C948.125 489.075 921.71 515.49 889.125 515.49C856.541 515.49 830.125 489.075 830.125 456.49C830.125 423.906 856.541 397.49 889.125 397.49C921.71 397.49 948.125 423.906 948.125 456.49Z" fill="#5606FF"/>
<path class="neuron_grad" d="M948.125 456.49C948.125 489.075 921.71 515.49 889.125 515.49C856.541 515.49 830.125 489.075 830.125 456.49C830.125 423.906 856.541 397.49 889.125 397.49C921.71 397.49 948.125 423.906 948.125 456.49Z" fill="url(#paint67_radial_23_2438)"/>
<path class="neuron_edge" d="M948.125 456.49C948.125 489.075 921.71 515.49 889.125 515.49C856.541 515.49 830.125 489.075 830.125 456.49C830.125 423.906 856.541 397.49 889.125 397.49C921.71 397.49 948.125 423.906 948.125 456.49Z" stroke="#1A1B27" stroke-width="18"/>
<path class="neuron_fill" d="M948.125 585.915C948.125 618.499 921.71 644.915 889.125 644.915C856.541 644.915 830.125 618.499 830.125 585.915C830.125 553.33 856.541 526.915 889.125 526.915C921.71 526.915 948.125 553.33 948.125 585.915Z" fill="#5606FF"/>
<path class="neuron_grad" d="M948.125 585.915C948.125 618.499 921.71 644.915 889.125 644.915C856.541 644.915 830.125 618.499 830.125 585.915C830.125 553.33 856.541 526.915 889.125 526.915C921.71 526.915 948.125 553.33 948.125 585.915Z" fill="url(#paint68_radial_23_2438)"/>
<path class="neuron_edge" d="M948.125 585.915C948.125 618.499 921.71 644.915 889.125 644.915C856.541 644.915 830.125 618.499 830.125 585.915C830.125 553.33 856.541 526.915 889.125 526.915C921.71 526.915 948.125 553.33 948.125 585.915Z" stroke="#1A1B27" stroke-width="18"/>
<path class="neuron_fill" d="M948.125 715.17C948.125 747.754 921.71 774.17 889.125 774.17C856.541 774.17 830.125 747.754 830.125 715.17C830.125 682.585 856.541 656.17 889.125 656.17C921.71 656.17 948.125 682.585 948.125 715.17Z" fill="#5606FF"/>
<path class="neuron_grad" d="M948.125 715.17C948.125 747.754 921.71 774.17 889.125 774.17C856.541 774.17 830.125 747.754 830.125 715.17C830.125 682.585 856.541 656.17 889.125 656.17C921.71 656.17 948.125 682.585 948.125 715.17Z" fill="url(#paint69_radial_23_2438)"/>
<path class="neuron_edge" d="M948.125 715.17C948.125 747.754 921.71 774.17 889.125 774.17C856.541 774.17 830.125 747.754 830.125 715.17C830.125 682.585 856.541 656.17 889.125 656.17C921.71 656.17 948.125 682.585 948.125 715.17Z" stroke="#1A1B27" stroke-width="18"/>
<path class="neuron_fill" d="M948.125 844.199C948.125 876.784 921.71 903.199 889.125 903.199C856.541 903.199 830.125 876.784 830.125 844.199C830.125 811.614 856.541 785.199 889.125 785.199C921.71 785.199 948.125 811.614 948.125 844.199Z" fill="#5606FF"/>
<path class="neuron_grad" d="M948.125 844.199C948.125 876.784 921.71 903.199 889.125 903.199C856.541 903.199 830.125 876.784 830.125 844.199C830.125 811.614 856.541 785.199 889.125 785.199C921.71 785.199 948.125 811.614 948.125 844.199Z" fill="url(#paint70_radial_23_2438)"/>
<path class="neuron_edge" d="M948.125 844.199C948.125 876.784 921.71 903.199 889.125 903.199C856.541 903.199 830.125 876.784 830.125 844.199C830.125 811.614 856.541 785.199 889.125 785.199C921.71 785.199 948.125 811.614 948.125 844.199Z" stroke="#1A1B27" stroke-width="18"/>
<path class="neuron_fill" d="M948.125 973.23C948.125 1005.81 921.71 1032.23 889.125 1032.23C856.541 1032.23 830.125 1005.81 830.125 973.23C830.125 940.645 856.541 914.23 889.125 914.23C921.71 914.23 948.125 940.645 948.125 973.23Z" fill="#5606FF"/>
<path class="neuron_grad" d="M948.125 973.23C948.125 1005.81 921.71 1032.23 889.125 1032.23C856.541 1032.23 830.125 1005.81 830.125 973.23C830.125 940.645 856.541 914.23 889.125 914.23C921.71 914.23 948.125 940.645 948.125 973.23Z" fill="url(#paint71_radial_23_2438)"/>
<path class="neuron_edge" d="M948.125 973.23C948.125 1005.81 921.71 1032.23 889.125 1032.23C856.541 1032.23 830.125 1005.81 830.125 973.23C830.125 940.645 856.541 914.23 889.125 914.23C921.71 914.23 948.125 940.645 948.125 973.23Z" stroke="#1A1B27" stroke-width="18"/>
<path class="neuron_fill" d="M551.755 68.7258C551.755 101.311 525.34 127.726 492.755 127.726C460.171 127.726 433.755 101.311 433.755 68.7258C433.755 36.141 460.171 9.72577 492.755 9.72577C525.34 9.72577 551.755 36.141 551.755 68.7258Z" fill="#5606FF"/>
<path class="neuron_grad" d="M551.755 68.7258C551.755 101.311 525.34 127.726 492.755 127.726C460.171 127.726 433.755 101.311 433.755 68.7258C433.755 36.141 460.171 9.72577 492.755 9.72577C525.34 9.72577 551.755 36.141 551.755 68.7258Z" fill="url(#paint72_radial_23_2438)"/>
<path class="neuron_edge" d="M551.755 68.7258C551.755 101.311 525.34 127.726 492.755 127.726C460.171 127.726 433.755 101.311 433.755 68.7258C433.755 36.141 460.171 9.72577 492.755 9.72577C525.34 9.72577 551.755 36.141 551.755 68.7258Z" stroke="#1A1B27" stroke-width="18"/>
<path class="neuron_fill" d="M551.755 197.981C551.755 230.566 525.34 256.981 492.755 256.981C460.171 256.981 433.755 230.566 433.755 197.981C433.755 165.396 460.171 138.981 492.755 138.981C525.34 138.981 551.755 165.396 551.755 197.981Z" fill="#5606FF"/>
<path class="neuron_grad" d="M551.755 197.981C551.755 230.566 525.34 256.981 492.755 256.981C460.171 256.981 433.755 230.566 433.755 197.981C433.755 165.396 460.171 138.981 492.755 138.981C525.34 138.981 551.755 165.396 551.755 197.981Z" fill="url(#paint73_radial_23_2438)"/>
<path class="neuron_edge" d="M551.755 197.981C551.755 230.566 525.34 256.981 492.755 256.981C460.171 256.981 433.755 230.566 433.755 197.981C433.755 165.396 460.171 138.981 492.755 138.981C525.34 138.981 551.755 165.396 551.755 197.981Z" stroke="#1A1B27" stroke-width="18"/>
<path class="neuron_fill" d="M551.755 327.236C551.755 359.82 525.34 386.236 492.755 386.236C460.171 386.236 433.755 359.82 433.755 327.236C433.755 294.651 460.171 268.236 492.755 268.236C525.34 268.236 551.755 294.651 551.755 327.236Z" fill="#5606FF"/>
<path class="neuron_grad" d="M551.755 327.236C551.755 359.82 525.34 386.236 492.755 386.236C460.171 386.236 433.755 359.82 433.755 327.236C433.755 294.651 460.171 268.236 492.755 268.236C525.34 268.236 551.755 294.651 551.755 327.236Z" fill="url(#paint74_radial_23_2438)"/>
<path class="neuron_edge" d="M551.755 327.236C551.755 359.82 525.34 386.236 492.755 386.236C460.171 386.236 433.755 359.82 433.755 327.236C433.755 294.651 460.171 268.236 492.755 268.236C525.34 268.236 551.755 294.651 551.755 327.236Z" stroke="#1A1B27" stroke-width="18"/>
<path class="neuron_fill" d="M551.755 456.49C551.755 489.075 525.34 515.49 492.755 515.49C460.171 515.49 433.755 489.075 433.755 456.49C433.755 423.906 460.171 397.49 492.755 397.49C525.34 397.49 551.755 423.906 551.755 456.49Z" fill="#5606FF"/>
<path class="neuron_grad" d="M551.755 456.49C551.755 489.075 525.34 515.49 492.755 515.49C460.171 515.49 433.755 489.075 433.755 456.49C433.755 423.906 460.171 397.49 492.755 397.49C525.34 397.49 551.755 423.906 551.755 456.49Z" fill="url(#paint75_radial_23_2438)"/>
<path class="neuron_edge" d="M551.755 456.49C551.755 489.075 525.34 515.49 492.755 515.49C460.171 515.49 433.755 489.075 433.755 456.49C433.755 423.906 460.171 397.49 492.755 397.49C525.34 397.49 551.755 423.906 551.755 456.49Z" stroke="#1A1B27" stroke-width="18"/>
<path class="neuron_fill" d="M551.755 585.915C551.755 618.499 525.34 644.915 492.755 644.915C460.171 644.915 433.755 618.499 433.755 585.915C433.755 553.33 460.171 526.915 492.755 526.915C525.34 526.915 551.755 553.33 551.755 585.915Z" fill="#5606FF"/>
<path class="neuron_grad" d="M551.755 585.915C551.755 618.499 525.34 644.915 492.755 644.915C460.171 644.915 433.755 618.499 433.755 585.915C433.755 553.33 460.171 526.915 492.755 526.915C525.34 526.915 551.755 553.33 551.755 585.915Z" fill="url(#paint76_radial_23_2438)"/>
<path class="neuron_edge" d="M551.755 585.915C551.755 618.499 525.34 644.915 492.755 644.915C460.171 644.915 433.755 618.499 433.755 585.915C433.755 553.33 460.171 526.915 492.755 526.915C525.34 526.915 551.755 553.33 551.755 585.915Z" stroke="#1A1B27" stroke-width="18"/>
<path class="neuron_fill" d="M551.755 715.17C551.755 747.754 525.34 774.17 492.755 774.17C460.171 774.17 433.755 747.754 433.755 715.17C433.755 682.585 460.171 656.17 492.755 656.17C525.34 656.17 551.755 682.585 551.755 715.17Z" fill="#5606FF"/>
<path class="neuron_grad" d="M551.755 715.17C551.755 747.754 525.34 774.17 492.755 774.17C460.171 774.17 433.755 747.754 433.755 715.17C433.755 682.585 460.171 656.17 492.755 656.17C525.34 656.17 551.755 682.585 551.755 715.17Z" fill="url(#paint77_radial_23_2438)"/>
<path class="neuron_edge" d="M551.755 715.17C551.755 747.754 525.34 774.17 492.755 774.17C460.171 774.17 433.755 747.754 433.755 715.17C433.755 682.585 460.171 656.17 492.755 656.17C525.34 656.17 551.755 682.585 551.755 715.17Z" stroke="#1A1B27" stroke-width="18"/>
<path class="neuron_fill" d="M551.755 844.199C551.755 876.784 525.34 903.199 492.755 903.199C460.171 903.199 433.755 876.784 433.755 844.199C433.755 811.614 460.171 785.199 492.755 785.199C525.34 785.199 551.755 811.614 551.755 844.199Z" fill="#5606FF"/>
<path class="neuron_grad" d="M551.755 844.199C551.755 876.784 525.34 903.199 492.755 903.199C460.171 903.199 433.755 876.784 433.755 844.199C433.755 811.614 460.171 785.199 492.755 785.199C525.34 785.199 551.755 811.614 551.755 844.199Z" fill="url(#paint78_radial_23_2438)"/>
<path class="neuron_edge" d="M551.755 844.199C551.755 876.784 525.34 903.199 492.755 903.199C460.171 903.199 433.755 876.784 433.755 844.199C433.755 811.614 460.171 785.199 492.755 785.199C525.34 785.199 551.755 811.614 551.755 844.199Z" stroke="#1A1B27" stroke-width="18"/>
<path class="neuron_fill" d="M551.755 973.23C551.755 1005.81 525.34 1032.23 492.755 1032.23C460.171 1032.23 433.755 1005.81 433.755 973.23C433.755 940.645 460.171 914.23 492.755 914.23C525.34 914.23 551.755 940.645 551.755 973.23Z" fill="#5606FF"/>
<path class="neuron_grad" d="M551.755 973.23C551.755 1005.81 525.34 1032.23 492.755 1032.23C460.171 1032.23 433.755 1005.81 433.755 973.23C433.755 940.645 460.171 914.23 492.755 914.23C525.34 914.23 551.755 940.645 551.755 973.23Z" fill="url(#paint79_radial_23_2438)"/>
<path class="neuron_edge" d="M551.755 973.23C551.755 1005.81 525.34 1032.23 492.755 1032.23C460.171 1032.23 433.755 1005.81 433.755 973.23C433.755 940.645 460.171 914.23 492.755 914.23C525.34 914.23 551.755 940.645 551.755 973.23Z" stroke="#1A1B27" stroke-width="18"/>
<path class="neuron_fill" d="M155.385 68.7258C155.385 101.311 128.97 127.726 96.3848 127.726C63.8 127.726 37.3848 101.311 37.3848 68.7258C37.3848 36.141 63.8 9.72577 96.3848 9.72577C128.97 9.72577 155.385 36.141 155.385 68.7258Z" fill="#5606FF"/>
<path class="neuron_grad" d="M155.385 68.7258C155.385 101.311 128.97 127.726 96.3848 127.726C63.8 127.726 37.3848 101.311 37.3848 68.7258C37.3848 36.141 63.8 9.72577 96.3848 9.72577C128.97 9.72577 155.385 36.141 155.385 68.7258Z" fill="url(#paint80_radial_23_2438)"/>
<path class="neuron_edge" d="M155.385 68.7258C155.385 101.311 128.97 127.726 96.3848 127.726C63.8 127.726 37.3848 101.311 37.3848 68.7258C37.3848 36.141 63.8 9.72577 96.3848 9.72577C128.97 9.72577 155.385 36.141 155.385 68.7258Z" stroke="#1A1B27" stroke-width="18"/>
<path class="neuron_fill" d="M155.385 197.981C155.385 230.566 128.97 256.981 96.3848 256.981C63.8 256.981 37.3848 230.566 37.3848 197.981C37.3848 165.396 63.8 138.981 96.3848 138.981C128.97 138.981 155.385 165.396 155.385 197.981Z" fill="#5606FF"/>
<path class="neuron_grad" d="M155.385 197.981C155.385 230.566 128.97 256.981 96.3848 256.981C63.8 256.981 37.3848 230.566 37.3848 197.981C37.3848 165.396 63.8 138.981 96.3848 138.981C128.97 138.981 155.385 165.396 155.385 197.981Z" fill="url(#paint81_radial_23_2438)"/>
<path class="neuron_edge" d="M155.385 197.981C155.385 230.566 128.97 256.981 96.3848 256.981C63.8 256.981 37.3848 230.566 37.3848 197.981C37.3848 165.396 63.8 138.981 96.3848 138.981C128.97 138.981 155.385 165.396 155.385 197.981Z" stroke="#1A1B27" stroke-width="18"/>
<path class="neuron_fill" d="M155.385 327.236C155.385 359.82 128.97 386.236 96.3848 386.236C63.8 386.236 37.3848 359.82 37.3848 327.236C37.3848 294.651 63.8 268.236 96.3848 268.236C128.97 268.236 155.385 294.651 155.385 327.236Z" fill="#5606FF"/>
<path class="neuron_grad" d="M155.385 327.236C155.385 359.82 128.97 386.236 96.3848 386.236C63.8 386.236 37.3848 359.82 37.3848 327.236C37.3848 294.651 63.8 268.236 96.3848 268.236C128.97 268.236 155.385 294.651 155.385 327.236Z" fill="url(#paint82_radial_23_2438)"/>
<path class="neuron_edge" d="M155.385 327.236C155.385 359.82 128.97 386.236 96.3848 386.236C63.8 386.236 37.3848 359.82 37.3848 327.236C37.3848 294.651 63.8 268.236 96.3848 268.236C128.97 268.236 155.385 294.651 155.385 327.236Z" stroke="#1A1B27" stroke-width="18"/>
<path class="neuron_fill" d="M155.385 456.49C155.385 489.075 128.97 515.49 96.3848 515.49C63.8 515.49 37.3848 489.075 37.3848 456.49C37.3848 423.906 63.8 397.49 96.3848 397.49C128.97 397.49 155.385 423.906 155.385 456.49Z" fill="#5606FF"/>
<path class="neuron_grad" d="M155.385 456.49C155.385 489.075 128.97 515.49 96.3848 515.49C63.8 515.49 37.3848 489.075 37.3848 456.49C37.3848 423.906 63.8 397.49 96.3848 397.49C128.97 397.49 155.385 423.906 155.385 456.49Z" fill="url(#paint83_radial_23_2438)"/>
<path class="neuron_edge" d="M155.385 456.49C155.385 489.075 128.97 515.49 96.3848 515.49C63.8 515.49 37.3848 489.075 37.3848 456.49C37.3848 423.906 63.8 397.49 96.3848 397.49C128.97 397.49 155.385 423.906 155.385 456.49Z" stroke="#1A1B27" stroke-width="18"/>
<path class="neuron_fill" d="M155.385 585.915C155.385 618.499 128.97 644.915 96.3848 644.915C63.8 644.915 37.3848 618.499 37.3848 585.915C37.3848 553.33 63.8 526.915 96.3848 526.915C128.97 526.915 155.385 553.33 155.385 585.915Z" fill="#5606FF"/>
<path class="neuron_grad" d="M155.385 585.915C155.385 618.499 128.97 644.915 96.3848 644.915C63.8 644.915 37.3848 618.499 37.3848 585.915C37.3848 553.33 63.8 526.915 96.3848 526.915C128.97 526.915 155.385 553.33 155.385 585.915Z" fill="url(#paint84_radial_23_2438)"/>
<path class="neuron_edge" d="M155.385 585.915C155.385 618.499 128.97 644.915 96.3848 644.915C63.8 644.915 37.3848 618.499 37.3848 585.915C37.3848 553.33 63.8 526.915 96.3848 526.915C128.97 526.915 155.385 553.33 155.385 585.915Z" stroke="#1A1B27" stroke-width="18"/>
<path class="neuron_fill" d="M155.385 715.17C155.385 747.754 128.97 774.17 96.3848 774.17C63.8 774.17 37.3848 747.754 37.3848 715.17C37.3848 682.585 63.8 656.17 96.3848 656.17C128.97 656.17 155.385 682.585 155.385 715.17Z" fill="#5606FF"/>
<path class="neuron_grad" d="M155.385 715.17C155.385 747.754 128.97 774.17 96.3848 774.17C63.8 774.17 37.3848 747.754 37.3848 715.17C37.3848 682.585 63.8 656.17 96.3848 656.17C128.97 656.17 155.385 682.585 155.385 715.17Z" fill="url(#paint85_radial_23_2438)"/>
<path class="neuron_edge" d="M155.385 715.17C155.385 747.754 128.97 774.17 96.3848 774.17C63.8 774.17 37.3848 747.754 37.3848 715.17C37.3848 682.585 63.8 656.17 96.3848 656.17C128.97 656.17 155.385 682.585 155.385 715.17Z" stroke="#1A1B27" stroke-width="18"/>
<path class="neuron_fill" d="M155.385 844.199C155.385 876.784 128.97 903.199 96.3848 903.199C63.8 903.199 37.3848 876.784 37.3848 844.199C37.3848 811.614 63.8 785.199 96.3848 785.199C128.97 785.199 155.385 811.614 155.385 844.199Z" fill="#5606FF"/>
<path class="neuron_grad" d="M155.385 844.199C155.385 876.784 128.97 903.199 96.3848 903.199C63.8 903.199 37.3848 876.784 37.3848 844.199C37.3848 811.614 63.8 785.199 96.3848 785.199C128.97 785.199 155.385 811.614 155.385 844.199Z" fill="url(#paint86_radial_23_2438)"/>
<path class="neuron_edge" d="M155.385 844.199C155.385 876.784 128.97 903.199 96.3848 903.199C63.8 903.199 37.3848 876.784 37.3848 844.199C37.3848 811.614 63.8 785.199 96.3848 785.199C128.97 785.199 155.385 811.614 155.385 844.199Z" stroke="#1A1B27" stroke-width="18"/>
<path class="neuron_fill" d="M155.385 973.23C155.385 1005.81 128.97 1032.23 96.3848 1032.23C63.8 1032.23 37.3848 1005.81 37.3848 973.23C37.3848 940.645 63.8 914.23 96.3848 914.23C128.97 914.23 155.385 940.645 155.385 973.23Z" fill="#5606FF"/>
<path class="neuron_grad" d="M155.385 973.23C155.385 1005.81 128.97 1032.23 96.3848 1032.23C63.8 1032.23 37.3848 1005.81 37.3848 973.23C37.3848 940.645 63.8 914.23 96.3848 914.23C128.97 914.23 155.385 940.645 155.385 973.23Z" fill="url(#paint87_radial_23_2438)"/>
<path class="neuron_edge" d="M155.385 973.23C155.385 1005.81 128.97 1032.23 96.3848 1032.23C63.8 1032.23 37.3848 1005.81 37.3848 973.23C37.3848 940.645 63.8 914.23 96.3848 914.23C128.97 914.23 155.385 940.645 155.385 973.23Z" stroke="#1A1B27" stroke-width="18"/>
<defs>
<radialGradient id="paint0_radial_23_2438" cx="0" cy="0" r="1" gradientUnits="userSpaceOnUse" gradientTransform="translate(4037.58 50.4288) rotate(50.9743) scale(58.1679 59.9766)">
<stop stop-color="white" stop-opacity="0.61"/>
<stop offset="1" stop-color="#DCDCDC" stop-opacity="0.13"/>
</radialGradient>
<radialGradient id="paint1_radial_23_2438" cx="0" cy="0" r="1" gradientUnits="userSpaceOnUse" gradientTransform="translate(4037.58 179.684) rotate(50.9743) scale(58.1679 59.9766)">
<stop stop-color="white" stop-opacity="0.61"/>
<stop offset="1" stop-color="#DCDCDC" stop-opacity="0.13"/>
</radialGradient>
<radialGradient id="paint2_radial_23_2438" cx="0" cy="0" r="1" gradientUnits="userSpaceOnUse" gradientTransform="translate(4037.58 308.939) rotate(50.9743) scale(58.1679 59.9766)">
<stop stop-color="white" stop-opacity="0.61"/>
<stop offset="1" stop-color="#DCDCDC" stop-opacity="0.13"/>
</radialGradient>
<radialGradient id="paint3_radial_23_2438" cx="0" cy="0" r="1" gradientUnits="userSpaceOnUse" gradientTransform="translate(4037.58 438.193) rotate(50.9743) scale(58.1679 59.9766)">
<stop stop-color="white" stop-opacity="0.61"/>
<stop offset="1" stop-color="#DCDCDC" stop-opacity="0.13"/>
</radialGradient>
<radialGradient id="paint4_radial_23_2438" cx="0" cy="0" r="1" gradientUnits="userSpaceOnUse" gradientTransform="translate(4037.58 567.618) rotate(50.9743) scale(58.1679 59.9766)">
<stop stop-color="white" stop-opacity="0.61"/>
<stop offset="1" stop-color="#DCDCDC" stop-opacity="0.13"/>
</radialGradient>
<radialGradient id="paint5_radial_23_2438" cx="0" cy="0" r="1" gradientUnits="userSpaceOnUse" gradientTransform="translate(4037.58 696.873) rotate(50.9743) scale(58.1679 59.9766)">
<stop stop-color="white" stop-opacity="0.61"/>
<stop offset="1" stop-color="#DCDCDC" stop-opacity="0.13"/>
</radialGradient>
<radialGradient id="paint6_radial_23_2438" cx="0" cy="0" r="1" gradientUnits="userSpaceOnUse" gradientTransform="translate(4037.58 825.902) rotate(50.9743) scale(58.1679 59.9766)">
<stop stop-color="white" stop-opacity="0.61"/>
<stop offset="1" stop-color="#DCDCDC" stop-opacity="0.13"/>
</radialGradient>
<radialGradient id="paint7_radial_23_2438" cx="0" cy="0" r="1" gradientUnits="userSpaceOnUse" gradientTransform="translate(4037.58 954.932) rotate(50.9743) scale(58.1679 59.9766)">
<stop stop-color="white" stop-opacity="0.61"/>
<stop offset="1" stop-color="#DCDCDC" stop-opacity="0.13"/>
</radialGradient>
<radialGradient id="paint8_radial_23_2438" cx="0" cy="0" r="1" gradientUnits="userSpaceOnUse" gradientTransform="translate(3641.21 50.4288) rotate(50.9743) scale(58.1679 59.9766)">
<stop stop-color="white" stop-opacity="0.61"/>
<stop offset="1" stop-color="#DCDCDC" stop-opacity="0.13"/>
</radialGradient>
<radialGradient id="paint9_radial_23_2438" cx="0" cy="0" r="1" gradientUnits="userSpaceOnUse" gradientTransform="translate(3641.21 179.684) rotate(50.9743) scale(58.1679 59.9766)">
<stop stop-color="white" stop-opacity="0.61"/>
<stop offset="1" stop-color="#DCDCDC" stop-opacity="0.13"/>
</radialGradient>
<radialGradient id="paint10_radial_23_2438" cx="0" cy="0" r="1" gradientUnits="userSpaceOnUse" gradientTransform="translate(3641.21 308.939) rotate(50.9743) scale(58.1679 59.9766)">
<stop stop-color="white" stop-opacity="0.61"/>
<stop offset="1" stop-color="#DCDCDC" stop-opacity="0.13"/>
</radialGradient>
<radialGradient id="paint11_radial_23_2438" cx="0" cy="0" r="1" gradientUnits="userSpaceOnUse" gradientTransform="translate(3641.21 438.193) rotate(50.9743) scale(58.1679 59.9766)">
<stop stop-color="white" stop-opacity="0.61"/>
<stop offset="1" stop-color="#DCDCDC" stop-opacity="0.13"/>
</radialGradient>
<radialGradient id="paint12_radial_23_2438" cx="0" cy="0" r="1" gradientUnits="userSpaceOnUse" gradientTransform="translate(3641.21 567.618) rotate(50.9743) scale(58.1679 59.9766)">
<stop stop-color="white" stop-opacity="0.61"/>
<stop offset="1" stop-color="#DCDCDC" stop-opacity="0.13"/>
</radialGradient>
<radialGradient id="paint13_radial_23_2438" cx="0" cy="0" r="1" gradientUnits="userSpaceOnUse" gradientTransform="translate(3641.21 696.873) rotate(50.9743) scale(58.1679 59.9766)">
<stop stop-color="white" stop-opacity="0.61"/>
<stop offset="1" stop-color="#DCDCDC" stop-opacity="0.13"/>
</radialGradient>
<radialGradient id="paint14_radial_23_2438" cx="0" cy="0" r="1" gradientUnits="userSpaceOnUse" gradientTransform="translate(3641.21 825.902) rotate(50.9743) scale(58.1679 59.9766)">
<stop stop-color="white" stop-opacity="0.61"/>
<stop offset="1" stop-color="#DCDCDC" stop-opacity="0.13"/>
</radialGradient>
<radialGradient id="paint15_radial_23_2438" cx="0" cy="0" r="1" gradientUnits="userSpaceOnUse" gradientTransform="translate(3641.21 954.932) rotate(50.9743) scale(58.1679 59.9766)">
<stop stop-color="white" stop-opacity="0.61"/>
<stop offset="1" stop-color="#DCDCDC" stop-opacity="0.13"/>
</radialGradient>
<radialGradient id="paint16_radial_23_2438" cx="0" cy="0" r="1" gradientUnits="userSpaceOnUse" gradientTransform="translate(3244.84 50.4288) rotate(50.9743) scale(58.1679 59.9766)">
<stop stop-color="white" stop-opacity="0.61"/>
<stop offset="1" stop-color="#DCDCDC" stop-opacity="0.13"/>
</radialGradient>
<radialGradient id="paint17_radial_23_2438" cx="0" cy="0" r="1" gradientUnits="userSpaceOnUse" gradientTransform="translate(3244.84 179.684) rotate(50.9743) scale(58.1679 59.9766)">
<stop stop-color="white" stop-opacity="0.61"/>
<stop offset="1" stop-color="#DCDCDC" stop-opacity="0.13"/>
</radialGradient>
<radialGradient id="paint18_radial_23_2438" cx="0" cy="0" r="1" gradientUnits="userSpaceOnUse" gradientTransform="translate(3244.84 308.939) rotate(50.9743) scale(58.1679 59.9766)">
<stop stop-color="white" stop-opacity="0.61"/>
<stop offset="1" stop-color="#DCDCDC" stop-opacity="0.13"/>
</radialGradient>
<radialGradient id="paint19_radial_23_2438" cx="0" cy="0" r="1" gradientUnits="userSpaceOnUse" gradientTransform="translate(3244.84 438.193) rotate(50.9743) scale(58.1679 59.9766)">
<stop stop-color="white" stop-opacity="0.61"/>
<stop offset="1" stop-color="#DCDCDC" stop-opacity="0.13"/>
</radialGradient>
<radialGradient id="paint20_radial_23_2438" cx="0" cy="0" r="1" gradientUnits="userSpaceOnUse" gradientTransform="translate(3244.84 567.618) rotate(50.9743) scale(58.1679 59.9766)">
<stop stop-color="white" stop-opacity="0.61"/>
<stop offset="1" stop-color="#DCDCDC" stop-opacity="0.13"/>
</radialGradient>
<radialGradient id="paint21_radial_23_2438" cx="0" cy="0" r="1" gradientUnits="userSpaceOnUse" gradientTransform="translate(3244.84 696.873) rotate(50.9743) scale(58.1679 59.9766)">
<stop stop-color="white" stop-opacity="0.61"/>
<stop offset="1" stop-color="#DCDCDC" stop-opacity="0.13"/>
</radialGradient>
<radialGradient id="paint22_radial_23_2438" cx="0" cy="0" r="1" gradientUnits="userSpaceOnUse" gradientTransform="translate(3244.84 825.902) rotate(50.9743) scale(58.1679 59.9766)">
<stop stop-color="white" stop-opacity="0.61"/>
<stop offset="1" stop-color="#DCDCDC" stop-opacity="0.13"/>
</radialGradient>
<radialGradient id="paint23_radial_23_2438" cx="0" cy="0" r="1" gradientUnits="userSpaceOnUse" gradientTransform="translate(3244.84 954.933) rotate(50.9743) scale(58.1679 59.9766)">
<stop stop-color="white" stop-opacity="0.61"/>
<stop offset="1" stop-color="#DCDCDC" stop-opacity="0.13"/>
</radialGradient>
<radialGradient id="paint24_radial_23_2438" cx="0" cy="0" r="1" gradientUnits="userSpaceOnUse" gradientTransform="translate(2848.47 50.4288) rotate(50.9743) scale(58.1679 59.9766)">
<stop stop-color="white" stop-opacity="0.61"/>
<stop offset="1" stop-color="#DCDCDC" stop-opacity="0.13"/>
</radialGradient>
<radialGradient id="paint25_radial_23_2438" cx="0" cy="0" r="1" gradientUnits="userSpaceOnUse" gradientTransform="translate(2848.47 179.684) rotate(50.9743) scale(58.1679 59.9766)">
<stop stop-color="white" stop-opacity="0.61"/>
<stop offset="1" stop-color="#DCDCDC" stop-opacity="0.13"/>
</radialGradient>
<radialGradient id="paint26_radial_23_2438" cx="0" cy="0" r="1" gradientUnits="userSpaceOnUse" gradientTransform="translate(2848.47 308.939) rotate(50.9743) scale(58.1679 59.9766)">
<stop stop-color="white" stop-opacity="0.61"/>
<stop offset="1" stop-color="#DCDCDC" stop-opacity="0.13"/>
</radialGradient>
<radialGradient id="paint27_radial_23_2438" cx="0" cy="0" r="1" gradientUnits="userSpaceOnUse" gradientTransform="translate(2848.47 438.193) rotate(50.9743) scale(58.1679 59.9766)">
<stop stop-color="white" stop-opacity="0.61"/>
<stop offset="1" stop-color="#DCDCDC" stop-opacity="0.13"/>
</radialGradient>
<radialGradient id="paint28_radial_23_2438" cx="0" cy="0" r="1" gradientUnits="userSpaceOnUse" gradientTransform="translate(2848.47 567.618) rotate(50.9743) scale(58.1679 59.9766)">
<stop stop-color="white" stop-opacity="0.61"/>
<stop offset="1" stop-color="#DCDCDC" stop-opacity="0.13"/>
</radialGradient>
<radialGradient id="paint29_radial_23_2438" cx="0" cy="0" r="1" gradientUnits="userSpaceOnUse" gradientTransform="translate(2848.47 696.873) rotate(50.9743) scale(58.1679 59.9766)">
<stop stop-color="white" stop-opacity="0.61"/>
<stop offset="1" stop-color="#DCDCDC" stop-opacity="0.13"/>
</radialGradient>
<radialGradient id="paint30_radial_23_2438" cx="0" cy="0" r="1" gradientUnits="userSpaceOnUse" gradientTransform="translate(2848.47 825.902) rotate(50.9743) scale(58.1679 59.9766)">
<stop stop-color="white" stop-opacity="0.61"/>
<stop offset="1" stop-color="#DCDCDC" stop-opacity="0.13"/>
</radialGradient>
<radialGradient id="paint31_radial_23_2438" cx="0" cy="0" r="1" gradientUnits="userSpaceOnUse" gradientTransform="translate(2848.47 954.933) rotate(50.9743) scale(58.1679 59.9766)">
<stop stop-color="white" stop-opacity="0.61"/>
<stop offset="1" stop-color="#DCDCDC" stop-opacity="0.13"/>
</radialGradient>
<radialGradient id="paint32_radial_23_2438" cx="0" cy="0" r="1" gradientUnits="userSpaceOnUse" gradientTransform="translate(2452.1 50.4288) rotate(50.9743) scale(58.1679 59.9766)">
<stop stop-color="white" stop-opacity="0.61"/>
<stop offset="1" stop-color="#DCDCDC" stop-opacity="0.13"/>
</radialGradient>
<radialGradient id="paint33_radial_23_2438" cx="0" cy="0" r="1" gradientUnits="userSpaceOnUse" gradientTransform="translate(2452.1 179.684) rotate(50.9743) scale(58.1679 59.9766)">
<stop stop-color="white" stop-opacity="0.61"/>
<stop offset="1" stop-color="#DCDCDC" stop-opacity="0.13"/>
</radialGradient>
<radialGradient id="paint34_radial_23_2438" cx="0" cy="0" r="1" gradientUnits="userSpaceOnUse" gradientTransform="translate(2452.1 308.939) rotate(50.9743) scale(58.1679 59.9766)">
<stop stop-color="white" stop-opacity="0.61"/>
<stop offset="1" stop-color="#DCDCDC" stop-opacity="0.13"/>
</radialGradient>
<radialGradient id="paint35_radial_23_2438" cx="0" cy="0" r="1" gradientUnits="userSpaceOnUse" gradientTransform="translate(2452.1 438.193) rotate(50.9743) scale(58.1679 59.9766)">
<stop stop-color="white" stop-opacity="0.61"/>
<stop offset="1" stop-color="#DCDCDC" stop-opacity="0.13"/>
</radialGradient>
<radialGradient id="paint36_radial_23_2438" cx="0" cy="0" r="1" gradientUnits="userSpaceOnUse" gradientTransform="translate(2452.1 567.618) rotate(50.9743) scale(58.1679 59.9766)">
<stop stop-color="white" stop-opacity="0.61"/>
<stop offset="1" stop-color="#DCDCDC" stop-opacity="0.13"/>
</radialGradient>
<radialGradient id="paint37_radial_23_2438" cx="0" cy="0" r="1" gradientUnits="userSpaceOnUse" gradientTransform="translate(2452.1 696.873) rotate(50.9743) scale(58.1679 59.9766)">
<stop stop-color="white" stop-opacity="0.61"/>
<stop offset="1" stop-color="#DCDCDC" stop-opacity="0.13"/>
</radialGradient>
<radialGradient id="paint38_radial_23_2438" cx="0" cy="0" r="1" gradientUnits="userSpaceOnUse" gradientTransform="translate(2452.1 825.902) rotate(50.9743) scale(58.1679 59.9766)">
<stop stop-color="white" stop-opacity="0.61"/>
<stop offset="1" stop-color="#DCDCDC" stop-opacity="0.13"/>
</radialGradient>
<radialGradient id="paint39_radial_23_2438" cx="0" cy="0" r="1" gradientUnits="userSpaceOnUse" gradientTransform="translate(2452.1 954.933) rotate(50.9743) scale(58.1679 59.9766)">
<stop stop-color="white" stop-opacity="0.61"/>
<stop offset="1" stop-color="#DCDCDC" stop-opacity="0.13"/>
</radialGradient>
<radialGradient id="paint40_radial_23_2438" cx="0" cy="0" r="1" gradientUnits="userSpaceOnUse" gradientTransform="translate(2055.73 50.4288) rotate(50.9743) scale(58.1679 59.9766)">
<stop stop-color="white" stop-opacity="0.61"/>
<stop offset="1" stop-color="#DCDCDC" stop-opacity="0.13"/>
</radialGradient>
<radialGradient id="paint41_radial_23_2438" cx="0" cy="0" r="1" gradientUnits="userSpaceOnUse" gradientTransform="translate(2055.73 179.684) rotate(50.9743) scale(58.1679 59.9766)">
<stop stop-color="white" stop-opacity="0.61"/>
<stop offset="1" stop-color="#DCDCDC" stop-opacity="0.13"/>
</radialGradient>
<radialGradient id="paint42_radial_23_2438" cx="0" cy="0" r="1" gradientUnits="userSpaceOnUse" gradientTransform="translate(2055.73 308.939) rotate(50.9743) scale(58.1679 59.9766)">
<stop stop-color="white" stop-opacity="0.61"/>
<stop offset="1" stop-color="#DCDCDC" stop-opacity="0.13"/>
</radialGradient>
<radialGradient id="paint43_radial_23_2438" cx="0" cy="0" r="1" gradientUnits="userSpaceOnUse" gradientTransform="translate(2055.73 438.193) rotate(50.9743) scale(58.1679 59.9766)">
<stop stop-color="white" stop-opacity="0.61"/>
<stop offset="1" stop-color="#DCDCDC" stop-opacity="0.13"/>
</radialGradient>
<radialGradient id="paint44_radial_23_2438" cx="0" cy="0" r="1" gradientUnits="userSpaceOnUse" gradientTransform="translate(2055.73 567.618) rotate(50.9743) scale(58.1679 59.9766)">
<stop stop-color="white" stop-opacity="0.61"/>
<stop offset="1" stop-color="#DCDCDC" stop-opacity="0.13"/>
</radialGradient>
<radialGradient id="paint45_radial_23_2438" cx="0" cy="0" r="1" gradientUnits="userSpaceOnUse" gradientTransform="translate(2055.73 696.873) rotate(50.9743) scale(58.1679 59.9766)">
<stop stop-color="white" stop-opacity="0.61"/>
<stop offset="1" stop-color="#DCDCDC" stop-opacity="0.13"/>
</radialGradient>
<radialGradient id="paint46_radial_23_2438" cx="0" cy="0" r="1" gradientUnits="userSpaceOnUse" gradientTransform="translate(2055.73 825.902) rotate(50.9743) scale(58.1679 59.9766)">
<stop stop-color="white" stop-opacity="0.61"/>
<stop offset="1" stop-color="#DCDCDC" stop-opacity="0.13"/>
</radialGradient>
<radialGradient id="paint47_radial_23_2438" cx="0" cy="0" r="1" gradientUnits="userSpaceOnUse" gradientTransform="translate(2055.73 954.933) rotate(50.9743) scale(58.1679 59.9766)">
<stop stop-color="white" stop-opacity="0.61"/>
<stop offset="1" stop-color="#DCDCDC" stop-opacity="0.13"/>
</radialGradient>
<radialGradient id="paint48_radial_23_2438" cx="0" cy="0" r="1" gradientUnits="userSpaceOnUse" gradientTransform="translate(1659.36 50.4288) rotate(50.9743) scale(58.1679 59.9766)">
<stop stop-color="white" stop-opacity="0.61"/>
<stop offset="1" stop-color="#DCDCDC" stop-opacity="0.13"/>
</radialGradient>
<radialGradient id="paint49_radial_23_2438" cx="0" cy="0" r="1" gradientUnits="userSpaceOnUse" gradientTransform="translate(1659.36 179.684) rotate(50.9743) scale(58.1679 59.9766)">
<stop stop-color="white" stop-opacity="0.61"/>
<stop offset="1" stop-color="#DCDCDC" stop-opacity="0.13"/>
</radialGradient>
<radialGradient id="paint50_radial_23_2438" cx="0" cy="0" r="1" gradientUnits="userSpaceOnUse" gradientTransform="translate(1659.36 308.939) rotate(50.9743) scale(58.1679 59.9766)">
<stop stop-color="white" stop-opacity="0.61"/>
<stop offset="1" stop-color="#DCDCDC" stop-opacity="0.13"/>
</radialGradient>
<radialGradient id="paint51_radial_23_2438" cx="0" cy="0" r="1" gradientUnits="userSpaceOnUse" gradientTransform="translate(1659.36 438.193) rotate(50.9743) scale(58.1679 59.9766)">
<stop stop-color="white" stop-opacity="0.61"/>
<stop offset="1" stop-color="#DCDCDC" stop-opacity="0.13"/>
</radialGradient>
<radialGradient id="paint52_radial_23_2438" cx="0" cy="0" r="1" gradientUnits="userSpaceOnUse" gradientTransform="translate(1659.36 567.618) rotate(50.9743) scale(58.1679 59.9766)">
<stop stop-color="white" stop-opacity="0.61"/>
<stop offset="1" stop-color="#DCDCDC" stop-opacity="0.13"/>
</radialGradient>
<radialGradient id="paint53_radial_23_2438" cx="0" cy="0" r="1" gradientUnits="userSpaceOnUse" gradientTransform="translate(1659.36 696.873) rotate(50.9743) scale(58.1679 59.9766)">
<stop stop-color="white" stop-opacity="0.61"/>
<stop offset="1" stop-color="#DCDCDC" stop-opacity="0.13"/>
</radialGradient>
<radialGradient id="paint54_radial_23_2438" cx="0" cy="0" r="1" gradientUnits="userSpaceOnUse" gradientTransform="translate(1659.36 825.902) rotate(50.9743) scale(58.1679 59.9766)">
<stop stop-color="white" stop-opacity="0.61"/>
<stop offset="1" stop-color="#DCDCDC" stop-opacity="0.13"/>
</radialGradient>
<radialGradient id="paint55_radial_23_2438" cx="0" cy="0" r="1" gradientUnits="userSpaceOnUse" gradientTransform="translate(1659.36 954.933) rotate(50.9743) scale(58.1679 59.9766)">
<stop stop-color="white" stop-opacity="0.61"/>
<stop offset="1" stop-color="#DCDCDC" stop-opacity="0.13"/>
</radialGradient>
<radialGradient id="paint56_radial_23_2438" cx="0" cy="0" r="1" gradientUnits="userSpaceOnUse" gradientTransform="translate(1262.99 50.4288) rotate(50.9743) scale(58.1679 59.9766)">
<stop stop-color="white" stop-opacity="0.61"/>
<stop offset="1" stop-color="#DCDCDC" stop-opacity="0.13"/>
</radialGradient>
<radialGradient id="paint57_radial_23_2438" cx="0" cy="0" r="1" gradientUnits="userSpaceOnUse" gradientTransform="translate(1262.99 179.684) rotate(50.9743) scale(58.1679 59.9766)">
<stop stop-color="white" stop-opacity="0.61"/>
<stop offset="1" stop-color="#DCDCDC" stop-opacity="0.13"/>
</radialGradient>
<radialGradient id="paint58_radial_23_2438" cx="0" cy="0" r="1" gradientUnits="userSpaceOnUse" gradientTransform="translate(1262.99 308.939) rotate(50.9743) scale(58.1679 59.9766)">
<stop stop-color="white" stop-opacity="0.61"/>
<stop offset="1" stop-color="#DCDCDC" stop-opacity="0.13"/>
</radialGradient>
<radialGradient id="paint59_radial_23_2438" cx="0" cy="0" r="1" gradientUnits="userSpaceOnUse" gradientTransform="translate(1262.99 438.193) rotate(50.9743) scale(58.1679 59.9766)">
<stop stop-color="white" stop-opacity="0.61"/>
<stop offset="1" stop-color="#DCDCDC" stop-opacity="0.13"/>
</radialGradient>
<radialGradient id="paint60_radial_23_2438" cx="0" cy="0" r="1" gradientUnits="userSpaceOnUse" gradientTransform="translate(1262.99 567.618) rotate(50.9743) scale(58.1679 59.9766)">
<stop stop-color="white" stop-opacity="0.61"/>
<stop offset="1" stop-color="#DCDCDC" stop-opacity="0.13"/>
</radialGradient>
<radialGradient id="paint61_radial_23_2438" cx="0" cy="0" r="1" gradientUnits="userSpaceOnUse" gradientTransform="translate(1262.99 696.873) rotate(50.9743) scale(58.1679 59.9766)">
<stop stop-color="white" stop-opacity="0.61"/>
<stop offset="1" stop-color="#DCDCDC" stop-opacity="0.13"/>
</radialGradient>
<radialGradient id="paint62_radial_23_2438" cx="0" cy="0" r="1" gradientUnits="userSpaceOnUse" gradientTransform="translate(1262.99 825.902) rotate(50.9743) scale(58.1679 59.9766)">
<stop stop-color="white" stop-opacity="0.61"/>
<stop offset="1" stop-color="#DCDCDC" stop-opacity="0.13"/>
</radialGradient>
<radialGradient id="paint63_radial_23_2438" cx="0" cy="0" r="1" gradientUnits="userSpaceOnUse" gradientTransform="translate(1262.99 954.933) rotate(50.9743) scale(58.1679 59.9766)">
<stop stop-color="white" stop-opacity="0.61"/>
<stop offset="1" stop-color="#DCDCDC" stop-opacity="0.13"/>
</radialGradient>
<radialGradient id="paint64_radial_23_2438" cx="0" cy="0" r="1" gradientUnits="userSpaceOnUse" gradientTransform="translate(866.616 50.4288) rotate(50.9743) scale(58.1679 59.9766)">
<stop stop-color="white" stop-opacity="0.61"/>
<stop offset="1" stop-color="#DCDCDC" stop-opacity="0.13"/>
</radialGradient>
<radialGradient id="paint65_radial_23_2438" cx="0" cy="0" r="1" gradientUnits="userSpaceOnUse" gradientTransform="translate(866.616 179.684) rotate(50.9743) scale(58.1679 59.9766)">
<stop stop-color="white" stop-opacity="0.61"/>
<stop offset="1" stop-color="#DCDCDC" stop-opacity="0.13"/>
</radialGradient>
<radialGradient id="paint66_radial_23_2438" cx="0" cy="0" r="1" gradientUnits="userSpaceOnUse" gradientTransform="translate(866.616 308.939) rotate(50.9743) scale(58.1679 59.9766)">
<stop stop-color="white" stop-opacity="0.61"/>
<stop offset="1" stop-color="#DCDCDC" stop-opacity="0.13"/>
</radialGradient>
<radialGradient id="paint67_radial_23_2438" cx="0" cy="0" r="1" gradientUnits="userSpaceOnUse" gradientTransform="translate(866.616 438.193) rotate(50.9743) scale(58.1679 59.9766)">
<stop stop-color="white" stop-opacity="0.61"/>
<stop offset="1" stop-color="#DCDCDC" stop-opacity="0.13"/>
</radialGradient>
<radialGradient id="paint68_radial_23_2438" cx="0" cy="0" r="1" gradientUnits="userSpaceOnUse" gradientTransform="translate(866.616 567.618) rotate(50.9743) scale(58.1679 59.9766)">
<stop stop-color="white" stop-opacity="0.61"/>
<stop offset="1" stop-color="#DCDCDC" stop-opacity="0.13"/>
</radialGradient>
<radialGradient id="paint69_radial_23_2438" cx="0" cy="0" r="1" gradientUnits="userSpaceOnUse" gradientTransform="translate(866.616 696.873) rotate(50.9743) scale(58.1679 59.9766)">
<stop stop-color="white" stop-opacity="0.61"/>
<stop offset="1" stop-color="#DCDCDC" stop-opacity="0.13"/>
</radialGradient>
<radialGradient id="paint70_radial_23_2438" cx="0" cy="0" r="1" gradientUnits="userSpaceOnUse" gradientTransform="translate(866.616 825.902) rotate(50.9743) scale(58.1679 59.9766)">
<stop stop-color="white" stop-opacity="0.61"/>
<stop offset="1" stop-color="#DCDCDC" stop-opacity="0.13"/>
</radialGradient>
<radialGradient id="paint71_radial_23_2438" cx="0" cy="0" r="1" gradientUnits="userSpaceOnUse" gradientTransform="translate(866.616 954.933) rotate(50.9743) scale(58.1679 59.9766)">
<stop stop-color="white" stop-opacity="0.61"/>
<stop offset="1" stop-color="#DCDCDC" stop-opacity="0.13"/>
</radialGradient>
<radialGradient id="paint72_radial_23_2438" cx="0" cy="0" r="1" gradientUnits="userSpaceOnUse" gradientTransform="translate(470.246 50.4288) rotate(50.9743) scale(58.1679 59.9766)">
<stop stop-color="white" stop-opacity="0.61"/>
<stop offset="1" stop-color="#DCDCDC" stop-opacity="0.13"/>
</radialGradient>
<radialGradient id="paint73_radial_23_2438" cx="0" cy="0" r="1" gradientUnits="userSpaceOnUse" gradientTransform="translate(470.246 179.684) rotate(50.9743) scale(58.1679 59.9766)">
<stop stop-color="white" stop-opacity="0.61"/>
<stop offset="1" stop-color="#DCDCDC" stop-opacity="0.13"/>
</radialGradient>
<radialGradient id="paint74_radial_23_2438" cx="0" cy="0" r="1" gradientUnits="userSpaceOnUse" gradientTransform="translate(470.246 308.939) rotate(50.9743) scale(58.1679 59.9766)">
<stop stop-color="white" stop-opacity="0.61"/>
<stop offset="1" stop-color="#DCDCDC" stop-opacity="0.13"/>
</radialGradient>
<radialGradient id="paint75_radial_23_2438" cx="0" cy="0" r="1" gradientUnits="userSpaceOnUse" gradientTransform="translate(470.246 438.193) rotate(50.9743) scale(58.1679 59.9766)">
<stop stop-color="white" stop-opacity="0.61"/>
<stop offset="1" stop-color="#DCDCDC" stop-opacity="0.13"/>
</radialGradient>
<radialGradient id="paint76_radial_23_2438" cx="0" cy="0" r="1" gradientUnits="userSpaceOnUse" gradientTransform="translate(470.246 567.618) rotate(50.9743) scale(58.1679 59.9766)">
<stop stop-color="white" stop-opacity="0.61"/>
<stop offset="1" stop-color="#DCDCDC" stop-opacity="0.13"/>
</radialGradient>
<radialGradient id="paint77_radial_23_2438" cx="0" cy="0" r="1" gradientUnits="userSpaceOnUse" gradientTransform="translate(470.246 696.873) rotate(50.9743) scale(58.1679 59.9766)">
<stop stop-color="white" stop-opacity="0.61"/>
<stop offset="1" stop-color="#DCDCDC" stop-opacity="0.13"/>
</radialGradient>
<radialGradient id="paint78_radial_23_2438" cx="0" cy="0" r="1" gradientUnits="userSpaceOnUse" gradientTransform="translate(470.246 825.902) rotate(50.9743) scale(58.1679 59.9766)">
<stop stop-color="white" stop-opacity="0.61"/>
<stop offset="1" stop-color="#DCDCDC" stop-opacity="0.13"/>
</radialGradient>
<radialGradient id="paint79_radial_23_2438" cx="0" cy="0" r="1" gradientUnits="userSpaceOnUse" gradientTransform="translate(470.246 954.933) rotate(50.9743) scale(58.1679 59.9766)">
<stop stop-color="white" stop-opacity="0.61"/>
<stop offset="1" stop-color="#DCDCDC" stop-opacity="0.13"/>
</radialGradient>
<radialGradient id="paint80_radial_23_2438" cx="0" cy="0" r="1" gradientUnits="userSpaceOnUse" gradientTransform="translate(73.8751 50.4288) rotate(50.9743) scale(58.1679 59.9766)">
<stop stop-color="white" stop-opacity="0.61"/>
<stop offset="1" stop-color="#DCDCDC" stop-opacity="0.13"/>
</radialGradient>
<radialGradient id="paint81_radial_23_2438" cx="0" cy="0" r="1" gradientUnits="userSpaceOnUse" gradientTransform="translate(73.8751 179.684) rotate(50.9743) scale(58.1679 59.9766)">
<stop stop-color="white" stop-opacity="0.61"/>
<stop offset="1" stop-color="#DCDCDC" stop-opacity="0.13"/>
</radialGradient>
<radialGradient id="paint82_radial_23_2438" cx="0" cy="0" r="1" gradientUnits="userSpaceOnUse" gradientTransform="translate(73.8751 308.939) rotate(50.9743) scale(58.1679 59.9766)">
<stop stop-color="white" stop-opacity="0.61"/>
<stop offset="1" stop-color="#DCDCDC" stop-opacity="0.13"/>
</radialGradient>
<radialGradient id="paint83_radial_23_2438" cx="0" cy="0" r="1" gradientUnits="userSpaceOnUse" gradientTransform="translate(73.8751 438.193) rotate(50.9743) scale(58.1679 59.9766)">
<stop stop-color="white" stop-opacity="0.61"/>
<stop offset="1" stop-color="#DCDCDC" stop-opacity="0.13"/>
</radialGradient>
<radialGradient id="paint84_radial_23_2438" cx="0" cy="0" r="1" gradientUnits="userSpaceOnUse" gradientTransform="translate(73.8751 567.618) rotate(50.9743) scale(58.1679 59.9766)">
<stop stop-color="white" stop-opacity="0.61"/>
<stop offset="1" stop-color="#DCDCDC" stop-opacity="0.13"/>
</radialGradient>
<radialGradient id="paint85_radial_23_2438" cx="0" cy="0" r="1" gradientUnits="userSpaceOnUse" gradientTransform="translate(73.8751 696.873) rotate(50.9743) scale(58.1679 59.9766)">
<stop stop-color="white" stop-opacity="0.61"/>
<stop offset="1" stop-color="#DCDCDC" stop-opacity="0.13"/>
</radialGradient>
<radialGradient id="paint86_radial_23_2438" cx="0" cy="0" r="1" gradientUnits="userSpaceOnUse" gradientTransform="translate(73.8751 825.902) rotate(50.9743) scale(58.1679 59.9766)">
<stop stop-color="white" stop-opacity="0.61"/>
<stop offset="1" stop-color="#DCDCDC" stop-opacity="0.13"/>
</radialGradient>
<radialGradient id="paint87_radial_23_2438" cx="0" cy="0" r="1" gradientUnits="userSpaceOnUse" gradientTransform="translate(73.8751 954.933) rotate(50.9743) scale(58.1679 59.9766)">
<stop stop-color="white" stop-opacity="0.61"/>
<stop offset="1" stop-color="#DCDCDC" stop-opacity="0.13"/>
</radialGradient>
</defs>
</svg>
