<svg id="butterflysvg" width="1459" height="1006" viewBox="0 0 1459 1006" fill="none" xmlns="http://www.w3.org/2000/svg">
<path d="M207.667 804.758C333.616 804.758 357.732 804.758 473.182 804.758" stroke="#A2E3DC" stroke-width="8.63773" stroke-linecap="round"/>
<path d="M207.667 848.334C323.117 848.334 347.233 934.069 473.182 934.069" stroke="#A2E3DC" stroke-width="8.63773" stroke-linecap="round"/>
<path d="M473.182 976.748C357.732 976.748 333.616 976.748 207.667 976.748" stroke="#A2E3C4" stroke-width="8.63773" stroke-linecap="round"/>
<path d="M473.182 848.334C347.233 848.334 323.117 934.069 207.667 934.069" stroke="#A2E3C4" stroke-width="8.63773" stroke-linecap="round"/>
<path d="M207.667 546.047C333.616 546.047 357.732 546.047 473.182 546.047" stroke="#C1DAFF" stroke-width="8.63773" stroke-linecap="round"/>
<path d="M207.667 589.623C323.117 589.623 347.233 675.358 473.182 675.358" stroke="#C1DAFF" stroke-width="8.63773" stroke-linecap="round"/>
<path d="M473.182 718.037C357.732 718.037 333.616 718.036 207.667 718.036" stroke="#BEE6EF" stroke-width="8.63773" stroke-linecap="round"/>
<path d="M473.182 589.623C347.233 589.623 323.117 675.358 207.667 675.358" stroke="#BEE6EF" stroke-width="8.63773" stroke-linecap="round"/>
<path d="M207.667 287.602C333.616 287.602 357.732 287.602 473.182 287.602" stroke="#CAC1FF" stroke-width="8.63773" stroke-linecap="round"/>
<path d="M207.667 331.178C323.117 331.178 347.233 417.765 473.182 417.765" stroke="#CAC1FF" stroke-width="8.63773" stroke-linecap="round"/>
<path d="M473.182 459.592C357.732 459.592 333.616 459.592 207.667 459.592" stroke="#C1CBFF" stroke-width="8.63773" stroke-linecap="round"/>
<path d="M473.182 331.179C347.233 331.179 323.117 417.764 207.667 417.764" stroke="#C1CBFF" stroke-width="8.63773" stroke-linecap="round"/>
<path d="M207.667 28.8912C333.616 28.8912 357.732 28.8907 473.182 28.8912" stroke="#E4C1FF" stroke-width="8.63773" stroke-linecap="round"/>
<path d="M207.667 72.4669C323.117 72.4669 347.233 158.202 473.182 158.202" stroke="#E4C1FF" stroke-width="8.63773" stroke-linecap="round"/>
<path d="M473.182 200.881C357.732 200.881 333.616 200.881 207.667 200.881" stroke="#D8C1FF" stroke-width="8.63773" stroke-linecap="round"/>
<path d="M473.182 72.4673C347.233 72.4673 323.117 158.203 207.667 158.203" stroke="#D8C1FF" stroke-width="8.63773" stroke-linecap="round"/>
<path d="M4.32153 804.758C28.0935 804.758 32.6452 804.758 54.4357 804.758" stroke="#A2E3DC" stroke-width="8.63773" stroke-linecap="round"/>
<path d="M4.32153 848.334C28.0935 848.334 32.6452 848.333 54.4357 848.334" stroke="#A2E3DC" stroke-width="8.63773" stroke-linecap="round"/>
<path d="M54.4357 976.748C32.6453 976.748 28.0935 976.748 4.32153 976.748" stroke="#A2E3C4" stroke-width="8.63773" stroke-linecap="round"/>
<path d="M54.4357 934.069C32.6453 934.069 28.0935 934.069 4.32153 934.069" stroke="#A2E3C4" stroke-width="8.63773" stroke-linecap="round"/>
<path d="M4.32153 546.047C28.0935 546.047 32.6452 546.047 54.4357 546.047" stroke="#C1DAFF" stroke-width="8.63773" stroke-linecap="round"/>
<path d="M4.32153 589.623C28.0935 589.623 32.6452 589.623 54.4357 589.623" stroke="#C1DAFF" stroke-width="8.63773" stroke-linecap="round"/>
<path d="M54.4357 718.037C32.6453 718.037 28.0935 718.036 4.32153 718.036" stroke="#BEE6EF" stroke-width="8.63773" stroke-linecap="round"/>
<path d="M54.4357 675.358C32.6453 675.358 28.0935 675.358 4.32153 675.358" stroke="#BEE6EF" stroke-width="8.63773" stroke-linecap="round"/>
<path d="M4.32153 287.602C28.0935 287.602 32.6452 287.602 54.4357 287.602" stroke="#CAC1FF" stroke-width="8.63773" stroke-linecap="round"/>
<path d="M4.32153 331.179C28.0935 331.179 32.6452 331.179 54.4357 331.179" stroke="#CAC1FF" stroke-width="8.63773" stroke-linecap="round"/>
<path d="M54.4357 459.592C32.6453 459.592 28.0935 459.592 4.32153 459.592" stroke="#C1CBFF" stroke-width="8.63773" stroke-linecap="round"/>
<path d="M54.4357 417.764C32.6453 417.765 28.0935 417.764 4.32153 417.764" stroke="#C1CBFF" stroke-width="8.63773" stroke-linecap="round"/>
<path d="M4.32153 28.8912C28.0935 28.8912 32.6452 28.8907 54.4357 28.8912" stroke="#E4C1FF" stroke-width="8.63773" stroke-linecap="round"/>
<path d="M55.9941 28.8912C79.7661 28.8912 185.117 28.8907 206.907 28.8912" stroke="#E4C1FF" stroke-width="8.63773" stroke-linecap="round"/>
<path d="M55.9941 72.4674C79.7661 72.4674 185.117 72.4669 206.907 72.4674" stroke="#E4C1FF" stroke-width="8.63773" stroke-linecap="round"/>
<path d="M55.9941 158.202C79.7661 158.202 185.117 158.201 206.907 158.202" stroke="#D8C1FF" stroke-width="8.63773" stroke-linecap="round"/>
<path d="M55.5948 200.881C79.3668 200.881 184.717 200.881 206.508 200.881" stroke="#D8C1FF" stroke-width="8.63773" stroke-linecap="round"/>
<path d="M55.5948 287.603C79.3668 287.603 184.717 287.602 206.508 287.602" stroke="#CAC1FF" stroke-width="8.63773" stroke-linecap="round"/>
<path d="M55.5948 331.179C79.3668 331.179 184.717 331.178 206.508 331.179" stroke="#CAC1FF" stroke-width="8.63773" stroke-linecap="round"/>
<path d="M55.5948 417.765C79.3668 417.765 184.717 417.764 206.508 417.765" stroke="#C1CBFF" stroke-width="8.63773" stroke-linecap="round"/>
<path d="M55.5948 459.592C79.3668 459.592 184.717 459.591 206.508 459.592" stroke="#C1CBFF" stroke-width="8.63773" stroke-linecap="round"/>
<path d="M55.5948 546.047C79.3668 546.047 184.717 546.047 206.508 546.047" stroke="#C1DAFF" stroke-width="8.63773" stroke-linecap="round"/>
<path d="M55.5948 589.623C79.3668 589.623 184.717 589.623 206.508 589.623" stroke="#C1DAFF" stroke-width="8.63773" stroke-linecap="round"/>
<path d="M55.5948 675.358C79.3668 675.358 184.717 675.357 206.508 675.358" stroke="#BEE6EF" stroke-width="8.63773" stroke-linecap="round"/>
<path d="M55.5948 718.036C79.3668 718.036 184.717 718.036 206.508 718.036" stroke="#BEE6EF" stroke-width="8.63773" stroke-linecap="round"/>
<path d="M55.5948 804.758C79.3668 804.758 184.717 804.757 206.508 804.758" stroke="#A2E3DC" stroke-width="8.63773" stroke-linecap="round"/>
<path d="M55.5948 848.334C79.3668 848.334 184.717 848.334 206.508 848.334" stroke="#A2E3DC" stroke-width="8.63773" stroke-linecap="round"/>
<path d="M55.5948 934.069C79.3668 934.069 184.717 934.069 206.508 934.069" stroke="#A2E3C4" stroke-width="8.63773" stroke-linecap="round"/>
<path d="M55.5948 976.748C79.3668 976.748 184.717 976.747 206.508 976.748" stroke="#A2E3C4" stroke-width="8.63773" stroke-linecap="round"/>
<path d="M473.533 28.8912C494.433 28.8912 587.055 28.8907 606.213 28.8912" stroke="#E4C1FF" stroke-width="8.63773" stroke-linecap="round"/>
<path d="M473.533 72.4674C494.433 72.4674 587.055 72.4669 606.213 72.4674" stroke="url(#paint0_linear_10_597)" stroke-width="8.63773" stroke-linecap="round"/>
<path d="M473.533 158.202C494.433 158.202 587.055 158.201 606.213 158.202" stroke="url(#paint1_linear_10_597)" stroke-width="8.63773" stroke-linecap="round"/>
<path d="M473.182 200.881C494.082 200.881 586.704 200.881 605.862 200.881" stroke="#D8C1FF" stroke-width="8.63773" stroke-linecap="round"/>
<path d="M473.182 287.603C494.082 287.603 586.704 287.602 605.862 287.602" stroke="#CAC1FF" stroke-width="8.63773" stroke-linecap="round"/>
<path d="M473.182 331.179C494.082 331.179 586.704 331.178 605.862 331.179" stroke="url(#paint2_linear_10_597)" stroke-width="8.63773" stroke-linecap="round"/>
<path d="M473.182 417.765C494.082 417.765 586.704 417.764 605.862 417.765" stroke="url(#paint3_linear_10_597)" stroke-width="8.63773" stroke-linecap="round"/>
<path d="M473.182 459.592C494.082 459.592 586.704 459.591 605.862 459.592" stroke="#C1CBFF" stroke-width="8.63773" stroke-linecap="round"/>
<path d="M473.182 546.047C494.082 546.047 586.704 546.047 605.862 546.047" stroke="#C1DAFF" stroke-width="8.63773" stroke-linecap="round"/>
<path d="M473.182 589.623C494.082 589.623 586.704 589.623 605.862 589.623" stroke="url(#paint4_linear_10_597)" stroke-width="8.63773" stroke-linecap="round"/>
<path d="M473.182 675.358C494.082 675.358 586.704 675.357 605.862 675.358" stroke="url(#paint5_linear_10_597)" stroke-width="8.63773" stroke-linecap="round"/>
<path d="M473.182 718.036C494.082 718.036 586.704 718.036 605.862 718.036" stroke="#BEE6EF" stroke-width="8.63773" stroke-linecap="round"/>
<path d="M473.182 804.758C494.082 804.758 586.704 804.757 605.862 804.758" stroke="#A2E3DC" stroke-width="8.63773" stroke-linecap="round"/>
<path d="M473.182 848.334C494.082 848.334 586.704 848.334 605.862 848.334" stroke="url(#paint6_linear_10_597)" stroke-width="8.63773" stroke-linecap="round"/>
<path d="M473.182 934.069C494.082 934.069 586.704 934.069 605.862 934.069" stroke="url(#paint7_linear_10_597)" stroke-width="8.63773" stroke-linecap="round"/>
<path d="M473.182 976.748C494.082 976.748 586.704 976.747 605.862 976.748" stroke="#A2E3C4" stroke-width="8.63773" stroke-linecap="round"/>
<path d="M872.079 28.8915C892.979 28.8915 985.601 28.891 1004.76 28.8914" stroke="#E4C1FF" stroke-width="8.63773" stroke-linecap="round"/>
<path d="M872.079 72.4676C892.979 72.4676 985.601 72.4671 1004.76 72.4675" stroke="url(#paint8_linear_10_597)" stroke-width="8.63773" stroke-linecap="round"/>
<path d="M872.079 158.202C892.979 158.202 985.601 158.202 1004.76 158.202" stroke="url(#paint9_linear_10_597)" stroke-width="8.63773" stroke-linecap="round"/>
<path d="M871.728 200.881C892.628 200.881 985.25 200.881 1004.41 200.881" stroke="url(#paint10_linear_10_597)" stroke-width="8.63773" stroke-linecap="round"/>
<path d="M871.728 287.603C892.628 287.603 985.25 287.602 1004.41 287.603" stroke="url(#paint11_linear_10_597)" stroke-width="8.63773" stroke-linecap="round"/>
<path d="M871.728 331.179C892.628 331.179 985.25 331.179 1004.41 331.179" stroke="url(#paint12_linear_10_597)" stroke-width="8.63773" stroke-linecap="round"/>
<path d="M871.728 417.765C892.628 417.765 985.25 417.765 1004.41 417.765" stroke="url(#paint13_linear_10_597)" stroke-width="8.63773" stroke-linecap="round"/>
<path d="M871.728 459.592C892.628 459.592 985.25 459.591 1004.41 459.592" stroke="#C1CBFF" stroke-width="8.63773" stroke-linecap="round"/>
<path d="M871.728 546.048C892.628 546.048 985.25 546.047 1004.41 546.048" stroke="#C1DAFF" stroke-width="8.63773" stroke-linecap="round"/>
<path d="M871.728 589.624C892.628 589.624 985.25 589.623 1004.41 589.623" stroke="url(#paint14_linear_10_597)" stroke-width="8.63773" stroke-linecap="round"/>
<path d="M871.728 675.358C892.628 675.358 985.25 675.358 1004.41 675.358" stroke="url(#paint15_linear_10_597)" stroke-width="8.63773" stroke-linecap="round"/>
<path d="M871.728 718.037C892.628 718.037 985.25 718.036 1004.41 718.037" stroke="url(#paint16_linear_10_597)" stroke-width="8.63773" stroke-linecap="round"/>
<path d="M871.728 804.758C892.628 804.758 985.25 804.758 1004.41 804.758" stroke="url(#paint17_linear_10_597)" stroke-width="8.63773" stroke-linecap="round"/>
<path d="M871.728 848.334C892.628 848.334 985.25 848.334 1004.41 848.334" stroke="url(#paint18_linear_10_597)" stroke-width="8.63773" stroke-linecap="round"/>
<path d="M871.728 934.069C892.628 934.069 985.25 934.069 1004.41 934.069" stroke="url(#paint19_linear_10_597)" stroke-width="8.63773" stroke-linecap="round"/>
<path d="M871.728 976.748C892.628 976.748 985.25 976.747 1004.41 976.748" stroke="#A2E3C4" stroke-width="8.63773" stroke-linecap="round"/>
<path d="M1271.71 28.8915C1292.61 28.8915 1385.23 28.891 1404.39 28.8914" stroke="#E4C1FF" stroke-width="8.63773" stroke-linecap="round"/>
<path d="M1271.71 72.4676C1292.61 72.4676 1385.23 72.4671 1404.39 72.4675" stroke="url(#paint20_linear_10_597)" stroke-width="8.63773" stroke-linecap="round"/>
<path d="M1271.71 158.202C1292.61 158.202 1385.23 158.202 1404.39 158.202" stroke="url(#paint21_linear_10_597)" stroke-width="8.63773" stroke-linecap="round"/>
<path d="M1271.35 200.881C1292.25 200.881 1384.88 200.881 1404.03 200.881" stroke="url(#paint22_linear_10_597)" stroke-width="8.63773" stroke-linecap="round"/>
<path d="M1271.35 287.603C1292.25 287.603 1384.88 287.602 1404.03 287.603" stroke="url(#paint23_linear_10_597)" stroke-width="8.63773" stroke-linecap="round"/>
<path d="M1271.35 331.179C1292.25 331.179 1384.88 331.179 1404.03 331.179" stroke="url(#paint24_linear_10_597)" stroke-width="8.63773" stroke-linecap="round"/>
<path d="M1271.35 417.765C1292.25 417.765 1384.88 417.765 1404.03 417.765" stroke="url(#paint25_linear_10_597)" stroke-width="8.63773" stroke-linecap="round"/>
<path d="M1271.35 459.592C1292.25 459.592 1384.88 459.591 1404.03 459.592" stroke="url(#paint26_linear_10_597)" stroke-width="8.63773" stroke-linecap="round"/>
<path d="M1271.35 546.048C1292.25 546.048 1384.88 546.047 1404.03 546.048" stroke="url(#paint27_linear_10_597)" stroke-width="8.63773" stroke-linecap="round"/>
<path d="M1271.35 589.624C1292.25 589.624 1384.88 589.623 1404.03 589.623" stroke="url(#paint28_linear_10_597)" stroke-width="8.63773" stroke-linecap="round"/>
<path d="M1271.35 675.358C1292.25 675.358 1384.88 675.358 1404.03 675.358" stroke="url(#paint29_linear_10_597)" stroke-width="8.63773" stroke-linecap="round"/>
<path d="M1271.35 718.037C1292.25 718.037 1384.88 718.036 1404.03 718.037" stroke="url(#paint30_linear_10_597)" stroke-width="8.63773" stroke-linecap="round"/>
<path d="M1271.35 804.758C1292.25 804.758 1384.88 804.758 1404.03 804.758" stroke="url(#paint31_linear_10_597)" stroke-width="8.63773" stroke-linecap="round"/>
<path d="M1271.35 848.334C1292.25 848.334 1384.88 848.334 1404.03 848.334" stroke="url(#paint32_linear_10_597)" stroke-width="8.63773" stroke-linecap="round"/>
<path d="M1271.35 934.069C1292.25 934.069 1384.88 934.069 1404.03 934.069" stroke="url(#paint33_linear_10_597)" stroke-width="8.63773" stroke-linecap="round"/>
<path d="M1271.35 976.748C1292.25 976.748 1384.88 976.747 1404.03 976.748" stroke="#A2E3C4" stroke-width="8.63773" stroke-linecap="round"/>
<path d="M4.32153 72.4671C28.0935 72.4671 32.6452 72.4667 54.4357 72.4671" stroke="#E4C1FF" stroke-width="8.63773" stroke-linecap="round"/>
<path d="M54.4357 200.881C32.6453 200.881 28.0935 200.881 4.32153 200.881" stroke="#D8C1FF" stroke-width="8.63773" stroke-linecap="round"/>
<path d="M54.4357 158.202C32.6453 158.202 28.0935 158.202 4.32153 158.202" stroke="#D8C1FF" stroke-width="8.63773" stroke-linecap="round"/>
<path d="M1404.03 804.758C1427.81 804.758 1432.36 804.758 1454.15 804.758" stroke="#A2E3DC" stroke-width="8.63773" stroke-linecap="round"/>
<path d="M1404.03 848.334C1427.81 848.334 1432.36 848.333 1454.15 848.334" stroke="#A2E3DC" stroke-width="8.63773" stroke-linecap="round"/>
<path d="M1454.15 976.748C1432.36 976.748 1427.81 976.748 1404.03 976.748" stroke="#A2E3C4" stroke-width="8.63773" stroke-linecap="round"/>
<path d="M1454.15 934.069C1432.36 934.069 1427.81 934.069 1404.03 934.069" stroke="#A2E3C4" stroke-width="8.63773" stroke-linecap="round"/>
<path d="M1404.03 546.047C1427.81 546.047 1432.36 546.047 1454.15 546.047" stroke="#C1DAFF" stroke-width="8.63773" stroke-linecap="round"/>
<path d="M1404.03 589.623C1427.81 589.623 1432.36 589.623 1454.15 589.623" stroke="#C1DAFF" stroke-width="8.63773" stroke-linecap="round"/>
<path d="M1454.15 718.037C1432.36 718.037 1427.81 718.036 1404.03 718.036" stroke="#BEE6EF" stroke-width="8.63773" stroke-linecap="round"/>
<path d="M1454.15 675.358C1432.36 675.358 1427.81 675.358 1404.03 675.358" stroke="#BEE6EF" stroke-width="8.63773" stroke-linecap="round"/>
<path d="M1404.03 287.602C1427.81 287.602 1432.36 287.602 1454.15 287.602" stroke="#CAC1FF" stroke-width="8.63773" stroke-linecap="round"/>
<path d="M1404.03 331.179C1427.81 331.179 1432.36 331.179 1454.15 331.179" stroke="#CAC1FF" stroke-width="8.63773" stroke-linecap="round"/>
<path d="M1454.15 459.592C1432.36 459.592 1427.81 459.592 1404.03 459.592" stroke="#C1CBFF" stroke-width="8.63773" stroke-linecap="round"/>
<path d="M1454.15 417.764C1432.36 417.765 1427.81 417.764 1404.03 417.764" stroke="#C1CBFF" stroke-width="8.63773" stroke-linecap="round"/>
<path d="M1404.03 28.8912C1427.81 28.8912 1432.36 28.8907 1454.15 28.8912" stroke="#E4C1FF" stroke-width="8.63773" stroke-linecap="round"/>
<path d="M1404.03 72.4671C1427.81 72.4671 1432.36 72.4667 1454.15 72.4671" stroke="#E4C1FF" stroke-width="8.63773" stroke-linecap="round"/>
<path d="M1454.15 200.881C1432.36 200.881 1427.81 200.881 1404.03 200.881" stroke="#D8C1FF" stroke-width="8.63773" stroke-linecap="round"/>
<path d="M1454.15 158.202C1432.36 158.202 1427.81 158.202 1404.03 158.202" stroke="#D8C1FF" stroke-width="8.63773" stroke-linecap="round"/>
<path d="M606.213 287.602C732.162 287.602 756.278 72.4664 871.728 72.4669" stroke="#CAC1FF" stroke-width="8.63773" stroke-linecap="round"/>
<path d="M606.213 331.178C721.663 331.178 745.779 331.204 871.728 331.204" stroke="#CAC1FF" stroke-width="8.63773" stroke-linecap="round"/>
<path d="M871.728 459.592C756.278 459.592 732.162 459.592 606.213 459.592" stroke="#C1CBFF" stroke-width="8.63773" stroke-linecap="round"/>
<path d="M871.728 200.881C745.779 200.881 721.663 417.765 606.213 417.765" stroke="#C1CBFF" stroke-width="8.63773" stroke-linecap="round"/>
<path d="M606.213 28.8912C732.162 28.8912 756.278 28.8907 871.728 28.8912" stroke="#E4C1FF" stroke-width="8.63773" stroke-linecap="round"/>
<path d="M606.213 72.4669C721.663 72.4669 745.779 287.602 871.728 287.602" stroke="#E4C1FF" stroke-width="8.63773" stroke-linecap="round"/>
<path d="M871.728 417.765C756.278 417.765 732.162 200.881 606.213 200.881" stroke="#D8C1FF" stroke-width="8.63773" stroke-linecap="round"/>
<path d="M871.728 158.185C745.779 158.185 721.663 158.202 606.213 158.202" stroke="#D8C1FF" stroke-width="8.63773" stroke-linecap="round"/>
<path d="M606.213 804.758C732.162 804.758 756.278 589.623 871.728 589.624" stroke="#A2E3DC" stroke-width="8.63773" stroke-linecap="round"/>
<path d="M606.213 848.334C721.663 848.334 745.779 848.369 871.728 848.369" stroke="#A2E3DC" stroke-width="8.63773" stroke-linecap="round"/>
<path d="M871.728 976.747C756.278 976.748 732.162 976.747 606.213 976.747" stroke="#A2E3C4" stroke-width="8.63773" stroke-linecap="round"/>
<path d="M871.728 718.036C745.779 718.036 721.663 934.069 606.213 934.069" stroke="#A2E3C4" stroke-width="8.63773" stroke-linecap="round"/>
<path d="M606.213 546.047C732.162 546.047 756.278 546.046 871.728 546.047" stroke="#C1DAFF" stroke-width="8.63773" stroke-linecap="round"/>
<path d="M606.213 589.622C721.663 589.622 745.779 804.758 871.728 804.758" stroke="#C1DAFF" stroke-width="8.63773" stroke-linecap="round"/>
<path d="M871.728 934.069C756.278 934.07 732.162 718.036 606.213 718.036" stroke="#BEE6EF" stroke-width="8.63773" stroke-linecap="round"/>
<path d="M871.728 675.334C745.779 675.334 721.663 675.358 606.213 675.358" stroke="#BEE6EF" stroke-width="8.63773" stroke-linecap="round"/>
<path d="M1005.3 331.178C1112.65 331.178 1155.36 804.759 1270.81 804.758" stroke="#CAC1FF" stroke-width="8.63773" stroke-linecap="round"/>
<path d="M1005.3 287.603C1120.75 287.603 1144.86 287.555 1270.81 287.555" stroke="#CAC1FF" stroke-width="8.63773" stroke-linecap="round"/>
<path d="M1270.81 417.765C1155.36 417.765 1131.24 417.764 1005.3 417.764" stroke="#C1CBFF" stroke-width="8.63773" stroke-linecap="round"/>
<path d="M1270.81 934.069C1144.86 934.069 1120.75 459.592 1005.3 459.592" stroke="#C1CBFF" stroke-width="8.63773" stroke-linecap="round"/>
<path d="M1005.3 28.8912C1131.24 28.8912 1155.36 28.8907 1270.81 28.8912" stroke="#E4C1FF" stroke-width="8.63773" stroke-linecap="round"/>
<path d="M1005.3 72.4669C1120.75 72.4669 1144.86 546.047 1270.81 546.047" stroke="#E4C1FF" stroke-width="8.63773" stroke-linecap="round"/>
<path d="M1270.81 675.358C1155.36 675.359 1116.82 200.881 1005.3 200.881" stroke="#D8C1FF" stroke-width="8.63773" stroke-linecap="round"/>
<path d="M1272.11 158.186C1146.16 158.186 1120.75 158.202 1005.3 158.202" stroke="#D8C1FF" stroke-width="8.63773" stroke-linecap="round"/>
<path d="M1005.3 804.758C1119.99 804.758 1153.84 331.178 1270.81 331.179" stroke="#A2E3DC" stroke-width="8.63773" stroke-linecap="round"/>
<path d="M1005.3 848.334C1120.75 848.334 1145.51 848.359 1271.45 848.359" stroke="#A2E3DC" stroke-width="8.63773" stroke-linecap="round"/>
<path d="M1270.81 976.747C1155.36 976.748 1131.24 976.747 1005.3 976.747" stroke="#A2E3C4" stroke-width="8.63773" stroke-linecap="round"/>
<path d="M1270.81 459.592C1144.86 459.592 1120.75 934.069 1005.3 934.069" stroke="#A2E3C4" stroke-width="8.63773" stroke-linecap="round"/>
<path d="M1005.3 589.624C1131.24 589.624 1155.36 589.623 1270.81 589.624" stroke="#C1DAFF" stroke-width="8.63773" stroke-linecap="round"/>
<path d="M1005.3 546.047C1120.75 546.047 1144.86 72.4676 1270.81 72.4676" stroke="#C1DAFF" stroke-width="8.63773" stroke-linecap="round"/>
<path d="M1270.81 200.881C1155.36 200.88 1113.48 675.358 1005.3 675.358" stroke="#BEE6EF" stroke-width="8.63773" stroke-linecap="round"/>
<path d="M1271.29 718.043C1145.35 718.043 1119.73 718.037 1004.28 718.037" stroke="#BEE6EF" stroke-width="8.63773" stroke-linecap="round"/>
<svg overflow="visible" x="181.051" y="50.7797" > <path id="neuron0"  d="m 0 0 c 0 27.6142 -22.385 50.0003 -50 50.0003 c -27.614 0 -49.9997 -22.3861 -49.9997 -50.0003 c 0 -27.6143 22.3857 -50 49.9997 -50 c 27.615 0 50 22.3857 50 50 z" fill="url(#paint34_radial_10_597)"/> </svg>
<svg overflow="visible" x="181.051" y="180.034" > <path id="neuron1"  d="m0 0  c 0 27.615 -22.385 50 -50 50 c -27.614 0 -49.9997 -22.385 -49.9997 -50 c 0 -27.614 22.3857 -50 49.9997 -50 c 27.615 0 50 22.386 50 50 z" fill="url(#paint35_radial_10_597)"/>   </svg>
<svg overflow="visible" x="181.051" y="309.29 " > <path id="neuron2"  d="m0 0  c 0 27.614 -22.385 50 -50 50 c -27.614 0 -49.9997 -22.386 -49.9997 -50 c 0 -27.615 22.3857 -50 49.9997 -50 c 27.615 0 50 22.385 50 50 z" fill="url(#paint36_radial_10_597)"/>          </svg>
<svg overflow="visible" x="181.051" y="438.544" > <path id="neuron3"  d="m0 0  c 0 27.615 -22.385 50 -50 50 c -27.614 0 -49.9997 -22.385 -49.9997 -50 c 0 -27.614 22.3857 -50 49.9997 -50 c 27.615 0 50 22.386 50 50 z" fill="url(#paint37_radial_10_597)"/>   </svg>

<svg> <path id="neuron4"  d="m 181.051 567.969 c 0 27.614 -22.385 50 -50 50 c -27.614 0 -49.9997 -22.386 -49.9997 -50 c 0 -27.615 22.3857 -50 49.9997 -50 c 27.615 0 50 22.385 50 50 z" fill="url(#paint38_radial_10_597)"/> </svg>
<svg> <path id="neuron5"  d="M181.051 697.224C181.051 724.838 158.666 747.224 131.051 747.224C103.437 747.224 81.0513 724.838 81.0513 697.224C81.0513 669.609 103.437 647.224 131.051 647.224C158.666 647.224 181.051 669.609 181.051 697.224Z" fill="url(#paint39_radial_10_597)"/> </svg>
<svg> <path id="neuron6"  d="M181.051 826.253C181.051 853.868 158.666 876.253 131.051 876.253C103.437 876.253 81.0513 853.868 81.0513 826.253C81.0513 798.639 103.437 776.253 131.051 776.253C158.666 776.253 181.051 798.639 181.051 826.253Z" fill="url(#paint40_radial_10_597)"/> </svg>
<svg> <path id="neuron7"  d="M181.051 955.283C181.051 982.898 158.666 1005.28 131.051 1005.28C103.437 1005.28 81.0513 982.898 81.0513 955.283C81.0513 927.669 103.437 905.283 131.051 905.283C158.666 905.283 181.051 927.669 181.051 955.283Z" fill="url(#paint41_radial_10_597)"/> </svg>
<svg> <path id="neuron8"  d="M589.698 50.7797C589.698 78.3939 567.312 100.78 539.698 100.78C512.083 100.78 489.698 78.3939 489.698 50.7797C489.698 23.1654 512.083 0.779663 539.698 0.779663C567.312 0.779663 589.698 23.1654 589.698 50.7797Z" fill="url(#paint42_radial_10_597)"/> </svg>
<svg> <path id="neuron9"  d="M589.698 180.034C589.698 207.649 567.312 230.034 539.698 230.034C512.083 230.034 489.698 207.649 489.698 180.034C489.698 152.42 512.083 130.034 539.698 130.034C567.312 130.034 589.698 152.42 589.698 180.034Z" fill="url(#paint43_radial_10_597)"/>   </svg>
<svg> <path id="neuron10" d="M589.698 309.29C589.698 336.904 567.312 359.29 539.698 359.29C512.083 359.29 489.698 336.904 489.698 309.29C489.698 281.675 512.083 259.29 539.698 259.29C567.312 259.29 589.698 281.675 589.698 309.29Z" fill="url(#paint44_radial_10_597)"/>          </svg>
<svg> <path id="neuron11" d="M589.698 438.544C589.698 466.159 567.312 488.544 539.698 488.544C512.083 488.544 489.698 466.159 489.698 438.544C489.698 410.93 512.083 388.544 539.698 388.544C567.312 388.544 589.698 410.93 589.698 438.544Z" fill="url(#paint45_radial_10_597)"/>   </svg>
<svg> <path id="neuron12" d="M589.698 567.969C589.698 595.583 567.312 617.969 539.698 617.969C512.083 617.969 489.698 595.583 489.698 567.969C489.698 540.354 512.083 517.969 539.698 517.969C567.312 517.969 589.698 540.354 589.698 567.969Z" fill="url(#paint46_radial_10_597)"/> </svg>
<svg> <path id="neuron13" d="M589.698 697.224C589.698 724.838 567.312 747.224 539.698 747.224C512.083 747.224 489.698 724.838 489.698 697.224C489.698 669.609 512.083 647.224 539.698 647.224C567.312 647.224 589.698 669.609 589.698 697.224Z" fill="url(#paint47_radial_10_597)"/> </svg>
<svg> <path id="neuron14" d="M589.698 826.253C589.698 853.868 567.312 876.253 539.698 876.253C512.083 876.253 489.698 853.868 489.698 826.253C489.698 798.639 512.083 776.253 539.698 776.253C567.312 776.253 589.698 798.639 589.698 826.253Z" fill="url(#paint48_radial_10_597)"/> </svg>
<svg> <path id="neuron15" d="M589.698 955.283C589.698 982.898 567.312 1005.28 539.698 1005.28C512.083 1005.28 489.698 982.898 489.698 955.283C489.698 927.669 512.083 905.283 539.698 905.283C567.312 905.283 589.698 927.669 589.698 955.283Z" fill="url(#paint49_radial_10_597)"/> </svg>
<svg> <path id="neuron16" d="M988.512 50.7797C988.512 78.3939 966.126 100.78 938.512 100.78C910.897 100.78 888.512 78.3939 888.512 50.7797C888.512 23.1654 910.897 0.779663 938.512 0.779663C966.126 0.779663 988.512 23.1654 988.512 50.7797Z" fill="url(#paint50_radial_10_597)"/> </svg>
<svg> <path id="neuron17" d="M988.512 180.034C988.512 207.649 966.126 230.034 938.512 230.034C910.897 230.034 888.512 207.649 888.512 180.034C888.512 152.42 910.897 130.034 938.512 130.034C966.126 130.034 988.512 152.42 988.512 180.034Z" fill="url(#paint51_radial_10_597)"/>   </svg>
<svg> <path id="neuron18" d="M988.512 309.29C988.512 336.904 966.126 359.29 938.512 359.29C910.897 359.29 888.512 336.904 888.512 309.29C888.512 281.675 910.897 259.29 938.512 259.29C966.126 259.29 988.512 281.675 988.512 309.29Z" fill="url(#paint52_radial_10_597)"/>          </svg>
<svg> <path id="neuron19" d="M988.512 438.544C988.512 466.159 966.126 488.544 938.512 488.544C910.897 488.544 888.512 466.159 888.512 438.544C888.512 410.93 910.897 388.544 938.512 388.544C966.126 388.544 988.512 410.93 988.512 438.544Z" fill="url(#paint53_radial_10_597)"/>   </svg>
<svg> <path id="neuron20" d="M988.512 567.969C988.512 595.583 966.126 617.969 938.512 617.969C910.897 617.969 888.512 595.583 888.512 567.969C888.512 540.354 910.897 517.969 938.512 517.969C966.126 517.969 988.512 540.354 988.512 567.969Z" fill="url(#paint54_radial_10_597)"/> </svg>
<svg> <path id="neuron21" d="M988.512 697.224C988.512 724.838 966.126 747.224 938.512 747.224C910.897 747.224 888.512 724.838 888.512 697.224C888.512 669.609 910.897 647.224 938.512 647.224C966.126 647.224 988.512 669.609 988.512 697.224Z" fill="url(#paint55_radial_10_597)"/> </svg>
<svg> <path id="neuron22" d="M988.512 826.253C988.512 853.868 966.126 876.253 938.512 876.253C910.897 876.253 888.512 853.868 888.512 826.253C888.512 798.639 910.897 776.253 938.512 776.253C966.126 776.253 988.512 798.639 988.512 826.253Z" fill="url(#paint56_radial_10_597)"/> </svg>
<svg> <path id="neuron23" d="M988.512 955.283C988.512 982.898 966.126 1005.28 938.512 1005.28C910.897 1005.28 888.512 982.898 888.512 955.283C888.512 927.669 910.897 905.283 938.512 905.283C966.126 905.283 988.512 927.669 988.512 955.283Z" fill="url(#paint57_radial_10_597)"/> </svg>
<svg> <path id="neuron24" d="M1387.87 50.7797C1387.87 78.3939 1365.48 100.78 1337.87 100.78C1310.26 100.78 1287.87 78.3939 1287.87 50.7797C1287.87 23.1654 1310.26 0.779663 1337.87 0.779663C1365.48 0.779663 1387.87 23.1654 1387.87 50.7797Z" fill="url(#paint58_radial_10_597)"/> </svg>
<svg> <path id="neuron25" d="M1387.87 180.034C1387.87 207.649 1365.48 230.034 1337.87 230.034C1310.26 230.034 1287.87 207.649 1287.87 180.034C1287.87 152.42 1310.26 130.034 1337.87 130.034C1365.48 130.034 1387.87 152.42 1387.87 180.034Z" fill="url(#paint59_radial_10_597)"/>   </svg>
<svg> <path id="neuron26" d="M1387.87 309.29C1387.87 336.904 1365.48 359.29 1337.87 359.29C1310.26 359.29 1287.87 336.904 1287.87 309.29C1287.87 281.675 1310.26 259.29 1337.87 259.29C1365.48 259.29 1387.87 281.675 1387.87 309.29Z" fill="url(#paint60_radial_10_597)"/>          </svg>
<svg> <path id="neuron27" d="M1387.87 438.544C1387.87 466.159 1365.48 488.544 1337.87 488.544C1310.26 488.544 1287.87 466.159 1287.87 438.544C1287.87 410.93 1310.26 388.544 1337.87 388.544C1365.48 388.544 1387.87 410.93 1387.87 438.544Z" fill="url(#paint61_radial_10_597)"/>   </svg>
<svg> <path id="neuron28" d="M1387.87 567.969C1387.87 595.583 1365.48 617.969 1337.87 617.969C1310.26 617.969 1287.87 595.583 1287.87 567.969C1287.87 540.354 1310.26 517.969 1337.87 517.969C1365.48 517.969 1387.87 540.354 1387.87 567.969Z" fill="url(#paint62_radial_10_597)"/> </svg>
<svg> <path id="neuron29" d="M1387.87 697.224C1387.87 724.838 1365.48 747.224 1337.87 747.224C1310.26 747.224 1287.87 724.838 1287.87 697.224C1287.87 669.609 1310.26 647.224 1337.87 647.224C1365.48 647.224 1387.87 669.609 1387.87 697.224Z" fill="url(#paint63_radial_10_597)"/> </svg>
<svg> <path id="neuron30" d="M1387.87 826.253C1387.87 853.868 1365.48 876.253 1337.87 876.253C1310.26 876.253 1287.87 853.868 1287.87 826.253C1287.87 798.639 1310.26 776.253 1337.87 776.253C1365.48 776.253 1387.87 798.639 1387.87 826.253Z" fill="url(#paint64_radial_10_597)"/> </svg>
<!-- <svg> <path id="neuron31" d="M1387.87 955.283C1387.87 982.898 1365.48 1005.28 1337.87 1005.28C1310.26 1005.28 1287.87 982.898 1287.87 955.283C1287.87 927.669 1310.26 905.283 1337.87 905.283C1365.48 905.283 1387.87 927.669 1387.87 955.283Z" fill="url(#paint65_radial_10_597)"/> </svg> -->
<svg x="1387.87" y="955.283" overflow="visible"> <path id="neuron31" d="m 0 0 c 0 27.615 -22.39 49.997 -50 49.997 c -27.61 0 -50 -22.382 -50 -49.997 c 0 -27.614 22.39 -50 50 -50 c 27.61 0 50 22.386 50 50 z" fill="url(#paint65_radial_10_597)"/> </svg>
<defs>
<linearGradient id="paint0_linear_10_597" x1="606.213" y1="72.4669" x2="473.533" y2="72.4672" gradientUnits="userSpaceOnUse">
<stop stop-color="#E4C1FF"/>
<stop offset="1" stop-color="#D8C1FF"/>
</linearGradient>
<linearGradient id="paint1_linear_10_597" x1="606.213" y1="158.201" x2="473.533" y2="158.202" gradientUnits="userSpaceOnUse">
<stop stop-color="#D8C1FF"/>
<stop offset="1" stop-color="#E4C1FF"/>
</linearGradient>
<linearGradient id="paint2_linear_10_597" x1="605.862" y1="331.178" x2="473.182" y2="331.179" gradientUnits="userSpaceOnUse">
<stop stop-color="#CAC1FF"/>
<stop offset="1" stop-color="#C1CBFF"/>
</linearGradient>
<linearGradient id="paint3_linear_10_597" x1="605.862" y1="417.764" x2="473.182" y2="417.765" gradientUnits="userSpaceOnUse">
<stop stop-color="#C1CBFF"/>
<stop offset="1" stop-color="#CAC1FF"/>
</linearGradient>
<linearGradient id="paint4_linear_10_597" x1="605.862" y1="589.623" x2="473.182" y2="589.623" gradientUnits="userSpaceOnUse">
<stop stop-color="#C1DAFF"/>
<stop offset="1" stop-color="#BEE6EF"/>
</linearGradient>
<linearGradient id="paint5_linear_10_597" x1="605.862" y1="675.357" x2="473.182" y2="675.358" gradientUnits="userSpaceOnUse">
<stop stop-color="#BEE6EF"/>
<stop offset="1" stop-color="#C1DAFF"/>
</linearGradient>
<linearGradient id="paint6_linear_10_597" x1="605.862" y1="848.334" x2="473.182" y2="848.334" gradientUnits="userSpaceOnUse">
<stop stop-color="#A2E3DC"/>
<stop offset="1" stop-color="#A2E3C4"/>
</linearGradient>
<linearGradient id="paint7_linear_10_597" x1="605.862" y1="934.069" x2="473.182" y2="934.069" gradientUnits="userSpaceOnUse">
<stop stop-color="#A2E3C4"/>
<stop offset="1" stop-color="#A2E3DC"/>
</linearGradient>
<linearGradient id="paint8_linear_10_597" x1="1004.76" y1="72.4671" x2="872.079" y2="72.4673" gradientUnits="userSpaceOnUse">
<stop stop-color="#E4C1FF"/>
<stop offset="1" stop-color="#CAC1FF"/>
</linearGradient>
<linearGradient id="paint9_linear_10_597" x1="1004.76" y1="158.202" x2="872.079" y2="158.202" gradientUnits="userSpaceOnUse">
<stop stop-color="#D8C1FF"/>
<stop offset="1" stop-color="#D8C1FF"/>
</linearGradient>
<linearGradient id="paint10_linear_10_597" x1="1004.41" y1="200.881" x2="871.728" y2="200.881" gradientUnits="userSpaceOnUse">
<stop stop-color="#D8C1FF"/>
<stop offset="1" stop-color="#C1CBFF"/>
</linearGradient>
<linearGradient id="paint11_linear_10_597" x1="1004.41" y1="287.602" x2="871.728" y2="287.602" gradientUnits="userSpaceOnUse">
<stop stop-color="#CAC1FF"/>
<stop offset="1" stop-color="#E4C1FF"/>
</linearGradient>
<linearGradient id="paint12_linear_10_597" x1="1004.41" y1="331.179" x2="871.728" y2="331.179" gradientUnits="userSpaceOnUse">
<stop stop-color="#CAC1FF"/>
<stop offset="1" stop-color="#CAC1FF"/>
</linearGradient>
<linearGradient id="paint13_linear_10_597" x1="1004.41" y1="417.765" x2="871.728" y2="417.765" gradientUnits="userSpaceOnUse">
<stop stop-color="#C1CBFF"/>
<stop offset="1" stop-color="#D8C1FF"/>
</linearGradient>
<linearGradient id="paint14_linear_10_597" x1="1004.41" y1="589.623" x2="871.728" y2="589.623" gradientUnits="userSpaceOnUse">
<stop stop-color="#C1DAFF"/>
<stop offset="1" stop-color="#A2E3DC"/>
</linearGradient>
<linearGradient id="paint15_linear_10_597" x1="1004.41" y1="675.358" x2="871.728" y2="675.358" gradientUnits="userSpaceOnUse">
<stop stop-color="#BEE6EF"/>
<stop offset="1" stop-color="#BEE6EF"/>
</linearGradient>
<linearGradient id="paint16_linear_10_597" x1="1004.41" y1="718.036" x2="871.728" y2="718.036" gradientUnits="userSpaceOnUse">
<stop stop-color="#BEE6EF"/>
<stop offset="1" stop-color="#A2E3C4"/>
</linearGradient>
<linearGradient id="paint17_linear_10_597" x1="1004.41" y1="804.758" x2="871.728" y2="804.758" gradientUnits="userSpaceOnUse">
<stop stop-color="#A2E3DC"/>
<stop offset="1" stop-color="#C1DAFF"/>
</linearGradient>
<linearGradient id="paint18_linear_10_597" x1="1004.41" y1="848.334" x2="871.728" y2="848.334" gradientUnits="userSpaceOnUse">
<stop stop-color="#A2E3DC"/>
<stop offset="1" stop-color="#A2E3DC"/>
</linearGradient>
<linearGradient id="paint19_linear_10_597" x1="1004.41" y1="934.069" x2="871.728" y2="934.069" gradientUnits="userSpaceOnUse">
<stop stop-color="#A2E3C4"/>
<stop offset="1" stop-color="#BEE6EF"/>
</linearGradient>
<linearGradient id="paint20_linear_10_597" x1="1404.39" y1="72.4671" x2="1271.71" y2="72.4673" gradientUnits="userSpaceOnUse">
<stop stop-color="#E4C1FF"/>
<stop offset="1" stop-color="#C1DAFF"/>
</linearGradient>
<linearGradient id="paint21_linear_10_597" x1="1404.39" y1="158.202" x2="1271.71" y2="158.202" gradientUnits="userSpaceOnUse">
<stop stop-color="#D8C1FF"/>
<stop offset="1" stop-color="#D8C1FF"/>
</linearGradient>
<linearGradient id="paint22_linear_10_597" x1="1404.03" y1="200.881" x2="1271.35" y2="200.881" gradientUnits="userSpaceOnUse">
<stop stop-color="#D8C1FF"/>
<stop offset="1" stop-color="#BEE6EF"/>
</linearGradient>
<linearGradient id="paint23_linear_10_597" x1="1404.03" y1="287.602" x2="1271.35" y2="287.602" gradientUnits="userSpaceOnUse">
<stop stop-color="#CAC1FF"/>
<stop offset="1" stop-color="#CAC1FF"/>
</linearGradient>
<linearGradient id="paint24_linear_10_597" x1="1404.03" y1="331.179" x2="1271.35" y2="331.179" gradientUnits="userSpaceOnUse">
<stop stop-color="#CAC1FF"/>
<stop offset="1" stop-color="#A2E3DC"/>
</linearGradient>
<linearGradient id="paint25_linear_10_597" x1="1404.03" y1="417.765" x2="1271.35" y2="417.765" gradientUnits="userSpaceOnUse">
<stop stop-color="#C1CBFF"/>
<stop offset="1" stop-color="#C1CBFF"/>
</linearGradient>
<linearGradient id="paint26_linear_10_597" x1="1404.03" y1="459.591" x2="1271.35" y2="459.592" gradientUnits="userSpaceOnUse">
<stop stop-color="#C1CBFF"/>
<stop offset="1" stop-color="#A2E3C4"/>
</linearGradient>
<linearGradient id="paint27_linear_10_597" x1="1404.03" y1="546.047" x2="1271.35" y2="546.047" gradientUnits="userSpaceOnUse">
<stop stop-color="#C1DAFF"/>
<stop offset="1" stop-color="#E4C1FF"/>
</linearGradient>
<linearGradient id="paint28_linear_10_597" x1="1404.03" y1="589.623" x2="1271.35" y2="589.623" gradientUnits="userSpaceOnUse">
<stop stop-color="#C1DAFF"/>
<stop offset="1" stop-color="#C1DAFF"/>
</linearGradient>
<linearGradient id="paint29_linear_10_597" x1="1404.03" y1="675.358" x2="1271.35" y2="675.358" gradientUnits="userSpaceOnUse">
<stop stop-color="#BEE6EF"/>
<stop offset="1" stop-color="#D8C1FF"/>
</linearGradient>
<linearGradient id="paint30_linear_10_597" x1="1404.03" y1="718.036" x2="1271.35" y2="718.036" gradientUnits="userSpaceOnUse">
<stop stop-color="#BEE6EF"/>
<stop offset="1" stop-color="#BEE6EF"/>
</linearGradient>
<linearGradient id="paint31_linear_10_597" x1="1404.03" y1="804.758" x2="1271.35" y2="804.758" gradientUnits="userSpaceOnUse">
<stop stop-color="#A2E3DC"/>
<stop offset="1" stop-color="#CAC1FF"/>
</linearGradient>
<linearGradient id="paint32_linear_10_597" x1="1404.03" y1="848.334" x2="1271.35" y2="848.334" gradientUnits="userSpaceOnUse">
<stop stop-color="#A2E3DC"/>
<stop offset="1" stop-color="#A2E3DC"/>
</linearGradient>
<linearGradient id="paint33_linear_10_597" x1="1404.03" y1="934.069" x2="1271.35" y2="934.069" gradientUnits="userSpaceOnUse">
<stop stop-color="#A2E3C4"/>
<stop offset="1" stop-color="#C1CBFF"/>
</linearGradient>
<radialGradient id="paint34_radial_10_597" cx="0" cy="0" r="1" gradientUnits="userSpaceOnUse" gradientTransform="translate(181.051 -11.5725) rotate(120.673) scale(160.573)">
<stop stop-color="#EEC8FF"/>
<stop offset="0.569823" stop-color="#A07EFF"/>
<stop offset="1" stop-color="#6255FF"/>
</radialGradient>
<radialGradient id="paint35_radial_10_597" cx="0" cy="0" r="1" gradientUnits="userSpaceOnUse" gradientTransform="translate(181.051 117.682) rotate(120.673) scale(160.573)">
<stop stop-color="#EEC8FF"/>
<stop offset="0.569823" stop-color="#A07EFF"/>
<stop offset="1" stop-color="#6255FF"/>
</radialGradient>
<radialGradient id="paint36_radial_10_597" cx="0" cy="0" r="1" gradientUnits="userSpaceOnUse" gradientTransform="translate(181.051 246.937) rotate(120.673) scale(160.573)">
<stop stop-color="#EEC8FF"/>
<stop offset="0.569823" stop-color="#A07EFF"/>
<stop offset="1" stop-color="#6255FF"/>
</radialGradient>
<radialGradient id="paint37_radial_10_597" cx="0" cy="0" r="1" gradientUnits="userSpaceOnUse" gradientTransform="translate(181.051 376.192) rotate(120.673) scale(160.573)">
<stop stop-color="#EEC8FF"/>
<stop offset="0.569823" stop-color="#A07EFF"/>
<stop offset="1" stop-color="#6255FF"/>
</radialGradient>
<radialGradient id="paint38_radial_10_597" cx="0" cy="0" r="1" gradientUnits="userSpaceOnUse" gradientTransform="translate(181.051 505.616) rotate(120.673) scale(160.573)">
<stop stop-color="#EEC8FF"/>
<stop offset="0.569823" stop-color="#A07EFF"/>
<stop offset="1" stop-color="#6255FF"/>
</radialGradient>
<radialGradient id="paint39_radial_10_597" cx="0" cy="0" r="1" gradientUnits="userSpaceOnUse" gradientTransform="translate(181.051 634.871) rotate(120.673) scale(160.573)">
<stop stop-color="#EEC8FF"/>
<stop offset="0.569823" stop-color="#A07EFF"/>
<stop offset="1" stop-color="#6255FF"/>
</radialGradient>
<radialGradient id="paint40_radial_10_597" cx="0" cy="0" r="1" gradientUnits="userSpaceOnUse" gradientTransform="translate(181.051 763.901) rotate(120.673) scale(160.573)">
<stop stop-color="#EEC8FF"/>
<stop offset="0.569823" stop-color="#A07EFF"/>
<stop offset="1" stop-color="#6255FF"/>
</radialGradient>
<radialGradient id="paint41_radial_10_597" cx="0" cy="0" r="1" gradientUnits="userSpaceOnUse" gradientTransform="translate(181.051 892.931) rotate(120.673) scale(160.573)">
<stop stop-color="#EEC8FF"/>
<stop offset="0.569823" stop-color="#A07EFF"/>
<stop offset="1" stop-color="#6255FF"/>
</radialGradient>
<radialGradient id="paint42_radial_10_597" cx="0" cy="0" r="1" gradientUnits="userSpaceOnUse" gradientTransform="translate(589.698 -11.5725) rotate(120.673) scale(160.573)">
<stop stop-color="#EEC8FF"/>
<stop offset="0.569823" stop-color="#A07EFF"/>
<stop offset="1" stop-color="#6255FF"/>
</radialGradient>
<radialGradient id="paint43_radial_10_597" cx="0" cy="0" r="1" gradientUnits="userSpaceOnUse" gradientTransform="translate(589.698 117.682) rotate(120.673) scale(160.573)">
<stop stop-color="#EEC8FF"/>
<stop offset="0.569823" stop-color="#A07EFF"/>
<stop offset="1" stop-color="#6255FF"/>
</radialGradient>
<radialGradient id="paint44_radial_10_597" cx="0" cy="0" r="1" gradientUnits="userSpaceOnUse" gradientTransform="translate(589.698 246.937) rotate(120.673) scale(160.573)">
<stop stop-color="#EEC8FF"/>
<stop offset="0.569823" stop-color="#A07EFF"/>
<stop offset="1" stop-color="#6255FF"/>
</radialGradient>
<radialGradient id="paint45_radial_10_597" cx="0" cy="0" r="1" gradientUnits="userSpaceOnUse" gradientTransform="translate(589.698 376.192) rotate(120.673) scale(160.573)">
<stop stop-color="#EEC8FF"/>
<stop offset="0.569823" stop-color="#A07EFF"/>
<stop offset="1" stop-color="#6255FF"/>
</radialGradient>
<radialGradient id="paint46_radial_10_597" cx="0" cy="0" r="1" gradientUnits="userSpaceOnUse" gradientTransform="translate(589.698 505.616) rotate(120.673) scale(160.573)">
<stop stop-color="#EEC8FF"/>
<stop offset="0.569823" stop-color="#A07EFF"/>
<stop offset="1" stop-color="#6255FF"/>
</radialGradient>
<radialGradient id="paint47_radial_10_597" cx="0" cy="0" r="1" gradientUnits="userSpaceOnUse" gradientTransform="translate(589.698 634.871) rotate(120.673) scale(160.573)">
<stop stop-color="#EEC8FF"/>
<stop offset="0.569823" stop-color="#A07EFF"/>
<stop offset="1" stop-color="#6255FF"/>
</radialGradient>
<radialGradient id="paint48_radial_10_597" cx="0" cy="0" r="1" gradientUnits="userSpaceOnUse" gradientTransform="translate(589.698 763.901) rotate(120.673) scale(160.573)">
<stop stop-color="#EEC8FF"/>
<stop offset="0.569823" stop-color="#A07EFF"/>
<stop offset="1" stop-color="#6255FF"/>
</radialGradient>
<radialGradient id="paint49_radial_10_597" cx="0" cy="0" r="1" gradientUnits="userSpaceOnUse" gradientTransform="translate(589.698 892.931) rotate(120.673) scale(160.573)">
<stop stop-color="#EEC8FF"/>
<stop offset="0.569823" stop-color="#A07EFF"/>
<stop offset="1" stop-color="#6255FF"/>
</radialGradient>
<radialGradient id="paint50_radial_10_597" cx="0" cy="0" r="1" gradientUnits="userSpaceOnUse" gradientTransform="translate(988.512 -11.5725) rotate(120.673) scale(160.573)">
<stop stop-color="#EEC8FF"/>
<stop offset="0.569823" stop-color="#A07EFF"/>
<stop offset="1" stop-color="#6255FF"/>
</radialGradient>
<radialGradient id="paint51_radial_10_597" cx="0" cy="0" r="1" gradientUnits="userSpaceOnUse" gradientTransform="translate(988.512 117.682) rotate(120.673) scale(160.573)">
<stop stop-color="#EEC8FF"/>
<stop offset="0.569823" stop-color="#A07EFF"/>
<stop offset="1" stop-color="#6255FF"/>
</radialGradient>
<radialGradient id="paint52_radial_10_597" cx="0" cy="0" r="1" gradientUnits="userSpaceOnUse" gradientTransform="translate(988.512 246.937) rotate(120.673) scale(160.573)">
<stop stop-color="#EEC8FF"/>
<stop offset="0.569823" stop-color="#A07EFF"/>
<stop offset="1" stop-color="#6255FF"/>
</radialGradient>
<radialGradient id="paint53_radial_10_597" cx="0" cy="0" r="1" gradientUnits="userSpaceOnUse" gradientTransform="translate(988.512 376.192) rotate(120.673) scale(160.573)">
<stop stop-color="#EEC8FF"/>
<stop offset="0.569823" stop-color="#A07EFF"/>
<stop offset="1" stop-color="#6255FF"/>
</radialGradient>
<radialGradient id="paint54_radial_10_597" cx="0" cy="0" r="1" gradientUnits="userSpaceOnUse" gradientTransform="translate(988.512 505.616) rotate(120.673) scale(160.573)">
<stop stop-color="#EEC8FF"/>
<stop offset="0.569823" stop-color="#A07EFF"/>
<stop offset="1" stop-color="#6255FF"/>
</radialGradient>
<radialGradient id="paint55_radial_10_597" cx="0" cy="0" r="1" gradientUnits="userSpaceOnUse" gradientTransform="translate(988.512 634.871) rotate(120.673) scale(160.573)">
<stop stop-color="#EEC8FF"/>
<stop offset="0.569823" stop-color="#A07EFF"/>
<stop offset="1" stop-color="#6255FF"/>
</radialGradient>
<radialGradient id="paint56_radial_10_597" cx="0" cy="0" r="1" gradientUnits="userSpaceOnUse" gradientTransform="translate(988.512 763.901) rotate(120.673) scale(160.573)">
<stop stop-color="#EEC8FF"/>
<stop offset="0.569823" stop-color="#A07EFF"/>
<stop offset="1" stop-color="#6255FF"/>
</radialGradient>
<radialGradient id="paint57_radial_10_597" cx="0" cy="0" r="1" gradientUnits="userSpaceOnUse" gradientTransform="translate(988.512 892.931) rotate(120.673) scale(160.573)">
<stop stop-color="#EEC8FF"/>
<stop offset="0.569823" stop-color="#A07EFF"/>
<stop offset="1" stop-color="#6255FF"/>
</radialGradient>
<radialGradient id="paint58_radial_10_597" cx="0" cy="0" r="1" gradientUnits="userSpaceOnUse" gradientTransform="translate(1387.87 -11.5725) rotate(120.673) scale(160.573)">
<stop stop-color="#EEC8FF"/>
<stop offset="0.569823" stop-color="#A07EFF"/>
<stop offset="1" stop-color="#6255FF"/>
</radialGradient>
<radialGradient id="paint59_radial_10_597" cx="0" cy="0" r="1" gradientUnits="userSpaceOnUse" gradientTransform="translate(1387.87 117.682) rotate(120.673) scale(160.573)">
<stop stop-color="#EEC8FF"/>
<stop offset="0.569823" stop-color="#A07EFF"/>
<stop offset="1" stop-color="#6255FF"/>
</radialGradient>
<radialGradient id="paint60_radial_10_597" cx="0" cy="0" r="1" gradientUnits="userSpaceOnUse" gradientTransform="translate(1387.87 246.937) rotate(120.673) scale(160.573)">
<stop stop-color="#EEC8FF"/>
<stop offset="0.569823" stop-color="#A07EFF"/>
<stop offset="1" stop-color="#6255FF"/>
</radialGradient>
<radialGradient id="paint61_radial_10_597" cx="0" cy="0" r="1" gradientUnits="userSpaceOnUse" gradientTransform="translate(1387.87 376.192) rotate(120.673) scale(160.573)">
<stop stop-color="#EEC8FF"/>
<stop offset="0.569823" stop-color="#A07EFF"/>
<stop offset="1" stop-color="#6255FF"/>
</radialGradient>
<radialGradient id="paint62_radial_10_597" cx="0" cy="0" r="1" gradientUnits="userSpaceOnUse" gradientTransform="translate(1387.87 505.616) rotate(120.673) scale(160.573)">
<stop stop-color="#EEC8FF"/>
<stop offset="0.569823" stop-color="#A07EFF"/>
<stop offset="1" stop-color="#6255FF"/>
</radialGradient>
<radialGradient id="paint63_radial_10_597" cx="0" cy="0" r="1" gradientUnits="userSpaceOnUse" gradientTransform="translate(1387.87 634.871) rotate(120.673) scale(160.573)">
<stop stop-color="#EEC8FF"/>
<stop offset="0.569823" stop-color="#A07EFF"/>
<stop offset="1" stop-color="#6255FF"/>
</radialGradient>
<radialGradient id="paint64_radial_10_597" cx="0" cy="0" r="1" gradientUnits="userSpaceOnUse" gradientTransform="translate(1387.87 763.901) rotate(120.673) scale(160.573)">
<stop stop-color="#EEC8FF"/>
<stop offset="0.569823" stop-color="#A07EFF"/>
<stop offset="1" stop-color="#6255FF"/>
</radialGradient>
<radialGradient id="paint65_radial_10_597" cx="0" cy="0" r="1" gradientUnits="userSpaceOnUse" gradientTransform="translate(1387.87 892.931) rotate(120.673) scale(160.573)">
<stop stop-color="#EEC8FF"/>
<stop offset="0.569823" stop-color="#A07EFF"/>
<stop offset="1" stop-color="#6255FF"/>
</radialGradient>
</defs>
</svg>
























